0
SECTION
2
HEADER
9
$INSUNITS
70
4
9
$ACADVER
1
AC1014
9
$HANDSEED
5
FFFF
0
ENDSEC
0
SECTION
2
TABLES
0
TABLE
2
VPORT
5
8
100
AcDbSymbolTable
0
ENDTAB
0
TABLE
2
LTYPE
5
5
100
AcDbSymbolTable
0
LTYPE
5
14
100
AcDbSymbolTableRecord
100
AcDbLinetypeTableRecord
2
BYBLOCK
70
0
0
LTYPE
5
15
100
AcDbSymbolTableRecord
100
AcDbLinetypeTableRecord
2
BYLAYER
70
0
0
LTYPE
5
16
100
AcDbSymbolTableRecord
100
AcDbLinetypeTableRecord
2
DASHED
70
0
3
Dashed __ __ __ __ __ __ __ __ __ __ __ __ __ _
72
65
73
2
40
0.75
49
0.5
74
0
49
-0.25
74
0
0
ENDTAB
0
TABLE
2
LAYER
5
2
100
AcDbSymbolTable
70
2
0
LAYER
5
50
100
AcDbSymbolTableRecord
100
AcDbLayerTableRecord
2
0
70
0
62
7
6
CONTINUOUS
0
ENDTAB
0
TABLE
2
STYLE
5
3
100
AcDbSymbolTable
70
1
0
STYLE
5
11
100
AcDbSymbolTableRecord
100
AcDbTextStyleTableRecord
2
STANDARD
70
0
0
ENDTAB
0
TABLE
2
VIEW
5
6
100
AcDbSymbolTable
70
0
0
ENDTAB
0
TABLE
2
UCS
5
7
100
AcDbSymbolTable
70
0
0
ENDTAB
0
TABLE
2
APPID
5
9
100
AcDbSymbolTable
70
2
0
APPID
5
12
100
AcDbSymbolTableRecord
100
AcDbRegAppTableRecord
2
ACAD
70
0
0
ENDTAB
0
TABLE
2
DIMSTYLE
5
A
100
AcDbSymbolTable
70
1
0
ENDTAB
0
TABLE
2
BLOCK_RECORD
5
1
100
AcDbSymbolTable
70
1
0
BLOCK_RECORD
5
1F
100
AcDbSymbolTableRecord
100
AcDbBlockTableRecord
2
*MODEL_SPACE
0
BLOCK_RECORD
5
1B
100
AcDbSymbolTableRecord
100
AcDbBlockTableRecord
2
*PAPER_SPACE
0
ENDTAB
0
ENDSEC
0
SECTION
2
BLOCKS
0
BLOCK
5
20
100
AcDbEntity
100
AcDbBlockBegin
2
*MODEL_SPACE
0
ENDBLK
5
21
100
AcDbEntity
100
AcDbBlockEnd
0
BLOCK
5
1C
100
AcDbEntity
100
AcDbBlockBegin
2
*PAPER_SPACE
0
ENDBLK
5
1D
100
AcDbEntity
100
AcDbBlockEnd
0
ENDSEC
0
SECTION
2
ENTITIES
0
LWPOLYLINE
5
100
100
AcDbEntity
8
0
100
AcDbPolyline
90
8
70
1
43
0.0
10
60.174999999999997
20
-2.6249999999999978
10
73.174999999999997
20
-2.6249999999999996
42
-0.41421356237309503
10
73.674999999999997
20
-3.1249999999999978
10
73.674999999999997
20
-16.125
42
-0.41421356237309503
10
73.174999999999997
20
-16.624999999999996
10
60.174999999999997
20
-16.624999999999996
42
-0.41421356237309503
10
59.675000000000004
20
-16.125
10
59.675000000000004
20
-3.1249999999999978
42
-0.41421356237309503
0
LWPOLYLINE
5
101
100
AcDbEntity
8
0
100
AcDbPolyline
90
8
70
1
43
0.0
10
79.174999999999997
20
-2.6249999999999978
10
92.175000000000011
20
-2.6250000000000262
42
-0.41421356237309503
10
92.674999999999983
20
-3.1249999999999978
10
92.675000000000011
20
-16.125
42
-0.41421356237309503
10
92.175000000000011
20
-16.624999999999996
10
79.174999999999997
20
-16.624999999999996
42
-0.41421356237309503
10
78.674999999999997
20
-16.125
10
78.674999999999997
20
-3.1249999999999978
42
-0.41421356237309503
0
LWPOLYLINE
5
102
100
AcDbEntity
8
0
100
AcDbPolyline
90
8
70
1
43
0.0
10
60.174999999999997
20
-21.624999999999996
10
73.174999999999997
20
-21.624999999999996
42
-0.41421356237309503
10
73.674999999999997
20
-22.124999999999993
10
73.674999999999997
20
-35.125
42
-0.41421356237309503
10
73.174999999999997
20
-35.625
10
60.174999999999997
20
-35.624999999999993
42
-0.41421356237309503
10
59.675000000000004
20
-35.125
10
59.675000000000004
20
-22.124999999999993
42
-0.41421356237309503
0
LWPOLYLINE
5
103
100
AcDbEntity
8
0
100
AcDbPolyline
90
8
70
1
43
0.0
10
79.174999999999997
20
-21.624999999999996
10
92.175000000000011
20
-21.625000000000021
42
-0.41421356237309503
10
92.674999999999983
20
-22.124999999999993
10
92.675000000000011
20
-35.125
42
-0.41421356237309503
10
92.175000000000011
20
-35.625
10
79.174999999999997
20
-35.624999999999993
42
-0.41421356237309503
10
78.674999999999997
20
-35.125
10
78.674999999999997
20
-22.124999999999993
42
-0.41421356237309503
0
LWPOLYLINE
5
104
100
AcDbEntity
8
0
100
AcDbPolyline
90
8
70
1
43
0.0
10
60.174999999999997
20
-40.625
10
73.174999999999997
20
-40.625
42
-0.41421356237309503
10
73.674999999999997
20
-41.125
10
73.674999999999997
20
-54.125000000000007
42
-0.41421356237309503
10
73.174999999999997
20
-54.625
10
60.174999999999997
20
-54.625
42
-0.41421356237309503
10
59.675000000000004
20
-54.125000000000007
10
59.675000000000004
20
-41.125
42
-0.41421356237309503
0
LWPOLYLINE
5
105
100
AcDbEntity
8
0
100
AcDbPolyline
90
8
70
1
43
0.0
10
79.174999999999997
20
-40.625
10
92.175000000000011
20
-40.625000000000028
42
-0.41421356237309503
10
92.674999999999983
20
-41.125
10
92.675000000000011
20
-54.125000000000007
42
-0.41421356237309503
10
92.175000000000011
20
-54.625
10
79.174999999999997
20
-54.625
42
-0.41421356237309503
10
78.674999999999997
20
-54.125000000000007
10
78.674999999999997
20
-41.125
42
-0.41421356237309503
0
LWPOLYLINE
5
106
100
AcDbEntity
8
0
100
AcDbPolyline
90
8
70
1
43
0.0
10
60.174999999999997
20
-59.625
10
73.174999999999997
20
-59.625
42
-0.41421356237309503
10
73.674999999999997
20
-60.125
10
73.674999999999997
20
-73.125
42
-0.41421356237309503
10
73.174999999999997
20
-73.625
10
60.174999999999997
20
-73.625
42
-0.41421356237309503
10
59.675000000000004
20
-73.125
10
59.675000000000004
20
-60.125
42
-0.41421356237309503
0
LWPOLYLINE
5
107
100
AcDbEntity
8
0
100
AcDbPolyline
90
8
70
1
43
0.0
10
79.174999999999997
20
-59.625
10
92.175000000000011
20
-59.625000000000028
42
-0.41421356237309503
10
92.674999999999983
20
-60.125
10
92.675000000000011
20
-73.125
42
-0.41421356237309503
10
92.175000000000011
20
-73.625
10
79.174999999999997
20
-73.625
42
-0.41421356237309503
10
78.674999999999997
20
-73.125
10
78.674999999999997
20
-60.125
42
-0.41421356237309503
0
LWPOLYLINE
5
108
100
AcDbEntity
8
0
100
AcDbPolyline
90
8
70
1
43
0.0
10
60.174999999999997
20
-78.625
10
73.174999999999997
20
-78.625
42
-0.41421356237309503
10
73.674999999999997
20
-79.125
10
73.674999999999983
20
-92.125
42
-0.41421356237309503
10
73.174999999999997
20
-92.625
10
60.174999999999997
20
-92.625
42
-0.41421356237309503
10
59.675000000000004
20
-92.125
10
59.675000000000004
20
-79.125
42
-0.41421356237309503
0
LWPOLYLINE
5
109
100
AcDbEntity
8
0
100
AcDbPolyline
90
8
70
1
43
0.0
10
79.174999999999997
20
-78.625
10
92.175000000000011
20
-78.625000000000028
42
-0.41421356237309503
10
92.674999999999983
20
-79.125
10
92.674999999999997
20
-92.125
42
-0.41421356237309503
10
92.175000000000011
20
-92.625
10
79.174999999999997
20
-92.625
42
-0.41421356237309503
10
78.674999999999997
20
-92.125
10
78.674999999999997
20
-79.125
42
-0.41421356237309503
0
LWPOLYLINE
5
110
100
AcDbEntity
8
0
100
AcDbPolyline
90
8
70
1
43
0.0
10
59.675000000000004
20
-79.125
10
59.675000000000004
20
-92.125
42
0.41421356237309503
10
60.174999999999997
20
-92.625
10
73.174999999999997
20
-92.625
42
0.41421356237309503
10
73.674999999999997
20
-92.125
10
73.674999999999997
20
-79.125
42
0.41421356237309503
10
73.174999999999997
20
-78.625
10
60.174999999999997
20
-78.625
42
0.41421356237309503
0
LWPOLYLINE
5
111
100
AcDbEntity
8
0
100
AcDbPolyline
90
8
70
1
43
0.0
10
73.174999999999997
20
-73.625
42
0.41421356237309503
10
73.674999999999997
20
-73.125
10
73.674999999999997
20
-60.125
42
0.41421356237309503
10
73.174999999999997
20
-59.625
10
60.174999999999997
20
-59.625
42
0.41421356237309503
10
59.675000000000004
20
-60.125
10
59.675000000000004
20
-73.125
42
0.41421356237309503
10
60.174999999999997
20
-73.625
0
LWPOLYLINE
5
112
100
AcDbEntity
8
0
100
AcDbPolyline
90
8
70
1
43
0.0
10
60.174999999999997
20
-54.625
10
73.174999999999997
20
-54.625
42
0.41421356237309503
10
73.674999999999997
20
-54.125000000000007
10
73.674999999999997
20
-41.125
42
0.41421356237309503
10
73.174999999999997
20
-40.625
10
60.174999999999997
20
-40.625
42
0.41421356237309503
10
59.675000000000004
20
-41.125
10
59.675000000000004
20
-54.125000000000007
42
0.41421356237309503
0
LWPOLYLINE
5
113
100
AcDbEntity
8
0
100
AcDbPolyline
90
8
70
1
43
0.0
10
60.174999999999997
20
-2.6249999999999978
10
73.174999999999997
20
-2.6249999999999996
42
-0.41421356237309503
10
73.674999999999997
20
-3.1249999999999978
10
73.674999999999997
20
-16.125
42
-0.41421356237309503
10
73.174999999999997
20
-16.624999999999996
10
60.174999999999997
20
-16.624999999999996
42
-0.41421356237309503
10
59.675000000000004
20
-16.125
10
59.675000000000004
20
-3.1249999999999978
42
-0.41421356237309503
0
LWPOLYLINE
5
114
100
AcDbEntity
8
0
100
AcDbPolyline
90
8
70
1
43
0.0
10
59.675000000000004
20
-35.125
42
0.41421356237309503
10
60.174999999999997
20
-35.625
10
73.174999999999997
20
-35.625
42
0.41421356237309503
10
73.674999999999997
20
-35.125
10
73.674999999999997
20
-22.124999999999993
42
0.41421356237309503
10
73.174999999999997
20
-21.624999999999996
10
60.174999999999997
20
-21.624999999999996
42
0.41421356237309503
10
59.675000000000004
20
-22.124999999999993
0
LWPOLYLINE
5
115
100
AcDbEntity
8
0
100
AcDbPolyline
90
8
70
1
43
0.0
10
22.175000000000004
20
-40.625
10
35.174999999999997
20
-40.625
42
-0.41421356237309503
10
35.674999999999997
20
-41.125
10
35.674999999999997
20
-54.125000000000007
42
-0.41421356237309503
10
35.174999999999997
20
-54.625
10
22.175000000000004
20
-54.625
42
-0.41421356237309503
10
21.675000000000004
20
-54.125000000000007
10
21.675000000000004
20
-41.125
42
-0.41421356237309503
0
LWPOLYLINE
5
116
100
AcDbEntity
8
0
100
AcDbPolyline
90
8
70
1
43
0.0
10
21.675000000000004
20
-16.125
42
0.41421356237309503
10
22.175000000000004
20
-16.624999999999996
10
35.174999999999997
20
-16.624999999999996
42
0.41421356237309503
10
35.674999999999997
20
-16.125
10
35.674999999999997
20
-3.1249999999999978
42
0.41421356237309503
10
35.174999999999997
20
-2.6249999999999978
10
22.175000000000004
20
-2.6249999999999978
42
0.41421356237309503
10
21.675000000000004
20
-3.1249999999999978
0
LWPOLYLINE
5
117
100
AcDbEntity
8
0
100
AcDbPolyline
90
8
70
1
43
0.0
10
22.175000000000004
20
-21.624999999999996
10
35.174999999999997
20
-21.624999999999996
42
-0.41421356237309503
10
35.674999999999997
20
-22.124999999999993
10
35.675000000000004
20
-35.125
42
-0.41421356237309503
10
35.174999999999997
20
-35.625
10
22.175000000000004
20
-35.624999999999993
42
-0.41421356237309503
10
21.675000000000004
20
-35.125
10
21.675000000000004
20
-22.124999999999993
42
-0.41421356237309503
0
LWPOLYLINE
5
118
100
AcDbEntity
8
0
100
AcDbPolyline
90
8
70
1
43
0.0
10
22.175000000000004
20
-40.625
10
35.174999999999997
20
-40.625
42
-0.41421356237309503
10
35.674999999999997
20
-41.125
10
35.674999999999997
20
-54.125000000000007
42
-0.41421356237309503
10
35.174999999999997
20
-54.625
10
22.175000000000004
20
-54.625
42
-0.41421356237309503
10
21.675000000000004
20
-54.125000000000007
10
21.675000000000004
20
-41.125
42
-0.41421356237309503
0
LWPOLYLINE
5
119
100
AcDbEntity
8
0
100
AcDbPolyline
90
8
70
1
43
0.0
10
22.175000000000004
20
-2.6249999999999978
42
0.41421356237309503
10
21.675000000000004
20
-3.1249999999999978
10
21.675000000000004
20
-16.125
42
0.41421356237309503
10
22.175000000000004
20
-16.624999999999996
10
35.174999999999997
20
-16.624999999999996
42
0.41421356237309503
10
35.674999999999997
20
-16.125
10
35.674999999999997
20
-3.1249999999999978
42
0.41421356237309503
10
35.174999999999997
20
-2.6249999999999978
0
LWPOLYLINE
5
120
100
AcDbEntity
8
0
100
AcDbPolyline
90
8
70
1
43
0.0
10
21.675000000000004
20
-35.125
42
0.41421356237309503
10
22.175000000000004
20
-35.625
10
35.174999999999997
20
-35.625
42
0.41421356237309503
10
35.674999999999997
20
-35.125
10
35.674999999999997
20
-22.124999999999993
42
0.41421356237309503
10
35.174999999999997
20
-21.624999999999996
10
22.175000000000004
20
-21.624999999999996
42
0.41421356237309503
10
21.675000000000004
20
-22.124999999999993
0
LWPOLYLINE
5
121
100
AcDbEntity
8
0
100
AcDbPolyline
90
8
70
1
43
0.0
10
54.674999999999983
20
-41.125
42
0.41421356237309503
10
54.175000000000011
20
-40.625
10
41.174999999999997
20
-40.625
42
0.41421356237309503
10
40.674999999999997
20
-41.125
10
40.674999999999997
20
-54.125000000000007
42
0.41421356237309503
10
41.174999999999997
20
-54.625
10
54.175000000000011
20
-54.625
42
0.41421356237309503
10
54.674999999999983
20
-54.125000000000007
0
LWPOLYLINE
5
122
100
AcDbEntity
8
0
100
AcDbPolyline
90
8
70
1
43
0.0
10
41.174999999999997
20
-35.625
10
54.175000000000011
20
-35.625
42
0.41421356237309503
10
54.674999999999983
20
-35.125
10
54.674999999999983
20
-22.124999999999993
42
0.41421356237309503
10
54.175000000000011
20
-21.624999999999996
10
41.174999999999997
20
-21.624999999999996
42
0.41421356237309503
10
40.674999999999997
20
-22.124999999999993
10
40.674999999999997
20
-35.125
42
0.41421356237309503
0
LWPOLYLINE
5
123
100
AcDbEntity
8
0
100
AcDbPolyline
90
8
70
1
43
0.0
10
41.174999999999997
20
-59.625
42
0.41421356237309503
10
40.674999999999997
20
-60.125
10
40.674999999999997
20
-73.125
42
0.41421356237309503
10
41.174999999999997
20
-73.625
10
54.175000000000011
20
-73.625
42
0.41421356237309503
10
54.674999999999983
20
-73.125
10
54.674999999999983
20
-60.125
42
0.41421356237309503
10
54.175000000000011
20
-59.625
0
LWPOLYLINE
5
124
100
AcDbEntity
8
0
100
AcDbPolyline
90
8
70
1
43
0.0
10
35.174999999999997
20
-73.625
42
0.41421356237309503
10
35.674999999999997
20
-73.125
10
35.674999999999997
20
-60.125
42
0.41421356237309503
10
35.174999999999997
20
-59.625
10
22.175000000000004
20
-59.625
42
0.41421356237309503
10
21.675000000000004
20
-60.125
10
21.675000000000004
20
-73.125
42
0.41421356237309503
10
22.175000000000004
20
-73.625
0
LWPOLYLINE
5
125
100
AcDbEntity
8
0
100
AcDbPolyline
90
8
70
1
43
0.0
10
54.674999999999983
20
-79.125
10
54.675000000000004
20
-92.125
42
-0.41421356237309503
10
54.175000000000011
20
-92.625
10
41.174999999999997
20
-92.625
42
-0.41421356237309503
10
40.674999999999997
20
-92.125
10
40.674999999999997
20
-79.125
42
-0.41421356237309503
10
41.174999999999997
20
-78.625
10
54.175000000000011
20
-78.625000000000028
42
-0.41421356237309503
0
LWPOLYLINE
5
126
100
AcDbEntity
8
0
100
AcDbPolyline
90
8
70
1
43
0.0
10
35.674999999999997
20
-79.125
42
0.41421356237309503
10
35.174999999999997
20
-78.625
10
22.175000000000004
20
-78.625
42
0.41421356237309503
10
21.675000000000004
20
-79.125
10
21.675000000000004
20
-92.125
42
0.41421356237309503
10
22.175000000000004
20
-92.625
10
35.174999999999997
20
-92.625
42
0.41421356237309503
10
35.674999999999997
20
-92.125
0
LWPOLYLINE
5
127
100
AcDbEntity
8
0
100
AcDbPolyline
90
8
70
1
43
0.0
10
35.674999999999997
20
-60.125
42
0.41421356237309503
10
35.174999999999997
20
-59.625
10
22.175000000000004
20
-59.625
42
0.41421356237309503
10
21.675000000000004
20
-60.125
10
21.675000000000004
20
-73.125
42
0.41421356237309503
10
22.175000000000004
20
-73.625
10
35.174999999999997
20
-73.625
42
0.41421356237309503
10
35.674999999999997
20
-73.125
0
LWPOLYLINE
5
128
100
AcDbEntity
8
0
100
AcDbPolyline
90
8
70
1
43
0.0
10
35.674999999999997
20
-79.125
42
0.41421356237309503
10
35.174999999999997
20
-78.625
10
22.175000000000004
20
-78.625
42
0.41421356237309503
10
21.675000000000004
20
-79.125
10
21.675000000000004
20
-92.125
42
0.41421356237309503
10
22.175000000000004
20
-92.625
10
35.174999999999997
20
-92.625
42
0.41421356237309503
10
35.674999999999997
20
-92.125
0
LWPOLYLINE
5
129
100
AcDbEntity
8
0
100
AcDbPolyline
90
8
70
1
43
0.0
10
41.174999999999997
20
-16.624999999999996
10
54.175000000000011
20
-16.624999999999996
42
0.41421356237309503
10
54.674999999999983
20
-16.125
10
54.674999999999983
20
-3.1249999999999978
42
0.41421356237309503
10
54.175000000000011
20
-2.6249999999999978
10
41.174999999999997
20
-2.6249999999999978
42
0.41421356237309503
10
40.674999999999997
20
-3.1249999999999978
10
40.674999999999997
20
-16.125
42
0.41421356237309503
0
LWPOLYLINE
5
130
100
AcDbEntity
8
0
100
AcDbPolyline
90
8
70
1
43
0.0
10
2.6750000000000043
20
-79.125
10
2.6750000000000043
20
-92.125
42
0.41421356237309503
10
3.1750000000000025
20
-92.625
10
16.175000000000001
20
-92.625
42
0.41421356237309503
10
16.675000000000001
20
-92.125
10
16.675000000000001
20
-79.125
42
0.41421356237309503
10
16.175000000000001
20
-78.625
10
3.1750000000000025
20
-78.625
42
0.41421356237309503
0
LWPOLYLINE
5
131
100
AcDbEntity
8
0
100
AcDbPolyline
90
8
70
1
43
0.0
10
2.6750000000000043
20
-41.125
10
2.6750000000000043
20
-54.125000000000007
42
0.41421356237309503
10
3.1750000000000025
20
-54.625
10
16.175000000000001
20
-54.625
42
0.41421356237309503
10
16.675000000000001
20
-54.125000000000007
10
16.675000000000001
20
-41.125
42
0.41421356237309503
10
16.175000000000001
20
-40.625
10
3.1750000000000025
20
-40.625
42
0.41421356237309503
0
LWPOLYLINE
5
132
100
AcDbEntity
8
0
100
AcDbPolyline
90
8
70
1
43
0.0
10
2.6750000000000043
20
-79.125
10
2.6750000000000043
20
-92.125
42
0.41421356237309503
10
3.1750000000000025
20
-92.625
10
16.175000000000001
20
-92.625
42
0.41421356237309503
10
16.675000000000001
20
-92.125
10
16.675000000000001
20
-79.125
42
0.41421356237309503
10
16.175000000000001
20
-78.625
10
3.1750000000000025
20
-78.625
42
0.41421356237309503
0
LWPOLYLINE
5
133
100
AcDbEntity
8
0
100
AcDbPolyline
90
8
70
1
43
0.0
10
3.1750000000000025
20
-40.625
42
0.41421356237309503
10
2.6750000000000043
20
-41.125
10
2.6750000000000043
20
-54.125000000000007
42
0.41421356237309503
10
3.1750000000000025
20
-54.625
10
16.175000000000001
20
-54.625
42
0.41421356237309503
10
16.675000000000001
20
-54.125000000000007
10
16.675000000000001
20
-41.125
42
0.41421356237309503
10
16.175000000000001
20
-40.625
0
LWPOLYLINE
5
134
100
AcDbEntity
8
0
100
AcDbPolyline
90
8
70
1
43
0.0
10
3.1750000000000025
20
-21.624999999999996
42
0.41421356237309503
10
2.6750000000000043
20
-22.124999999999993
10
2.6750000000000043
20
-35.125
42
0.41421356237309503
10
3.1750000000000025
20
-35.625
10
16.175000000000001
20
-35.625
42
0.41421356237309503
10
16.675000000000001
20
-35.125
10
16.675000000000001
20
-22.124999999999993
42
0.41421356237309503
10
16.175000000000001
20
-21.624999999999996
0
LWPOLYLINE
5
135
100
AcDbEntity
8
0
100
AcDbPolyline
90
8
70
1
43
0.0
10
16.175000000000001
20
-35.625
42
0.41421356237309503
10
16.675000000000001
20
-35.125
10
16.675000000000001
20
-22.124999999999993
42
0.41421356237309503
10
16.175000000000001
20
-21.624999999999996
10
3.1750000000000025
20
-21.624999999999996
42
0.41421356237309503
10
2.6750000000000043
20
-22.124999999999993
10
2.6750000000000043
20
-35.125
42
0.41421356237309503
10
3.1750000000000025
20
-35.625
0
LWPOLYLINE
5
136
100
AcDbEntity
8
0
100
AcDbPolyline
90
8
70
1
43
0.0
10
3.1750000000000025
20
-16.624999999999996
10
16.175000000000001
20
-16.624999999999996
42
0.41421356237309503
10
16.675000000000001
20
-16.125
10
16.675000000000001
20
-3.1249999999999978
42
0.41421356237309503
10
16.175000000000001
20
-2.6249999999999978
10
3.1750000000000025
20
-2.6249999999999978
42
0.41421356237309503
10
2.6750000000000043
20
-3.1249999999999978
10
2.6750000000000043
20
-16.125
42
0.41421356237309503
0
LWPOLYLINE
5
137
100
AcDbEntity
8
0
100
AcDbPolyline
90
8
70
1
43
0.0
10
3.1750000000000025
20
-2.6249999999999978
42
0.41421356237309503
10
2.6750000000000043
20
-3.1249999999999978
10
2.6750000000000043
20
-16.125
42
0.41421356237309503
10
3.1750000000000025
20
-16.624999999999996
10
16.175000000000001
20
-16.624999999999996
42
0.41421356237309503
10
16.675000000000001
20
-16.125
10
16.675000000000001
20
-3.1249999999999978
42
0.41421356237309503
10
16.175000000000001
20
-2.6249999999999978
0
LWPOLYLINE
5
138
100
AcDbEntity
8
0
100
AcDbPolyline
90
8
70
1
43
0.0
10
3.1750000000000025
20
-73.625
10
16.175000000000001
20
-73.625
42
0.41421356237309503
10
16.675000000000001
20
-73.125
10
16.675000000000001
20
-60.125
42
0.41421356237309503
10
16.175000000000001
20
-59.625
10
3.1750000000000025
20
-59.625
42
0.41421356237309503
10
2.6750000000000043
20
-60.125
10
2.6750000000000043
20
-73.125
42
0.41421356237309503
0
LWPOLYLINE
5
139
100
AcDbEntity
8
0
100
AcDbPolyline
90
8
70
1
43
0.0
10
3.1750000000000025
20
-59.625
42
0.41421356237309503
10
2.6750000000000043
20
-60.125
10
2.6750000000000043
20
-73.125
42
0.41421356237309503
10
3.1750000000000025
20
-73.625
10
16.175000000000001
20
-73.625
42
0.41421356237309503
10
16.675000000000001
20
-73.125
10
16.675000000000001
20
-60.125
42
0.41421356237309503
10
16.175000000000001
20
-59.625
0
ENDSEC
0
SECTION
2
OBJECTS
0
DICTIONARY
5
C
100
AcDbDictionary
3
ACAD_GROUP
350
D
3
ACAD_MLINESTYLE
350
17
0
DICTIONARY
5
D
100
AcDbDictionary
0
DICTIONARY
5
1A
330
C
100
AcDbDictionary
0
DICTIONARY
5
17
100
AcDbDictionary
0
ENDSEC
0
EOF
