%TF.GenerationSoftware,KiCad,Pcbnew,9.0.7*%
%TF.CreationDate,2026-02-15T13:29:55+05:00*%
%TF.ProjectId,ModuPad_v2,4d6f6475-5061-4645-9f76-322e6b696361,rev?*%
%TF.SameCoordinates,Original*%
%TF.FileFunction,Drillmap*%
%TF.FilePolarity,Positive*%
%FSLAX45Y45*%
G04 Gerber Fmt 4.5, Leading zero omitted, Abs format (unit mm)*
G04 Created by KiCad (PCBNEW 9.0.7) date 2026-02-15 13:29:55*
%MOMM*%
%LPD*%
G01*
G04 APERTURE LIST*
%ADD10C,0.050000*%
%ADD11C,0.100000*%
%ADD12C,0.200000*%
%ADD13C,0.175000*%
%ADD14C,0.398780*%
G04 APERTURE END LIST*
D10*
X5000000Y-5000000D02*
X15500000Y-5000000D01*
X15500000Y-17500000D01*
X5000000Y-17500000D01*
X5000000Y-5000000D01*
D11*
X11980000Y-12820284D02*
X11980000Y-12679716D01*
X12070555Y-12600000D02*
X12229445Y-12600000D01*
X12229445Y-12900000D02*
X12070555Y-12900000D01*
X12320000Y-12679716D02*
X12320000Y-12820284D01*
X11975052Y-12658028D02*
G75*
G02*
X11979998Y-12679716I-45052J-21682D01*
G01*
X11975052Y-12658028D02*
G75*
G02*
X12045329Y-12593170I45051J21688D01*
G01*
X11980000Y-12820284D02*
G75*
G02*
X11975052Y-12841972I-50036J8D01*
G01*
X12045329Y-12906830D02*
G75*
G02*
X11975052Y-12841972I-25226J43170D01*
G01*
X12045329Y-12906830D02*
G75*
G02*
X12070555Y-12900000I25226J-43171D01*
G01*
X12070555Y-12600000D02*
G75*
G02*
X12045329Y-12593170I0J50001D01*
G01*
X12229445Y-12900000D02*
G75*
G02*
X12254671Y-12906830I0J-50001D01*
G01*
X12254671Y-12593170D02*
G75*
G02*
X12229445Y-12600000I-25226J43171D01*
G01*
X12254671Y-12593170D02*
G75*
G02*
X12324948Y-12658028I25226J-43170D01*
G01*
X12320000Y-12679716D02*
G75*
G02*
X12324948Y-12658028I49999J0D01*
G01*
X12324948Y-12841972D02*
G75*
G02*
X12254671Y-12906830I-45051J-21688D01*
G01*
X12324948Y-12841972D02*
G75*
G02*
X12320000Y-12820284I45051J21688D01*
G01*
X8180000Y-12820284D02*
X8180000Y-12679716D01*
X8270555Y-12600000D02*
X8429445Y-12600000D01*
X8429445Y-12900000D02*
X8270555Y-12900000D01*
X8520000Y-12679716D02*
X8520000Y-12820284D01*
X8175052Y-12658028D02*
G75*
G02*
X8179998Y-12679716I-45052J-21682D01*
G01*
X8175052Y-12658028D02*
G75*
G02*
X8245329Y-12593170I45051J21688D01*
G01*
X8180000Y-12820284D02*
G75*
G02*
X8175052Y-12841972I-50036J8D01*
G01*
X8245329Y-12906830D02*
G75*
G02*
X8175052Y-12841972I-25226J43170D01*
G01*
X8245329Y-12906830D02*
G75*
G02*
X8270555Y-12900000I25226J-43171D01*
G01*
X8270555Y-12600000D02*
G75*
G02*
X8245329Y-12593170I0J50001D01*
G01*
X8429445Y-12900000D02*
G75*
G02*
X8454671Y-12906830I0J-50001D01*
G01*
X8454671Y-12593170D02*
G75*
G02*
X8429445Y-12600000I-25226J43171D01*
G01*
X8454671Y-12593170D02*
G75*
G02*
X8524948Y-12658028I25226J-43170D01*
G01*
X8520000Y-12679716D02*
G75*
G02*
X8524948Y-12658028I49999J0D01*
G01*
X8524948Y-12841972D02*
G75*
G02*
X8454671Y-12906830I-45051J-21688D01*
G01*
X8524948Y-12841972D02*
G75*
G02*
X8520000Y-12820284I45051J21688D01*
G01*
X6280000Y-12820284D02*
X6280000Y-12679716D01*
X6370555Y-12600000D02*
X6529445Y-12600000D01*
X6529445Y-12900000D02*
X6370555Y-12900000D01*
X6620000Y-12679716D02*
X6620000Y-12820284D01*
X6275052Y-12658028D02*
G75*
G02*
X6279998Y-12679716I-45052J-21682D01*
G01*
X6275052Y-12658028D02*
G75*
G02*
X6345329Y-12593170I45051J21688D01*
G01*
X6280000Y-12820284D02*
G75*
G02*
X6275052Y-12841972I-50036J8D01*
G01*
X6345329Y-12906830D02*
G75*
G02*
X6275052Y-12841972I-25226J43170D01*
G01*
X6345329Y-12906830D02*
G75*
G02*
X6370555Y-12900000I25226J-43171D01*
G01*
X6370555Y-12600000D02*
G75*
G02*
X6345329Y-12593170I0J50001D01*
G01*
X6529445Y-12900000D02*
G75*
G02*
X6554671Y-12906830I0J-50001D01*
G01*
X6554671Y-12593170D02*
G75*
G02*
X6529445Y-12600000I-25226J43171D01*
G01*
X6554671Y-12593170D02*
G75*
G02*
X6624948Y-12658028I25226J-43170D01*
G01*
X6620000Y-12679716D02*
G75*
G02*
X6624948Y-12658028I49999J0D01*
G01*
X6624948Y-12841972D02*
G75*
G02*
X6554671Y-12906830I-45051J-21688D01*
G01*
X6624948Y-12841972D02*
G75*
G02*
X6620000Y-12820284I45051J21688D01*
G01*
X10080000Y-14720284D02*
X10080000Y-14579716D01*
X10170555Y-14500000D02*
X10329445Y-14500000D01*
X10329445Y-14800000D02*
X10170555Y-14800000D01*
X10420000Y-14579716D02*
X10420000Y-14720284D01*
X10075052Y-14558028D02*
G75*
G02*
X10079998Y-14579716I-45052J-21682D01*
G01*
X10075052Y-14558028D02*
G75*
G02*
X10145329Y-14493170I45051J21688D01*
G01*
X10080000Y-14720284D02*
G75*
G02*
X10075052Y-14741972I-50036J8D01*
G01*
X10145329Y-14806830D02*
G75*
G02*
X10075052Y-14741972I-25226J43170D01*
G01*
X10145329Y-14806830D02*
G75*
G02*
X10170555Y-14800000I25226J-43171D01*
G01*
X10170555Y-14500000D02*
G75*
G02*
X10145329Y-14493170I0J50001D01*
G01*
X10329445Y-14800000D02*
G75*
G02*
X10354671Y-14806830I0J-50001D01*
G01*
X10354671Y-14493170D02*
G75*
G02*
X10329445Y-14500000I-25226J43171D01*
G01*
X10354671Y-14493170D02*
G75*
G02*
X10424948Y-14558028I25226J-43170D01*
G01*
X10420000Y-14579716D02*
G75*
G02*
X10424948Y-14558028I49999J0D01*
G01*
X10424948Y-14741972D02*
G75*
G02*
X10354671Y-14806830I-45051J-21688D01*
G01*
X10424948Y-14741972D02*
G75*
G02*
X10420000Y-14720284I45051J21688D01*
G01*
X10080000Y-10920284D02*
X10080000Y-10779716D01*
X10170555Y-10700000D02*
X10329445Y-10700000D01*
X10329445Y-11000000D02*
X10170555Y-11000000D01*
X10420000Y-10779716D02*
X10420000Y-10920284D01*
X10075052Y-10758028D02*
G75*
G02*
X10079998Y-10779716I-45052J-21682D01*
G01*
X10075052Y-10758028D02*
G75*
G02*
X10145329Y-10693170I45051J21688D01*
G01*
X10080000Y-10920284D02*
G75*
G02*
X10075052Y-10941972I-50036J8D01*
G01*
X10145329Y-11006830D02*
G75*
G02*
X10075052Y-10941972I-25226J43170D01*
G01*
X10145329Y-11006830D02*
G75*
G02*
X10170555Y-11000000I25226J-43171D01*
G01*
X10170555Y-10700000D02*
G75*
G02*
X10145329Y-10693170I0J50001D01*
G01*
X10329445Y-11000000D02*
G75*
G02*
X10354671Y-11006830I0J-50001D01*
G01*
X10354671Y-10693170D02*
G75*
G02*
X10329445Y-10700000I-25226J43171D01*
G01*
X10354671Y-10693170D02*
G75*
G02*
X10424948Y-10758028I25226J-43170D01*
G01*
X10420000Y-10779716D02*
G75*
G02*
X10424948Y-10758028I49999J0D01*
G01*
X10424948Y-10941972D02*
G75*
G02*
X10354671Y-11006830I-45051J-21688D01*
G01*
X10424948Y-10941972D02*
G75*
G02*
X10420000Y-10920284I45051J21688D01*
G01*
X6280000Y-16620284D02*
X6280000Y-16479716D01*
X6370555Y-16400000D02*
X6529445Y-16400000D01*
X6529445Y-16700000D02*
X6370555Y-16700000D01*
X6620000Y-16479716D02*
X6620000Y-16620284D01*
X6275052Y-16458028D02*
G75*
G02*
X6279998Y-16479716I-45052J-21682D01*
G01*
X6275052Y-16458028D02*
G75*
G02*
X6345329Y-16393170I45051J21688D01*
G01*
X6280000Y-16620284D02*
G75*
G02*
X6275052Y-16641972I-50036J8D01*
G01*
X6345329Y-16706830D02*
G75*
G02*
X6275052Y-16641972I-25226J43170D01*
G01*
X6345329Y-16706830D02*
G75*
G02*
X6370555Y-16700000I25226J-43171D01*
G01*
X6370555Y-16400000D02*
G75*
G02*
X6345329Y-16393170I0J50001D01*
G01*
X6529445Y-16700000D02*
G75*
G02*
X6554671Y-16706830I0J-50001D01*
G01*
X6554671Y-16393170D02*
G75*
G02*
X6529445Y-16400000I-25226J43171D01*
G01*
X6554671Y-16393170D02*
G75*
G02*
X6624948Y-16458028I25226J-43170D01*
G01*
X6620000Y-16479716D02*
G75*
G02*
X6624948Y-16458028I49999J0D01*
G01*
X6624948Y-16641972D02*
G75*
G02*
X6554671Y-16706830I-45051J-21688D01*
G01*
X6624948Y-16641972D02*
G75*
G02*
X6620000Y-16620284I45051J21688D01*
G01*
X11980000Y-10920284D02*
X11980000Y-10779716D01*
X12070555Y-10700000D02*
X12229445Y-10700000D01*
X12229445Y-11000000D02*
X12070555Y-11000000D01*
X12320000Y-10779716D02*
X12320000Y-10920284D01*
X11975052Y-10758028D02*
G75*
G02*
X11979998Y-10779716I-45052J-21682D01*
G01*
X11975052Y-10758028D02*
G75*
G02*
X12045329Y-10693170I45051J21688D01*
G01*
X11980000Y-10920284D02*
G75*
G02*
X11975052Y-10941972I-50036J8D01*
G01*
X12045329Y-11006830D02*
G75*
G02*
X11975052Y-10941972I-25226J43170D01*
G01*
X12045329Y-11006830D02*
G75*
G02*
X12070555Y-11000000I25226J-43171D01*
G01*
X12070555Y-10700000D02*
G75*
G02*
X12045329Y-10693170I0J50001D01*
G01*
X12229445Y-11000000D02*
G75*
G02*
X12254671Y-11006830I0J-50001D01*
G01*
X12254671Y-10693170D02*
G75*
G02*
X12229445Y-10700000I-25226J43171D01*
G01*
X12254671Y-10693170D02*
G75*
G02*
X12324948Y-10758028I25226J-43170D01*
G01*
X12320000Y-10779716D02*
G75*
G02*
X12324948Y-10758028I49999J0D01*
G01*
X12324948Y-10941972D02*
G75*
G02*
X12254671Y-11006830I-45051J-21688D01*
G01*
X12324948Y-10941972D02*
G75*
G02*
X12320000Y-10920284I45051J21688D01*
G01*
X13880000Y-10920284D02*
X13880000Y-10779716D01*
X13970555Y-10700000D02*
X14129445Y-10700000D01*
X14129445Y-11000000D02*
X13970555Y-11000000D01*
X14220000Y-10779716D02*
X14220000Y-10920284D01*
X13875052Y-10758028D02*
G75*
G02*
X13879998Y-10779716I-45052J-21682D01*
G01*
X13875052Y-10758028D02*
G75*
G02*
X13945329Y-10693170I45051J21688D01*
G01*
X13880000Y-10920284D02*
G75*
G02*
X13875052Y-10941972I-50036J8D01*
G01*
X13945329Y-11006830D02*
G75*
G02*
X13875052Y-10941972I-25226J43170D01*
G01*
X13945329Y-11006830D02*
G75*
G02*
X13970555Y-11000000I25226J-43171D01*
G01*
X13970555Y-10700000D02*
G75*
G02*
X13945329Y-10693170I0J50001D01*
G01*
X14129445Y-11000000D02*
G75*
G02*
X14154671Y-11006830I0J-50001D01*
G01*
X14154671Y-10693170D02*
G75*
G02*
X14129445Y-10700000I-25226J43171D01*
G01*
X14154671Y-10693170D02*
G75*
G02*
X14224948Y-10758028I25226J-43170D01*
G01*
X14220000Y-10779716D02*
G75*
G02*
X14224948Y-10758028I49999J0D01*
G01*
X14224948Y-10941972D02*
G75*
G02*
X14154671Y-11006830I-45051J-21688D01*
G01*
X14224948Y-10941972D02*
G75*
G02*
X14220000Y-10920284I45051J21688D01*
G01*
X6280000Y-9020284D02*
X6280000Y-8879716D01*
X6370555Y-8800000D02*
X6529445Y-8800000D01*
X6529445Y-9100000D02*
X6370555Y-9100000D01*
X6620000Y-8879716D02*
X6620000Y-9020284D01*
X6275052Y-8858028D02*
G75*
G02*
X6279998Y-8879716I-45052J-21682D01*
G01*
X6275052Y-8858028D02*
G75*
G02*
X6345329Y-8793170I45051J21688D01*
G01*
X6280000Y-9020284D02*
G75*
G02*
X6275052Y-9041972I-50036J8D01*
G01*
X6345329Y-9106830D02*
G75*
G02*
X6275052Y-9041972I-25226J43170D01*
G01*
X6345329Y-9106830D02*
G75*
G02*
X6370555Y-9100000I25226J-43171D01*
G01*
X6370555Y-8800000D02*
G75*
G02*
X6345329Y-8793170I0J50001D01*
G01*
X6529445Y-9100000D02*
G75*
G02*
X6554671Y-9106830I0J-50001D01*
G01*
X6554671Y-8793170D02*
G75*
G02*
X6529445Y-8800000I-25226J43171D01*
G01*
X6554671Y-8793170D02*
G75*
G02*
X6624948Y-8858028I25226J-43170D01*
G01*
X6620000Y-8879716D02*
G75*
G02*
X6624948Y-8858028I49999J0D01*
G01*
X6624948Y-9041972D02*
G75*
G02*
X6554671Y-9106830I-45051J-21688D01*
G01*
X6624948Y-9041972D02*
G75*
G02*
X6620000Y-9020284I45051J21688D01*
G01*
X6280000Y-10920284D02*
X6280000Y-10779716D01*
X6370555Y-10700000D02*
X6529445Y-10700000D01*
X6529445Y-11000000D02*
X6370555Y-11000000D01*
X6620000Y-10779716D02*
X6620000Y-10920284D01*
X6275052Y-10758028D02*
G75*
G02*
X6279998Y-10779716I-45052J-21682D01*
G01*
X6275052Y-10758028D02*
G75*
G02*
X6345329Y-10693170I45051J21688D01*
G01*
X6280000Y-10920284D02*
G75*
G02*
X6275052Y-10941972I-50036J8D01*
G01*
X6345329Y-11006830D02*
G75*
G02*
X6275052Y-10941972I-25226J43170D01*
G01*
X6345329Y-11006830D02*
G75*
G02*
X6370555Y-11000000I25226J-43171D01*
G01*
X6370555Y-10700000D02*
G75*
G02*
X6345329Y-10693170I0J50001D01*
G01*
X6529445Y-11000000D02*
G75*
G02*
X6554671Y-11006830I0J-50001D01*
G01*
X6554671Y-10693170D02*
G75*
G02*
X6529445Y-10700000I-25226J43171D01*
G01*
X6554671Y-10693170D02*
G75*
G02*
X6624948Y-10758028I25226J-43170D01*
G01*
X6620000Y-10779716D02*
G75*
G02*
X6624948Y-10758028I49999J0D01*
G01*
X6624948Y-10941972D02*
G75*
G02*
X6554671Y-11006830I-45051J-21688D01*
G01*
X6624948Y-10941972D02*
G75*
G02*
X6620000Y-10920284I45051J21688D01*
G01*
X8180000Y-14720284D02*
X8180000Y-14579716D01*
X8270555Y-14500000D02*
X8429445Y-14500000D01*
X8429445Y-14800000D02*
X8270555Y-14800000D01*
X8520000Y-14579716D02*
X8520000Y-14720284D01*
X8175052Y-14558028D02*
G75*
G02*
X8179998Y-14579716I-45052J-21682D01*
G01*
X8175052Y-14558028D02*
G75*
G02*
X8245329Y-14493170I45051J21688D01*
G01*
X8180000Y-14720284D02*
G75*
G02*
X8175052Y-14741972I-50036J8D01*
G01*
X8245329Y-14806830D02*
G75*
G02*
X8175052Y-14741972I-25226J43170D01*
G01*
X8245329Y-14806830D02*
G75*
G02*
X8270555Y-14800000I25226J-43171D01*
G01*
X8270555Y-14500000D02*
G75*
G02*
X8245329Y-14493170I0J50001D01*
G01*
X8429445Y-14800000D02*
G75*
G02*
X8454671Y-14806830I0J-50001D01*
G01*
X8454671Y-14493170D02*
G75*
G02*
X8429445Y-14500000I-25226J43171D01*
G01*
X8454671Y-14493170D02*
G75*
G02*
X8524948Y-14558028I25226J-43170D01*
G01*
X8520000Y-14579716D02*
G75*
G02*
X8524948Y-14558028I49999J0D01*
G01*
X8524948Y-14741972D02*
G75*
G02*
X8454671Y-14806830I-45051J-21688D01*
G01*
X8524948Y-14741972D02*
G75*
G02*
X8520000Y-14720284I45051J21688D01*
G01*
X8180000Y-9020284D02*
X8180000Y-8879716D01*
X8270555Y-8800000D02*
X8429445Y-8800000D01*
X8429445Y-9100000D02*
X8270555Y-9100000D01*
X8520000Y-8879716D02*
X8520000Y-9020284D01*
X8175052Y-8858028D02*
G75*
G02*
X8179998Y-8879716I-45052J-21682D01*
G01*
X8175052Y-8858028D02*
G75*
G02*
X8245329Y-8793170I45051J21688D01*
G01*
X8180000Y-9020284D02*
G75*
G02*
X8175052Y-9041972I-50036J8D01*
G01*
X8245329Y-9106830D02*
G75*
G02*
X8175052Y-9041972I-25226J43170D01*
G01*
X8245329Y-9106830D02*
G75*
G02*
X8270555Y-9100000I25226J-43171D01*
G01*
X8270555Y-8800000D02*
G75*
G02*
X8245329Y-8793170I0J50001D01*
G01*
X8429445Y-9100000D02*
G75*
G02*
X8454671Y-9106830I0J-50001D01*
G01*
X8454671Y-8793170D02*
G75*
G02*
X8429445Y-8800000I-25226J43171D01*
G01*
X8454671Y-8793170D02*
G75*
G02*
X8524948Y-8858028I25226J-43170D01*
G01*
X8520000Y-8879716D02*
G75*
G02*
X8524948Y-8858028I49999J0D01*
G01*
X8524948Y-9041972D02*
G75*
G02*
X8454671Y-9106830I-45051J-21688D01*
G01*
X8524948Y-9041972D02*
G75*
G02*
X8520000Y-9020284I45051J21688D01*
G01*
X10080000Y-16620284D02*
X10080000Y-16479716D01*
X10170555Y-16400000D02*
X10329445Y-16400000D01*
X10329445Y-16700000D02*
X10170555Y-16700000D01*
X10420000Y-16479716D02*
X10420000Y-16620284D01*
X10075052Y-16458028D02*
G75*
G02*
X10079998Y-16479716I-45052J-21682D01*
G01*
X10075052Y-16458028D02*
G75*
G02*
X10145329Y-16393170I45051J21688D01*
G01*
X10080000Y-16620284D02*
G75*
G02*
X10075052Y-16641972I-50036J8D01*
G01*
X10145329Y-16706830D02*
G75*
G02*
X10075052Y-16641972I-25226J43170D01*
G01*
X10145329Y-16706830D02*
G75*
G02*
X10170555Y-16700000I25226J-43171D01*
G01*
X10170555Y-16400000D02*
G75*
G02*
X10145329Y-16393170I0J50001D01*
G01*
X10329445Y-16700000D02*
G75*
G02*
X10354671Y-16706830I0J-50001D01*
G01*
X10354671Y-16393170D02*
G75*
G02*
X10329445Y-16400000I-25226J43171D01*
G01*
X10354671Y-16393170D02*
G75*
G02*
X10424948Y-16458028I25226J-43170D01*
G01*
X10420000Y-16479716D02*
G75*
G02*
X10424948Y-16458028I49999J0D01*
G01*
X10424948Y-16641972D02*
G75*
G02*
X10354671Y-16706830I-45051J-21688D01*
G01*
X10424948Y-16641972D02*
G75*
G02*
X10420000Y-16620284I45051J21688D01*
G01*
X11980000Y-9020284D02*
X11980000Y-8879716D01*
X12070555Y-8800000D02*
X12229445Y-8800000D01*
X12229445Y-9100000D02*
X12070555Y-9100000D01*
X12320000Y-8879716D02*
X12320000Y-9020284D01*
X11975052Y-8858028D02*
G75*
G02*
X11979998Y-8879716I-45052J-21682D01*
G01*
X11975052Y-8858028D02*
G75*
G02*
X12045329Y-8793170I45051J21688D01*
G01*
X11980000Y-9020284D02*
G75*
G02*
X11975052Y-9041972I-50036J8D01*
G01*
X12045329Y-9106830D02*
G75*
G02*
X11975052Y-9041972I-25226J43170D01*
G01*
X12045329Y-9106830D02*
G75*
G02*
X12070555Y-9100000I25226J-43171D01*
G01*
X12070555Y-8800000D02*
G75*
G02*
X12045329Y-8793170I0J50001D01*
G01*
X12229445Y-9100000D02*
G75*
G02*
X12254671Y-9106830I0J-50001D01*
G01*
X12254671Y-8793170D02*
G75*
G02*
X12229445Y-8800000I-25226J43171D01*
G01*
X12254671Y-8793170D02*
G75*
G02*
X12324948Y-8858028I25226J-43170D01*
G01*
X12320000Y-8879716D02*
G75*
G02*
X12324948Y-8858028I49999J0D01*
G01*
X12324948Y-9041972D02*
G75*
G02*
X12254671Y-9106830I-45051J-21688D01*
G01*
X12324948Y-9041972D02*
G75*
G02*
X12320000Y-9020284I45051J21688D01*
G01*
X10080000Y-12820284D02*
X10080000Y-12679716D01*
X10170555Y-12600000D02*
X10329445Y-12600000D01*
X10329445Y-12900000D02*
X10170555Y-12900000D01*
X10420000Y-12679716D02*
X10420000Y-12820284D01*
X10075052Y-12658028D02*
G75*
G02*
X10079998Y-12679716I-45052J-21682D01*
G01*
X10075052Y-12658028D02*
G75*
G02*
X10145329Y-12593170I45051J21688D01*
G01*
X10080000Y-12820284D02*
G75*
G02*
X10075052Y-12841972I-50036J8D01*
G01*
X10145329Y-12906830D02*
G75*
G02*
X10075052Y-12841972I-25226J43170D01*
G01*
X10145329Y-12906830D02*
G75*
G02*
X10170555Y-12900000I25226J-43171D01*
G01*
X10170555Y-12600000D02*
G75*
G02*
X10145329Y-12593170I0J50001D01*
G01*
X10329445Y-12900000D02*
G75*
G02*
X10354671Y-12906830I0J-50001D01*
G01*
X10354671Y-12593170D02*
G75*
G02*
X10329445Y-12600000I-25226J43171D01*
G01*
X10354671Y-12593170D02*
G75*
G02*
X10424948Y-12658028I25226J-43170D01*
G01*
X10420000Y-12679716D02*
G75*
G02*
X10424948Y-12658028I49999J0D01*
G01*
X10424948Y-12841972D02*
G75*
G02*
X10354671Y-12906830I-45051J-21688D01*
G01*
X10424948Y-12841972D02*
G75*
G02*
X10420000Y-12820284I45051J21688D01*
G01*
X6280000Y-14720284D02*
X6280000Y-14579716D01*
X6370555Y-14500000D02*
X6529445Y-14500000D01*
X6529445Y-14800000D02*
X6370555Y-14800000D01*
X6620000Y-14579716D02*
X6620000Y-14720284D01*
X6275052Y-14558028D02*
G75*
G02*
X6279998Y-14579716I-45052J-21682D01*
G01*
X6275052Y-14558028D02*
G75*
G02*
X6345329Y-14493170I45051J21688D01*
G01*
X6280000Y-14720284D02*
G75*
G02*
X6275052Y-14741972I-50036J8D01*
G01*
X6345329Y-14806830D02*
G75*
G02*
X6275052Y-14741972I-25226J43170D01*
G01*
X6345329Y-14806830D02*
G75*
G02*
X6370555Y-14800000I25226J-43171D01*
G01*
X6370555Y-14500000D02*
G75*
G02*
X6345329Y-14493170I0J50001D01*
G01*
X6529445Y-14800000D02*
G75*
G02*
X6554671Y-14806830I0J-50001D01*
G01*
X6554671Y-14493170D02*
G75*
G02*
X6529445Y-14500000I-25226J43171D01*
G01*
X6554671Y-14493170D02*
G75*
G02*
X6624948Y-14558028I25226J-43170D01*
G01*
X6620000Y-14579716D02*
G75*
G02*
X6624948Y-14558028I49999J0D01*
G01*
X6624948Y-14741972D02*
G75*
G02*
X6554671Y-14806830I-45051J-21688D01*
G01*
X6624948Y-14741972D02*
G75*
G02*
X6620000Y-14720284I45051J21688D01*
G01*
X11980000Y-16620284D02*
X11980000Y-16479716D01*
X12070555Y-16400000D02*
X12229445Y-16400000D01*
X12229445Y-16700000D02*
X12070555Y-16700000D01*
X12320000Y-16479716D02*
X12320000Y-16620284D01*
X11975052Y-16458028D02*
G75*
G02*
X11979998Y-16479716I-45052J-21682D01*
G01*
X11975052Y-16458028D02*
G75*
G02*
X12045329Y-16393170I45051J21688D01*
G01*
X11980000Y-16620284D02*
G75*
G02*
X11975052Y-16641972I-50036J8D01*
G01*
X12045329Y-16706830D02*
G75*
G02*
X11975052Y-16641972I-25226J43170D01*
G01*
X12045329Y-16706830D02*
G75*
G02*
X12070555Y-16700000I25226J-43171D01*
G01*
X12070555Y-16400000D02*
G75*
G02*
X12045329Y-16393170I0J50001D01*
G01*
X12229445Y-16700000D02*
G75*
G02*
X12254671Y-16706830I0J-50001D01*
G01*
X12254671Y-16393170D02*
G75*
G02*
X12229445Y-16400000I-25226J43171D01*
G01*
X12254671Y-16393170D02*
G75*
G02*
X12324948Y-16458028I25226J-43170D01*
G01*
X12320000Y-16479716D02*
G75*
G02*
X12324948Y-16458028I49999J0D01*
G01*
X12324948Y-16641972D02*
G75*
G02*
X12254671Y-16706830I-45051J-21688D01*
G01*
X12324948Y-16641972D02*
G75*
G02*
X12320000Y-16620284I45051J21688D01*
G01*
X8180000Y-10920284D02*
X8180000Y-10779716D01*
X8270555Y-10700000D02*
X8429445Y-10700000D01*
X8429445Y-11000000D02*
X8270555Y-11000000D01*
X8520000Y-10779716D02*
X8520000Y-10920284D01*
X8175052Y-10758028D02*
G75*
G02*
X8179998Y-10779716I-45052J-21682D01*
G01*
X8175052Y-10758028D02*
G75*
G02*
X8245329Y-10693170I45051J21688D01*
G01*
X8180000Y-10920284D02*
G75*
G02*
X8175052Y-10941972I-50036J8D01*
G01*
X8245329Y-11006830D02*
G75*
G02*
X8175052Y-10941972I-25226J43170D01*
G01*
X8245329Y-11006830D02*
G75*
G02*
X8270555Y-11000000I25226J-43171D01*
G01*
X8270555Y-10700000D02*
G75*
G02*
X8245329Y-10693170I0J50001D01*
G01*
X8429445Y-11000000D02*
G75*
G02*
X8454671Y-11006830I0J-50001D01*
G01*
X8454671Y-10693170D02*
G75*
G02*
X8429445Y-10700000I-25226J43171D01*
G01*
X8454671Y-10693170D02*
G75*
G02*
X8524948Y-10758028I25226J-43170D01*
G01*
X8520000Y-10779716D02*
G75*
G02*
X8524948Y-10758028I49999J0D01*
G01*
X8524948Y-10941972D02*
G75*
G02*
X8454671Y-11006830I-45051J-21688D01*
G01*
X8524948Y-10941972D02*
G75*
G02*
X8520000Y-10920284I45051J21688D01*
G01*
X8180000Y-16620284D02*
X8180000Y-16479716D01*
X8270555Y-16400000D02*
X8429445Y-16400000D01*
X8429445Y-16700000D02*
X8270555Y-16700000D01*
X8520000Y-16479716D02*
X8520000Y-16620284D01*
X8175052Y-16458028D02*
G75*
G02*
X8179998Y-16479716I-45052J-21682D01*
G01*
X8175052Y-16458028D02*
G75*
G02*
X8245329Y-16393170I45051J21688D01*
G01*
X8180000Y-16620284D02*
G75*
G02*
X8175052Y-16641972I-50036J8D01*
G01*
X8245329Y-16706830D02*
G75*
G02*
X8175052Y-16641972I-25226J43170D01*
G01*
X8245329Y-16706830D02*
G75*
G02*
X8270555Y-16700000I25226J-43171D01*
G01*
X8270555Y-16400000D02*
G75*
G02*
X8245329Y-16393170I0J50001D01*
G01*
X8429445Y-16700000D02*
G75*
G02*
X8454671Y-16706830I0J-50001D01*
G01*
X8454671Y-16393170D02*
G75*
G02*
X8429445Y-16400000I-25226J43171D01*
G01*
X8454671Y-16393170D02*
G75*
G02*
X8524948Y-16458028I25226J-43170D01*
G01*
X8520000Y-16479716D02*
G75*
G02*
X8524948Y-16458028I49999J0D01*
G01*
X8524948Y-16641972D02*
G75*
G02*
X8454671Y-16706830I-45051J-21688D01*
G01*
X8524948Y-16641972D02*
G75*
G02*
X8520000Y-16620284I45051J21688D01*
G01*
X13880000Y-9020284D02*
X13880000Y-8879716D01*
X13970555Y-8800000D02*
X14129445Y-8800000D01*
X14129445Y-9100000D02*
X13970555Y-9100000D01*
X14220000Y-8879716D02*
X14220000Y-9020284D01*
X13875052Y-8858028D02*
G75*
G02*
X13879998Y-8879716I-45052J-21682D01*
G01*
X13875052Y-8858028D02*
G75*
G02*
X13945329Y-8793170I45051J21688D01*
G01*
X13880000Y-9020284D02*
G75*
G02*
X13875052Y-9041972I-50036J8D01*
G01*
X13945329Y-9106830D02*
G75*
G02*
X13875052Y-9041972I-25226J43170D01*
G01*
X13945329Y-9106830D02*
G75*
G02*
X13970555Y-9100000I25226J-43171D01*
G01*
X13970555Y-8800000D02*
G75*
G02*
X13945329Y-8793170I0J50001D01*
G01*
X14129445Y-9100000D02*
G75*
G02*
X14154671Y-9106830I0J-50001D01*
G01*
X14154671Y-8793170D02*
G75*
G02*
X14129445Y-8800000I-25226J43171D01*
G01*
X14154671Y-8793170D02*
G75*
G02*
X14224948Y-8858028I25226J-43170D01*
G01*
X14220000Y-8879716D02*
G75*
G02*
X14224948Y-8858028I49999J0D01*
G01*
X14224948Y-9041972D02*
G75*
G02*
X14154671Y-9106830I-45051J-21688D01*
G01*
X14224948Y-9041972D02*
G75*
G02*
X14220000Y-9020284I45051J21688D01*
G01*
X10080000Y-9020284D02*
X10080000Y-8879716D01*
X10170555Y-8800000D02*
X10329445Y-8800000D01*
X10329445Y-9100000D02*
X10170555Y-9100000D01*
X10420000Y-8879716D02*
X10420000Y-9020284D01*
X10075052Y-8858028D02*
G75*
G02*
X10079998Y-8879716I-45052J-21682D01*
G01*
X10075052Y-8858028D02*
G75*
G02*
X10145329Y-8793170I45051J21688D01*
G01*
X10080000Y-9020284D02*
G75*
G02*
X10075052Y-9041972I-50036J8D01*
G01*
X10145329Y-9106830D02*
G75*
G02*
X10075052Y-9041972I-25226J43170D01*
G01*
X10145329Y-9106830D02*
G75*
G02*
X10170555Y-9100000I25226J-43171D01*
G01*
X10170555Y-8800000D02*
G75*
G02*
X10145329Y-8793170I0J50001D01*
G01*
X10329445Y-9100000D02*
G75*
G02*
X10354671Y-9106830I0J-50001D01*
G01*
X10354671Y-8793170D02*
G75*
G02*
X10329445Y-8800000I-25226J43171D01*
G01*
X10354671Y-8793170D02*
G75*
G02*
X10424948Y-8858028I25226J-43170D01*
G01*
X10420000Y-8879716D02*
G75*
G02*
X10424948Y-8858028I49999J0D01*
G01*
X10424948Y-9041972D02*
G75*
G02*
X10354671Y-9106830I-45051J-21688D01*
G01*
X10424948Y-9041972D02*
G75*
G02*
X10420000Y-9020284I45051J21688D01*
G01*
X13880000Y-14720284D02*
X13880000Y-14579716D01*
X13970555Y-14500000D02*
X14129445Y-14500000D01*
X14129445Y-14800000D02*
X13970555Y-14800000D01*
X14220000Y-14579716D02*
X14220000Y-14720284D01*
X13875052Y-14558028D02*
G75*
G02*
X13879998Y-14579716I-45052J-21682D01*
G01*
X13875052Y-14558028D02*
G75*
G02*
X13945329Y-14493170I45051J21688D01*
G01*
X13880000Y-14720284D02*
G75*
G02*
X13875052Y-14741972I-50036J8D01*
G01*
X13945329Y-14806830D02*
G75*
G02*
X13875052Y-14741972I-25226J43170D01*
G01*
X13945329Y-14806830D02*
G75*
G02*
X13970555Y-14800000I25226J-43171D01*
G01*
X13970555Y-14500000D02*
G75*
G02*
X13945329Y-14493170I0J50001D01*
G01*
X14129445Y-14800000D02*
G75*
G02*
X14154671Y-14806830I0J-50001D01*
G01*
X14154671Y-14493170D02*
G75*
G02*
X14129445Y-14500000I-25226J43171D01*
G01*
X14154671Y-14493170D02*
G75*
G02*
X14224948Y-14558028I25226J-43170D01*
G01*
X14220000Y-14579716D02*
G75*
G02*
X14224948Y-14558028I49999J0D01*
G01*
X14224948Y-14741972D02*
G75*
G02*
X14154671Y-14806830I-45051J-21688D01*
G01*
X14224948Y-14741972D02*
G75*
G02*
X14220000Y-14720284I45051J21688D01*
G01*
X13880000Y-12820284D02*
X13880000Y-12679716D01*
X13970555Y-12600000D02*
X14129445Y-12600000D01*
X14129445Y-12900000D02*
X13970555Y-12900000D01*
X14220000Y-12679716D02*
X14220000Y-12820284D01*
X13875052Y-12658028D02*
G75*
G02*
X13879998Y-12679716I-45052J-21682D01*
G01*
X13875052Y-12658028D02*
G75*
G02*
X13945329Y-12593170I45051J21688D01*
G01*
X13880000Y-12820284D02*
G75*
G02*
X13875052Y-12841972I-50036J8D01*
G01*
X13945329Y-12906830D02*
G75*
G02*
X13875052Y-12841972I-25226J43170D01*
G01*
X13945329Y-12906830D02*
G75*
G02*
X13970555Y-12900000I25226J-43171D01*
G01*
X13970555Y-12600000D02*
G75*
G02*
X13945329Y-12593170I0J50001D01*
G01*
X14129445Y-12900000D02*
G75*
G02*
X14154671Y-12906830I0J-50001D01*
G01*
X14154671Y-12593170D02*
G75*
G02*
X14129445Y-12600000I-25226J43171D01*
G01*
X14154671Y-12593170D02*
G75*
G02*
X14224948Y-12658028I25226J-43170D01*
G01*
X14220000Y-12679716D02*
G75*
G02*
X14224948Y-12658028I49999J0D01*
G01*
X14224948Y-12841972D02*
G75*
G02*
X14154671Y-12906830I-45051J-21688D01*
G01*
X14224948Y-12841972D02*
G75*
G02*
X14220000Y-12820284I45051J21688D01*
G01*
X13880000Y-16620284D02*
X13880000Y-16479716D01*
X13970555Y-16400000D02*
X14129445Y-16400000D01*
X14129445Y-16700000D02*
X13970555Y-16700000D01*
X14220000Y-16479716D02*
X14220000Y-16620284D01*
X13875052Y-16458028D02*
G75*
G02*
X13879998Y-16479716I-45052J-21682D01*
G01*
X13875052Y-16458028D02*
G75*
G02*
X13945329Y-16393170I45051J21688D01*
G01*
X13880000Y-16620284D02*
G75*
G02*
X13875052Y-16641972I-50036J8D01*
G01*
X13945329Y-16706830D02*
G75*
G02*
X13875052Y-16641972I-25226J43170D01*
G01*
X13945329Y-16706830D02*
G75*
G02*
X13970555Y-16700000I25226J-43171D01*
G01*
X13970555Y-16400000D02*
G75*
G02*
X13945329Y-16393170I0J50001D01*
G01*
X14129445Y-16700000D02*
G75*
G02*
X14154671Y-16706830I0J-50001D01*
G01*
X14154671Y-16393170D02*
G75*
G02*
X14129445Y-16400000I-25226J43171D01*
G01*
X14154671Y-16393170D02*
G75*
G02*
X14224948Y-16458028I25226J-43170D01*
G01*
X14220000Y-16479716D02*
G75*
G02*
X14224948Y-16458028I49999J0D01*
G01*
X14224948Y-16641972D02*
G75*
G02*
X14154671Y-16706830I-45051J-21688D01*
G01*
X14224948Y-16641972D02*
G75*
G02*
X14220000Y-16620284I45051J21688D01*
G01*
X11980000Y-14720284D02*
X11980000Y-14579716D01*
X12070555Y-14500000D02*
X12229445Y-14500000D01*
X12229445Y-14800000D02*
X12070555Y-14800000D01*
X12320000Y-14579716D02*
X12320000Y-14720284D01*
X11975052Y-14558028D02*
G75*
G02*
X11979998Y-14579716I-45052J-21682D01*
G01*
X11975052Y-14558028D02*
G75*
G02*
X12045329Y-14493170I45051J21688D01*
G01*
X11980000Y-14720284D02*
G75*
G02*
X11975052Y-14741972I-50036J8D01*
G01*
X12045329Y-14806830D02*
G75*
G02*
X11975052Y-14741972I-25226J43170D01*
G01*
X12045329Y-14806830D02*
G75*
G02*
X12070555Y-14800000I25226J-43171D01*
G01*
X12070555Y-14500000D02*
G75*
G02*
X12045329Y-14493170I0J50001D01*
G01*
X12229445Y-14800000D02*
G75*
G02*
X12254671Y-14806830I0J-50001D01*
G01*
X12254671Y-14493170D02*
G75*
G02*
X12229445Y-14500000I-25226J43171D01*
G01*
X12254671Y-14493170D02*
G75*
G02*
X12324948Y-14558028I25226J-43170D01*
G01*
X12320000Y-14579716D02*
G75*
G02*
X12324948Y-14558028I49999J0D01*
G01*
X12324948Y-14741972D02*
G75*
G02*
X12254671Y-14806830I-45051J-21688D01*
G01*
X12324948Y-14741972D02*
G75*
G02*
X12320000Y-14720284I45051J21688D01*
G01*
D12*
D11*
X5525000Y-6432500D02*
X5600000Y-6507500D01*
X5600000Y-6432500D02*
X5525000Y-6507500D01*
X5800000Y-6432500D02*
X5875000Y-6507500D01*
X5875000Y-6432500D02*
X5800000Y-6507500D01*
X5225000Y-6320000D02*
G75*
G02*
X5135000Y-6320000I-45000J0D01*
G01*
X5135000Y-6320000D02*
G75*
G02*
X5225000Y-6320000I45000J0D01*
G01*
X5225000Y-6620000D02*
G75*
G02*
X5135000Y-6620000I-45000J0D01*
G01*
X5135000Y-6620000D02*
G75*
G02*
X5225000Y-6620000I45000J0D01*
G01*
D13*
X5942000Y-8362500D02*
X5942000Y-8537500D01*
X5854500Y-8450000D02*
X6029500Y-8450000D01*
X5942000Y-10262500D02*
X5942000Y-10437500D01*
X5854500Y-10350000D02*
X6029500Y-10350000D01*
X5942000Y-12162500D02*
X5942000Y-12337500D01*
X5854500Y-12250000D02*
X6029500Y-12250000D01*
X5942000Y-14062500D02*
X5942000Y-14237500D01*
X5854500Y-14150000D02*
X6029500Y-14150000D01*
X5942000Y-15962500D02*
X5942000Y-16137500D01*
X5854500Y-16050000D02*
X6029500Y-16050000D01*
X6958000Y-8362500D02*
X6958000Y-8537500D01*
X6870500Y-8450000D02*
X7045500Y-8450000D01*
X6958000Y-10262500D02*
X6958000Y-10437500D01*
X6870500Y-10350000D02*
X7045500Y-10350000D01*
X6958000Y-12162500D02*
X6958000Y-12337500D01*
X6870500Y-12250000D02*
X7045500Y-12250000D01*
X6958000Y-14062500D02*
X6958000Y-14237500D01*
X6870500Y-14150000D02*
X7045500Y-14150000D01*
X6958000Y-15962500D02*
X6958000Y-16137500D01*
X6870500Y-16050000D02*
X7045500Y-16050000D01*
X7842000Y-8362500D02*
X7842000Y-8537500D01*
X7754500Y-8450000D02*
X7929500Y-8450000D01*
X7842000Y-10262500D02*
X7842000Y-10437500D01*
X7754500Y-10350000D02*
X7929500Y-10350000D01*
X7842000Y-12162500D02*
X7842000Y-12337500D01*
X7754500Y-12250000D02*
X7929500Y-12250000D01*
X7842000Y-14062500D02*
X7842000Y-14237500D01*
X7754500Y-14150000D02*
X7929500Y-14150000D01*
X7842000Y-15962500D02*
X7842000Y-16137500D01*
X7754500Y-16050000D02*
X7929500Y-16050000D01*
X8858000Y-8362500D02*
X8858000Y-8537500D01*
X8770500Y-8450000D02*
X8945500Y-8450000D01*
X8858000Y-10262500D02*
X8858000Y-10437500D01*
X8770500Y-10350000D02*
X8945500Y-10350000D01*
X8858000Y-12162500D02*
X8858000Y-12337500D01*
X8770500Y-12250000D02*
X8945500Y-12250000D01*
X8858000Y-14062500D02*
X8858000Y-14237500D01*
X8770500Y-14150000D02*
X8945500Y-14150000D01*
X8858000Y-15962500D02*
X8858000Y-16137500D01*
X8770500Y-16050000D02*
X8945500Y-16050000D01*
X9742000Y-8362500D02*
X9742000Y-8537500D01*
X9654500Y-8450000D02*
X9829500Y-8450000D01*
X9742000Y-10262500D02*
X9742000Y-10437500D01*
X9654500Y-10350000D02*
X9829500Y-10350000D01*
X9742000Y-12162500D02*
X9742000Y-12337500D01*
X9654500Y-12250000D02*
X9829500Y-12250000D01*
X9742000Y-14062500D02*
X9742000Y-14237500D01*
X9654500Y-14150000D02*
X9829500Y-14150000D01*
X9742000Y-15962500D02*
X9742000Y-16137500D01*
X9654500Y-16050000D02*
X9829500Y-16050000D01*
X10758000Y-8362500D02*
X10758000Y-8537500D01*
X10670500Y-8450000D02*
X10845500Y-8450000D01*
X10758000Y-10262500D02*
X10758000Y-10437500D01*
X10670500Y-10350000D02*
X10845500Y-10350000D01*
X10758000Y-12162500D02*
X10758000Y-12337500D01*
X10670500Y-12250000D02*
X10845500Y-12250000D01*
X10758000Y-14062500D02*
X10758000Y-14237500D01*
X10670500Y-14150000D02*
X10845500Y-14150000D01*
X10758000Y-15962500D02*
X10758000Y-16137500D01*
X10670500Y-16050000D02*
X10845500Y-16050000D01*
X11642000Y-8362500D02*
X11642000Y-8537500D01*
X11554500Y-8450000D02*
X11729500Y-8450000D01*
X11642000Y-10262500D02*
X11642000Y-10437500D01*
X11554500Y-10350000D02*
X11729500Y-10350000D01*
X11642000Y-12162500D02*
X11642000Y-12337500D01*
X11554500Y-12250000D02*
X11729500Y-12250000D01*
X11642000Y-14062500D02*
X11642000Y-14237500D01*
X11554500Y-14150000D02*
X11729500Y-14150000D01*
X11642000Y-15962500D02*
X11642000Y-16137500D01*
X11554500Y-16050000D02*
X11729500Y-16050000D01*
X12658000Y-8362500D02*
X12658000Y-8537500D01*
X12570500Y-8450000D02*
X12745500Y-8450000D01*
X12658000Y-10262500D02*
X12658000Y-10437500D01*
X12570500Y-10350000D02*
X12745500Y-10350000D01*
X12658000Y-12162500D02*
X12658000Y-12337500D01*
X12570500Y-12250000D02*
X12745500Y-12250000D01*
X12658000Y-14062500D02*
X12658000Y-14237500D01*
X12570500Y-14150000D02*
X12745500Y-14150000D01*
X12658000Y-15962500D02*
X12658000Y-16137500D01*
X12570500Y-16050000D02*
X12745500Y-16050000D01*
X13542000Y-8362500D02*
X13542000Y-8537500D01*
X13454500Y-8450000D02*
X13629500Y-8450000D01*
X13542000Y-10262500D02*
X13542000Y-10437500D01*
X13454500Y-10350000D02*
X13629500Y-10350000D01*
X13542000Y-12162500D02*
X13542000Y-12337500D01*
X13454500Y-12250000D02*
X13629500Y-12250000D01*
X13542000Y-14062500D02*
X13542000Y-14237500D01*
X13454500Y-14150000D02*
X13629500Y-14150000D01*
X13542000Y-15962500D02*
X13542000Y-16137500D01*
X13454500Y-16050000D02*
X13629500Y-16050000D01*
X14558000Y-8362500D02*
X14558000Y-8537500D01*
X14470500Y-8450000D02*
X14645500Y-8450000D01*
X14558000Y-10262500D02*
X14558000Y-10437500D01*
X14470500Y-10350000D02*
X14645500Y-10350000D01*
X14558000Y-12162500D02*
X14558000Y-12337500D01*
X14470500Y-12250000D02*
X14645500Y-12250000D01*
X14558000Y-14062500D02*
X14558000Y-14237500D01*
X14470500Y-14150000D02*
X14645500Y-14150000D01*
X14558000Y-15962500D02*
X14558000Y-16137500D01*
X14470500Y-16050000D02*
X14645500Y-16050000D01*
D12*
X5320711Y-5320711D02*
X5320711Y-5179289D01*
X5179289Y-5179289D01*
X5179289Y-5320711D01*
X5320711Y-5320711D01*
X5320711Y-17320711D02*
X5320711Y-17179289D01*
X5179289Y-17179289D01*
X5179289Y-17320711D01*
X5320711Y-17320711D01*
X15320711Y-7320711D02*
X15320711Y-7179289D01*
X15179289Y-7179289D01*
X15179289Y-7320711D01*
X15320711Y-7320711D01*
X15320711Y-17320711D02*
X15320711Y-17179289D01*
X15179289Y-17179289D01*
X15179289Y-17320711D01*
X15320711Y-17320711D01*
D14*
X6450000Y-8649390D02*
X6649390Y-8450000D01*
X6450000Y-8250610D01*
X6250610Y-8450000D01*
X6450000Y-8649390D01*
X6450000Y-10549390D02*
X6649390Y-10350000D01*
X6450000Y-10150610D01*
X6250610Y-10350000D01*
X6450000Y-10549390D01*
X6450000Y-12449390D02*
X6649390Y-12250000D01*
X6450000Y-12050610D01*
X6250610Y-12250000D01*
X6450000Y-12449390D01*
X6450000Y-14349390D02*
X6649390Y-14150000D01*
X6450000Y-13950610D01*
X6250610Y-14150000D01*
X6450000Y-14349390D01*
X6450000Y-16249390D02*
X6649390Y-16050000D01*
X6450000Y-15850610D01*
X6250610Y-16050000D01*
X6450000Y-16249390D01*
X8350000Y-8649390D02*
X8549390Y-8450000D01*
X8350000Y-8250610D01*
X8150610Y-8450000D01*
X8350000Y-8649390D01*
X8350000Y-10549390D02*
X8549390Y-10350000D01*
X8350000Y-10150610D01*
X8150610Y-10350000D01*
X8350000Y-10549390D01*
X8350000Y-12449390D02*
X8549390Y-12250000D01*
X8350000Y-12050610D01*
X8150610Y-12250000D01*
X8350000Y-12449390D01*
X8350000Y-14349390D02*
X8549390Y-14150000D01*
X8350000Y-13950610D01*
X8150610Y-14150000D01*
X8350000Y-14349390D01*
X8350000Y-16249390D02*
X8549390Y-16050000D01*
X8350000Y-15850610D01*
X8150610Y-16050000D01*
X8350000Y-16249390D01*
X10250000Y-8649390D02*
X10449390Y-8450000D01*
X10250000Y-8250610D01*
X10050610Y-8450000D01*
X10250000Y-8649390D01*
X10250000Y-10549390D02*
X10449390Y-10350000D01*
X10250000Y-10150610D01*
X10050610Y-10350000D01*
X10250000Y-10549390D01*
X10250000Y-12449390D02*
X10449390Y-12250000D01*
X10250000Y-12050610D01*
X10050610Y-12250000D01*
X10250000Y-12449390D01*
X10250000Y-14349390D02*
X10449390Y-14150000D01*
X10250000Y-13950610D01*
X10050610Y-14150000D01*
X10250000Y-14349390D01*
X10250000Y-16249390D02*
X10449390Y-16050000D01*
X10250000Y-15850610D01*
X10050610Y-16050000D01*
X10250000Y-16249390D01*
X12150000Y-8649390D02*
X12349390Y-8450000D01*
X12150000Y-8250610D01*
X11950610Y-8450000D01*
X12150000Y-8649390D01*
X12150000Y-10549390D02*
X12349390Y-10350000D01*
X12150000Y-10150610D01*
X11950610Y-10350000D01*
X12150000Y-10549390D01*
X12150000Y-12449390D02*
X12349390Y-12250000D01*
X12150000Y-12050610D01*
X11950610Y-12250000D01*
X12150000Y-12449390D01*
X12150000Y-14349390D02*
X12349390Y-14150000D01*
X12150000Y-13950610D01*
X11950610Y-14150000D01*
X12150000Y-14349390D01*
X12150000Y-16249390D02*
X12349390Y-16050000D01*
X12150000Y-15850610D01*
X11950610Y-16050000D01*
X12150000Y-16249390D01*
X14050000Y-8649390D02*
X14249390Y-8450000D01*
X14050000Y-8250610D01*
X13850610Y-8450000D01*
X14050000Y-8649390D01*
X14050000Y-10549390D02*
X14249390Y-10350000D01*
X14050000Y-10150610D01*
X13850610Y-10350000D01*
X14050000Y-10549390D01*
X14050000Y-12449390D02*
X14249390Y-12250000D01*
X14050000Y-12050610D01*
X13850610Y-12250000D01*
X14050000Y-12449390D01*
X14050000Y-14349390D02*
X14249390Y-14150000D01*
X14050000Y-13950610D01*
X13850610Y-14150000D01*
X14050000Y-14349390D01*
X14050000Y-16249390D02*
X14249390Y-16050000D01*
X14050000Y-15850610D01*
X13850610Y-16050000D01*
X14050000Y-16249390D01*
D12*
X5258277Y-17813984D02*
X5258277Y-17613984D01*
X5258277Y-17613984D02*
X5305896Y-17613984D01*
X5305896Y-17613984D02*
X5334467Y-17623508D01*
X5334467Y-17623508D02*
X5353515Y-17642555D01*
X5353515Y-17642555D02*
X5363039Y-17661603D01*
X5363039Y-17661603D02*
X5372563Y-17699698D01*
X5372563Y-17699698D02*
X5372563Y-17728270D01*
X5372563Y-17728270D02*
X5363039Y-17766365D01*
X5363039Y-17766365D02*
X5353515Y-17785412D01*
X5353515Y-17785412D02*
X5334467Y-17804460D01*
X5334467Y-17804460D02*
X5305896Y-17813984D01*
X5305896Y-17813984D02*
X5258277Y-17813984D01*
X5458277Y-17813984D02*
X5458277Y-17680650D01*
X5458277Y-17718746D02*
X5467801Y-17699698D01*
X5467801Y-17699698D02*
X5477324Y-17690174D01*
X5477324Y-17690174D02*
X5496372Y-17680650D01*
X5496372Y-17680650D02*
X5515420Y-17680650D01*
X5582086Y-17813984D02*
X5582086Y-17680650D01*
X5582086Y-17613984D02*
X5572563Y-17623508D01*
X5572563Y-17623508D02*
X5582086Y-17633031D01*
X5582086Y-17633031D02*
X5591610Y-17623508D01*
X5591610Y-17623508D02*
X5582086Y-17613984D01*
X5582086Y-17613984D02*
X5582086Y-17633031D01*
X5705896Y-17813984D02*
X5686848Y-17804460D01*
X5686848Y-17804460D02*
X5677324Y-17785412D01*
X5677324Y-17785412D02*
X5677324Y-17613984D01*
X5810658Y-17813984D02*
X5791610Y-17804460D01*
X5791610Y-17804460D02*
X5782086Y-17785412D01*
X5782086Y-17785412D02*
X5782086Y-17613984D01*
X6039229Y-17813984D02*
X6039229Y-17613984D01*
X6039229Y-17613984D02*
X6105896Y-17756841D01*
X6105896Y-17756841D02*
X6172562Y-17613984D01*
X6172562Y-17613984D02*
X6172562Y-17813984D01*
X6353515Y-17813984D02*
X6353515Y-17709222D01*
X6353515Y-17709222D02*
X6343991Y-17690174D01*
X6343991Y-17690174D02*
X6324943Y-17680650D01*
X6324943Y-17680650D02*
X6286848Y-17680650D01*
X6286848Y-17680650D02*
X6267801Y-17690174D01*
X6353515Y-17804460D02*
X6334467Y-17813984D01*
X6334467Y-17813984D02*
X6286848Y-17813984D01*
X6286848Y-17813984D02*
X6267801Y-17804460D01*
X6267801Y-17804460D02*
X6258277Y-17785412D01*
X6258277Y-17785412D02*
X6258277Y-17766365D01*
X6258277Y-17766365D02*
X6267801Y-17747317D01*
X6267801Y-17747317D02*
X6286848Y-17737793D01*
X6286848Y-17737793D02*
X6334467Y-17737793D01*
X6334467Y-17737793D02*
X6353515Y-17728270D01*
X6448753Y-17680650D02*
X6448753Y-17880650D01*
X6448753Y-17690174D02*
X6467801Y-17680650D01*
X6467801Y-17680650D02*
X6505896Y-17680650D01*
X6505896Y-17680650D02*
X6524943Y-17690174D01*
X6524943Y-17690174D02*
X6534467Y-17699698D01*
X6534467Y-17699698D02*
X6543991Y-17718746D01*
X6543991Y-17718746D02*
X6543991Y-17775889D01*
X6543991Y-17775889D02*
X6534467Y-17794936D01*
X6534467Y-17794936D02*
X6524943Y-17804460D01*
X6524943Y-17804460D02*
X6505896Y-17813984D01*
X6505896Y-17813984D02*
X6467801Y-17813984D01*
X6467801Y-17813984D02*
X6448753Y-17804460D01*
X6629705Y-17794936D02*
X6639229Y-17804460D01*
X6639229Y-17804460D02*
X6629705Y-17813984D01*
X6629705Y-17813984D02*
X6620182Y-17804460D01*
X6620182Y-17804460D02*
X6629705Y-17794936D01*
X6629705Y-17794936D02*
X6629705Y-17813984D01*
X6629705Y-17690174D02*
X6639229Y-17699698D01*
X6639229Y-17699698D02*
X6629705Y-17709222D01*
X6629705Y-17709222D02*
X6620182Y-17699698D01*
X6620182Y-17699698D02*
X6629705Y-17690174D01*
X6629705Y-17690174D02*
X6629705Y-17709222D01*
D11*
X4922500Y-18105000D02*
X4997500Y-18180000D01*
X4997500Y-18105000D02*
X4922500Y-18180000D01*
D12*
X5296372Y-18033984D02*
X5315420Y-18033984D01*
X5315420Y-18033984D02*
X5334467Y-18043508D01*
X5334467Y-18043508D02*
X5343991Y-18053031D01*
X5343991Y-18053031D02*
X5353515Y-18072079D01*
X5353515Y-18072079D02*
X5363039Y-18110174D01*
X5363039Y-18110174D02*
X5363039Y-18157793D01*
X5363039Y-18157793D02*
X5353515Y-18195889D01*
X5353515Y-18195889D02*
X5343991Y-18214936D01*
X5343991Y-18214936D02*
X5334467Y-18224460D01*
X5334467Y-18224460D02*
X5315420Y-18233984D01*
X5315420Y-18233984D02*
X5296372Y-18233984D01*
X5296372Y-18233984D02*
X5277324Y-18224460D01*
X5277324Y-18224460D02*
X5267801Y-18214936D01*
X5267801Y-18214936D02*
X5258277Y-18195889D01*
X5258277Y-18195889D02*
X5248753Y-18157793D01*
X5248753Y-18157793D02*
X5248753Y-18110174D01*
X5248753Y-18110174D02*
X5258277Y-18072079D01*
X5258277Y-18072079D02*
X5267801Y-18053031D01*
X5267801Y-18053031D02*
X5277324Y-18043508D01*
X5277324Y-18043508D02*
X5296372Y-18033984D01*
X5448753Y-18214936D02*
X5458277Y-18224460D01*
X5458277Y-18224460D02*
X5448753Y-18233984D01*
X5448753Y-18233984D02*
X5439229Y-18224460D01*
X5439229Y-18224460D02*
X5448753Y-18214936D01*
X5448753Y-18214936D02*
X5448753Y-18233984D01*
X5524944Y-18033984D02*
X5658277Y-18033984D01*
X5658277Y-18033984D02*
X5572563Y-18233984D01*
X5829705Y-18033984D02*
X5734467Y-18033984D01*
X5734467Y-18033984D02*
X5724943Y-18129222D01*
X5724943Y-18129222D02*
X5734467Y-18119698D01*
X5734467Y-18119698D02*
X5753515Y-18110174D01*
X5753515Y-18110174D02*
X5801134Y-18110174D01*
X5801134Y-18110174D02*
X5820182Y-18119698D01*
X5820182Y-18119698D02*
X5829705Y-18129222D01*
X5829705Y-18129222D02*
X5839229Y-18148270D01*
X5839229Y-18148270D02*
X5839229Y-18195889D01*
X5839229Y-18195889D02*
X5829705Y-18214936D01*
X5829705Y-18214936D02*
X5820182Y-18224460D01*
X5820182Y-18224460D02*
X5801134Y-18233984D01*
X5801134Y-18233984D02*
X5753515Y-18233984D01*
X5753515Y-18233984D02*
X5734467Y-18224460D01*
X5734467Y-18224460D02*
X5724943Y-18214936D01*
X5963039Y-18033984D02*
X5982086Y-18033984D01*
X5982086Y-18033984D02*
X6001134Y-18043508D01*
X6001134Y-18043508D02*
X6010658Y-18053031D01*
X6010658Y-18053031D02*
X6020182Y-18072079D01*
X6020182Y-18072079D02*
X6029705Y-18110174D01*
X6029705Y-18110174D02*
X6029705Y-18157793D01*
X6029705Y-18157793D02*
X6020182Y-18195889D01*
X6020182Y-18195889D02*
X6010658Y-18214936D01*
X6010658Y-18214936D02*
X6001134Y-18224460D01*
X6001134Y-18224460D02*
X5982086Y-18233984D01*
X5982086Y-18233984D02*
X5963039Y-18233984D01*
X5963039Y-18233984D02*
X5943991Y-18224460D01*
X5943991Y-18224460D02*
X5934467Y-18214936D01*
X5934467Y-18214936D02*
X5924943Y-18195889D01*
X5924943Y-18195889D02*
X5915420Y-18157793D01*
X5915420Y-18157793D02*
X5915420Y-18110174D01*
X5915420Y-18110174D02*
X5924943Y-18072079D01*
X5924943Y-18072079D02*
X5934467Y-18053031D01*
X5934467Y-18053031D02*
X5943991Y-18043508D01*
X5943991Y-18043508D02*
X5963039Y-18033984D01*
X6115420Y-18233984D02*
X6115420Y-18100650D01*
X6115420Y-18119698D02*
X6124943Y-18110174D01*
X6124943Y-18110174D02*
X6143991Y-18100650D01*
X6143991Y-18100650D02*
X6172563Y-18100650D01*
X6172563Y-18100650D02*
X6191610Y-18110174D01*
X6191610Y-18110174D02*
X6201134Y-18129222D01*
X6201134Y-18129222D02*
X6201134Y-18233984D01*
X6201134Y-18129222D02*
X6210658Y-18110174D01*
X6210658Y-18110174D02*
X6229705Y-18100650D01*
X6229705Y-18100650D02*
X6258277Y-18100650D01*
X6258277Y-18100650D02*
X6277324Y-18110174D01*
X6277324Y-18110174D02*
X6286848Y-18129222D01*
X6286848Y-18129222D02*
X6286848Y-18233984D01*
X6382086Y-18233984D02*
X6382086Y-18100650D01*
X6382086Y-18119698D02*
X6391610Y-18110174D01*
X6391610Y-18110174D02*
X6410658Y-18100650D01*
X6410658Y-18100650D02*
X6439229Y-18100650D01*
X6439229Y-18100650D02*
X6458277Y-18110174D01*
X6458277Y-18110174D02*
X6467801Y-18129222D01*
X6467801Y-18129222D02*
X6467801Y-18233984D01*
X6467801Y-18129222D02*
X6477324Y-18110174D01*
X6477324Y-18110174D02*
X6496372Y-18100650D01*
X6496372Y-18100650D02*
X6524943Y-18100650D01*
X6524943Y-18100650D02*
X6543991Y-18110174D01*
X6543991Y-18110174D02*
X6553515Y-18129222D01*
X6553515Y-18129222D02*
X6553515Y-18233984D01*
X6943991Y-18024460D02*
X6772563Y-18281603D01*
X7201134Y-18033984D02*
X7220182Y-18033984D01*
X7220182Y-18033984D02*
X7239229Y-18043508D01*
X7239229Y-18043508D02*
X7248753Y-18053031D01*
X7248753Y-18053031D02*
X7258277Y-18072079D01*
X7258277Y-18072079D02*
X7267801Y-18110174D01*
X7267801Y-18110174D02*
X7267801Y-18157793D01*
X7267801Y-18157793D02*
X7258277Y-18195889D01*
X7258277Y-18195889D02*
X7248753Y-18214936D01*
X7248753Y-18214936D02*
X7239229Y-18224460D01*
X7239229Y-18224460D02*
X7220182Y-18233984D01*
X7220182Y-18233984D02*
X7201134Y-18233984D01*
X7201134Y-18233984D02*
X7182086Y-18224460D01*
X7182086Y-18224460D02*
X7172563Y-18214936D01*
X7172563Y-18214936D02*
X7163039Y-18195889D01*
X7163039Y-18195889D02*
X7153515Y-18157793D01*
X7153515Y-18157793D02*
X7153515Y-18110174D01*
X7153515Y-18110174D02*
X7163039Y-18072079D01*
X7163039Y-18072079D02*
X7172563Y-18053031D01*
X7172563Y-18053031D02*
X7182086Y-18043508D01*
X7182086Y-18043508D02*
X7201134Y-18033984D01*
X7353515Y-18214936D02*
X7363039Y-18224460D01*
X7363039Y-18224460D02*
X7353515Y-18233984D01*
X7353515Y-18233984D02*
X7343991Y-18224460D01*
X7343991Y-18224460D02*
X7353515Y-18214936D01*
X7353515Y-18214936D02*
X7353515Y-18233984D01*
X7486848Y-18033984D02*
X7505896Y-18033984D01*
X7505896Y-18033984D02*
X7524944Y-18043508D01*
X7524944Y-18043508D02*
X7534467Y-18053031D01*
X7534467Y-18053031D02*
X7543991Y-18072079D01*
X7543991Y-18072079D02*
X7553515Y-18110174D01*
X7553515Y-18110174D02*
X7553515Y-18157793D01*
X7553515Y-18157793D02*
X7543991Y-18195889D01*
X7543991Y-18195889D02*
X7534467Y-18214936D01*
X7534467Y-18214936D02*
X7524944Y-18224460D01*
X7524944Y-18224460D02*
X7505896Y-18233984D01*
X7505896Y-18233984D02*
X7486848Y-18233984D01*
X7486848Y-18233984D02*
X7467801Y-18224460D01*
X7467801Y-18224460D02*
X7458277Y-18214936D01*
X7458277Y-18214936D02*
X7448753Y-18195889D01*
X7448753Y-18195889D02*
X7439229Y-18157793D01*
X7439229Y-18157793D02*
X7439229Y-18110174D01*
X7439229Y-18110174D02*
X7448753Y-18072079D01*
X7448753Y-18072079D02*
X7458277Y-18053031D01*
X7458277Y-18053031D02*
X7467801Y-18043508D01*
X7467801Y-18043508D02*
X7486848Y-18033984D01*
X7629706Y-18053031D02*
X7639229Y-18043508D01*
X7639229Y-18043508D02*
X7658277Y-18033984D01*
X7658277Y-18033984D02*
X7705896Y-18033984D01*
X7705896Y-18033984D02*
X7724944Y-18043508D01*
X7724944Y-18043508D02*
X7734467Y-18053031D01*
X7734467Y-18053031D02*
X7743991Y-18072079D01*
X7743991Y-18072079D02*
X7743991Y-18091127D01*
X7743991Y-18091127D02*
X7734467Y-18119698D01*
X7734467Y-18119698D02*
X7620182Y-18233984D01*
X7620182Y-18233984D02*
X7743991Y-18233984D01*
X7839229Y-18233984D02*
X7877325Y-18233984D01*
X7877325Y-18233984D02*
X7896372Y-18224460D01*
X7896372Y-18224460D02*
X7905896Y-18214936D01*
X7905896Y-18214936D02*
X7924944Y-18186365D01*
X7924944Y-18186365D02*
X7934467Y-18148270D01*
X7934467Y-18148270D02*
X7934467Y-18072079D01*
X7934467Y-18072079D02*
X7924944Y-18053031D01*
X7924944Y-18053031D02*
X7915420Y-18043508D01*
X7915420Y-18043508D02*
X7896372Y-18033984D01*
X7896372Y-18033984D02*
X7858277Y-18033984D01*
X7858277Y-18033984D02*
X7839229Y-18043508D01*
X7839229Y-18043508D02*
X7829706Y-18053031D01*
X7829706Y-18053031D02*
X7820182Y-18072079D01*
X7820182Y-18072079D02*
X7820182Y-18119698D01*
X7820182Y-18119698D02*
X7829706Y-18138746D01*
X7829706Y-18138746D02*
X7839229Y-18148270D01*
X7839229Y-18148270D02*
X7858277Y-18157793D01*
X7858277Y-18157793D02*
X7896372Y-18157793D01*
X7896372Y-18157793D02*
X7915420Y-18148270D01*
X7915420Y-18148270D02*
X7924944Y-18138746D01*
X7924944Y-18138746D02*
X7934467Y-18119698D01*
X8115420Y-18033984D02*
X8020182Y-18033984D01*
X8020182Y-18033984D02*
X8010658Y-18129222D01*
X8010658Y-18129222D02*
X8020182Y-18119698D01*
X8020182Y-18119698D02*
X8039229Y-18110174D01*
X8039229Y-18110174D02*
X8086848Y-18110174D01*
X8086848Y-18110174D02*
X8105896Y-18119698D01*
X8105896Y-18119698D02*
X8115420Y-18129222D01*
X8115420Y-18129222D02*
X8124944Y-18148270D01*
X8124944Y-18148270D02*
X8124944Y-18195889D01*
X8124944Y-18195889D02*
X8115420Y-18214936D01*
X8115420Y-18214936D02*
X8105896Y-18224460D01*
X8105896Y-18224460D02*
X8086848Y-18233984D01*
X8086848Y-18233984D02*
X8039229Y-18233984D01*
X8039229Y-18233984D02*
X8020182Y-18224460D01*
X8020182Y-18224460D02*
X8010658Y-18214936D01*
X8201134Y-18033984D02*
X8201134Y-18072079D01*
X8277325Y-18033984D02*
X8277325Y-18072079D01*
X8572563Y-18310174D02*
X8563039Y-18300650D01*
X8563039Y-18300650D02*
X8543991Y-18272079D01*
X8543991Y-18272079D02*
X8534468Y-18253031D01*
X8534468Y-18253031D02*
X8524944Y-18224460D01*
X8524944Y-18224460D02*
X8515420Y-18176841D01*
X8515420Y-18176841D02*
X8515420Y-18138746D01*
X8515420Y-18138746D02*
X8524944Y-18091127D01*
X8524944Y-18091127D02*
X8534468Y-18062555D01*
X8534468Y-18062555D02*
X8543991Y-18043508D01*
X8543991Y-18043508D02*
X8563039Y-18014936D01*
X8563039Y-18014936D02*
X8572563Y-18005412D01*
X8639230Y-18053031D02*
X8648753Y-18043508D01*
X8648753Y-18043508D02*
X8667801Y-18033984D01*
X8667801Y-18033984D02*
X8715420Y-18033984D01*
X8715420Y-18033984D02*
X8734468Y-18043508D01*
X8734468Y-18043508D02*
X8743991Y-18053031D01*
X8743991Y-18053031D02*
X8753515Y-18072079D01*
X8753515Y-18072079D02*
X8753515Y-18091127D01*
X8753515Y-18091127D02*
X8743991Y-18119698D01*
X8743991Y-18119698D02*
X8629706Y-18233984D01*
X8629706Y-18233984D02*
X8753515Y-18233984D01*
X8991611Y-18233984D02*
X8991611Y-18033984D01*
X9077325Y-18233984D02*
X9077325Y-18129222D01*
X9077325Y-18129222D02*
X9067801Y-18110174D01*
X9067801Y-18110174D02*
X9048753Y-18100650D01*
X9048753Y-18100650D02*
X9020182Y-18100650D01*
X9020182Y-18100650D02*
X9001134Y-18110174D01*
X9001134Y-18110174D02*
X8991611Y-18119698D01*
X9201134Y-18233984D02*
X9182087Y-18224460D01*
X9182087Y-18224460D02*
X9172563Y-18214936D01*
X9172563Y-18214936D02*
X9163039Y-18195889D01*
X9163039Y-18195889D02*
X9163039Y-18138746D01*
X9163039Y-18138746D02*
X9172563Y-18119698D01*
X9172563Y-18119698D02*
X9182087Y-18110174D01*
X9182087Y-18110174D02*
X9201134Y-18100650D01*
X9201134Y-18100650D02*
X9229706Y-18100650D01*
X9229706Y-18100650D02*
X9248753Y-18110174D01*
X9248753Y-18110174D02*
X9258277Y-18119698D01*
X9258277Y-18119698D02*
X9267801Y-18138746D01*
X9267801Y-18138746D02*
X9267801Y-18195889D01*
X9267801Y-18195889D02*
X9258277Y-18214936D01*
X9258277Y-18214936D02*
X9248753Y-18224460D01*
X9248753Y-18224460D02*
X9229706Y-18233984D01*
X9229706Y-18233984D02*
X9201134Y-18233984D01*
X9382087Y-18233984D02*
X9363039Y-18224460D01*
X9363039Y-18224460D02*
X9353515Y-18205412D01*
X9353515Y-18205412D02*
X9353515Y-18033984D01*
X9534468Y-18224460D02*
X9515420Y-18233984D01*
X9515420Y-18233984D02*
X9477325Y-18233984D01*
X9477325Y-18233984D02*
X9458277Y-18224460D01*
X9458277Y-18224460D02*
X9448753Y-18205412D01*
X9448753Y-18205412D02*
X9448753Y-18129222D01*
X9448753Y-18129222D02*
X9458277Y-18110174D01*
X9458277Y-18110174D02*
X9477325Y-18100650D01*
X9477325Y-18100650D02*
X9515420Y-18100650D01*
X9515420Y-18100650D02*
X9534468Y-18110174D01*
X9534468Y-18110174D02*
X9543992Y-18129222D01*
X9543992Y-18129222D02*
X9543992Y-18148270D01*
X9543992Y-18148270D02*
X9448753Y-18167317D01*
X9620182Y-18224460D02*
X9639230Y-18233984D01*
X9639230Y-18233984D02*
X9677325Y-18233984D01*
X9677325Y-18233984D02*
X9696373Y-18224460D01*
X9696373Y-18224460D02*
X9705896Y-18205412D01*
X9705896Y-18205412D02*
X9705896Y-18195889D01*
X9705896Y-18195889D02*
X9696373Y-18176841D01*
X9696373Y-18176841D02*
X9677325Y-18167317D01*
X9677325Y-18167317D02*
X9648753Y-18167317D01*
X9648753Y-18167317D02*
X9629706Y-18157793D01*
X9629706Y-18157793D02*
X9620182Y-18138746D01*
X9620182Y-18138746D02*
X9620182Y-18129222D01*
X9620182Y-18129222D02*
X9629706Y-18110174D01*
X9629706Y-18110174D02*
X9648753Y-18100650D01*
X9648753Y-18100650D02*
X9677325Y-18100650D01*
X9677325Y-18100650D02*
X9696373Y-18110174D01*
X9772563Y-18310174D02*
X9782087Y-18300650D01*
X9782087Y-18300650D02*
X9801134Y-18272079D01*
X9801134Y-18272079D02*
X9810658Y-18253031D01*
X9810658Y-18253031D02*
X9820182Y-18224460D01*
X9820182Y-18224460D02*
X9829706Y-18176841D01*
X9829706Y-18176841D02*
X9829706Y-18138746D01*
X9829706Y-18138746D02*
X9820182Y-18091127D01*
X9820182Y-18091127D02*
X9810658Y-18062555D01*
X9810658Y-18062555D02*
X9801134Y-18043508D01*
X9801134Y-18043508D02*
X9782087Y-18014936D01*
X9782087Y-18014936D02*
X9772563Y-18005412D01*
X10134468Y-18310174D02*
X10124944Y-18300650D01*
X10124944Y-18300650D02*
X10105896Y-18272079D01*
X10105896Y-18272079D02*
X10096373Y-18253031D01*
X10096373Y-18253031D02*
X10086849Y-18224460D01*
X10086849Y-18224460D02*
X10077325Y-18176841D01*
X10077325Y-18176841D02*
X10077325Y-18138746D01*
X10077325Y-18138746D02*
X10086849Y-18091127D01*
X10086849Y-18091127D02*
X10096373Y-18062555D01*
X10096373Y-18062555D02*
X10105896Y-18043508D01*
X10105896Y-18043508D02*
X10124944Y-18014936D01*
X10124944Y-18014936D02*
X10134468Y-18005412D01*
X10210658Y-18100650D02*
X10210658Y-18233984D01*
X10210658Y-18119698D02*
X10220182Y-18110174D01*
X10220182Y-18110174D02*
X10239230Y-18100650D01*
X10239230Y-18100650D02*
X10267801Y-18100650D01*
X10267801Y-18100650D02*
X10286849Y-18110174D01*
X10286849Y-18110174D02*
X10296373Y-18129222D01*
X10296373Y-18129222D02*
X10296373Y-18233984D01*
X10420182Y-18233984D02*
X10401134Y-18224460D01*
X10401134Y-18224460D02*
X10391611Y-18214936D01*
X10391611Y-18214936D02*
X10382087Y-18195889D01*
X10382087Y-18195889D02*
X10382087Y-18138746D01*
X10382087Y-18138746D02*
X10391611Y-18119698D01*
X10391611Y-18119698D02*
X10401134Y-18110174D01*
X10401134Y-18110174D02*
X10420182Y-18100650D01*
X10420182Y-18100650D02*
X10448754Y-18100650D01*
X10448754Y-18100650D02*
X10467801Y-18110174D01*
X10467801Y-18110174D02*
X10477325Y-18119698D01*
X10477325Y-18119698D02*
X10486849Y-18138746D01*
X10486849Y-18138746D02*
X10486849Y-18195889D01*
X10486849Y-18195889D02*
X10477325Y-18214936D01*
X10477325Y-18214936D02*
X10467801Y-18224460D01*
X10467801Y-18224460D02*
X10448754Y-18233984D01*
X10448754Y-18233984D02*
X10420182Y-18233984D01*
X10543992Y-18100650D02*
X10620182Y-18100650D01*
X10572563Y-18033984D02*
X10572563Y-18205412D01*
X10572563Y-18205412D02*
X10582087Y-18224460D01*
X10582087Y-18224460D02*
X10601134Y-18233984D01*
X10601134Y-18233984D02*
X10620182Y-18233984D01*
X10839230Y-18100650D02*
X10839230Y-18300650D01*
X10839230Y-18110174D02*
X10858277Y-18100650D01*
X10858277Y-18100650D02*
X10896373Y-18100650D01*
X10896373Y-18100650D02*
X10915420Y-18110174D01*
X10915420Y-18110174D02*
X10924944Y-18119698D01*
X10924944Y-18119698D02*
X10934468Y-18138746D01*
X10934468Y-18138746D02*
X10934468Y-18195889D01*
X10934468Y-18195889D02*
X10924944Y-18214936D01*
X10924944Y-18214936D02*
X10915420Y-18224460D01*
X10915420Y-18224460D02*
X10896373Y-18233984D01*
X10896373Y-18233984D02*
X10858277Y-18233984D01*
X10858277Y-18233984D02*
X10839230Y-18224460D01*
X11048754Y-18233984D02*
X11029706Y-18224460D01*
X11029706Y-18224460D02*
X11020182Y-18205412D01*
X11020182Y-18205412D02*
X11020182Y-18033984D01*
X11210658Y-18233984D02*
X11210658Y-18129222D01*
X11210658Y-18129222D02*
X11201134Y-18110174D01*
X11201134Y-18110174D02*
X11182087Y-18100650D01*
X11182087Y-18100650D02*
X11143992Y-18100650D01*
X11143992Y-18100650D02*
X11124944Y-18110174D01*
X11210658Y-18224460D02*
X11191611Y-18233984D01*
X11191611Y-18233984D02*
X11143992Y-18233984D01*
X11143992Y-18233984D02*
X11124944Y-18224460D01*
X11124944Y-18224460D02*
X11115420Y-18205412D01*
X11115420Y-18205412D02*
X11115420Y-18186365D01*
X11115420Y-18186365D02*
X11124944Y-18167317D01*
X11124944Y-18167317D02*
X11143992Y-18157793D01*
X11143992Y-18157793D02*
X11191611Y-18157793D01*
X11191611Y-18157793D02*
X11210658Y-18148270D01*
X11277325Y-18100650D02*
X11353515Y-18100650D01*
X11305896Y-18033984D02*
X11305896Y-18205412D01*
X11305896Y-18205412D02*
X11315420Y-18224460D01*
X11315420Y-18224460D02*
X11334468Y-18233984D01*
X11334468Y-18233984D02*
X11353515Y-18233984D01*
X11496373Y-18224460D02*
X11477325Y-18233984D01*
X11477325Y-18233984D02*
X11439230Y-18233984D01*
X11439230Y-18233984D02*
X11420182Y-18224460D01*
X11420182Y-18224460D02*
X11410658Y-18205412D01*
X11410658Y-18205412D02*
X11410658Y-18129222D01*
X11410658Y-18129222D02*
X11420182Y-18110174D01*
X11420182Y-18110174D02*
X11439230Y-18100650D01*
X11439230Y-18100650D02*
X11477325Y-18100650D01*
X11477325Y-18100650D02*
X11496373Y-18110174D01*
X11496373Y-18110174D02*
X11505896Y-18129222D01*
X11505896Y-18129222D02*
X11505896Y-18148270D01*
X11505896Y-18148270D02*
X11410658Y-18167317D01*
X11677325Y-18233984D02*
X11677325Y-18033984D01*
X11677325Y-18224460D02*
X11658277Y-18233984D01*
X11658277Y-18233984D02*
X11620182Y-18233984D01*
X11620182Y-18233984D02*
X11601134Y-18224460D01*
X11601134Y-18224460D02*
X11591611Y-18214936D01*
X11591611Y-18214936D02*
X11582087Y-18195889D01*
X11582087Y-18195889D02*
X11582087Y-18138746D01*
X11582087Y-18138746D02*
X11591611Y-18119698D01*
X11591611Y-18119698D02*
X11601134Y-18110174D01*
X11601134Y-18110174D02*
X11620182Y-18100650D01*
X11620182Y-18100650D02*
X11658277Y-18100650D01*
X11658277Y-18100650D02*
X11677325Y-18110174D01*
X11753515Y-18310174D02*
X11763039Y-18300650D01*
X11763039Y-18300650D02*
X11782087Y-18272079D01*
X11782087Y-18272079D02*
X11791611Y-18253031D01*
X11791611Y-18253031D02*
X11801134Y-18224460D01*
X11801134Y-18224460D02*
X11810658Y-18176841D01*
X11810658Y-18176841D02*
X11810658Y-18138746D01*
X11810658Y-18138746D02*
X11801134Y-18091127D01*
X11801134Y-18091127D02*
X11791611Y-18062555D01*
X11791611Y-18062555D02*
X11782087Y-18043508D01*
X11782087Y-18043508D02*
X11763039Y-18014936D01*
X11763039Y-18014936D02*
X11753515Y-18005412D01*
D11*
X4997500Y-18406500D02*
G75*
G02*
X4907500Y-18406500I-45000J0D01*
G01*
X4907500Y-18406500D02*
G75*
G02*
X4997500Y-18406500I45000J0D01*
G01*
D12*
X5296372Y-18297984D02*
X5315420Y-18297984D01*
X5315420Y-18297984D02*
X5334467Y-18307508D01*
X5334467Y-18307508D02*
X5343991Y-18317031D01*
X5343991Y-18317031D02*
X5353515Y-18336079D01*
X5353515Y-18336079D02*
X5363039Y-18374174D01*
X5363039Y-18374174D02*
X5363039Y-18421793D01*
X5363039Y-18421793D02*
X5353515Y-18459889D01*
X5353515Y-18459889D02*
X5343991Y-18478936D01*
X5343991Y-18478936D02*
X5334467Y-18488460D01*
X5334467Y-18488460D02*
X5315420Y-18497984D01*
X5315420Y-18497984D02*
X5296372Y-18497984D01*
X5296372Y-18497984D02*
X5277324Y-18488460D01*
X5277324Y-18488460D02*
X5267801Y-18478936D01*
X5267801Y-18478936D02*
X5258277Y-18459889D01*
X5258277Y-18459889D02*
X5248753Y-18421793D01*
X5248753Y-18421793D02*
X5248753Y-18374174D01*
X5248753Y-18374174D02*
X5258277Y-18336079D01*
X5258277Y-18336079D02*
X5267801Y-18317031D01*
X5267801Y-18317031D02*
X5277324Y-18307508D01*
X5277324Y-18307508D02*
X5296372Y-18297984D01*
X5448753Y-18478936D02*
X5458277Y-18488460D01*
X5458277Y-18488460D02*
X5448753Y-18497984D01*
X5448753Y-18497984D02*
X5439229Y-18488460D01*
X5439229Y-18488460D02*
X5448753Y-18478936D01*
X5448753Y-18478936D02*
X5448753Y-18497984D01*
X5553515Y-18497984D02*
X5591610Y-18497984D01*
X5591610Y-18497984D02*
X5610658Y-18488460D01*
X5610658Y-18488460D02*
X5620182Y-18478936D01*
X5620182Y-18478936D02*
X5639229Y-18450365D01*
X5639229Y-18450365D02*
X5648753Y-18412270D01*
X5648753Y-18412270D02*
X5648753Y-18336079D01*
X5648753Y-18336079D02*
X5639229Y-18317031D01*
X5639229Y-18317031D02*
X5629705Y-18307508D01*
X5629705Y-18307508D02*
X5610658Y-18297984D01*
X5610658Y-18297984D02*
X5572563Y-18297984D01*
X5572563Y-18297984D02*
X5553515Y-18307508D01*
X5553515Y-18307508D02*
X5543991Y-18317031D01*
X5543991Y-18317031D02*
X5534467Y-18336079D01*
X5534467Y-18336079D02*
X5534467Y-18383698D01*
X5534467Y-18383698D02*
X5543991Y-18402746D01*
X5543991Y-18402746D02*
X5553515Y-18412270D01*
X5553515Y-18412270D02*
X5572563Y-18421793D01*
X5572563Y-18421793D02*
X5610658Y-18421793D01*
X5610658Y-18421793D02*
X5629705Y-18412270D01*
X5629705Y-18412270D02*
X5639229Y-18402746D01*
X5639229Y-18402746D02*
X5648753Y-18383698D01*
X5772562Y-18297984D02*
X5791610Y-18297984D01*
X5791610Y-18297984D02*
X5810658Y-18307508D01*
X5810658Y-18307508D02*
X5820182Y-18317031D01*
X5820182Y-18317031D02*
X5829705Y-18336079D01*
X5829705Y-18336079D02*
X5839229Y-18374174D01*
X5839229Y-18374174D02*
X5839229Y-18421793D01*
X5839229Y-18421793D02*
X5829705Y-18459889D01*
X5829705Y-18459889D02*
X5820182Y-18478936D01*
X5820182Y-18478936D02*
X5810658Y-18488460D01*
X5810658Y-18488460D02*
X5791610Y-18497984D01*
X5791610Y-18497984D02*
X5772562Y-18497984D01*
X5772562Y-18497984D02*
X5753515Y-18488460D01*
X5753515Y-18488460D02*
X5743991Y-18478936D01*
X5743991Y-18478936D02*
X5734467Y-18459889D01*
X5734467Y-18459889D02*
X5724943Y-18421793D01*
X5724943Y-18421793D02*
X5724943Y-18374174D01*
X5724943Y-18374174D02*
X5734467Y-18336079D01*
X5734467Y-18336079D02*
X5743991Y-18317031D01*
X5743991Y-18317031D02*
X5753515Y-18307508D01*
X5753515Y-18307508D02*
X5772562Y-18297984D01*
X5963039Y-18297984D02*
X5982086Y-18297984D01*
X5982086Y-18297984D02*
X6001134Y-18307508D01*
X6001134Y-18307508D02*
X6010658Y-18317031D01*
X6010658Y-18317031D02*
X6020182Y-18336079D01*
X6020182Y-18336079D02*
X6029705Y-18374174D01*
X6029705Y-18374174D02*
X6029705Y-18421793D01*
X6029705Y-18421793D02*
X6020182Y-18459889D01*
X6020182Y-18459889D02*
X6010658Y-18478936D01*
X6010658Y-18478936D02*
X6001134Y-18488460D01*
X6001134Y-18488460D02*
X5982086Y-18497984D01*
X5982086Y-18497984D02*
X5963039Y-18497984D01*
X5963039Y-18497984D02*
X5943991Y-18488460D01*
X5943991Y-18488460D02*
X5934467Y-18478936D01*
X5934467Y-18478936D02*
X5924943Y-18459889D01*
X5924943Y-18459889D02*
X5915420Y-18421793D01*
X5915420Y-18421793D02*
X5915420Y-18374174D01*
X5915420Y-18374174D02*
X5924943Y-18336079D01*
X5924943Y-18336079D02*
X5934467Y-18317031D01*
X5934467Y-18317031D02*
X5943991Y-18307508D01*
X5943991Y-18307508D02*
X5963039Y-18297984D01*
X6115420Y-18497984D02*
X6115420Y-18364650D01*
X6115420Y-18383698D02*
X6124943Y-18374174D01*
X6124943Y-18374174D02*
X6143991Y-18364650D01*
X6143991Y-18364650D02*
X6172563Y-18364650D01*
X6172563Y-18364650D02*
X6191610Y-18374174D01*
X6191610Y-18374174D02*
X6201134Y-18393222D01*
X6201134Y-18393222D02*
X6201134Y-18497984D01*
X6201134Y-18393222D02*
X6210658Y-18374174D01*
X6210658Y-18374174D02*
X6229705Y-18364650D01*
X6229705Y-18364650D02*
X6258277Y-18364650D01*
X6258277Y-18364650D02*
X6277324Y-18374174D01*
X6277324Y-18374174D02*
X6286848Y-18393222D01*
X6286848Y-18393222D02*
X6286848Y-18497984D01*
X6382086Y-18497984D02*
X6382086Y-18364650D01*
X6382086Y-18383698D02*
X6391610Y-18374174D01*
X6391610Y-18374174D02*
X6410658Y-18364650D01*
X6410658Y-18364650D02*
X6439229Y-18364650D01*
X6439229Y-18364650D02*
X6458277Y-18374174D01*
X6458277Y-18374174D02*
X6467801Y-18393222D01*
X6467801Y-18393222D02*
X6467801Y-18497984D01*
X6467801Y-18393222D02*
X6477324Y-18374174D01*
X6477324Y-18374174D02*
X6496372Y-18364650D01*
X6496372Y-18364650D02*
X6524943Y-18364650D01*
X6524943Y-18364650D02*
X6543991Y-18374174D01*
X6543991Y-18374174D02*
X6553515Y-18393222D01*
X6553515Y-18393222D02*
X6553515Y-18497984D01*
X6943991Y-18288460D02*
X6772563Y-18545603D01*
X7201134Y-18297984D02*
X7220182Y-18297984D01*
X7220182Y-18297984D02*
X7239229Y-18307508D01*
X7239229Y-18307508D02*
X7248753Y-18317031D01*
X7248753Y-18317031D02*
X7258277Y-18336079D01*
X7258277Y-18336079D02*
X7267801Y-18374174D01*
X7267801Y-18374174D02*
X7267801Y-18421793D01*
X7267801Y-18421793D02*
X7258277Y-18459889D01*
X7258277Y-18459889D02*
X7248753Y-18478936D01*
X7248753Y-18478936D02*
X7239229Y-18488460D01*
X7239229Y-18488460D02*
X7220182Y-18497984D01*
X7220182Y-18497984D02*
X7201134Y-18497984D01*
X7201134Y-18497984D02*
X7182086Y-18488460D01*
X7182086Y-18488460D02*
X7172563Y-18478936D01*
X7172563Y-18478936D02*
X7163039Y-18459889D01*
X7163039Y-18459889D02*
X7153515Y-18421793D01*
X7153515Y-18421793D02*
X7153515Y-18374174D01*
X7153515Y-18374174D02*
X7163039Y-18336079D01*
X7163039Y-18336079D02*
X7172563Y-18317031D01*
X7172563Y-18317031D02*
X7182086Y-18307508D01*
X7182086Y-18307508D02*
X7201134Y-18297984D01*
X7353515Y-18478936D02*
X7363039Y-18488460D01*
X7363039Y-18488460D02*
X7353515Y-18497984D01*
X7353515Y-18497984D02*
X7343991Y-18488460D01*
X7343991Y-18488460D02*
X7353515Y-18478936D01*
X7353515Y-18478936D02*
X7353515Y-18497984D01*
X7486848Y-18297984D02*
X7505896Y-18297984D01*
X7505896Y-18297984D02*
X7524944Y-18307508D01*
X7524944Y-18307508D02*
X7534467Y-18317031D01*
X7534467Y-18317031D02*
X7543991Y-18336079D01*
X7543991Y-18336079D02*
X7553515Y-18374174D01*
X7553515Y-18374174D02*
X7553515Y-18421793D01*
X7553515Y-18421793D02*
X7543991Y-18459889D01*
X7543991Y-18459889D02*
X7534467Y-18478936D01*
X7534467Y-18478936D02*
X7524944Y-18488460D01*
X7524944Y-18488460D02*
X7505896Y-18497984D01*
X7505896Y-18497984D02*
X7486848Y-18497984D01*
X7486848Y-18497984D02*
X7467801Y-18488460D01*
X7467801Y-18488460D02*
X7458277Y-18478936D01*
X7458277Y-18478936D02*
X7448753Y-18459889D01*
X7448753Y-18459889D02*
X7439229Y-18421793D01*
X7439229Y-18421793D02*
X7439229Y-18374174D01*
X7439229Y-18374174D02*
X7448753Y-18336079D01*
X7448753Y-18336079D02*
X7458277Y-18317031D01*
X7458277Y-18317031D02*
X7467801Y-18307508D01*
X7467801Y-18307508D02*
X7486848Y-18297984D01*
X7620182Y-18297984D02*
X7743991Y-18297984D01*
X7743991Y-18297984D02*
X7677325Y-18374174D01*
X7677325Y-18374174D02*
X7705896Y-18374174D01*
X7705896Y-18374174D02*
X7724944Y-18383698D01*
X7724944Y-18383698D02*
X7734467Y-18393222D01*
X7734467Y-18393222D02*
X7743991Y-18412270D01*
X7743991Y-18412270D02*
X7743991Y-18459889D01*
X7743991Y-18459889D02*
X7734467Y-18478936D01*
X7734467Y-18478936D02*
X7724944Y-18488460D01*
X7724944Y-18488460D02*
X7705896Y-18497984D01*
X7705896Y-18497984D02*
X7648753Y-18497984D01*
X7648753Y-18497984D02*
X7629706Y-18488460D01*
X7629706Y-18488460D02*
X7620182Y-18478936D01*
X7924944Y-18297984D02*
X7829706Y-18297984D01*
X7829706Y-18297984D02*
X7820182Y-18393222D01*
X7820182Y-18393222D02*
X7829706Y-18383698D01*
X7829706Y-18383698D02*
X7848753Y-18374174D01*
X7848753Y-18374174D02*
X7896372Y-18374174D01*
X7896372Y-18374174D02*
X7915420Y-18383698D01*
X7915420Y-18383698D02*
X7924944Y-18393222D01*
X7924944Y-18393222D02*
X7934467Y-18412270D01*
X7934467Y-18412270D02*
X7934467Y-18459889D01*
X7934467Y-18459889D02*
X7924944Y-18478936D01*
X7924944Y-18478936D02*
X7915420Y-18488460D01*
X7915420Y-18488460D02*
X7896372Y-18497984D01*
X7896372Y-18497984D02*
X7848753Y-18497984D01*
X7848753Y-18497984D02*
X7829706Y-18488460D01*
X7829706Y-18488460D02*
X7820182Y-18478936D01*
X8105896Y-18364650D02*
X8105896Y-18497984D01*
X8058277Y-18288460D02*
X8010658Y-18431317D01*
X8010658Y-18431317D02*
X8134467Y-18431317D01*
X8201134Y-18297984D02*
X8201134Y-18336079D01*
X8277325Y-18297984D02*
X8277325Y-18336079D01*
X8572563Y-18574174D02*
X8563039Y-18564650D01*
X8563039Y-18564650D02*
X8543991Y-18536079D01*
X8543991Y-18536079D02*
X8534468Y-18517031D01*
X8534468Y-18517031D02*
X8524944Y-18488460D01*
X8524944Y-18488460D02*
X8515420Y-18440841D01*
X8515420Y-18440841D02*
X8515420Y-18402746D01*
X8515420Y-18402746D02*
X8524944Y-18355127D01*
X8524944Y-18355127D02*
X8534468Y-18326555D01*
X8534468Y-18326555D02*
X8543991Y-18307508D01*
X8543991Y-18307508D02*
X8563039Y-18278936D01*
X8563039Y-18278936D02*
X8572563Y-18269412D01*
X8639230Y-18317031D02*
X8648753Y-18307508D01*
X8648753Y-18307508D02*
X8667801Y-18297984D01*
X8667801Y-18297984D02*
X8715420Y-18297984D01*
X8715420Y-18297984D02*
X8734468Y-18307508D01*
X8734468Y-18307508D02*
X8743991Y-18317031D01*
X8743991Y-18317031D02*
X8753515Y-18336079D01*
X8753515Y-18336079D02*
X8753515Y-18355127D01*
X8753515Y-18355127D02*
X8743991Y-18383698D01*
X8743991Y-18383698D02*
X8629706Y-18497984D01*
X8629706Y-18497984D02*
X8753515Y-18497984D01*
X8991611Y-18497984D02*
X8991611Y-18297984D01*
X9077325Y-18497984D02*
X9077325Y-18393222D01*
X9077325Y-18393222D02*
X9067801Y-18374174D01*
X9067801Y-18374174D02*
X9048753Y-18364650D01*
X9048753Y-18364650D02*
X9020182Y-18364650D01*
X9020182Y-18364650D02*
X9001134Y-18374174D01*
X9001134Y-18374174D02*
X8991611Y-18383698D01*
X9201134Y-18497984D02*
X9182087Y-18488460D01*
X9182087Y-18488460D02*
X9172563Y-18478936D01*
X9172563Y-18478936D02*
X9163039Y-18459889D01*
X9163039Y-18459889D02*
X9163039Y-18402746D01*
X9163039Y-18402746D02*
X9172563Y-18383698D01*
X9172563Y-18383698D02*
X9182087Y-18374174D01*
X9182087Y-18374174D02*
X9201134Y-18364650D01*
X9201134Y-18364650D02*
X9229706Y-18364650D01*
X9229706Y-18364650D02*
X9248753Y-18374174D01*
X9248753Y-18374174D02*
X9258277Y-18383698D01*
X9258277Y-18383698D02*
X9267801Y-18402746D01*
X9267801Y-18402746D02*
X9267801Y-18459889D01*
X9267801Y-18459889D02*
X9258277Y-18478936D01*
X9258277Y-18478936D02*
X9248753Y-18488460D01*
X9248753Y-18488460D02*
X9229706Y-18497984D01*
X9229706Y-18497984D02*
X9201134Y-18497984D01*
X9382087Y-18497984D02*
X9363039Y-18488460D01*
X9363039Y-18488460D02*
X9353515Y-18469412D01*
X9353515Y-18469412D02*
X9353515Y-18297984D01*
X9534468Y-18488460D02*
X9515420Y-18497984D01*
X9515420Y-18497984D02*
X9477325Y-18497984D01*
X9477325Y-18497984D02*
X9458277Y-18488460D01*
X9458277Y-18488460D02*
X9448753Y-18469412D01*
X9448753Y-18469412D02*
X9448753Y-18393222D01*
X9448753Y-18393222D02*
X9458277Y-18374174D01*
X9458277Y-18374174D02*
X9477325Y-18364650D01*
X9477325Y-18364650D02*
X9515420Y-18364650D01*
X9515420Y-18364650D02*
X9534468Y-18374174D01*
X9534468Y-18374174D02*
X9543992Y-18393222D01*
X9543992Y-18393222D02*
X9543992Y-18412270D01*
X9543992Y-18412270D02*
X9448753Y-18431317D01*
X9620182Y-18488460D02*
X9639230Y-18497984D01*
X9639230Y-18497984D02*
X9677325Y-18497984D01*
X9677325Y-18497984D02*
X9696373Y-18488460D01*
X9696373Y-18488460D02*
X9705896Y-18469412D01*
X9705896Y-18469412D02*
X9705896Y-18459889D01*
X9705896Y-18459889D02*
X9696373Y-18440841D01*
X9696373Y-18440841D02*
X9677325Y-18431317D01*
X9677325Y-18431317D02*
X9648753Y-18431317D01*
X9648753Y-18431317D02*
X9629706Y-18421793D01*
X9629706Y-18421793D02*
X9620182Y-18402746D01*
X9620182Y-18402746D02*
X9620182Y-18393222D01*
X9620182Y-18393222D02*
X9629706Y-18374174D01*
X9629706Y-18374174D02*
X9648753Y-18364650D01*
X9648753Y-18364650D02*
X9677325Y-18364650D01*
X9677325Y-18364650D02*
X9696373Y-18374174D01*
X9772563Y-18574174D02*
X9782087Y-18564650D01*
X9782087Y-18564650D02*
X9801134Y-18536079D01*
X9801134Y-18536079D02*
X9810658Y-18517031D01*
X9810658Y-18517031D02*
X9820182Y-18488460D01*
X9820182Y-18488460D02*
X9829706Y-18440841D01*
X9829706Y-18440841D02*
X9829706Y-18402746D01*
X9829706Y-18402746D02*
X9820182Y-18355127D01*
X9820182Y-18355127D02*
X9810658Y-18326555D01*
X9810658Y-18326555D02*
X9801134Y-18307508D01*
X9801134Y-18307508D02*
X9782087Y-18278936D01*
X9782087Y-18278936D02*
X9772563Y-18269412D01*
X10134468Y-18574174D02*
X10124944Y-18564650D01*
X10124944Y-18564650D02*
X10105896Y-18536079D01*
X10105896Y-18536079D02*
X10096373Y-18517031D01*
X10096373Y-18517031D02*
X10086849Y-18488460D01*
X10086849Y-18488460D02*
X10077325Y-18440841D01*
X10077325Y-18440841D02*
X10077325Y-18402746D01*
X10077325Y-18402746D02*
X10086849Y-18355127D01*
X10086849Y-18355127D02*
X10096373Y-18326555D01*
X10096373Y-18326555D02*
X10105896Y-18307508D01*
X10105896Y-18307508D02*
X10124944Y-18278936D01*
X10124944Y-18278936D02*
X10134468Y-18269412D01*
X10210658Y-18364650D02*
X10210658Y-18497984D01*
X10210658Y-18383698D02*
X10220182Y-18374174D01*
X10220182Y-18374174D02*
X10239230Y-18364650D01*
X10239230Y-18364650D02*
X10267801Y-18364650D01*
X10267801Y-18364650D02*
X10286849Y-18374174D01*
X10286849Y-18374174D02*
X10296373Y-18393222D01*
X10296373Y-18393222D02*
X10296373Y-18497984D01*
X10420182Y-18497984D02*
X10401134Y-18488460D01*
X10401134Y-18488460D02*
X10391611Y-18478936D01*
X10391611Y-18478936D02*
X10382087Y-18459889D01*
X10382087Y-18459889D02*
X10382087Y-18402746D01*
X10382087Y-18402746D02*
X10391611Y-18383698D01*
X10391611Y-18383698D02*
X10401134Y-18374174D01*
X10401134Y-18374174D02*
X10420182Y-18364650D01*
X10420182Y-18364650D02*
X10448754Y-18364650D01*
X10448754Y-18364650D02*
X10467801Y-18374174D01*
X10467801Y-18374174D02*
X10477325Y-18383698D01*
X10477325Y-18383698D02*
X10486849Y-18402746D01*
X10486849Y-18402746D02*
X10486849Y-18459889D01*
X10486849Y-18459889D02*
X10477325Y-18478936D01*
X10477325Y-18478936D02*
X10467801Y-18488460D01*
X10467801Y-18488460D02*
X10448754Y-18497984D01*
X10448754Y-18497984D02*
X10420182Y-18497984D01*
X10543992Y-18364650D02*
X10620182Y-18364650D01*
X10572563Y-18297984D02*
X10572563Y-18469412D01*
X10572563Y-18469412D02*
X10582087Y-18488460D01*
X10582087Y-18488460D02*
X10601134Y-18497984D01*
X10601134Y-18497984D02*
X10620182Y-18497984D01*
X10839230Y-18364650D02*
X10839230Y-18564650D01*
X10839230Y-18374174D02*
X10858277Y-18364650D01*
X10858277Y-18364650D02*
X10896373Y-18364650D01*
X10896373Y-18364650D02*
X10915420Y-18374174D01*
X10915420Y-18374174D02*
X10924944Y-18383698D01*
X10924944Y-18383698D02*
X10934468Y-18402746D01*
X10934468Y-18402746D02*
X10934468Y-18459889D01*
X10934468Y-18459889D02*
X10924944Y-18478936D01*
X10924944Y-18478936D02*
X10915420Y-18488460D01*
X10915420Y-18488460D02*
X10896373Y-18497984D01*
X10896373Y-18497984D02*
X10858277Y-18497984D01*
X10858277Y-18497984D02*
X10839230Y-18488460D01*
X11048754Y-18497984D02*
X11029706Y-18488460D01*
X11029706Y-18488460D02*
X11020182Y-18469412D01*
X11020182Y-18469412D02*
X11020182Y-18297984D01*
X11210658Y-18497984D02*
X11210658Y-18393222D01*
X11210658Y-18393222D02*
X11201134Y-18374174D01*
X11201134Y-18374174D02*
X11182087Y-18364650D01*
X11182087Y-18364650D02*
X11143992Y-18364650D01*
X11143992Y-18364650D02*
X11124944Y-18374174D01*
X11210658Y-18488460D02*
X11191611Y-18497984D01*
X11191611Y-18497984D02*
X11143992Y-18497984D01*
X11143992Y-18497984D02*
X11124944Y-18488460D01*
X11124944Y-18488460D02*
X11115420Y-18469412D01*
X11115420Y-18469412D02*
X11115420Y-18450365D01*
X11115420Y-18450365D02*
X11124944Y-18431317D01*
X11124944Y-18431317D02*
X11143992Y-18421793D01*
X11143992Y-18421793D02*
X11191611Y-18421793D01*
X11191611Y-18421793D02*
X11210658Y-18412270D01*
X11277325Y-18364650D02*
X11353515Y-18364650D01*
X11305896Y-18297984D02*
X11305896Y-18469412D01*
X11305896Y-18469412D02*
X11315420Y-18488460D01*
X11315420Y-18488460D02*
X11334468Y-18497984D01*
X11334468Y-18497984D02*
X11353515Y-18497984D01*
X11496373Y-18488460D02*
X11477325Y-18497984D01*
X11477325Y-18497984D02*
X11439230Y-18497984D01*
X11439230Y-18497984D02*
X11420182Y-18488460D01*
X11420182Y-18488460D02*
X11410658Y-18469412D01*
X11410658Y-18469412D02*
X11410658Y-18393222D01*
X11410658Y-18393222D02*
X11420182Y-18374174D01*
X11420182Y-18374174D02*
X11439230Y-18364650D01*
X11439230Y-18364650D02*
X11477325Y-18364650D01*
X11477325Y-18364650D02*
X11496373Y-18374174D01*
X11496373Y-18374174D02*
X11505896Y-18393222D01*
X11505896Y-18393222D02*
X11505896Y-18412270D01*
X11505896Y-18412270D02*
X11410658Y-18431317D01*
X11677325Y-18497984D02*
X11677325Y-18297984D01*
X11677325Y-18488460D02*
X11658277Y-18497984D01*
X11658277Y-18497984D02*
X11620182Y-18497984D01*
X11620182Y-18497984D02*
X11601134Y-18488460D01*
X11601134Y-18488460D02*
X11591611Y-18478936D01*
X11591611Y-18478936D02*
X11582087Y-18459889D01*
X11582087Y-18459889D02*
X11582087Y-18402746D01*
X11582087Y-18402746D02*
X11591611Y-18383698D01*
X11591611Y-18383698D02*
X11601134Y-18374174D01*
X11601134Y-18374174D02*
X11620182Y-18364650D01*
X11620182Y-18364650D02*
X11658277Y-18364650D01*
X11658277Y-18364650D02*
X11677325Y-18374174D01*
X11753515Y-18574174D02*
X11763039Y-18564650D01*
X11763039Y-18564650D02*
X11782087Y-18536079D01*
X11782087Y-18536079D02*
X11791611Y-18517031D01*
X11791611Y-18517031D02*
X11801134Y-18488460D01*
X11801134Y-18488460D02*
X11810658Y-18440841D01*
X11810658Y-18440841D02*
X11810658Y-18402746D01*
X11810658Y-18402746D02*
X11801134Y-18355127D01*
X11801134Y-18355127D02*
X11791611Y-18326555D01*
X11791611Y-18326555D02*
X11782087Y-18307508D01*
X11782087Y-18307508D02*
X11763039Y-18278936D01*
X11763039Y-18278936D02*
X11753515Y-18269412D01*
D13*
X4910000Y-18583000D02*
X4910000Y-18758000D01*
X4822500Y-18670500D02*
X4997500Y-18670500D01*
D12*
X5363039Y-18761984D02*
X5248753Y-18761984D01*
X5305896Y-18761984D02*
X5305896Y-18561984D01*
X5305896Y-18561984D02*
X5286848Y-18590555D01*
X5286848Y-18590555D02*
X5267801Y-18609603D01*
X5267801Y-18609603D02*
X5248753Y-18619127D01*
X5448753Y-18742936D02*
X5458277Y-18752460D01*
X5458277Y-18752460D02*
X5448753Y-18761984D01*
X5448753Y-18761984D02*
X5439229Y-18752460D01*
X5439229Y-18752460D02*
X5448753Y-18742936D01*
X5448753Y-18742936D02*
X5448753Y-18761984D01*
X5524944Y-18561984D02*
X5658277Y-18561984D01*
X5658277Y-18561984D02*
X5572563Y-18761984D01*
X5829705Y-18561984D02*
X5734467Y-18561984D01*
X5734467Y-18561984D02*
X5724943Y-18657222D01*
X5724943Y-18657222D02*
X5734467Y-18647698D01*
X5734467Y-18647698D02*
X5753515Y-18638174D01*
X5753515Y-18638174D02*
X5801134Y-18638174D01*
X5801134Y-18638174D02*
X5820182Y-18647698D01*
X5820182Y-18647698D02*
X5829705Y-18657222D01*
X5829705Y-18657222D02*
X5839229Y-18676270D01*
X5839229Y-18676270D02*
X5839229Y-18723889D01*
X5839229Y-18723889D02*
X5829705Y-18742936D01*
X5829705Y-18742936D02*
X5820182Y-18752460D01*
X5820182Y-18752460D02*
X5801134Y-18761984D01*
X5801134Y-18761984D02*
X5753515Y-18761984D01*
X5753515Y-18761984D02*
X5734467Y-18752460D01*
X5734467Y-18752460D02*
X5724943Y-18742936D01*
X5963039Y-18561984D02*
X5982086Y-18561984D01*
X5982086Y-18561984D02*
X6001134Y-18571508D01*
X6001134Y-18571508D02*
X6010658Y-18581031D01*
X6010658Y-18581031D02*
X6020182Y-18600079D01*
X6020182Y-18600079D02*
X6029705Y-18638174D01*
X6029705Y-18638174D02*
X6029705Y-18685793D01*
X6029705Y-18685793D02*
X6020182Y-18723889D01*
X6020182Y-18723889D02*
X6010658Y-18742936D01*
X6010658Y-18742936D02*
X6001134Y-18752460D01*
X6001134Y-18752460D02*
X5982086Y-18761984D01*
X5982086Y-18761984D02*
X5963039Y-18761984D01*
X5963039Y-18761984D02*
X5943991Y-18752460D01*
X5943991Y-18752460D02*
X5934467Y-18742936D01*
X5934467Y-18742936D02*
X5924943Y-18723889D01*
X5924943Y-18723889D02*
X5915420Y-18685793D01*
X5915420Y-18685793D02*
X5915420Y-18638174D01*
X5915420Y-18638174D02*
X5924943Y-18600079D01*
X5924943Y-18600079D02*
X5934467Y-18581031D01*
X5934467Y-18581031D02*
X5943991Y-18571508D01*
X5943991Y-18571508D02*
X5963039Y-18561984D01*
X6115420Y-18761984D02*
X6115420Y-18628650D01*
X6115420Y-18647698D02*
X6124943Y-18638174D01*
X6124943Y-18638174D02*
X6143991Y-18628650D01*
X6143991Y-18628650D02*
X6172563Y-18628650D01*
X6172563Y-18628650D02*
X6191610Y-18638174D01*
X6191610Y-18638174D02*
X6201134Y-18657222D01*
X6201134Y-18657222D02*
X6201134Y-18761984D01*
X6201134Y-18657222D02*
X6210658Y-18638174D01*
X6210658Y-18638174D02*
X6229705Y-18628650D01*
X6229705Y-18628650D02*
X6258277Y-18628650D01*
X6258277Y-18628650D02*
X6277324Y-18638174D01*
X6277324Y-18638174D02*
X6286848Y-18657222D01*
X6286848Y-18657222D02*
X6286848Y-18761984D01*
X6382086Y-18761984D02*
X6382086Y-18628650D01*
X6382086Y-18647698D02*
X6391610Y-18638174D01*
X6391610Y-18638174D02*
X6410658Y-18628650D01*
X6410658Y-18628650D02*
X6439229Y-18628650D01*
X6439229Y-18628650D02*
X6458277Y-18638174D01*
X6458277Y-18638174D02*
X6467801Y-18657222D01*
X6467801Y-18657222D02*
X6467801Y-18761984D01*
X6467801Y-18657222D02*
X6477324Y-18638174D01*
X6477324Y-18638174D02*
X6496372Y-18628650D01*
X6496372Y-18628650D02*
X6524943Y-18628650D01*
X6524943Y-18628650D02*
X6543991Y-18638174D01*
X6543991Y-18638174D02*
X6553515Y-18657222D01*
X6553515Y-18657222D02*
X6553515Y-18761984D01*
X6943991Y-18552460D02*
X6772563Y-18809603D01*
X7201134Y-18561984D02*
X7220182Y-18561984D01*
X7220182Y-18561984D02*
X7239229Y-18571508D01*
X7239229Y-18571508D02*
X7248753Y-18581031D01*
X7248753Y-18581031D02*
X7258277Y-18600079D01*
X7258277Y-18600079D02*
X7267801Y-18638174D01*
X7267801Y-18638174D02*
X7267801Y-18685793D01*
X7267801Y-18685793D02*
X7258277Y-18723889D01*
X7258277Y-18723889D02*
X7248753Y-18742936D01*
X7248753Y-18742936D02*
X7239229Y-18752460D01*
X7239229Y-18752460D02*
X7220182Y-18761984D01*
X7220182Y-18761984D02*
X7201134Y-18761984D01*
X7201134Y-18761984D02*
X7182086Y-18752460D01*
X7182086Y-18752460D02*
X7172563Y-18742936D01*
X7172563Y-18742936D02*
X7163039Y-18723889D01*
X7163039Y-18723889D02*
X7153515Y-18685793D01*
X7153515Y-18685793D02*
X7153515Y-18638174D01*
X7153515Y-18638174D02*
X7163039Y-18600079D01*
X7163039Y-18600079D02*
X7172563Y-18581031D01*
X7172563Y-18581031D02*
X7182086Y-18571508D01*
X7182086Y-18571508D02*
X7201134Y-18561984D01*
X7353515Y-18742936D02*
X7363039Y-18752460D01*
X7363039Y-18752460D02*
X7353515Y-18761984D01*
X7353515Y-18761984D02*
X7343991Y-18752460D01*
X7343991Y-18752460D02*
X7353515Y-18742936D01*
X7353515Y-18742936D02*
X7353515Y-18761984D01*
X7486848Y-18561984D02*
X7505896Y-18561984D01*
X7505896Y-18561984D02*
X7524944Y-18571508D01*
X7524944Y-18571508D02*
X7534467Y-18581031D01*
X7534467Y-18581031D02*
X7543991Y-18600079D01*
X7543991Y-18600079D02*
X7553515Y-18638174D01*
X7553515Y-18638174D02*
X7553515Y-18685793D01*
X7553515Y-18685793D02*
X7543991Y-18723889D01*
X7543991Y-18723889D02*
X7534467Y-18742936D01*
X7534467Y-18742936D02*
X7524944Y-18752460D01*
X7524944Y-18752460D02*
X7505896Y-18761984D01*
X7505896Y-18761984D02*
X7486848Y-18761984D01*
X7486848Y-18761984D02*
X7467801Y-18752460D01*
X7467801Y-18752460D02*
X7458277Y-18742936D01*
X7458277Y-18742936D02*
X7448753Y-18723889D01*
X7448753Y-18723889D02*
X7439229Y-18685793D01*
X7439229Y-18685793D02*
X7439229Y-18638174D01*
X7439229Y-18638174D02*
X7448753Y-18600079D01*
X7448753Y-18600079D02*
X7458277Y-18581031D01*
X7458277Y-18581031D02*
X7467801Y-18571508D01*
X7467801Y-18571508D02*
X7486848Y-18561984D01*
X7724944Y-18561984D02*
X7686848Y-18561984D01*
X7686848Y-18561984D02*
X7667801Y-18571508D01*
X7667801Y-18571508D02*
X7658277Y-18581031D01*
X7658277Y-18581031D02*
X7639229Y-18609603D01*
X7639229Y-18609603D02*
X7629706Y-18647698D01*
X7629706Y-18647698D02*
X7629706Y-18723889D01*
X7629706Y-18723889D02*
X7639229Y-18742936D01*
X7639229Y-18742936D02*
X7648753Y-18752460D01*
X7648753Y-18752460D02*
X7667801Y-18761984D01*
X7667801Y-18761984D02*
X7705896Y-18761984D01*
X7705896Y-18761984D02*
X7724944Y-18752460D01*
X7724944Y-18752460D02*
X7734467Y-18742936D01*
X7734467Y-18742936D02*
X7743991Y-18723889D01*
X7743991Y-18723889D02*
X7743991Y-18676270D01*
X7743991Y-18676270D02*
X7734467Y-18657222D01*
X7734467Y-18657222D02*
X7724944Y-18647698D01*
X7724944Y-18647698D02*
X7705896Y-18638174D01*
X7705896Y-18638174D02*
X7667801Y-18638174D01*
X7667801Y-18638174D02*
X7648753Y-18647698D01*
X7648753Y-18647698D02*
X7639229Y-18657222D01*
X7639229Y-18657222D02*
X7629706Y-18676270D01*
X7858277Y-18647698D02*
X7839229Y-18638174D01*
X7839229Y-18638174D02*
X7829706Y-18628650D01*
X7829706Y-18628650D02*
X7820182Y-18609603D01*
X7820182Y-18609603D02*
X7820182Y-18600079D01*
X7820182Y-18600079D02*
X7829706Y-18581031D01*
X7829706Y-18581031D02*
X7839229Y-18571508D01*
X7839229Y-18571508D02*
X7858277Y-18561984D01*
X7858277Y-18561984D02*
X7896372Y-18561984D01*
X7896372Y-18561984D02*
X7915420Y-18571508D01*
X7915420Y-18571508D02*
X7924944Y-18581031D01*
X7924944Y-18581031D02*
X7934467Y-18600079D01*
X7934467Y-18600079D02*
X7934467Y-18609603D01*
X7934467Y-18609603D02*
X7924944Y-18628650D01*
X7924944Y-18628650D02*
X7915420Y-18638174D01*
X7915420Y-18638174D02*
X7896372Y-18647698D01*
X7896372Y-18647698D02*
X7858277Y-18647698D01*
X7858277Y-18647698D02*
X7839229Y-18657222D01*
X7839229Y-18657222D02*
X7829706Y-18666746D01*
X7829706Y-18666746D02*
X7820182Y-18685793D01*
X7820182Y-18685793D02*
X7820182Y-18723889D01*
X7820182Y-18723889D02*
X7829706Y-18742936D01*
X7829706Y-18742936D02*
X7839229Y-18752460D01*
X7839229Y-18752460D02*
X7858277Y-18761984D01*
X7858277Y-18761984D02*
X7896372Y-18761984D01*
X7896372Y-18761984D02*
X7915420Y-18752460D01*
X7915420Y-18752460D02*
X7924944Y-18742936D01*
X7924944Y-18742936D02*
X7934467Y-18723889D01*
X7934467Y-18723889D02*
X7934467Y-18685793D01*
X7934467Y-18685793D02*
X7924944Y-18666746D01*
X7924944Y-18666746D02*
X7915420Y-18657222D01*
X7915420Y-18657222D02*
X7896372Y-18647698D01*
X8029706Y-18761984D02*
X8067801Y-18761984D01*
X8067801Y-18761984D02*
X8086848Y-18752460D01*
X8086848Y-18752460D02*
X8096372Y-18742936D01*
X8096372Y-18742936D02*
X8115420Y-18714365D01*
X8115420Y-18714365D02*
X8124944Y-18676270D01*
X8124944Y-18676270D02*
X8124944Y-18600079D01*
X8124944Y-18600079D02*
X8115420Y-18581031D01*
X8115420Y-18581031D02*
X8105896Y-18571508D01*
X8105896Y-18571508D02*
X8086848Y-18561984D01*
X8086848Y-18561984D02*
X8048753Y-18561984D01*
X8048753Y-18561984D02*
X8029706Y-18571508D01*
X8029706Y-18571508D02*
X8020182Y-18581031D01*
X8020182Y-18581031D02*
X8010658Y-18600079D01*
X8010658Y-18600079D02*
X8010658Y-18647698D01*
X8010658Y-18647698D02*
X8020182Y-18666746D01*
X8020182Y-18666746D02*
X8029706Y-18676270D01*
X8029706Y-18676270D02*
X8048753Y-18685793D01*
X8048753Y-18685793D02*
X8086848Y-18685793D01*
X8086848Y-18685793D02*
X8105896Y-18676270D01*
X8105896Y-18676270D02*
X8115420Y-18666746D01*
X8115420Y-18666746D02*
X8124944Y-18647698D01*
X8201134Y-18561984D02*
X8201134Y-18600079D01*
X8277325Y-18561984D02*
X8277325Y-18600079D01*
X8572563Y-18838174D02*
X8563039Y-18828650D01*
X8563039Y-18828650D02*
X8543991Y-18800079D01*
X8543991Y-18800079D02*
X8534468Y-18781031D01*
X8534468Y-18781031D02*
X8524944Y-18752460D01*
X8524944Y-18752460D02*
X8515420Y-18704841D01*
X8515420Y-18704841D02*
X8515420Y-18666746D01*
X8515420Y-18666746D02*
X8524944Y-18619127D01*
X8524944Y-18619127D02*
X8534468Y-18590555D01*
X8534468Y-18590555D02*
X8543991Y-18571508D01*
X8543991Y-18571508D02*
X8563039Y-18542936D01*
X8563039Y-18542936D02*
X8572563Y-18533412D01*
X8743991Y-18561984D02*
X8648753Y-18561984D01*
X8648753Y-18561984D02*
X8639230Y-18657222D01*
X8639230Y-18657222D02*
X8648753Y-18647698D01*
X8648753Y-18647698D02*
X8667801Y-18638174D01*
X8667801Y-18638174D02*
X8715420Y-18638174D01*
X8715420Y-18638174D02*
X8734468Y-18647698D01*
X8734468Y-18647698D02*
X8743991Y-18657222D01*
X8743991Y-18657222D02*
X8753515Y-18676270D01*
X8753515Y-18676270D02*
X8753515Y-18723889D01*
X8753515Y-18723889D02*
X8743991Y-18742936D01*
X8743991Y-18742936D02*
X8734468Y-18752460D01*
X8734468Y-18752460D02*
X8715420Y-18761984D01*
X8715420Y-18761984D02*
X8667801Y-18761984D01*
X8667801Y-18761984D02*
X8648753Y-18752460D01*
X8648753Y-18752460D02*
X8639230Y-18742936D01*
X8877325Y-18561984D02*
X8896372Y-18561984D01*
X8896372Y-18561984D02*
X8915420Y-18571508D01*
X8915420Y-18571508D02*
X8924944Y-18581031D01*
X8924944Y-18581031D02*
X8934468Y-18600079D01*
X8934468Y-18600079D02*
X8943991Y-18638174D01*
X8943991Y-18638174D02*
X8943991Y-18685793D01*
X8943991Y-18685793D02*
X8934468Y-18723889D01*
X8934468Y-18723889D02*
X8924944Y-18742936D01*
X8924944Y-18742936D02*
X8915420Y-18752460D01*
X8915420Y-18752460D02*
X8896372Y-18761984D01*
X8896372Y-18761984D02*
X8877325Y-18761984D01*
X8877325Y-18761984D02*
X8858277Y-18752460D01*
X8858277Y-18752460D02*
X8848753Y-18742936D01*
X8848753Y-18742936D02*
X8839230Y-18723889D01*
X8839230Y-18723889D02*
X8829706Y-18685793D01*
X8829706Y-18685793D02*
X8829706Y-18638174D01*
X8829706Y-18638174D02*
X8839230Y-18600079D01*
X8839230Y-18600079D02*
X8848753Y-18581031D01*
X8848753Y-18581031D02*
X8858277Y-18571508D01*
X8858277Y-18571508D02*
X8877325Y-18561984D01*
X9182087Y-18761984D02*
X9182087Y-18561984D01*
X9267801Y-18761984D02*
X9267801Y-18657222D01*
X9267801Y-18657222D02*
X9258277Y-18638174D01*
X9258277Y-18638174D02*
X9239230Y-18628650D01*
X9239230Y-18628650D02*
X9210658Y-18628650D01*
X9210658Y-18628650D02*
X9191611Y-18638174D01*
X9191611Y-18638174D02*
X9182087Y-18647698D01*
X9391611Y-18761984D02*
X9372563Y-18752460D01*
X9372563Y-18752460D02*
X9363039Y-18742936D01*
X9363039Y-18742936D02*
X9353515Y-18723889D01*
X9353515Y-18723889D02*
X9353515Y-18666746D01*
X9353515Y-18666746D02*
X9363039Y-18647698D01*
X9363039Y-18647698D02*
X9372563Y-18638174D01*
X9372563Y-18638174D02*
X9391611Y-18628650D01*
X9391611Y-18628650D02*
X9420182Y-18628650D01*
X9420182Y-18628650D02*
X9439230Y-18638174D01*
X9439230Y-18638174D02*
X9448753Y-18647698D01*
X9448753Y-18647698D02*
X9458277Y-18666746D01*
X9458277Y-18666746D02*
X9458277Y-18723889D01*
X9458277Y-18723889D02*
X9448753Y-18742936D01*
X9448753Y-18742936D02*
X9439230Y-18752460D01*
X9439230Y-18752460D02*
X9420182Y-18761984D01*
X9420182Y-18761984D02*
X9391611Y-18761984D01*
X9572563Y-18761984D02*
X9553515Y-18752460D01*
X9553515Y-18752460D02*
X9543992Y-18733412D01*
X9543992Y-18733412D02*
X9543992Y-18561984D01*
X9724944Y-18752460D02*
X9705896Y-18761984D01*
X9705896Y-18761984D02*
X9667801Y-18761984D01*
X9667801Y-18761984D02*
X9648753Y-18752460D01*
X9648753Y-18752460D02*
X9639230Y-18733412D01*
X9639230Y-18733412D02*
X9639230Y-18657222D01*
X9639230Y-18657222D02*
X9648753Y-18638174D01*
X9648753Y-18638174D02*
X9667801Y-18628650D01*
X9667801Y-18628650D02*
X9705896Y-18628650D01*
X9705896Y-18628650D02*
X9724944Y-18638174D01*
X9724944Y-18638174D02*
X9734468Y-18657222D01*
X9734468Y-18657222D02*
X9734468Y-18676270D01*
X9734468Y-18676270D02*
X9639230Y-18695317D01*
X9810658Y-18752460D02*
X9829706Y-18761984D01*
X9829706Y-18761984D02*
X9867801Y-18761984D01*
X9867801Y-18761984D02*
X9886849Y-18752460D01*
X9886849Y-18752460D02*
X9896373Y-18733412D01*
X9896373Y-18733412D02*
X9896373Y-18723889D01*
X9896373Y-18723889D02*
X9886849Y-18704841D01*
X9886849Y-18704841D02*
X9867801Y-18695317D01*
X9867801Y-18695317D02*
X9839230Y-18695317D01*
X9839230Y-18695317D02*
X9820182Y-18685793D01*
X9820182Y-18685793D02*
X9810658Y-18666746D01*
X9810658Y-18666746D02*
X9810658Y-18657222D01*
X9810658Y-18657222D02*
X9820182Y-18638174D01*
X9820182Y-18638174D02*
X9839230Y-18628650D01*
X9839230Y-18628650D02*
X9867801Y-18628650D01*
X9867801Y-18628650D02*
X9886849Y-18638174D01*
X9963039Y-18838174D02*
X9972563Y-18828650D01*
X9972563Y-18828650D02*
X9991611Y-18800079D01*
X9991611Y-18800079D02*
X10001134Y-18781031D01*
X10001134Y-18781031D02*
X10010658Y-18752460D01*
X10010658Y-18752460D02*
X10020182Y-18704841D01*
X10020182Y-18704841D02*
X10020182Y-18666746D01*
X10020182Y-18666746D02*
X10010658Y-18619127D01*
X10010658Y-18619127D02*
X10001134Y-18590555D01*
X10001134Y-18590555D02*
X9991611Y-18571508D01*
X9991611Y-18571508D02*
X9972563Y-18542936D01*
X9972563Y-18542936D02*
X9963039Y-18533412D01*
X10324944Y-18838174D02*
X10315420Y-18828650D01*
X10315420Y-18828650D02*
X10296373Y-18800079D01*
X10296373Y-18800079D02*
X10286849Y-18781031D01*
X10286849Y-18781031D02*
X10277325Y-18752460D01*
X10277325Y-18752460D02*
X10267801Y-18704841D01*
X10267801Y-18704841D02*
X10267801Y-18666746D01*
X10267801Y-18666746D02*
X10277325Y-18619127D01*
X10277325Y-18619127D02*
X10286849Y-18590555D01*
X10286849Y-18590555D02*
X10296373Y-18571508D01*
X10296373Y-18571508D02*
X10315420Y-18542936D01*
X10315420Y-18542936D02*
X10324944Y-18533412D01*
X10401134Y-18628650D02*
X10401134Y-18761984D01*
X10401134Y-18647698D02*
X10410658Y-18638174D01*
X10410658Y-18638174D02*
X10429706Y-18628650D01*
X10429706Y-18628650D02*
X10458277Y-18628650D01*
X10458277Y-18628650D02*
X10477325Y-18638174D01*
X10477325Y-18638174D02*
X10486849Y-18657222D01*
X10486849Y-18657222D02*
X10486849Y-18761984D01*
X10610658Y-18761984D02*
X10591611Y-18752460D01*
X10591611Y-18752460D02*
X10582087Y-18742936D01*
X10582087Y-18742936D02*
X10572563Y-18723889D01*
X10572563Y-18723889D02*
X10572563Y-18666746D01*
X10572563Y-18666746D02*
X10582087Y-18647698D01*
X10582087Y-18647698D02*
X10591611Y-18638174D01*
X10591611Y-18638174D02*
X10610658Y-18628650D01*
X10610658Y-18628650D02*
X10639230Y-18628650D01*
X10639230Y-18628650D02*
X10658277Y-18638174D01*
X10658277Y-18638174D02*
X10667801Y-18647698D01*
X10667801Y-18647698D02*
X10677325Y-18666746D01*
X10677325Y-18666746D02*
X10677325Y-18723889D01*
X10677325Y-18723889D02*
X10667801Y-18742936D01*
X10667801Y-18742936D02*
X10658277Y-18752460D01*
X10658277Y-18752460D02*
X10639230Y-18761984D01*
X10639230Y-18761984D02*
X10610658Y-18761984D01*
X10734468Y-18628650D02*
X10810658Y-18628650D01*
X10763039Y-18561984D02*
X10763039Y-18733412D01*
X10763039Y-18733412D02*
X10772563Y-18752460D01*
X10772563Y-18752460D02*
X10791611Y-18761984D01*
X10791611Y-18761984D02*
X10810658Y-18761984D01*
X11029706Y-18628650D02*
X11029706Y-18828650D01*
X11029706Y-18638174D02*
X11048754Y-18628650D01*
X11048754Y-18628650D02*
X11086849Y-18628650D01*
X11086849Y-18628650D02*
X11105896Y-18638174D01*
X11105896Y-18638174D02*
X11115420Y-18647698D01*
X11115420Y-18647698D02*
X11124944Y-18666746D01*
X11124944Y-18666746D02*
X11124944Y-18723889D01*
X11124944Y-18723889D02*
X11115420Y-18742936D01*
X11115420Y-18742936D02*
X11105896Y-18752460D01*
X11105896Y-18752460D02*
X11086849Y-18761984D01*
X11086849Y-18761984D02*
X11048754Y-18761984D01*
X11048754Y-18761984D02*
X11029706Y-18752460D01*
X11239230Y-18761984D02*
X11220182Y-18752460D01*
X11220182Y-18752460D02*
X11210658Y-18733412D01*
X11210658Y-18733412D02*
X11210658Y-18561984D01*
X11401134Y-18761984D02*
X11401134Y-18657222D01*
X11401134Y-18657222D02*
X11391611Y-18638174D01*
X11391611Y-18638174D02*
X11372563Y-18628650D01*
X11372563Y-18628650D02*
X11334468Y-18628650D01*
X11334468Y-18628650D02*
X11315420Y-18638174D01*
X11401134Y-18752460D02*
X11382087Y-18761984D01*
X11382087Y-18761984D02*
X11334468Y-18761984D01*
X11334468Y-18761984D02*
X11315420Y-18752460D01*
X11315420Y-18752460D02*
X11305896Y-18733412D01*
X11305896Y-18733412D02*
X11305896Y-18714365D01*
X11305896Y-18714365D02*
X11315420Y-18695317D01*
X11315420Y-18695317D02*
X11334468Y-18685793D01*
X11334468Y-18685793D02*
X11382087Y-18685793D01*
X11382087Y-18685793D02*
X11401134Y-18676270D01*
X11467801Y-18628650D02*
X11543992Y-18628650D01*
X11496373Y-18561984D02*
X11496373Y-18733412D01*
X11496373Y-18733412D02*
X11505896Y-18752460D01*
X11505896Y-18752460D02*
X11524944Y-18761984D01*
X11524944Y-18761984D02*
X11543992Y-18761984D01*
X11686849Y-18752460D02*
X11667801Y-18761984D01*
X11667801Y-18761984D02*
X11629706Y-18761984D01*
X11629706Y-18761984D02*
X11610658Y-18752460D01*
X11610658Y-18752460D02*
X11601134Y-18733412D01*
X11601134Y-18733412D02*
X11601134Y-18657222D01*
X11601134Y-18657222D02*
X11610658Y-18638174D01*
X11610658Y-18638174D02*
X11629706Y-18628650D01*
X11629706Y-18628650D02*
X11667801Y-18628650D01*
X11667801Y-18628650D02*
X11686849Y-18638174D01*
X11686849Y-18638174D02*
X11696373Y-18657222D01*
X11696373Y-18657222D02*
X11696373Y-18676270D01*
X11696373Y-18676270D02*
X11601134Y-18695317D01*
X11867801Y-18761984D02*
X11867801Y-18561984D01*
X11867801Y-18752460D02*
X11848754Y-18761984D01*
X11848754Y-18761984D02*
X11810658Y-18761984D01*
X11810658Y-18761984D02*
X11791611Y-18752460D01*
X11791611Y-18752460D02*
X11782087Y-18742936D01*
X11782087Y-18742936D02*
X11772563Y-18723889D01*
X11772563Y-18723889D02*
X11772563Y-18666746D01*
X11772563Y-18666746D02*
X11782087Y-18647698D01*
X11782087Y-18647698D02*
X11791611Y-18638174D01*
X11791611Y-18638174D02*
X11810658Y-18628650D01*
X11810658Y-18628650D02*
X11848754Y-18628650D01*
X11848754Y-18628650D02*
X11867801Y-18638174D01*
X11943992Y-18838174D02*
X11953515Y-18828650D01*
X11953515Y-18828650D02*
X11972563Y-18800079D01*
X11972563Y-18800079D02*
X11982087Y-18781031D01*
X11982087Y-18781031D02*
X11991611Y-18752460D01*
X11991611Y-18752460D02*
X12001134Y-18704841D01*
X12001134Y-18704841D02*
X12001134Y-18666746D01*
X12001134Y-18666746D02*
X11991611Y-18619127D01*
X11991611Y-18619127D02*
X11982087Y-18590555D01*
X11982087Y-18590555D02*
X11972563Y-18571508D01*
X11972563Y-18571508D02*
X11953515Y-18542936D01*
X11953515Y-18542936D02*
X11943992Y-18533412D01*
X4968211Y-19036211D02*
X4968211Y-18894789D01*
X4826789Y-18894789D01*
X4826789Y-19036211D01*
X4968211Y-19036211D01*
X5248753Y-18876031D02*
X5258277Y-18866508D01*
X5258277Y-18866508D02*
X5277324Y-18856984D01*
X5277324Y-18856984D02*
X5324944Y-18856984D01*
X5324944Y-18856984D02*
X5343991Y-18866508D01*
X5343991Y-18866508D02*
X5353515Y-18876031D01*
X5353515Y-18876031D02*
X5363039Y-18895079D01*
X5363039Y-18895079D02*
X5363039Y-18914127D01*
X5363039Y-18914127D02*
X5353515Y-18942698D01*
X5353515Y-18942698D02*
X5239229Y-19056984D01*
X5239229Y-19056984D02*
X5363039Y-19056984D01*
X5448753Y-19037936D02*
X5458277Y-19047460D01*
X5458277Y-19047460D02*
X5448753Y-19056984D01*
X5448753Y-19056984D02*
X5439229Y-19047460D01*
X5439229Y-19047460D02*
X5448753Y-19037936D01*
X5448753Y-19037936D02*
X5448753Y-19056984D01*
X5582086Y-18856984D02*
X5601134Y-18856984D01*
X5601134Y-18856984D02*
X5620182Y-18866508D01*
X5620182Y-18866508D02*
X5629705Y-18876031D01*
X5629705Y-18876031D02*
X5639229Y-18895079D01*
X5639229Y-18895079D02*
X5648753Y-18933174D01*
X5648753Y-18933174D02*
X5648753Y-18980793D01*
X5648753Y-18980793D02*
X5639229Y-19018889D01*
X5639229Y-19018889D02*
X5629705Y-19037936D01*
X5629705Y-19037936D02*
X5620182Y-19047460D01*
X5620182Y-19047460D02*
X5601134Y-19056984D01*
X5601134Y-19056984D02*
X5582086Y-19056984D01*
X5582086Y-19056984D02*
X5563039Y-19047460D01*
X5563039Y-19047460D02*
X5553515Y-19037936D01*
X5553515Y-19037936D02*
X5543991Y-19018889D01*
X5543991Y-19018889D02*
X5534467Y-18980793D01*
X5534467Y-18980793D02*
X5534467Y-18933174D01*
X5534467Y-18933174D02*
X5543991Y-18895079D01*
X5543991Y-18895079D02*
X5553515Y-18876031D01*
X5553515Y-18876031D02*
X5563039Y-18866508D01*
X5563039Y-18866508D02*
X5582086Y-18856984D01*
X5772562Y-18856984D02*
X5791610Y-18856984D01*
X5791610Y-18856984D02*
X5810658Y-18866508D01*
X5810658Y-18866508D02*
X5820182Y-18876031D01*
X5820182Y-18876031D02*
X5829705Y-18895079D01*
X5829705Y-18895079D02*
X5839229Y-18933174D01*
X5839229Y-18933174D02*
X5839229Y-18980793D01*
X5839229Y-18980793D02*
X5829705Y-19018889D01*
X5829705Y-19018889D02*
X5820182Y-19037936D01*
X5820182Y-19037936D02*
X5810658Y-19047460D01*
X5810658Y-19047460D02*
X5791610Y-19056984D01*
X5791610Y-19056984D02*
X5772562Y-19056984D01*
X5772562Y-19056984D02*
X5753515Y-19047460D01*
X5753515Y-19047460D02*
X5743991Y-19037936D01*
X5743991Y-19037936D02*
X5734467Y-19018889D01*
X5734467Y-19018889D02*
X5724943Y-18980793D01*
X5724943Y-18980793D02*
X5724943Y-18933174D01*
X5724943Y-18933174D02*
X5734467Y-18895079D01*
X5734467Y-18895079D02*
X5743991Y-18876031D01*
X5743991Y-18876031D02*
X5753515Y-18866508D01*
X5753515Y-18866508D02*
X5772562Y-18856984D01*
X5963039Y-18856984D02*
X5982086Y-18856984D01*
X5982086Y-18856984D02*
X6001134Y-18866508D01*
X6001134Y-18866508D02*
X6010658Y-18876031D01*
X6010658Y-18876031D02*
X6020182Y-18895079D01*
X6020182Y-18895079D02*
X6029705Y-18933174D01*
X6029705Y-18933174D02*
X6029705Y-18980793D01*
X6029705Y-18980793D02*
X6020182Y-19018889D01*
X6020182Y-19018889D02*
X6010658Y-19037936D01*
X6010658Y-19037936D02*
X6001134Y-19047460D01*
X6001134Y-19047460D02*
X5982086Y-19056984D01*
X5982086Y-19056984D02*
X5963039Y-19056984D01*
X5963039Y-19056984D02*
X5943991Y-19047460D01*
X5943991Y-19047460D02*
X5934467Y-19037936D01*
X5934467Y-19037936D02*
X5924943Y-19018889D01*
X5924943Y-19018889D02*
X5915420Y-18980793D01*
X5915420Y-18980793D02*
X5915420Y-18933174D01*
X5915420Y-18933174D02*
X5924943Y-18895079D01*
X5924943Y-18895079D02*
X5934467Y-18876031D01*
X5934467Y-18876031D02*
X5943991Y-18866508D01*
X5943991Y-18866508D02*
X5963039Y-18856984D01*
X6115420Y-19056984D02*
X6115420Y-18923650D01*
X6115420Y-18942698D02*
X6124943Y-18933174D01*
X6124943Y-18933174D02*
X6143991Y-18923650D01*
X6143991Y-18923650D02*
X6172563Y-18923650D01*
X6172563Y-18923650D02*
X6191610Y-18933174D01*
X6191610Y-18933174D02*
X6201134Y-18952222D01*
X6201134Y-18952222D02*
X6201134Y-19056984D01*
X6201134Y-18952222D02*
X6210658Y-18933174D01*
X6210658Y-18933174D02*
X6229705Y-18923650D01*
X6229705Y-18923650D02*
X6258277Y-18923650D01*
X6258277Y-18923650D02*
X6277324Y-18933174D01*
X6277324Y-18933174D02*
X6286848Y-18952222D01*
X6286848Y-18952222D02*
X6286848Y-19056984D01*
X6382086Y-19056984D02*
X6382086Y-18923650D01*
X6382086Y-18942698D02*
X6391610Y-18933174D01*
X6391610Y-18933174D02*
X6410658Y-18923650D01*
X6410658Y-18923650D02*
X6439229Y-18923650D01*
X6439229Y-18923650D02*
X6458277Y-18933174D01*
X6458277Y-18933174D02*
X6467801Y-18952222D01*
X6467801Y-18952222D02*
X6467801Y-19056984D01*
X6467801Y-18952222D02*
X6477324Y-18933174D01*
X6477324Y-18933174D02*
X6496372Y-18923650D01*
X6496372Y-18923650D02*
X6524943Y-18923650D01*
X6524943Y-18923650D02*
X6543991Y-18933174D01*
X6543991Y-18933174D02*
X6553515Y-18952222D01*
X6553515Y-18952222D02*
X6553515Y-19056984D01*
X6943991Y-18847460D02*
X6772563Y-19104603D01*
X7201134Y-18856984D02*
X7220182Y-18856984D01*
X7220182Y-18856984D02*
X7239229Y-18866508D01*
X7239229Y-18866508D02*
X7248753Y-18876031D01*
X7248753Y-18876031D02*
X7258277Y-18895079D01*
X7258277Y-18895079D02*
X7267801Y-18933174D01*
X7267801Y-18933174D02*
X7267801Y-18980793D01*
X7267801Y-18980793D02*
X7258277Y-19018889D01*
X7258277Y-19018889D02*
X7248753Y-19037936D01*
X7248753Y-19037936D02*
X7239229Y-19047460D01*
X7239229Y-19047460D02*
X7220182Y-19056984D01*
X7220182Y-19056984D02*
X7201134Y-19056984D01*
X7201134Y-19056984D02*
X7182086Y-19047460D01*
X7182086Y-19047460D02*
X7172563Y-19037936D01*
X7172563Y-19037936D02*
X7163039Y-19018889D01*
X7163039Y-19018889D02*
X7153515Y-18980793D01*
X7153515Y-18980793D02*
X7153515Y-18933174D01*
X7153515Y-18933174D02*
X7163039Y-18895079D01*
X7163039Y-18895079D02*
X7172563Y-18876031D01*
X7172563Y-18876031D02*
X7182086Y-18866508D01*
X7182086Y-18866508D02*
X7201134Y-18856984D01*
X7353515Y-19037936D02*
X7363039Y-19047460D01*
X7363039Y-19047460D02*
X7353515Y-19056984D01*
X7353515Y-19056984D02*
X7343991Y-19047460D01*
X7343991Y-19047460D02*
X7353515Y-19037936D01*
X7353515Y-19037936D02*
X7353515Y-19056984D01*
X7486848Y-18856984D02*
X7505896Y-18856984D01*
X7505896Y-18856984D02*
X7524944Y-18866508D01*
X7524944Y-18866508D02*
X7534467Y-18876031D01*
X7534467Y-18876031D02*
X7543991Y-18895079D01*
X7543991Y-18895079D02*
X7553515Y-18933174D01*
X7553515Y-18933174D02*
X7553515Y-18980793D01*
X7553515Y-18980793D02*
X7543991Y-19018889D01*
X7543991Y-19018889D02*
X7534467Y-19037936D01*
X7534467Y-19037936D02*
X7524944Y-19047460D01*
X7524944Y-19047460D02*
X7505896Y-19056984D01*
X7505896Y-19056984D02*
X7486848Y-19056984D01*
X7486848Y-19056984D02*
X7467801Y-19047460D01*
X7467801Y-19047460D02*
X7458277Y-19037936D01*
X7458277Y-19037936D02*
X7448753Y-19018889D01*
X7448753Y-19018889D02*
X7439229Y-18980793D01*
X7439229Y-18980793D02*
X7439229Y-18933174D01*
X7439229Y-18933174D02*
X7448753Y-18895079D01*
X7448753Y-18895079D02*
X7458277Y-18876031D01*
X7458277Y-18876031D02*
X7467801Y-18866508D01*
X7467801Y-18866508D02*
X7486848Y-18856984D01*
X7620182Y-18856984D02*
X7753515Y-18856984D01*
X7753515Y-18856984D02*
X7667801Y-19056984D01*
X7858277Y-18942698D02*
X7839229Y-18933174D01*
X7839229Y-18933174D02*
X7829706Y-18923650D01*
X7829706Y-18923650D02*
X7820182Y-18904603D01*
X7820182Y-18904603D02*
X7820182Y-18895079D01*
X7820182Y-18895079D02*
X7829706Y-18876031D01*
X7829706Y-18876031D02*
X7839229Y-18866508D01*
X7839229Y-18866508D02*
X7858277Y-18856984D01*
X7858277Y-18856984D02*
X7896372Y-18856984D01*
X7896372Y-18856984D02*
X7915420Y-18866508D01*
X7915420Y-18866508D02*
X7924944Y-18876031D01*
X7924944Y-18876031D02*
X7934467Y-18895079D01*
X7934467Y-18895079D02*
X7934467Y-18904603D01*
X7934467Y-18904603D02*
X7924944Y-18923650D01*
X7924944Y-18923650D02*
X7915420Y-18933174D01*
X7915420Y-18933174D02*
X7896372Y-18942698D01*
X7896372Y-18942698D02*
X7858277Y-18942698D01*
X7858277Y-18942698D02*
X7839229Y-18952222D01*
X7839229Y-18952222D02*
X7829706Y-18961746D01*
X7829706Y-18961746D02*
X7820182Y-18980793D01*
X7820182Y-18980793D02*
X7820182Y-19018889D01*
X7820182Y-19018889D02*
X7829706Y-19037936D01*
X7829706Y-19037936D02*
X7839229Y-19047460D01*
X7839229Y-19047460D02*
X7858277Y-19056984D01*
X7858277Y-19056984D02*
X7896372Y-19056984D01*
X7896372Y-19056984D02*
X7915420Y-19047460D01*
X7915420Y-19047460D02*
X7924944Y-19037936D01*
X7924944Y-19037936D02*
X7934467Y-19018889D01*
X7934467Y-19018889D02*
X7934467Y-18980793D01*
X7934467Y-18980793D02*
X7924944Y-18961746D01*
X7924944Y-18961746D02*
X7915420Y-18952222D01*
X7915420Y-18952222D02*
X7896372Y-18942698D01*
X8001134Y-18856984D02*
X8134467Y-18856984D01*
X8134467Y-18856984D02*
X8048753Y-19056984D01*
X8201134Y-18856984D02*
X8201134Y-18895079D01*
X8277325Y-18856984D02*
X8277325Y-18895079D01*
X8572563Y-19133174D02*
X8563039Y-19123650D01*
X8563039Y-19123650D02*
X8543991Y-19095079D01*
X8543991Y-19095079D02*
X8534468Y-19076031D01*
X8534468Y-19076031D02*
X8524944Y-19047460D01*
X8524944Y-19047460D02*
X8515420Y-18999841D01*
X8515420Y-18999841D02*
X8515420Y-18961746D01*
X8515420Y-18961746D02*
X8524944Y-18914127D01*
X8524944Y-18914127D02*
X8534468Y-18885555D01*
X8534468Y-18885555D02*
X8543991Y-18866508D01*
X8543991Y-18866508D02*
X8563039Y-18837936D01*
X8563039Y-18837936D02*
X8572563Y-18828412D01*
X8734468Y-18923650D02*
X8734468Y-19056984D01*
X8686849Y-18847460D02*
X8639230Y-18990317D01*
X8639230Y-18990317D02*
X8763039Y-18990317D01*
X8991611Y-19056984D02*
X8991611Y-18856984D01*
X9077325Y-19056984D02*
X9077325Y-18952222D01*
X9077325Y-18952222D02*
X9067801Y-18933174D01*
X9067801Y-18933174D02*
X9048753Y-18923650D01*
X9048753Y-18923650D02*
X9020182Y-18923650D01*
X9020182Y-18923650D02*
X9001134Y-18933174D01*
X9001134Y-18933174D02*
X8991611Y-18942698D01*
X9201134Y-19056984D02*
X9182087Y-19047460D01*
X9182087Y-19047460D02*
X9172563Y-19037936D01*
X9172563Y-19037936D02*
X9163039Y-19018889D01*
X9163039Y-19018889D02*
X9163039Y-18961746D01*
X9163039Y-18961746D02*
X9172563Y-18942698D01*
X9172563Y-18942698D02*
X9182087Y-18933174D01*
X9182087Y-18933174D02*
X9201134Y-18923650D01*
X9201134Y-18923650D02*
X9229706Y-18923650D01*
X9229706Y-18923650D02*
X9248753Y-18933174D01*
X9248753Y-18933174D02*
X9258277Y-18942698D01*
X9258277Y-18942698D02*
X9267801Y-18961746D01*
X9267801Y-18961746D02*
X9267801Y-19018889D01*
X9267801Y-19018889D02*
X9258277Y-19037936D01*
X9258277Y-19037936D02*
X9248753Y-19047460D01*
X9248753Y-19047460D02*
X9229706Y-19056984D01*
X9229706Y-19056984D02*
X9201134Y-19056984D01*
X9382087Y-19056984D02*
X9363039Y-19047460D01*
X9363039Y-19047460D02*
X9353515Y-19028412D01*
X9353515Y-19028412D02*
X9353515Y-18856984D01*
X9534468Y-19047460D02*
X9515420Y-19056984D01*
X9515420Y-19056984D02*
X9477325Y-19056984D01*
X9477325Y-19056984D02*
X9458277Y-19047460D01*
X9458277Y-19047460D02*
X9448753Y-19028412D01*
X9448753Y-19028412D02*
X9448753Y-18952222D01*
X9448753Y-18952222D02*
X9458277Y-18933174D01*
X9458277Y-18933174D02*
X9477325Y-18923650D01*
X9477325Y-18923650D02*
X9515420Y-18923650D01*
X9515420Y-18923650D02*
X9534468Y-18933174D01*
X9534468Y-18933174D02*
X9543992Y-18952222D01*
X9543992Y-18952222D02*
X9543992Y-18971270D01*
X9543992Y-18971270D02*
X9448753Y-18990317D01*
X9620182Y-19047460D02*
X9639230Y-19056984D01*
X9639230Y-19056984D02*
X9677325Y-19056984D01*
X9677325Y-19056984D02*
X9696373Y-19047460D01*
X9696373Y-19047460D02*
X9705896Y-19028412D01*
X9705896Y-19028412D02*
X9705896Y-19018889D01*
X9705896Y-19018889D02*
X9696373Y-18999841D01*
X9696373Y-18999841D02*
X9677325Y-18990317D01*
X9677325Y-18990317D02*
X9648753Y-18990317D01*
X9648753Y-18990317D02*
X9629706Y-18980793D01*
X9629706Y-18980793D02*
X9620182Y-18961746D01*
X9620182Y-18961746D02*
X9620182Y-18952222D01*
X9620182Y-18952222D02*
X9629706Y-18933174D01*
X9629706Y-18933174D02*
X9648753Y-18923650D01*
X9648753Y-18923650D02*
X9677325Y-18923650D01*
X9677325Y-18923650D02*
X9696373Y-18933174D01*
X9772563Y-19133174D02*
X9782087Y-19123650D01*
X9782087Y-19123650D02*
X9801134Y-19095079D01*
X9801134Y-19095079D02*
X9810658Y-19076031D01*
X9810658Y-19076031D02*
X9820182Y-19047460D01*
X9820182Y-19047460D02*
X9829706Y-18999841D01*
X9829706Y-18999841D02*
X9829706Y-18961746D01*
X9829706Y-18961746D02*
X9820182Y-18914127D01*
X9820182Y-18914127D02*
X9810658Y-18885555D01*
X9810658Y-18885555D02*
X9801134Y-18866508D01*
X9801134Y-18866508D02*
X9782087Y-18837936D01*
X9782087Y-18837936D02*
X9772563Y-18828412D01*
X10134468Y-19133174D02*
X10124944Y-19123650D01*
X10124944Y-19123650D02*
X10105896Y-19095079D01*
X10105896Y-19095079D02*
X10096373Y-19076031D01*
X10096373Y-19076031D02*
X10086849Y-19047460D01*
X10086849Y-19047460D02*
X10077325Y-18999841D01*
X10077325Y-18999841D02*
X10077325Y-18961746D01*
X10077325Y-18961746D02*
X10086849Y-18914127D01*
X10086849Y-18914127D02*
X10096373Y-18885555D01*
X10096373Y-18885555D02*
X10105896Y-18866508D01*
X10105896Y-18866508D02*
X10124944Y-18837936D01*
X10124944Y-18837936D02*
X10134468Y-18828412D01*
X10210658Y-18923650D02*
X10210658Y-19056984D01*
X10210658Y-18942698D02*
X10220182Y-18933174D01*
X10220182Y-18933174D02*
X10239230Y-18923650D01*
X10239230Y-18923650D02*
X10267801Y-18923650D01*
X10267801Y-18923650D02*
X10286849Y-18933174D01*
X10286849Y-18933174D02*
X10296373Y-18952222D01*
X10296373Y-18952222D02*
X10296373Y-19056984D01*
X10420182Y-19056984D02*
X10401134Y-19047460D01*
X10401134Y-19047460D02*
X10391611Y-19037936D01*
X10391611Y-19037936D02*
X10382087Y-19018889D01*
X10382087Y-19018889D02*
X10382087Y-18961746D01*
X10382087Y-18961746D02*
X10391611Y-18942698D01*
X10391611Y-18942698D02*
X10401134Y-18933174D01*
X10401134Y-18933174D02*
X10420182Y-18923650D01*
X10420182Y-18923650D02*
X10448754Y-18923650D01*
X10448754Y-18923650D02*
X10467801Y-18933174D01*
X10467801Y-18933174D02*
X10477325Y-18942698D01*
X10477325Y-18942698D02*
X10486849Y-18961746D01*
X10486849Y-18961746D02*
X10486849Y-19018889D01*
X10486849Y-19018889D02*
X10477325Y-19037936D01*
X10477325Y-19037936D02*
X10467801Y-19047460D01*
X10467801Y-19047460D02*
X10448754Y-19056984D01*
X10448754Y-19056984D02*
X10420182Y-19056984D01*
X10543992Y-18923650D02*
X10620182Y-18923650D01*
X10572563Y-18856984D02*
X10572563Y-19028412D01*
X10572563Y-19028412D02*
X10582087Y-19047460D01*
X10582087Y-19047460D02*
X10601134Y-19056984D01*
X10601134Y-19056984D02*
X10620182Y-19056984D01*
X10839230Y-18923650D02*
X10839230Y-19123650D01*
X10839230Y-18933174D02*
X10858277Y-18923650D01*
X10858277Y-18923650D02*
X10896373Y-18923650D01*
X10896373Y-18923650D02*
X10915420Y-18933174D01*
X10915420Y-18933174D02*
X10924944Y-18942698D01*
X10924944Y-18942698D02*
X10934468Y-18961746D01*
X10934468Y-18961746D02*
X10934468Y-19018889D01*
X10934468Y-19018889D02*
X10924944Y-19037936D01*
X10924944Y-19037936D02*
X10915420Y-19047460D01*
X10915420Y-19047460D02*
X10896373Y-19056984D01*
X10896373Y-19056984D02*
X10858277Y-19056984D01*
X10858277Y-19056984D02*
X10839230Y-19047460D01*
X11048754Y-19056984D02*
X11029706Y-19047460D01*
X11029706Y-19047460D02*
X11020182Y-19028412D01*
X11020182Y-19028412D02*
X11020182Y-18856984D01*
X11210658Y-19056984D02*
X11210658Y-18952222D01*
X11210658Y-18952222D02*
X11201134Y-18933174D01*
X11201134Y-18933174D02*
X11182087Y-18923650D01*
X11182087Y-18923650D02*
X11143992Y-18923650D01*
X11143992Y-18923650D02*
X11124944Y-18933174D01*
X11210658Y-19047460D02*
X11191611Y-19056984D01*
X11191611Y-19056984D02*
X11143992Y-19056984D01*
X11143992Y-19056984D02*
X11124944Y-19047460D01*
X11124944Y-19047460D02*
X11115420Y-19028412D01*
X11115420Y-19028412D02*
X11115420Y-19009365D01*
X11115420Y-19009365D02*
X11124944Y-18990317D01*
X11124944Y-18990317D02*
X11143992Y-18980793D01*
X11143992Y-18980793D02*
X11191611Y-18980793D01*
X11191611Y-18980793D02*
X11210658Y-18971270D01*
X11277325Y-18923650D02*
X11353515Y-18923650D01*
X11305896Y-18856984D02*
X11305896Y-19028412D01*
X11305896Y-19028412D02*
X11315420Y-19047460D01*
X11315420Y-19047460D02*
X11334468Y-19056984D01*
X11334468Y-19056984D02*
X11353515Y-19056984D01*
X11496373Y-19047460D02*
X11477325Y-19056984D01*
X11477325Y-19056984D02*
X11439230Y-19056984D01*
X11439230Y-19056984D02*
X11420182Y-19047460D01*
X11420182Y-19047460D02*
X11410658Y-19028412D01*
X11410658Y-19028412D02*
X11410658Y-18952222D01*
X11410658Y-18952222D02*
X11420182Y-18933174D01*
X11420182Y-18933174D02*
X11439230Y-18923650D01*
X11439230Y-18923650D02*
X11477325Y-18923650D01*
X11477325Y-18923650D02*
X11496373Y-18933174D01*
X11496373Y-18933174D02*
X11505896Y-18952222D01*
X11505896Y-18952222D02*
X11505896Y-18971270D01*
X11505896Y-18971270D02*
X11410658Y-18990317D01*
X11677325Y-19056984D02*
X11677325Y-18856984D01*
X11677325Y-19047460D02*
X11658277Y-19056984D01*
X11658277Y-19056984D02*
X11620182Y-19056984D01*
X11620182Y-19056984D02*
X11601134Y-19047460D01*
X11601134Y-19047460D02*
X11591611Y-19037936D01*
X11591611Y-19037936D02*
X11582087Y-19018889D01*
X11582087Y-19018889D02*
X11582087Y-18961746D01*
X11582087Y-18961746D02*
X11591611Y-18942698D01*
X11591611Y-18942698D02*
X11601134Y-18933174D01*
X11601134Y-18933174D02*
X11620182Y-18923650D01*
X11620182Y-18923650D02*
X11658277Y-18923650D01*
X11658277Y-18923650D02*
X11677325Y-18933174D01*
X11753515Y-19133174D02*
X11763039Y-19123650D01*
X11763039Y-19123650D02*
X11782087Y-19095079D01*
X11782087Y-19095079D02*
X11791611Y-19076031D01*
X11791611Y-19076031D02*
X11801134Y-19047460D01*
X11801134Y-19047460D02*
X11810658Y-18999841D01*
X11810658Y-18999841D02*
X11810658Y-18961746D01*
X11810658Y-18961746D02*
X11801134Y-18914127D01*
X11801134Y-18914127D02*
X11791611Y-18885555D01*
X11791611Y-18885555D02*
X11782087Y-18866508D01*
X11782087Y-18866508D02*
X11763039Y-18837936D01*
X11763039Y-18837936D02*
X11753515Y-18828412D01*
X4897500Y-19385500D02*
X4997500Y-19285500D01*
X4897500Y-19185500D01*
X4797500Y-19285500D01*
X4897500Y-19385500D01*
X5239229Y-19176984D02*
X5363039Y-19176984D01*
X5363039Y-19176984D02*
X5296372Y-19253174D01*
X5296372Y-19253174D02*
X5324944Y-19253174D01*
X5324944Y-19253174D02*
X5343991Y-19262698D01*
X5343991Y-19262698D02*
X5353515Y-19272222D01*
X5353515Y-19272222D02*
X5363039Y-19291270D01*
X5363039Y-19291270D02*
X5363039Y-19338889D01*
X5363039Y-19338889D02*
X5353515Y-19357936D01*
X5353515Y-19357936D02*
X5343991Y-19367460D01*
X5343991Y-19367460D02*
X5324944Y-19376984D01*
X5324944Y-19376984D02*
X5267801Y-19376984D01*
X5267801Y-19376984D02*
X5248753Y-19367460D01*
X5248753Y-19367460D02*
X5239229Y-19357936D01*
X5448753Y-19357936D02*
X5458277Y-19367460D01*
X5458277Y-19367460D02*
X5448753Y-19376984D01*
X5448753Y-19376984D02*
X5439229Y-19367460D01*
X5439229Y-19367460D02*
X5448753Y-19357936D01*
X5448753Y-19357936D02*
X5448753Y-19376984D01*
X5553515Y-19376984D02*
X5591610Y-19376984D01*
X5591610Y-19376984D02*
X5610658Y-19367460D01*
X5610658Y-19367460D02*
X5620182Y-19357936D01*
X5620182Y-19357936D02*
X5639229Y-19329365D01*
X5639229Y-19329365D02*
X5648753Y-19291270D01*
X5648753Y-19291270D02*
X5648753Y-19215079D01*
X5648753Y-19215079D02*
X5639229Y-19196031D01*
X5639229Y-19196031D02*
X5629705Y-19186508D01*
X5629705Y-19186508D02*
X5610658Y-19176984D01*
X5610658Y-19176984D02*
X5572563Y-19176984D01*
X5572563Y-19176984D02*
X5553515Y-19186508D01*
X5553515Y-19186508D02*
X5543991Y-19196031D01*
X5543991Y-19196031D02*
X5534467Y-19215079D01*
X5534467Y-19215079D02*
X5534467Y-19262698D01*
X5534467Y-19262698D02*
X5543991Y-19281746D01*
X5543991Y-19281746D02*
X5553515Y-19291270D01*
X5553515Y-19291270D02*
X5572563Y-19300793D01*
X5572563Y-19300793D02*
X5610658Y-19300793D01*
X5610658Y-19300793D02*
X5629705Y-19291270D01*
X5629705Y-19291270D02*
X5639229Y-19281746D01*
X5639229Y-19281746D02*
X5648753Y-19262698D01*
X5763039Y-19262698D02*
X5743991Y-19253174D01*
X5743991Y-19253174D02*
X5734467Y-19243650D01*
X5734467Y-19243650D02*
X5724943Y-19224603D01*
X5724943Y-19224603D02*
X5724943Y-19215079D01*
X5724943Y-19215079D02*
X5734467Y-19196031D01*
X5734467Y-19196031D02*
X5743991Y-19186508D01*
X5743991Y-19186508D02*
X5763039Y-19176984D01*
X5763039Y-19176984D02*
X5801134Y-19176984D01*
X5801134Y-19176984D02*
X5820182Y-19186508D01*
X5820182Y-19186508D02*
X5829705Y-19196031D01*
X5829705Y-19196031D02*
X5839229Y-19215079D01*
X5839229Y-19215079D02*
X5839229Y-19224603D01*
X5839229Y-19224603D02*
X5829705Y-19243650D01*
X5829705Y-19243650D02*
X5820182Y-19253174D01*
X5820182Y-19253174D02*
X5801134Y-19262698D01*
X5801134Y-19262698D02*
X5763039Y-19262698D01*
X5763039Y-19262698D02*
X5743991Y-19272222D01*
X5743991Y-19272222D02*
X5734467Y-19281746D01*
X5734467Y-19281746D02*
X5724943Y-19300793D01*
X5724943Y-19300793D02*
X5724943Y-19338889D01*
X5724943Y-19338889D02*
X5734467Y-19357936D01*
X5734467Y-19357936D02*
X5743991Y-19367460D01*
X5743991Y-19367460D02*
X5763039Y-19376984D01*
X5763039Y-19376984D02*
X5801134Y-19376984D01*
X5801134Y-19376984D02*
X5820182Y-19367460D01*
X5820182Y-19367460D02*
X5829705Y-19357936D01*
X5829705Y-19357936D02*
X5839229Y-19338889D01*
X5839229Y-19338889D02*
X5839229Y-19300793D01*
X5839229Y-19300793D02*
X5829705Y-19281746D01*
X5829705Y-19281746D02*
X5820182Y-19272222D01*
X5820182Y-19272222D02*
X5801134Y-19262698D01*
X5953515Y-19262698D02*
X5934467Y-19253174D01*
X5934467Y-19253174D02*
X5924943Y-19243650D01*
X5924943Y-19243650D02*
X5915420Y-19224603D01*
X5915420Y-19224603D02*
X5915420Y-19215079D01*
X5915420Y-19215079D02*
X5924943Y-19196031D01*
X5924943Y-19196031D02*
X5934467Y-19186508D01*
X5934467Y-19186508D02*
X5953515Y-19176984D01*
X5953515Y-19176984D02*
X5991610Y-19176984D01*
X5991610Y-19176984D02*
X6010658Y-19186508D01*
X6010658Y-19186508D02*
X6020182Y-19196031D01*
X6020182Y-19196031D02*
X6029705Y-19215079D01*
X6029705Y-19215079D02*
X6029705Y-19224603D01*
X6029705Y-19224603D02*
X6020182Y-19243650D01*
X6020182Y-19243650D02*
X6010658Y-19253174D01*
X6010658Y-19253174D02*
X5991610Y-19262698D01*
X5991610Y-19262698D02*
X5953515Y-19262698D01*
X5953515Y-19262698D02*
X5934467Y-19272222D01*
X5934467Y-19272222D02*
X5924943Y-19281746D01*
X5924943Y-19281746D02*
X5915420Y-19300793D01*
X5915420Y-19300793D02*
X5915420Y-19338889D01*
X5915420Y-19338889D02*
X5924943Y-19357936D01*
X5924943Y-19357936D02*
X5934467Y-19367460D01*
X5934467Y-19367460D02*
X5953515Y-19376984D01*
X5953515Y-19376984D02*
X5991610Y-19376984D01*
X5991610Y-19376984D02*
X6010658Y-19367460D01*
X6010658Y-19367460D02*
X6020182Y-19357936D01*
X6020182Y-19357936D02*
X6029705Y-19338889D01*
X6029705Y-19338889D02*
X6029705Y-19300793D01*
X6029705Y-19300793D02*
X6020182Y-19281746D01*
X6020182Y-19281746D02*
X6010658Y-19272222D01*
X6010658Y-19272222D02*
X5991610Y-19262698D01*
X6115420Y-19376984D02*
X6115420Y-19243650D01*
X6115420Y-19262698D02*
X6124943Y-19253174D01*
X6124943Y-19253174D02*
X6143991Y-19243650D01*
X6143991Y-19243650D02*
X6172563Y-19243650D01*
X6172563Y-19243650D02*
X6191610Y-19253174D01*
X6191610Y-19253174D02*
X6201134Y-19272222D01*
X6201134Y-19272222D02*
X6201134Y-19376984D01*
X6201134Y-19272222D02*
X6210658Y-19253174D01*
X6210658Y-19253174D02*
X6229705Y-19243650D01*
X6229705Y-19243650D02*
X6258277Y-19243650D01*
X6258277Y-19243650D02*
X6277324Y-19253174D01*
X6277324Y-19253174D02*
X6286848Y-19272222D01*
X6286848Y-19272222D02*
X6286848Y-19376984D01*
X6382086Y-19376984D02*
X6382086Y-19243650D01*
X6382086Y-19262698D02*
X6391610Y-19253174D01*
X6391610Y-19253174D02*
X6410658Y-19243650D01*
X6410658Y-19243650D02*
X6439229Y-19243650D01*
X6439229Y-19243650D02*
X6458277Y-19253174D01*
X6458277Y-19253174D02*
X6467801Y-19272222D01*
X6467801Y-19272222D02*
X6467801Y-19376984D01*
X6467801Y-19272222D02*
X6477324Y-19253174D01*
X6477324Y-19253174D02*
X6496372Y-19243650D01*
X6496372Y-19243650D02*
X6524943Y-19243650D01*
X6524943Y-19243650D02*
X6543991Y-19253174D01*
X6543991Y-19253174D02*
X6553515Y-19272222D01*
X6553515Y-19272222D02*
X6553515Y-19376984D01*
X6943991Y-19167460D02*
X6772563Y-19424603D01*
X7201134Y-19176984D02*
X7220182Y-19176984D01*
X7220182Y-19176984D02*
X7239229Y-19186508D01*
X7239229Y-19186508D02*
X7248753Y-19196031D01*
X7248753Y-19196031D02*
X7258277Y-19215079D01*
X7258277Y-19215079D02*
X7267801Y-19253174D01*
X7267801Y-19253174D02*
X7267801Y-19300793D01*
X7267801Y-19300793D02*
X7258277Y-19338889D01*
X7258277Y-19338889D02*
X7248753Y-19357936D01*
X7248753Y-19357936D02*
X7239229Y-19367460D01*
X7239229Y-19367460D02*
X7220182Y-19376984D01*
X7220182Y-19376984D02*
X7201134Y-19376984D01*
X7201134Y-19376984D02*
X7182086Y-19367460D01*
X7182086Y-19367460D02*
X7172563Y-19357936D01*
X7172563Y-19357936D02*
X7163039Y-19338889D01*
X7163039Y-19338889D02*
X7153515Y-19300793D01*
X7153515Y-19300793D02*
X7153515Y-19253174D01*
X7153515Y-19253174D02*
X7163039Y-19215079D01*
X7163039Y-19215079D02*
X7172563Y-19196031D01*
X7172563Y-19196031D02*
X7182086Y-19186508D01*
X7182086Y-19186508D02*
X7201134Y-19176984D01*
X7353515Y-19357936D02*
X7363039Y-19367460D01*
X7363039Y-19367460D02*
X7353515Y-19376984D01*
X7353515Y-19376984D02*
X7343991Y-19367460D01*
X7343991Y-19367460D02*
X7353515Y-19357936D01*
X7353515Y-19357936D02*
X7353515Y-19376984D01*
X7553515Y-19376984D02*
X7439229Y-19376984D01*
X7496372Y-19376984D02*
X7496372Y-19176984D01*
X7496372Y-19176984D02*
X7477325Y-19205555D01*
X7477325Y-19205555D02*
X7458277Y-19224603D01*
X7458277Y-19224603D02*
X7439229Y-19234127D01*
X7734467Y-19176984D02*
X7639229Y-19176984D01*
X7639229Y-19176984D02*
X7629706Y-19272222D01*
X7629706Y-19272222D02*
X7639229Y-19262698D01*
X7639229Y-19262698D02*
X7658277Y-19253174D01*
X7658277Y-19253174D02*
X7705896Y-19253174D01*
X7705896Y-19253174D02*
X7724944Y-19262698D01*
X7724944Y-19262698D02*
X7734467Y-19272222D01*
X7734467Y-19272222D02*
X7743991Y-19291270D01*
X7743991Y-19291270D02*
X7743991Y-19338889D01*
X7743991Y-19338889D02*
X7734467Y-19357936D01*
X7734467Y-19357936D02*
X7724944Y-19367460D01*
X7724944Y-19367460D02*
X7705896Y-19376984D01*
X7705896Y-19376984D02*
X7658277Y-19376984D01*
X7658277Y-19376984D02*
X7639229Y-19367460D01*
X7639229Y-19367460D02*
X7629706Y-19357936D01*
X7810658Y-19176984D02*
X7943991Y-19176984D01*
X7943991Y-19176984D02*
X7858277Y-19376984D01*
X8058277Y-19176984D02*
X8077325Y-19176984D01*
X8077325Y-19176984D02*
X8096372Y-19186508D01*
X8096372Y-19186508D02*
X8105896Y-19196031D01*
X8105896Y-19196031D02*
X8115420Y-19215079D01*
X8115420Y-19215079D02*
X8124944Y-19253174D01*
X8124944Y-19253174D02*
X8124944Y-19300793D01*
X8124944Y-19300793D02*
X8115420Y-19338889D01*
X8115420Y-19338889D02*
X8105896Y-19357936D01*
X8105896Y-19357936D02*
X8096372Y-19367460D01*
X8096372Y-19367460D02*
X8077325Y-19376984D01*
X8077325Y-19376984D02*
X8058277Y-19376984D01*
X8058277Y-19376984D02*
X8039229Y-19367460D01*
X8039229Y-19367460D02*
X8029706Y-19357936D01*
X8029706Y-19357936D02*
X8020182Y-19338889D01*
X8020182Y-19338889D02*
X8010658Y-19300793D01*
X8010658Y-19300793D02*
X8010658Y-19253174D01*
X8010658Y-19253174D02*
X8020182Y-19215079D01*
X8020182Y-19215079D02*
X8029706Y-19196031D01*
X8029706Y-19196031D02*
X8039229Y-19186508D01*
X8039229Y-19186508D02*
X8058277Y-19176984D01*
X8201134Y-19176984D02*
X8201134Y-19215079D01*
X8277325Y-19176984D02*
X8277325Y-19215079D01*
X8572563Y-19453174D02*
X8563039Y-19443650D01*
X8563039Y-19443650D02*
X8543991Y-19415079D01*
X8543991Y-19415079D02*
X8534468Y-19396031D01*
X8534468Y-19396031D02*
X8524944Y-19367460D01*
X8524944Y-19367460D02*
X8515420Y-19319841D01*
X8515420Y-19319841D02*
X8515420Y-19281746D01*
X8515420Y-19281746D02*
X8524944Y-19234127D01*
X8524944Y-19234127D02*
X8534468Y-19205555D01*
X8534468Y-19205555D02*
X8543991Y-19186508D01*
X8543991Y-19186508D02*
X8563039Y-19157936D01*
X8563039Y-19157936D02*
X8572563Y-19148412D01*
X8639230Y-19196031D02*
X8648753Y-19186508D01*
X8648753Y-19186508D02*
X8667801Y-19176984D01*
X8667801Y-19176984D02*
X8715420Y-19176984D01*
X8715420Y-19176984D02*
X8734468Y-19186508D01*
X8734468Y-19186508D02*
X8743991Y-19196031D01*
X8743991Y-19196031D02*
X8753515Y-19215079D01*
X8753515Y-19215079D02*
X8753515Y-19234127D01*
X8753515Y-19234127D02*
X8743991Y-19262698D01*
X8743991Y-19262698D02*
X8629706Y-19376984D01*
X8629706Y-19376984D02*
X8753515Y-19376984D01*
X8934468Y-19176984D02*
X8839230Y-19176984D01*
X8839230Y-19176984D02*
X8829706Y-19272222D01*
X8829706Y-19272222D02*
X8839230Y-19262698D01*
X8839230Y-19262698D02*
X8858277Y-19253174D01*
X8858277Y-19253174D02*
X8905896Y-19253174D01*
X8905896Y-19253174D02*
X8924944Y-19262698D01*
X8924944Y-19262698D02*
X8934468Y-19272222D01*
X8934468Y-19272222D02*
X8943991Y-19291270D01*
X8943991Y-19291270D02*
X8943991Y-19338889D01*
X8943991Y-19338889D02*
X8934468Y-19357936D01*
X8934468Y-19357936D02*
X8924944Y-19367460D01*
X8924944Y-19367460D02*
X8905896Y-19376984D01*
X8905896Y-19376984D02*
X8858277Y-19376984D01*
X8858277Y-19376984D02*
X8839230Y-19367460D01*
X8839230Y-19367460D02*
X8829706Y-19357936D01*
X9182087Y-19376984D02*
X9182087Y-19176984D01*
X9267801Y-19376984D02*
X9267801Y-19272222D01*
X9267801Y-19272222D02*
X9258277Y-19253174D01*
X9258277Y-19253174D02*
X9239230Y-19243650D01*
X9239230Y-19243650D02*
X9210658Y-19243650D01*
X9210658Y-19243650D02*
X9191611Y-19253174D01*
X9191611Y-19253174D02*
X9182087Y-19262698D01*
X9391611Y-19376984D02*
X9372563Y-19367460D01*
X9372563Y-19367460D02*
X9363039Y-19357936D01*
X9363039Y-19357936D02*
X9353515Y-19338889D01*
X9353515Y-19338889D02*
X9353515Y-19281746D01*
X9353515Y-19281746D02*
X9363039Y-19262698D01*
X9363039Y-19262698D02*
X9372563Y-19253174D01*
X9372563Y-19253174D02*
X9391611Y-19243650D01*
X9391611Y-19243650D02*
X9420182Y-19243650D01*
X9420182Y-19243650D02*
X9439230Y-19253174D01*
X9439230Y-19253174D02*
X9448753Y-19262698D01*
X9448753Y-19262698D02*
X9458277Y-19281746D01*
X9458277Y-19281746D02*
X9458277Y-19338889D01*
X9458277Y-19338889D02*
X9448753Y-19357936D01*
X9448753Y-19357936D02*
X9439230Y-19367460D01*
X9439230Y-19367460D02*
X9420182Y-19376984D01*
X9420182Y-19376984D02*
X9391611Y-19376984D01*
X9572563Y-19376984D02*
X9553515Y-19367460D01*
X9553515Y-19367460D02*
X9543992Y-19348412D01*
X9543992Y-19348412D02*
X9543992Y-19176984D01*
X9724944Y-19367460D02*
X9705896Y-19376984D01*
X9705896Y-19376984D02*
X9667801Y-19376984D01*
X9667801Y-19376984D02*
X9648753Y-19367460D01*
X9648753Y-19367460D02*
X9639230Y-19348412D01*
X9639230Y-19348412D02*
X9639230Y-19272222D01*
X9639230Y-19272222D02*
X9648753Y-19253174D01*
X9648753Y-19253174D02*
X9667801Y-19243650D01*
X9667801Y-19243650D02*
X9705896Y-19243650D01*
X9705896Y-19243650D02*
X9724944Y-19253174D01*
X9724944Y-19253174D02*
X9734468Y-19272222D01*
X9734468Y-19272222D02*
X9734468Y-19291270D01*
X9734468Y-19291270D02*
X9639230Y-19310317D01*
X9810658Y-19367460D02*
X9829706Y-19376984D01*
X9829706Y-19376984D02*
X9867801Y-19376984D01*
X9867801Y-19376984D02*
X9886849Y-19367460D01*
X9886849Y-19367460D02*
X9896373Y-19348412D01*
X9896373Y-19348412D02*
X9896373Y-19338889D01*
X9896373Y-19338889D02*
X9886849Y-19319841D01*
X9886849Y-19319841D02*
X9867801Y-19310317D01*
X9867801Y-19310317D02*
X9839230Y-19310317D01*
X9839230Y-19310317D02*
X9820182Y-19300793D01*
X9820182Y-19300793D02*
X9810658Y-19281746D01*
X9810658Y-19281746D02*
X9810658Y-19272222D01*
X9810658Y-19272222D02*
X9820182Y-19253174D01*
X9820182Y-19253174D02*
X9839230Y-19243650D01*
X9839230Y-19243650D02*
X9867801Y-19243650D01*
X9867801Y-19243650D02*
X9886849Y-19253174D01*
X9963039Y-19453174D02*
X9972563Y-19443650D01*
X9972563Y-19443650D02*
X9991611Y-19415079D01*
X9991611Y-19415079D02*
X10001134Y-19396031D01*
X10001134Y-19396031D02*
X10010658Y-19367460D01*
X10010658Y-19367460D02*
X10020182Y-19319841D01*
X10020182Y-19319841D02*
X10020182Y-19281746D01*
X10020182Y-19281746D02*
X10010658Y-19234127D01*
X10010658Y-19234127D02*
X10001134Y-19205555D01*
X10001134Y-19205555D02*
X9991611Y-19186508D01*
X9991611Y-19186508D02*
X9972563Y-19157936D01*
X9972563Y-19157936D02*
X9963039Y-19148412D01*
X10324944Y-19453174D02*
X10315420Y-19443650D01*
X10315420Y-19443650D02*
X10296373Y-19415079D01*
X10296373Y-19415079D02*
X10286849Y-19396031D01*
X10286849Y-19396031D02*
X10277325Y-19367460D01*
X10277325Y-19367460D02*
X10267801Y-19319841D01*
X10267801Y-19319841D02*
X10267801Y-19281746D01*
X10267801Y-19281746D02*
X10277325Y-19234127D01*
X10277325Y-19234127D02*
X10286849Y-19205555D01*
X10286849Y-19205555D02*
X10296373Y-19186508D01*
X10296373Y-19186508D02*
X10315420Y-19157936D01*
X10315420Y-19157936D02*
X10324944Y-19148412D01*
X10401134Y-19243650D02*
X10401134Y-19376984D01*
X10401134Y-19262698D02*
X10410658Y-19253174D01*
X10410658Y-19253174D02*
X10429706Y-19243650D01*
X10429706Y-19243650D02*
X10458277Y-19243650D01*
X10458277Y-19243650D02*
X10477325Y-19253174D01*
X10477325Y-19253174D02*
X10486849Y-19272222D01*
X10486849Y-19272222D02*
X10486849Y-19376984D01*
X10610658Y-19376984D02*
X10591611Y-19367460D01*
X10591611Y-19367460D02*
X10582087Y-19357936D01*
X10582087Y-19357936D02*
X10572563Y-19338889D01*
X10572563Y-19338889D02*
X10572563Y-19281746D01*
X10572563Y-19281746D02*
X10582087Y-19262698D01*
X10582087Y-19262698D02*
X10591611Y-19253174D01*
X10591611Y-19253174D02*
X10610658Y-19243650D01*
X10610658Y-19243650D02*
X10639230Y-19243650D01*
X10639230Y-19243650D02*
X10658277Y-19253174D01*
X10658277Y-19253174D02*
X10667801Y-19262698D01*
X10667801Y-19262698D02*
X10677325Y-19281746D01*
X10677325Y-19281746D02*
X10677325Y-19338889D01*
X10677325Y-19338889D02*
X10667801Y-19357936D01*
X10667801Y-19357936D02*
X10658277Y-19367460D01*
X10658277Y-19367460D02*
X10639230Y-19376984D01*
X10639230Y-19376984D02*
X10610658Y-19376984D01*
X10734468Y-19243650D02*
X10810658Y-19243650D01*
X10763039Y-19176984D02*
X10763039Y-19348412D01*
X10763039Y-19348412D02*
X10772563Y-19367460D01*
X10772563Y-19367460D02*
X10791611Y-19376984D01*
X10791611Y-19376984D02*
X10810658Y-19376984D01*
X11029706Y-19243650D02*
X11029706Y-19443650D01*
X11029706Y-19253174D02*
X11048754Y-19243650D01*
X11048754Y-19243650D02*
X11086849Y-19243650D01*
X11086849Y-19243650D02*
X11105896Y-19253174D01*
X11105896Y-19253174D02*
X11115420Y-19262698D01*
X11115420Y-19262698D02*
X11124944Y-19281746D01*
X11124944Y-19281746D02*
X11124944Y-19338889D01*
X11124944Y-19338889D02*
X11115420Y-19357936D01*
X11115420Y-19357936D02*
X11105896Y-19367460D01*
X11105896Y-19367460D02*
X11086849Y-19376984D01*
X11086849Y-19376984D02*
X11048754Y-19376984D01*
X11048754Y-19376984D02*
X11029706Y-19367460D01*
X11239230Y-19376984D02*
X11220182Y-19367460D01*
X11220182Y-19367460D02*
X11210658Y-19348412D01*
X11210658Y-19348412D02*
X11210658Y-19176984D01*
X11401134Y-19376984D02*
X11401134Y-19272222D01*
X11401134Y-19272222D02*
X11391611Y-19253174D01*
X11391611Y-19253174D02*
X11372563Y-19243650D01*
X11372563Y-19243650D02*
X11334468Y-19243650D01*
X11334468Y-19243650D02*
X11315420Y-19253174D01*
X11401134Y-19367460D02*
X11382087Y-19376984D01*
X11382087Y-19376984D02*
X11334468Y-19376984D01*
X11334468Y-19376984D02*
X11315420Y-19367460D01*
X11315420Y-19367460D02*
X11305896Y-19348412D01*
X11305896Y-19348412D02*
X11305896Y-19329365D01*
X11305896Y-19329365D02*
X11315420Y-19310317D01*
X11315420Y-19310317D02*
X11334468Y-19300793D01*
X11334468Y-19300793D02*
X11382087Y-19300793D01*
X11382087Y-19300793D02*
X11401134Y-19291270D01*
X11467801Y-19243650D02*
X11543992Y-19243650D01*
X11496373Y-19176984D02*
X11496373Y-19348412D01*
X11496373Y-19348412D02*
X11505896Y-19367460D01*
X11505896Y-19367460D02*
X11524944Y-19376984D01*
X11524944Y-19376984D02*
X11543992Y-19376984D01*
X11686849Y-19367460D02*
X11667801Y-19376984D01*
X11667801Y-19376984D02*
X11629706Y-19376984D01*
X11629706Y-19376984D02*
X11610658Y-19367460D01*
X11610658Y-19367460D02*
X11601134Y-19348412D01*
X11601134Y-19348412D02*
X11601134Y-19272222D01*
X11601134Y-19272222D02*
X11610658Y-19253174D01*
X11610658Y-19253174D02*
X11629706Y-19243650D01*
X11629706Y-19243650D02*
X11667801Y-19243650D01*
X11667801Y-19243650D02*
X11686849Y-19253174D01*
X11686849Y-19253174D02*
X11696373Y-19272222D01*
X11696373Y-19272222D02*
X11696373Y-19291270D01*
X11696373Y-19291270D02*
X11601134Y-19310317D01*
X11867801Y-19376984D02*
X11867801Y-19176984D01*
X11867801Y-19367460D02*
X11848754Y-19376984D01*
X11848754Y-19376984D02*
X11810658Y-19376984D01*
X11810658Y-19376984D02*
X11791611Y-19367460D01*
X11791611Y-19367460D02*
X11782087Y-19357936D01*
X11782087Y-19357936D02*
X11772563Y-19338889D01*
X11772563Y-19338889D02*
X11772563Y-19281746D01*
X11772563Y-19281746D02*
X11782087Y-19262698D01*
X11782087Y-19262698D02*
X11791611Y-19253174D01*
X11791611Y-19253174D02*
X11810658Y-19243650D01*
X11810658Y-19243650D02*
X11848754Y-19243650D01*
X11848754Y-19243650D02*
X11867801Y-19253174D01*
X11943992Y-19453174D02*
X11953515Y-19443650D01*
X11953515Y-19443650D02*
X11972563Y-19415079D01*
X11972563Y-19415079D02*
X11982087Y-19396031D01*
X11982087Y-19396031D02*
X11991611Y-19367460D01*
X11991611Y-19367460D02*
X12001134Y-19319841D01*
X12001134Y-19319841D02*
X12001134Y-19281746D01*
X12001134Y-19281746D02*
X11991611Y-19234127D01*
X11991611Y-19234127D02*
X11982087Y-19205555D01*
X11982087Y-19205555D02*
X11972563Y-19186508D01*
X11972563Y-19186508D02*
X11953515Y-19157936D01*
X11953515Y-19157936D02*
X11943992Y-19148412D01*
M02*
