G04 #@! TF.GenerationSoftware,KiCad,Pcbnew,9.0.7*
G04 #@! TF.CreationDate,2026-02-15T13:27:24+05:00*
G04 #@! TF.ProjectId,ModuPad_v2,4d6f6475-5061-4645-9f76-322e6b696361,rev?*
G04 #@! TF.SameCoordinates,Original*
G04 #@! TF.FileFunction,Paste,Bot*
G04 #@! TF.FilePolarity,Positive*
%FSLAX46Y46*%
G04 Gerber Fmt 4.6, Leading zero omitted, Abs format (unit mm)*
G04 Created by KiCad (PCBNEW 9.0.7) date 2026-02-15 13:27:24*
%MOMM*%
%LPD*%
G01*
G04 APERTURE LIST*
G04 Aperture macros list*
%AMRoundRect*
0 Rectangle with rounded corners*
0 $1 Rounding radius*
0 $2 $3 $4 $5 $6 $7 $8 $9 X,Y pos of 4 corners*
0 Add a 4 corners polygon primitive as box body*
4,1,4,$2,$3,$4,$5,$6,$7,$8,$9,$2,$3,0*
0 Add four circle primitives for the rounded corners*
1,1,$1+$1,$2,$3*
1,1,$1+$1,$4,$5*
1,1,$1+$1,$6,$7*
1,1,$1+$1,$8,$9*
0 Add four rect primitives between the rounded corners*
20,1,$1+$1,$2,$3,$4,$5,0*
20,1,$1+$1,$4,$5,$6,$7,0*
20,1,$1+$1,$6,$7,$8,$9,0*
20,1,$1+$1,$8,$9,$2,$3,0*%
%AMFreePoly0*
4,1,18,-0.410000,0.593000,-0.403758,0.624380,-0.385983,0.650983,-0.359380,0.668758,-0.328000,0.675000,0.328000,0.675000,0.359380,0.668758,0.385983,0.650983,0.403758,0.624380,0.410000,0.593000,0.410000,-0.593000,0.403758,-0.624380,0.385983,-0.650983,0.359380,-0.668758,0.328000,-0.675000,0.000000,-0.675000,-0.410000,-0.265000,-0.410000,0.593000,-0.410000,0.593000,$1*%
G04 Aperture macros list end*
%ADD10R,0.900000X0.900000*%
%ADD11R,1.250000X0.900000*%
%ADD12RoundRect,0.082000X0.593000X-0.328000X0.593000X0.328000X-0.593000X0.328000X-0.593000X-0.328000X0*%
%ADD13FreePoly0,90.000000*%
%ADD14RoundRect,0.225000X0.225000X0.375000X-0.225000X0.375000X-0.225000X-0.375000X0.225000X-0.375000X0*%
%ADD15RoundRect,0.250000X1.025000X1.000000X-1.025000X1.000000X-1.025000X-1.000000X1.025000X-1.000000X0*%
%ADD16RoundRect,0.225000X-0.225000X-0.375000X0.225000X-0.375000X0.225000X0.375000X-0.225000X0.375000X0*%
%ADD17RoundRect,0.237500X0.250000X0.237500X-0.250000X0.237500X-0.250000X-0.237500X0.250000X-0.237500X0*%
%ADD18RoundRect,0.225000X0.225000X0.250000X-0.225000X0.250000X-0.225000X-0.250000X0.225000X-0.250000X0*%
G04 APERTURE END LIST*
D10*
X50700000Y-68400000D03*
X52900000Y-68400000D03*
X50700000Y-61000000D03*
X52900000Y-61000000D03*
D11*
X53875000Y-66950000D03*
X53875000Y-63950000D03*
X53875000Y-62450000D03*
D12*
X118775000Y-126750001D03*
X118775000Y-128250001D03*
X124225000Y-126750001D03*
D13*
X124225000Y-128250001D03*
D14*
X73150000Y-149500000D03*
X69850000Y-149500000D03*
D15*
X95140000Y-100960000D03*
X108590000Y-98420000D03*
X95140000Y-157960000D03*
X108590000Y-155420000D03*
D12*
X80775000Y-126750001D03*
X80775000Y-128250001D03*
X86225000Y-126750001D03*
D13*
X86225000Y-128250001D03*
D14*
X149150000Y-149500000D03*
X145850000Y-149500000D03*
D16*
X96350000Y-53500000D03*
X99650000Y-53500000D03*
D12*
X61775000Y-126750001D03*
X61775000Y-128250001D03*
X67225000Y-126750001D03*
D13*
X67225000Y-128250001D03*
D15*
X133140000Y-81960000D03*
X146590000Y-79420000D03*
D14*
X91800000Y-149500000D03*
X88500000Y-149500000D03*
D15*
X133140000Y-138960000D03*
X146590000Y-136420000D03*
D12*
X99775000Y-145750001D03*
X99775000Y-147250001D03*
X105225000Y-145750001D03*
D13*
X105225000Y-147250001D03*
D15*
X76140000Y-100960000D03*
X89590000Y-98420000D03*
D14*
X111300000Y-149500000D03*
X108000000Y-149500000D03*
D15*
X133140000Y-157960000D03*
X146590000Y-155420000D03*
D14*
X130150000Y-92500000D03*
X126850000Y-92500000D03*
D15*
X114140000Y-100960000D03*
X127590000Y-98420000D03*
D12*
X99775000Y-107750001D03*
X99775000Y-109250001D03*
X105225000Y-107750001D03*
D13*
X105225000Y-109250001D03*
D12*
X61775000Y-164750001D03*
X61775000Y-166250001D03*
X67225000Y-164750001D03*
D13*
X67225000Y-166250001D03*
D15*
X76140000Y-119960000D03*
X89590000Y-117420000D03*
D12*
X118775000Y-107750001D03*
X118775000Y-109250001D03*
X124225000Y-107750001D03*
D13*
X124225000Y-109250001D03*
D17*
X149000000Y-76000000D03*
X147175000Y-76000000D03*
D12*
X137775000Y-107750001D03*
X137775000Y-109250001D03*
X143225000Y-107750001D03*
D13*
X143225000Y-109250001D03*
D14*
X73300000Y-168500000D03*
X70000000Y-168500000D03*
X130300000Y-168500000D03*
X127000000Y-168500000D03*
D12*
X61775000Y-88750001D03*
X61775000Y-90250001D03*
X67225000Y-88750001D03*
D13*
X67225000Y-90250001D03*
D14*
X92300000Y-168500000D03*
X89000000Y-168500000D03*
X111150000Y-92500000D03*
X107850000Y-92500000D03*
D12*
X61775000Y-107750001D03*
X61775000Y-109250001D03*
X67225000Y-107750001D03*
D13*
X67225000Y-109250001D03*
D14*
X130300000Y-149500000D03*
X127000000Y-149500000D03*
D12*
X80775000Y-145750001D03*
X80775000Y-147250001D03*
X86225000Y-145750001D03*
D13*
X86225000Y-147250001D03*
D14*
X149150000Y-130500000D03*
X145850000Y-130500000D03*
X149150000Y-111500000D03*
X145850000Y-111500000D03*
D15*
X133140000Y-119960000D03*
X146590000Y-117420000D03*
X76140000Y-138960000D03*
X89590000Y-136420000D03*
D12*
X80775000Y-88750001D03*
X80775000Y-90250001D03*
X86225000Y-88750001D03*
D13*
X86225000Y-90250001D03*
D12*
X99775000Y-164750001D03*
X99775000Y-166250001D03*
X105225000Y-164750001D03*
D13*
X105225000Y-166250001D03*
D15*
X114140000Y-81960000D03*
X127590000Y-79420000D03*
X57140000Y-81960000D03*
X70590000Y-79420000D03*
D12*
X118775000Y-88750001D03*
X118775000Y-90250001D03*
X124225000Y-88750001D03*
D13*
X124225000Y-90250001D03*
D14*
X92000000Y-130500000D03*
X88700000Y-130500000D03*
D15*
X76140000Y-157960000D03*
X89590000Y-155420000D03*
D16*
X115350000Y-53500000D03*
X118650000Y-53500000D03*
D15*
X57140000Y-157960000D03*
X70590000Y-155420000D03*
D14*
X149150000Y-92500000D03*
X145850000Y-92500000D03*
X111150000Y-111500000D03*
X107850000Y-111500000D03*
X149150000Y-168500000D03*
X145850000Y-168500000D03*
D12*
X99775000Y-126750001D03*
X99775000Y-128250001D03*
X105225000Y-126750001D03*
D13*
X105225000Y-128250001D03*
D12*
X61775000Y-145750001D03*
X61775000Y-147250001D03*
X67225000Y-145750001D03*
D13*
X67225000Y-147250001D03*
D15*
X114140000Y-119960000D03*
X127590000Y-117420000D03*
D12*
X118775000Y-164750001D03*
X118775000Y-166250001D03*
X124225000Y-164750001D03*
D13*
X124225000Y-166250001D03*
D15*
X57140000Y-138960000D03*
X70590000Y-136420000D03*
X95140000Y-81960000D03*
X108590000Y-79420000D03*
D14*
X92150000Y-92500000D03*
X88850000Y-92500000D03*
X92300000Y-111500000D03*
X89000000Y-111500000D03*
D15*
X114140000Y-157960000D03*
X127590000Y-155420000D03*
D12*
X80775000Y-107750001D03*
X80775000Y-109250001D03*
X86225000Y-107750001D03*
D13*
X86225000Y-109250001D03*
D14*
X130150000Y-111500000D03*
X126850000Y-111500000D03*
D15*
X133140000Y-100960000D03*
X146590000Y-98420000D03*
X95140000Y-138960000D03*
X108590000Y-136420000D03*
D12*
X80775000Y-164750001D03*
X80775000Y-166250001D03*
X86225000Y-164750001D03*
D13*
X86225000Y-166250001D03*
D12*
X137775000Y-88750001D03*
X137775000Y-90250001D03*
X143225000Y-88750001D03*
D13*
X143225000Y-90250001D03*
D12*
X99775000Y-88750001D03*
X99775000Y-90250001D03*
X105225000Y-88750001D03*
D13*
X105225000Y-90250001D03*
D14*
X111300000Y-130500000D03*
X108000000Y-130500000D03*
D15*
X95140000Y-119960000D03*
X108590000Y-117420000D03*
D12*
X137775000Y-145750001D03*
X137775000Y-147250001D03*
X143225000Y-145750001D03*
D13*
X143225000Y-147250001D03*
D16*
X134700000Y-53500000D03*
X138000000Y-53500000D03*
D15*
X57140000Y-100960000D03*
X70590000Y-98420000D03*
D18*
X61550000Y-53000000D03*
X60000000Y-53000000D03*
D12*
X137775000Y-126750001D03*
X137775000Y-128250001D03*
X143225000Y-126750001D03*
D13*
X143225000Y-128250001D03*
D12*
X137775000Y-164750001D03*
X137775000Y-166250001D03*
X143225000Y-164750001D03*
D13*
X143225000Y-166250001D03*
D15*
X76140000Y-81960000D03*
X89590000Y-79420000D03*
D14*
X130300000Y-130500000D03*
X127000000Y-130500000D03*
X73150000Y-130500000D03*
X69850000Y-130500000D03*
X73300000Y-111500000D03*
X70000000Y-111500000D03*
X111300000Y-168500000D03*
X108000000Y-168500000D03*
D15*
X57140000Y-119960000D03*
X70590000Y-117420000D03*
D12*
X118775000Y-145750001D03*
X118775000Y-147250001D03*
X124225000Y-145750001D03*
D13*
X124225000Y-147250001D03*
D14*
X73300000Y-92500000D03*
X70000000Y-92500000D03*
D15*
X114140000Y-138960000D03*
X127590000Y-136420000D03*
M02*
