M48
; DRILL file {KiCad 9.0.7} date 2026-02-15T13:29:55+0500
; FORMAT={-:-/ absolute / metric / decimal}
; #@! TF.CreationDate,2026-02-15T13:29:55+05:00
; #@! TF.GenerationSoftware,Kicad,Pcbnew,9.0.7
; #@! TF.FileFunction,NonPlated,1,2,NPTH
FMAT,2
METRIC
; #@! TA.AperFunction,NonPlated,NPTH,ComponentDrill
T1C0.750
; #@! TA.AperFunction,NonPlated,NPTH,ComponentDrill
T2C0.900
; #@! TA.AperFunction,NonPlated,NPTH,ComponentDrill
T3C1.750
; #@! TA.AperFunction,NonPlated,NPTH,ComponentDrill
T4C2.000
; #@! TA.AperFunction,NonPlated,NPTH,ComponentDrill
T5C3.988
%
G90
G05
T1
X55.625Y-64.7
X58.375Y-64.7
T2
X51.8Y-63.2
X51.8Y-66.2
T3
X59.42Y-84.5
X59.42Y-103.5
X59.42Y-122.5
X59.42Y-141.5
X59.42Y-160.5
X69.58Y-84.5
X69.58Y-103.5
X69.58Y-122.5
X69.58Y-141.5
X69.58Y-160.5
X78.42Y-84.5
X78.42Y-103.5
X78.42Y-122.5
X78.42Y-141.5
X78.42Y-160.5
X88.58Y-84.5
X88.58Y-103.5
X88.58Y-122.5
X88.58Y-141.5
X88.58Y-160.5
X97.42Y-84.5
X97.42Y-103.5
X97.42Y-122.5
X97.42Y-141.5
X97.42Y-160.5
X107.58Y-84.5
X107.58Y-103.5
X107.58Y-122.5
X107.58Y-141.5
X107.58Y-160.5
X116.42Y-84.5
X116.42Y-103.5
X116.42Y-122.5
X116.42Y-141.5
X116.42Y-160.5
X126.58Y-84.5
X126.58Y-103.5
X126.58Y-122.5
X126.58Y-141.5
X126.58Y-160.5
X135.42Y-84.5
X135.42Y-103.5
X135.42Y-122.5
X135.42Y-141.5
X135.42Y-160.5
X145.58Y-84.5
X145.58Y-103.5
X145.58Y-122.5
X145.58Y-141.5
X145.58Y-160.5
T4
X52.5Y-52.5
X52.5Y-172.5
X152.5Y-72.5
X152.5Y-172.5
T5
X64.5Y-84.5
X64.5Y-103.5
X64.5Y-122.5
X64.5Y-141.5
X64.5Y-160.5
X83.5Y-84.5
X83.5Y-103.5
X83.5Y-122.5
X83.5Y-141.5
X83.5Y-160.5
X102.5Y-84.5
X102.5Y-103.5
X102.5Y-122.5
X102.5Y-141.5
X102.5Y-160.5
X121.5Y-84.5
X121.5Y-103.5
X121.5Y-122.5
X121.5Y-141.5
X121.5Y-160.5
X140.5Y-84.5
X140.5Y-103.5
X140.5Y-122.5
X140.5Y-141.5
X140.5Y-160.5
M30
