G04 #@! TF.GenerationSoftware,KiCad,Pcbnew,9.0.7*
G04 #@! TF.CreationDate,2026-02-15T13:27:23+05:00*
G04 #@! TF.ProjectId,ModuPad_v2,4d6f6475-5061-4645-9f76-322e6b696361,rev?*
G04 #@! TF.SameCoordinates,Original*
G04 #@! TF.FileFunction,Copper,L1,Top*
G04 #@! TF.FilePolarity,Positive*
%FSLAX46Y46*%
G04 Gerber Fmt 4.6, Leading zero omitted, Abs format (unit mm)*
G04 Created by KiCad (PCBNEW 9.0.7) date 2026-02-15 13:27:23*
%MOMM*%
%LPD*%
G01*
G04 APERTURE LIST*
G04 #@! TA.AperFunction,SMDPad,CuDef*
%ADD10R,1.000000X1.550000*%
G04 #@! TD*
G04 #@! TA.AperFunction,ComponentPad*
%ADD11R,2.000000X2.000000*%
G04 #@! TD*
G04 #@! TA.AperFunction,ComponentPad*
%ADD12C,2.000000*%
G04 #@! TD*
G04 #@! TA.AperFunction,ComponentPad*
%ADD13C,3.200000*%
G04 #@! TD*
G04 #@! TA.AperFunction,ComponentPad*
%ADD14C,1.752600*%
G04 #@! TD*
G04 #@! TA.AperFunction,WasherPad*
%ADD15C,1.000000*%
G04 #@! TD*
G04 #@! TA.AperFunction,ComponentPad*
%ADD16R,1.200000X1.700000*%
G04 #@! TD*
G04 #@! TA.AperFunction,ComponentPad*
%ADD17O,1.200000X1.700000*%
G04 #@! TD*
G04 #@! TA.AperFunction,ComponentPad*
%ADD18C,3.300000*%
G04 #@! TD*
G04 #@! TA.AperFunction,ViaPad*
%ADD19C,0.600000*%
G04 #@! TD*
G04 #@! TA.AperFunction,Conductor*
%ADD20C,0.200000*%
G04 #@! TD*
G04 APERTURE END LIST*
D10*
X56150000Y-67325000D03*
X56150000Y-62075000D03*
X57850000Y-67325000D03*
X57850000Y-62075000D03*
D11*
X119000000Y-71000000D03*
D12*
X124000000Y-71000000D03*
X121500000Y-71000000D03*
D13*
X115900000Y-63500000D03*
X127100000Y-63500000D03*
D12*
X124000000Y-56500000D03*
X119000000Y-56500000D03*
D14*
X54030000Y-72160000D03*
X56570000Y-72160000D03*
X59110000Y-72160000D03*
X61650000Y-72160000D03*
X64190000Y-72160000D03*
X66730000Y-72160000D03*
X69270000Y-72160000D03*
X71810000Y-72160000D03*
X74350000Y-72160000D03*
X76890000Y-72160000D03*
X79430000Y-72160000D03*
X81970000Y-72160000D03*
X81970000Y-56920000D03*
X79430000Y-56920000D03*
X76890000Y-56920000D03*
X74350000Y-56920000D03*
X71810000Y-56920000D03*
X69270000Y-56920000D03*
X66730000Y-56920000D03*
X64190000Y-56920000D03*
X61650000Y-56920000D03*
X59110000Y-56920000D03*
X56570000Y-56920000D03*
X54030000Y-56920000D03*
X76890000Y-69620000D03*
X76890000Y-67080000D03*
X76890000Y-64540000D03*
X84500000Y-69620000D03*
X84500000Y-67080000D03*
X84500000Y-64540000D03*
X84500000Y-62000000D03*
X84500000Y-59460000D03*
D15*
X51800000Y-66200000D03*
X51800000Y-63200000D03*
D11*
X100000000Y-71000000D03*
D12*
X105000000Y-71000000D03*
X102500000Y-71000000D03*
D13*
X96900000Y-63500000D03*
X108100000Y-63500000D03*
D12*
X105000000Y-56500000D03*
X100000000Y-56500000D03*
D16*
X150750000Y-51500000D03*
D17*
X152750000Y-51500000D03*
D11*
X138000000Y-71000000D03*
D12*
X143000000Y-71000000D03*
X140500000Y-71000000D03*
D13*
X134900000Y-63500000D03*
X146100000Y-63500000D03*
D12*
X143000000Y-56500000D03*
X138000000Y-56500000D03*
D18*
X98690000Y-100960000D03*
X105040000Y-98420000D03*
X98690000Y-157960000D03*
X105040000Y-155420000D03*
X136690000Y-81960000D03*
X143040000Y-79420000D03*
X136690000Y-138960000D03*
X143040000Y-136420000D03*
X79690000Y-100960000D03*
X86040000Y-98420000D03*
X136690000Y-157960000D03*
X143040000Y-155420000D03*
X117690000Y-100960000D03*
X124040000Y-98420000D03*
X79690000Y-119960000D03*
X86040000Y-117420000D03*
X136690000Y-119960000D03*
X143040000Y-117420000D03*
X79690000Y-138960000D03*
X86040000Y-136420000D03*
X117690000Y-81960000D03*
X124040000Y-79420000D03*
X60690000Y-81960000D03*
X67040000Y-79420000D03*
X79690000Y-157960000D03*
X86040000Y-155420000D03*
X60690000Y-157960000D03*
X67040000Y-155420000D03*
X117690000Y-119960000D03*
X124040000Y-117420000D03*
X60690000Y-138960000D03*
X67040000Y-136420000D03*
X98690000Y-81960000D03*
X105040000Y-79420000D03*
X117690000Y-157960000D03*
X124040000Y-155420000D03*
X136690000Y-100960000D03*
X143040000Y-98420000D03*
X98690000Y-138960000D03*
X105040000Y-136420000D03*
X98690000Y-119960000D03*
X105040000Y-117420000D03*
X60690000Y-100960000D03*
X67040000Y-98420000D03*
X79690000Y-81960000D03*
X86040000Y-79420000D03*
X60690000Y-119960000D03*
X67040000Y-117420000D03*
X117690000Y-138960000D03*
X124040000Y-136420000D03*
D19*
X81000000Y-149500000D03*
X67424265Y-63424265D03*
X54400000Y-61000000D03*
X95740000Y-90500000D03*
X128406000Y-166000000D03*
X76740000Y-90500000D03*
X149000000Y-51500000D03*
X112400000Y-68500000D03*
X58000000Y-166000000D03*
X50900000Y-110000000D03*
X71406000Y-90500000D03*
X90925735Y-62000000D03*
X57000000Y-68500000D03*
X108206000Y-90500000D03*
X50900000Y-128500000D03*
X113540000Y-90500000D03*
X95674265Y-65825735D03*
X57740000Y-147500000D03*
X81500000Y-168500000D03*
X61050000Y-59000000D03*
X50900000Y-147500000D03*
X113600000Y-68500000D03*
X137500000Y-111000000D03*
X61500000Y-149500000D03*
X119000000Y-149500000D03*
X80500000Y-111500000D03*
X57740000Y-128500000D03*
X119000000Y-168000000D03*
X94500000Y-90500000D03*
X99500000Y-111500000D03*
X90406000Y-90500000D03*
X137500000Y-149500000D03*
X132540000Y-90000000D03*
X59000000Y-73900000D03*
X99500000Y-130500000D03*
X67500000Y-168500000D03*
X118500000Y-111500000D03*
X133740000Y-90000000D03*
X127206000Y-90000000D03*
X71406000Y-166500000D03*
X109500000Y-90500000D03*
X100000000Y-149500000D03*
X62000000Y-130500000D03*
X50900000Y-90500000D03*
X62000000Y-111500000D03*
X57740000Y-109500000D03*
X62250000Y-59000000D03*
X70206000Y-90500000D03*
X132600000Y-68500000D03*
X131400000Y-68500000D03*
X116000000Y-166000000D03*
X128406000Y-90000000D03*
X119000000Y-130500000D03*
X114740000Y-90500000D03*
X50900000Y-166000000D03*
X75540000Y-90500000D03*
X80500000Y-130500000D03*
X137500000Y-130500000D03*
X100000000Y-168500000D03*
X58500000Y-59000000D03*
X89000000Y-90500000D03*
X57740000Y-90500000D03*
X97500000Y-166000000D03*
X69155345Y-62600000D03*
X127206000Y-109000000D03*
X68825735Y-90825735D03*
X105000000Y-92000000D03*
X127174265Y-167174265D03*
X107000000Y-147500000D03*
X76740000Y-147500000D03*
X146206000Y-108500000D03*
X114740000Y-148000000D03*
X133740000Y-129500000D03*
X70206000Y-109000000D03*
X146206000Y-87848527D03*
X143000000Y-168000000D03*
X133740000Y-148500000D03*
X86000000Y-110900000D03*
X143000000Y-91500000D03*
X61500000Y-51500000D03*
X146206000Y-146500000D03*
X69500000Y-147000000D03*
X136500000Y-110900000D03*
X86500000Y-169100000D03*
X126075735Y-90575735D03*
X95740000Y-129000000D03*
X85500000Y-92000000D03*
X82737246Y-167820862D03*
X108206000Y-109500000D03*
X88500000Y-147000000D03*
X76740000Y-128500000D03*
X95740000Y-147000000D03*
X87825735Y-90825735D03*
X149500000Y-167000000D03*
X126500000Y-147000000D03*
X124000000Y-110900000D03*
X150500000Y-167000000D03*
X88000000Y-128500000D03*
X146206000Y-127500000D03*
X68500000Y-166500000D03*
X124325735Y-92325735D03*
X107500000Y-128000000D03*
X107075735Y-90575735D03*
X126500000Y-128000000D03*
X108124265Y-167224265D03*
X109500000Y-167000000D03*
X69000000Y-128000000D03*
X89206000Y-109000000D03*
X105000000Y-110900000D03*
X115000000Y-128500000D03*
X105000000Y-168400000D03*
X59710000Y-69500000D03*
X67330000Y-68500000D03*
X56500000Y-69500000D03*
X64000000Y-65000000D03*
X67330000Y-64500000D03*
X57740000Y-94000000D03*
X94000000Y-53500000D03*
X114740000Y-94000000D03*
X132540000Y-94000000D03*
X113540000Y-94000000D03*
X94540000Y-94000000D03*
X94000000Y-71000000D03*
X69270000Y-73730000D03*
X75540000Y-94000000D03*
X54500000Y-94000000D03*
X76740000Y-94000000D03*
X133740000Y-94000000D03*
X95740000Y-94000000D03*
X54500000Y-74500000D03*
X113000000Y-71000000D03*
X133740000Y-113000000D03*
X114740000Y-113000000D03*
X113000000Y-53500000D03*
X95740000Y-113000000D03*
X94540000Y-113000000D03*
X57740000Y-113000000D03*
X53900000Y-75065687D03*
X132540000Y-113000000D03*
X76740000Y-113000000D03*
X75540000Y-113000000D03*
X71125000Y-74375000D03*
X54000000Y-113000000D03*
X113540000Y-113000000D03*
X132500000Y-132000000D03*
X94500000Y-132000000D03*
X76740000Y-132000000D03*
X73250000Y-74750000D03*
X57740000Y-132000000D03*
X133740000Y-132000000D03*
X132000000Y-70500000D03*
X132000000Y-53500000D03*
X114740000Y-132000000D03*
X95740000Y-132000000D03*
X113540000Y-132000000D03*
X75500000Y-132000000D03*
X53500000Y-132000000D03*
X53300000Y-75654142D03*
X52500000Y-151000000D03*
X113540000Y-151000000D03*
X75540000Y-151000000D03*
X132540000Y-151000000D03*
X57740000Y-151000000D03*
X52700000Y-76500000D03*
X76740000Y-151000000D03*
X94500000Y-151000000D03*
X133740000Y-151000000D03*
X114740000Y-151000000D03*
X95740000Y-151000000D03*
X52000000Y-77000000D03*
X52000000Y-170000000D03*
X57500000Y-170000000D03*
X94600000Y-65500000D03*
X93199997Y-53500000D03*
X86500000Y-66000000D03*
X89000000Y-68857300D03*
X89000000Y-54100000D03*
X90325735Y-71674265D03*
X89600000Y-55000000D03*
X63658287Y-63006814D03*
X64299265Y-61950735D03*
X127000000Y-88500000D03*
X129000000Y-88500000D03*
X132540000Y-88500000D03*
X133740000Y-88500000D03*
X139500000Y-94600000D03*
X145000000Y-127000000D03*
X147406000Y-86500000D03*
X140000000Y-151600000D03*
X145500000Y-145500000D03*
X146206000Y-87000000D03*
X145000000Y-108000000D03*
X139500000Y-132600000D03*
X139000000Y-113600000D03*
X133740000Y-107500000D03*
X127206000Y-107500000D03*
X127206000Y-126500000D03*
X136500000Y-126500000D03*
X133740000Y-145500000D03*
X127206000Y-145500000D03*
X127206000Y-164500000D03*
X135000000Y-164500000D03*
X108206000Y-88750001D03*
X114740000Y-88500000D03*
X108206000Y-107500000D03*
X114740000Y-107500000D03*
X117500000Y-126500000D03*
X108206000Y-126500000D03*
X114740000Y-145500000D03*
X108206000Y-145500000D03*
X108206000Y-165000000D03*
X116000000Y-164500000D03*
X89206000Y-88500000D03*
X95740000Y-88500000D03*
X95740000Y-107500000D03*
X89206000Y-107500000D03*
X98000000Y-126500000D03*
X89206000Y-126500000D03*
X95740000Y-145500000D03*
X89206000Y-145500000D03*
X89206000Y-164500000D03*
X97500000Y-164500000D03*
X75540000Y-89000000D03*
X70206000Y-89000000D03*
X76740000Y-89000000D03*
X71406000Y-89000000D03*
X70206000Y-107500000D03*
X76740000Y-107500000D03*
X70000000Y-126500000D03*
X79000000Y-126500000D03*
X76740000Y-145500000D03*
X70206000Y-145500000D03*
X70206000Y-164500000D03*
X78500000Y-164500000D03*
X93207815Y-70792185D03*
X94500000Y-71701000D03*
X112448528Y-72400000D03*
X110500000Y-72400000D03*
X122448527Y-73400000D03*
X61000000Y-70100000D03*
X129948528Y-73400000D03*
X128500000Y-76500000D03*
X127206000Y-82000000D03*
X127500000Y-75533000D03*
X129340396Y-77188925D03*
X92771494Y-75132000D03*
X54000000Y-58500000D03*
D20*
X57240000Y-110000000D02*
X50900000Y-110000000D01*
X152500000Y-53000000D02*
X152750000Y-52750000D01*
X59000000Y-72270000D02*
X59110000Y-72160000D01*
X152750000Y-52750000D02*
X152750000Y-51500000D01*
X54400000Y-61000000D02*
X55075000Y-61000000D01*
X120000000Y-169000000D02*
X119000000Y-168000000D01*
X122000000Y-68500000D02*
X121500000Y-69000000D01*
X97500000Y-166000000D02*
X97000000Y-166500000D01*
X56500000Y-66975000D02*
X56500000Y-62425000D01*
X128406000Y-166000000D02*
X127500000Y-166000000D01*
X80500000Y-130500000D02*
X62000000Y-130500000D01*
X137000000Y-111500000D02*
X137500000Y-111000000D01*
X124500000Y-169000000D02*
X120000000Y-169000000D01*
X103500000Y-68500000D02*
X102500000Y-69500000D01*
X69406000Y-168500000D02*
X67500000Y-168500000D01*
X56150000Y-67650000D02*
X57000000Y-68500000D01*
X118500000Y-111500000D02*
X137000000Y-111500000D01*
X109500000Y-90500000D02*
X108206000Y-90500000D01*
X133740000Y-90000000D02*
X132540000Y-90000000D01*
X108000000Y-166500000D02*
X105500000Y-169000000D01*
X149000000Y-51500000D02*
X149000000Y-51802000D01*
X87500000Y-168500000D02*
X81500000Y-168500000D01*
X57740000Y-128500000D02*
X50900000Y-128500000D01*
X119000000Y-149500000D02*
X137500000Y-149500000D01*
X99500000Y-111500000D02*
X118500000Y-111500000D01*
X100500000Y-169000000D02*
X100000000Y-168500000D01*
X121500000Y-69000000D02*
X121000000Y-68500000D01*
X95740000Y-90500000D02*
X94500000Y-90500000D01*
X105500000Y-169000000D02*
X100500000Y-169000000D01*
X140000000Y-68500000D02*
X132600000Y-68500000D01*
X71406000Y-166500000D02*
X69406000Y-168500000D01*
X56150000Y-67325000D02*
X56150000Y-67650000D01*
X101500000Y-68500000D02*
X100000000Y-68500000D01*
X131400000Y-68500000D02*
X122000000Y-68500000D01*
X100000000Y-149500000D02*
X119000000Y-149500000D01*
X80500000Y-111500000D02*
X99500000Y-111500000D01*
X84500000Y-62000000D02*
X68848530Y-62000000D01*
X56150000Y-61350000D02*
X58500000Y-59000000D01*
X150198000Y-53000000D02*
X152500000Y-53000000D01*
X121000000Y-68500000D02*
X113600000Y-68500000D01*
X62250000Y-59000000D02*
X61050000Y-59000000D01*
X102000000Y-69000000D02*
X101500000Y-68500000D01*
X99500000Y-130500000D02*
X80500000Y-130500000D01*
X100000000Y-68500000D02*
X98348530Y-68500000D01*
X137500000Y-130500000D02*
X119000000Y-130500000D01*
X149000000Y-51802000D02*
X150198000Y-53000000D01*
X57740000Y-147500000D02*
X50900000Y-147500000D01*
X121500000Y-69000000D02*
X121500000Y-71000000D01*
X56150000Y-67325000D02*
X56500000Y-66975000D01*
X140500000Y-71000000D02*
X140500000Y-69000000D01*
X56500000Y-62425000D02*
X56150000Y-62075000D01*
X81000000Y-149500000D02*
X100000000Y-149500000D01*
X102500000Y-69500000D02*
X102000000Y-69000000D01*
X71406000Y-90500000D02*
X70206000Y-90500000D01*
X114740000Y-90500000D02*
X113540000Y-90500000D01*
X58000000Y-166000000D02*
X50900000Y-166000000D01*
X112400000Y-68500000D02*
X103500000Y-68500000D01*
X56150000Y-62075000D02*
X56150000Y-61350000D01*
X55075000Y-61000000D02*
X56150000Y-62075000D01*
X89500000Y-166500000D02*
X87500000Y-168500000D01*
X127500000Y-166000000D02*
X124500000Y-169000000D01*
X61500000Y-149500000D02*
X81000000Y-149500000D01*
X57740000Y-109500000D02*
X57240000Y-110000000D01*
X57740000Y-90500000D02*
X50900000Y-90500000D01*
X98348530Y-68500000D02*
X95674265Y-65825735D01*
X97000000Y-166500000D02*
X89500000Y-166500000D01*
X90925735Y-62000000D02*
X84500000Y-62000000D01*
X90406000Y-90500000D02*
X89000000Y-90500000D01*
X68848530Y-62000000D02*
X67424265Y-63424265D01*
X119000000Y-130500000D02*
X99500000Y-130500000D01*
X108500000Y-166000000D02*
X108000000Y-166500000D01*
X76740000Y-90500000D02*
X75540000Y-90500000D01*
X62000000Y-111500000D02*
X80500000Y-111500000D01*
X140500000Y-69000000D02*
X140000000Y-68500000D01*
X59000000Y-73900000D02*
X59000000Y-72270000D01*
X102500000Y-69500000D02*
X102500000Y-71000000D01*
X116000000Y-166000000D02*
X108500000Y-166000000D01*
X128406000Y-90000000D02*
X127206000Y-90000000D01*
X151260000Y-135704374D02*
X150500000Y-135704374D01*
X150500000Y-113660415D02*
X151260000Y-113660415D01*
X151500000Y-157386279D02*
X151500000Y-157266279D01*
X151500000Y-121820415D02*
X151500000Y-121700415D01*
X150500000Y-92158900D02*
X149740000Y-92158900D01*
X149500000Y-87118900D02*
X149500000Y-86998900D01*
X149740000Y-130304374D02*
X150500000Y-130304374D01*
X149500000Y-96718900D02*
X149500000Y-96598900D01*
X151260000Y-104158900D02*
X150500000Y-104158900D01*
X150500000Y-95758900D02*
X149740000Y-95758900D01*
X150500000Y-119660415D02*
X151260000Y-119660415D01*
X150500000Y-124460415D02*
X151260000Y-124460415D01*
X151500000Y-137264374D02*
X151500000Y-137144374D01*
X149500000Y-140264374D02*
X149500000Y-140144374D01*
X150500000Y-125660415D02*
X151260000Y-125660415D01*
X151260000Y-101758900D02*
X150500000Y-101758900D01*
X149500000Y-155586279D02*
X149500000Y-155466279D01*
X151500000Y-132464374D02*
X151500000Y-132344374D01*
X148500000Y-168000000D02*
X149500000Y-167000000D01*
X151500000Y-100918900D02*
X151500000Y-100798900D01*
X149500000Y-102718900D02*
X149500000Y-102598900D01*
X151260000Y-141704374D02*
X150500000Y-141704374D01*
X150500000Y-127583763D02*
X150500000Y-127500000D01*
X150500000Y-70268400D02*
X150500000Y-54500000D01*
X150500000Y-112460415D02*
X151260000Y-112460415D01*
X149500000Y-161586279D02*
X149500000Y-161466279D01*
X149740000Y-105958900D02*
X150500000Y-105958900D01*
X132240000Y-147000000D02*
X126500000Y-147000000D01*
X71706000Y-110500000D02*
X80000000Y-110500000D01*
X150500000Y-126260415D02*
X149740000Y-126260415D01*
X151500000Y-150186279D02*
X151500000Y-150066279D01*
X149500000Y-118820415D02*
X149500000Y-118700415D01*
X150500000Y-137504374D02*
X151260000Y-137504374D01*
X150500000Y-90958900D02*
X149740000Y-90958900D01*
X150500000Y-93358900D02*
X149740000Y-93358900D01*
X150500000Y-109220415D02*
X150500000Y-109100415D01*
X151500000Y-93718900D02*
X151500000Y-93598900D01*
X151260000Y-126260415D02*
X150740000Y-126260415D01*
X149740000Y-111260415D02*
X150500000Y-111260415D01*
X150500000Y-99358900D02*
X149740000Y-99358900D01*
X149500000Y-141464374D02*
X149500000Y-141344374D01*
X151500000Y-88918900D02*
X151500000Y-88798900D01*
X149500000Y-143864374D02*
X149500000Y-143744374D01*
X149740000Y-136304374D02*
X150500000Y-136304374D01*
X150500000Y-132104374D02*
X149740000Y-132104374D01*
X151260000Y-159426279D02*
X150500000Y-159426279D01*
X150500000Y-129104374D02*
X150740000Y-129104374D01*
X150500000Y-117860415D02*
X149740000Y-117860415D01*
X150500000Y-102958900D02*
X149740000Y-102958900D01*
X151500000Y-153786279D02*
X151500000Y-153666279D01*
X148750000Y-73250000D02*
X148750000Y-72018400D01*
X150500000Y-151026279D02*
X149740000Y-151026279D01*
X150500000Y-160026279D02*
X151260000Y-160026279D01*
X151500000Y-99718900D02*
X151500000Y-99598900D01*
X62399000Y-50601000D02*
X61500000Y-51500000D01*
X149740000Y-137504374D02*
X150500000Y-137504374D01*
X151260000Y-87358900D02*
X150500000Y-87358900D01*
X150500000Y-115460415D02*
X149740000Y-115460415D01*
X149500000Y-99118900D02*
X149500000Y-98998900D01*
X133740000Y-148500000D02*
X132240000Y-147000000D01*
X151500000Y-160986279D02*
X151500000Y-160866279D01*
X150500000Y-85471892D02*
X150500000Y-84500000D01*
X149740000Y-117260415D02*
X150500000Y-117260415D01*
X149500000Y-123620415D02*
X149500000Y-123500415D01*
X146206000Y-108500000D02*
X146706000Y-108000000D01*
X151260000Y-94558900D02*
X150500000Y-94558900D01*
X149500000Y-100318900D02*
X149500000Y-100198900D01*
X148750000Y-72018400D02*
X150500000Y-70268400D01*
X149500000Y-159186279D02*
X149500000Y-159066279D01*
X149740000Y-156426279D02*
X150500000Y-156426279D01*
X150500000Y-163626279D02*
X151260000Y-163626279D01*
X151500000Y-111020415D02*
X151500000Y-110900415D01*
X150500000Y-106558900D02*
X149740000Y-106558900D01*
X150500000Y-87958900D02*
X151260000Y-87958900D01*
X149740000Y-123260415D02*
X150500000Y-123260415D01*
X150500000Y-160626279D02*
X149740000Y-160626279D01*
X149740000Y-87958900D02*
X150500000Y-87958900D01*
X150500000Y-146732229D02*
X150500000Y-146500000D01*
X150740000Y-126860415D02*
X151260000Y-126860415D01*
X149500000Y-88318900D02*
X149500000Y-88198900D01*
X151500000Y-113420415D02*
X151500000Y-113300415D01*
X149740000Y-162426279D02*
X150500000Y-162426279D01*
X149740000Y-148026279D02*
X150500000Y-148026279D01*
X149740000Y-164826279D02*
X150500000Y-164826279D01*
X150500000Y-89158900D02*
X151260000Y-89158900D01*
X151260000Y-96958900D02*
X150500000Y-96958900D01*
X146206000Y-127500000D02*
X150500000Y-127500000D01*
X151260000Y-102958900D02*
X150500000Y-102958900D01*
X116500000Y-110500000D02*
X119500000Y-110500000D01*
X151500000Y-115820415D02*
X151500000Y-115700415D01*
X150500000Y-148026279D02*
X150740000Y-148026279D01*
X132240000Y-128000000D02*
X126500000Y-128000000D01*
X151500000Y-123020415D02*
X151500000Y-122900415D01*
X151500000Y-112220415D02*
X151500000Y-112100415D01*
X149500000Y-129464374D02*
X149500000Y-129344374D01*
X151260000Y-90958900D02*
X150500000Y-90958900D01*
X151500000Y-104518900D02*
X151500000Y-104398900D01*
X128000000Y-168000000D02*
X127174265Y-167174265D01*
X150500000Y-95158900D02*
X151260000Y-95158900D01*
X149740000Y-96358900D02*
X150500000Y-96358900D01*
X151500000Y-105718900D02*
X151500000Y-105598900D01*
X149500000Y-139064374D02*
X149500000Y-138944374D01*
X150500000Y-122660415D02*
X149740000Y-122660415D01*
X127500000Y-92000000D02*
X142500000Y-92000000D01*
X149500000Y-120020415D02*
X149500000Y-119900415D01*
X150500000Y-151626279D02*
X151260000Y-151626279D01*
X151500000Y-145664374D02*
X151500000Y-145544374D01*
X151500000Y-103318900D02*
X151500000Y-103198900D01*
X87825735Y-90825735D02*
X88500000Y-91500000D01*
X151500000Y-118220415D02*
X151500000Y-118100415D01*
X151500000Y-143264374D02*
X151500000Y-143144374D01*
X149500000Y-154386279D02*
X149500000Y-154266279D01*
X76740000Y-147500000D02*
X70000000Y-147500000D01*
X150500000Y-155826279D02*
X149740000Y-155826279D01*
X150500000Y-145304374D02*
X149740000Y-145304374D01*
X151500000Y-154986279D02*
X151500000Y-154866279D01*
X151500000Y-148986279D02*
X151500000Y-148866279D01*
X150500000Y-104758900D02*
X151260000Y-104758900D01*
X151260000Y-144104374D02*
X150500000Y-144104374D01*
X150500000Y-128144374D02*
X150500000Y-127583763D01*
X114500000Y-128000000D02*
X107500000Y-128000000D01*
X150500000Y-133304374D02*
X149740000Y-133304374D01*
X150500000Y-114860415D02*
X151260000Y-114860415D01*
X150500000Y-134504374D02*
X149740000Y-134504374D01*
X151500000Y-124220415D02*
X151500000Y-124100415D01*
X149740000Y-154026279D02*
X150500000Y-154026279D01*
X151260000Y-113060415D02*
X150500000Y-113060415D01*
X150500000Y-162426279D02*
X151260000Y-162426279D01*
X80500000Y-110500000D02*
X81000000Y-111000000D01*
X151500000Y-109820415D02*
X151500000Y-109700415D01*
X150500000Y-97558900D02*
X151260000Y-97558900D01*
X150500000Y-146500000D02*
X150500000Y-146144374D01*
X150500000Y-84500000D02*
X150500000Y-75000000D01*
X89206000Y-109000000D02*
X91105000Y-110899000D01*
X150500000Y-98758900D02*
X151260000Y-98758900D01*
X149740000Y-160026279D02*
X150500000Y-160026279D01*
X149500000Y-103918900D02*
X149500000Y-103798900D01*
X120500000Y-111000000D02*
X123900000Y-111000000D01*
X114740000Y-148000000D02*
X107500000Y-148000000D01*
X150500000Y-154026279D02*
X151260000Y-154026279D01*
X149500000Y-137864374D02*
X149500000Y-137744374D01*
X149500000Y-157986279D02*
X149500000Y-157866279D01*
X150500000Y-143504374D02*
X151260000Y-143504374D01*
X150500000Y-131504374D02*
X151260000Y-131504374D01*
X151500000Y-114620415D02*
X151500000Y-114500415D01*
X151260000Y-86158900D02*
X150740000Y-86158900D01*
X151260000Y-160626279D02*
X150500000Y-160626279D01*
X100500000Y-92000000D02*
X105000000Y-92000000D01*
X149500000Y-165186279D02*
X149500000Y-165066279D01*
X149740000Y-133904374D02*
X150500000Y-133904374D01*
X149500000Y-136664374D02*
X149500000Y-136544374D01*
X82737246Y-167820862D02*
X76820862Y-167820862D01*
X149740000Y-141104374D02*
X150500000Y-141104374D01*
X151500000Y-97318900D02*
X151500000Y-97198900D01*
X150740000Y-148026279D02*
X151260000Y-148026279D01*
X149740000Y-149226279D02*
X150500000Y-149226279D01*
X95740000Y-129000000D02*
X88500000Y-129000000D01*
X151260000Y-145304374D02*
X150740000Y-145304374D01*
X151260000Y-155826279D02*
X150500000Y-155826279D01*
X69500000Y-128500000D02*
X69000000Y-128000000D01*
X88500000Y-91500000D02*
X100000000Y-91500000D01*
X149500000Y-156786279D02*
X149500000Y-156666279D01*
X143000000Y-168000000D02*
X148500000Y-168000000D01*
X150500000Y-93958900D02*
X151260000Y-93958900D01*
X104499000Y-167899000D02*
X88668100Y-167899000D01*
X150500000Y-133904374D02*
X151260000Y-133904374D01*
X150500000Y-165426279D02*
X149740000Y-165426279D01*
X150500000Y-111260415D02*
X151260000Y-111260415D01*
X149740000Y-152826279D02*
X150500000Y-152826279D01*
X105000000Y-168400000D02*
X104499000Y-167899000D01*
X151260000Y-95758900D02*
X150500000Y-95758900D01*
X82560000Y-62600000D02*
X69155345Y-62600000D01*
X70206000Y-109000000D02*
X71706000Y-110500000D01*
X149500000Y-163986279D02*
X149500000Y-163866279D01*
X150500000Y-154626279D02*
X149740000Y-154626279D01*
X150500000Y-105358900D02*
X149740000Y-105358900D01*
X70000000Y-147500000D02*
X69500000Y-147000000D01*
X151260000Y-147426279D02*
X150740000Y-147426279D01*
X151260000Y-140504374D02*
X150500000Y-140504374D01*
X149500000Y-116420415D02*
X149500000Y-116300415D01*
X151500000Y-165786279D02*
X151500000Y-165666279D01*
X150500000Y-111860415D02*
X149740000Y-111860415D01*
X150260000Y-166626279D02*
X149740000Y-166626279D01*
X149740000Y-144704374D02*
X150500000Y-144704374D01*
X149500000Y-126020415D02*
X149500000Y-125900415D01*
X150500000Y-164226279D02*
X149740000Y-164226279D01*
X151260000Y-99358900D02*
X150500000Y-99358900D01*
X151260000Y-148626279D02*
X150500000Y-148626279D01*
X151260000Y-132104374D02*
X150500000Y-132104374D01*
X151500000Y-90118900D02*
X151500000Y-89998900D01*
X88668100Y-167899000D02*
X87467100Y-169100000D01*
X150500000Y-125060415D02*
X149740000Y-125060415D01*
X149740000Y-98758900D02*
X150500000Y-98758900D01*
X151500000Y-152586279D02*
X151500000Y-152466279D01*
X150500000Y-155226279D02*
X151260000Y-155226279D01*
X149500000Y-131864374D02*
X149500000Y-131744374D01*
X149740000Y-142304374D02*
X150500000Y-142304374D01*
X149740000Y-161226279D02*
X150500000Y-161226279D01*
X151500000Y-144464374D02*
X151500000Y-144344374D01*
X149500000Y-89518900D02*
X149500000Y-89398900D01*
X149500000Y-134264374D02*
X149500000Y-134144374D01*
X149500000Y-148386279D02*
X149500000Y-148266279D01*
X150500000Y-116660415D02*
X149740000Y-116660415D01*
X149740000Y-116060415D02*
X150500000Y-116060415D01*
X151500000Y-140864374D02*
X151500000Y-140744374D01*
X151260000Y-128504374D02*
X150740000Y-128504374D01*
X151260000Y-114260415D02*
X150500000Y-114260415D01*
X151500000Y-106918900D02*
X151500000Y-106798900D01*
X151260000Y-152226279D02*
X150500000Y-152226279D01*
X151500000Y-92518900D02*
X151500000Y-92398900D01*
X149500000Y-117620415D02*
X149500000Y-117500415D01*
X151500000Y-134864374D02*
X151500000Y-134744374D01*
X151260000Y-158226279D02*
X150500000Y-158226279D01*
X151260000Y-163026279D02*
X150500000Y-163026279D01*
X149740000Y-86758900D02*
X150500000Y-86758900D01*
X81000000Y-111000000D02*
X85900000Y-111000000D01*
X150500000Y-75000000D02*
X148750000Y-73250000D01*
X150500000Y-139904374D02*
X151260000Y-139904374D01*
X150500000Y-99958900D02*
X151260000Y-99958900D01*
X151260000Y-161826279D02*
X150500000Y-161826279D01*
X150500000Y-90358900D02*
X151260000Y-90358900D01*
X150500000Y-159426279D02*
X149740000Y-159426279D01*
X151500000Y-159786279D02*
X151500000Y-159666279D01*
X149500000Y-145064374D02*
X149500000Y-144944374D01*
X151500000Y-96118900D02*
X151500000Y-95998900D01*
X149500000Y-105118900D02*
X149500000Y-104998900D01*
X149740000Y-101158900D02*
X150500000Y-101158900D01*
X149500000Y-150786279D02*
X149500000Y-150666279D01*
X150500000Y-152826279D02*
X151260000Y-152826279D01*
X149740000Y-166026279D02*
X150260000Y-166026279D01*
X85900000Y-111000000D02*
X86000000Y-110900000D01*
X80000000Y-110500000D02*
X80500000Y-110500000D01*
X109500000Y-167000000D02*
X108348530Y-167000000D01*
X151260000Y-154626279D02*
X150500000Y-154626279D01*
X149740000Y-157626279D02*
X150500000Y-157626279D01*
X127206000Y-109000000D02*
X134600000Y-109000000D01*
X124151470Y-92500000D02*
X124325735Y-92325735D01*
X146206000Y-87848527D02*
X147151473Y-87848527D01*
X150500000Y-54500000D02*
X146601000Y-50601000D01*
X150500000Y-139304374D02*
X149740000Y-139304374D01*
X150500000Y-158226279D02*
X149740000Y-158226279D01*
X150500000Y-140504374D02*
X149740000Y-140504374D01*
X149740000Y-132704374D02*
X150500000Y-132704374D01*
X150500000Y-86758900D02*
X150740000Y-86758900D01*
X149740000Y-110060415D02*
X150500000Y-110060415D01*
X151260000Y-111860415D02*
X150500000Y-111860415D01*
X151500000Y-98518900D02*
X151500000Y-98398900D01*
X150500000Y-138104374D02*
X149740000Y-138104374D01*
X150500000Y-136304374D02*
X151260000Y-136304374D01*
X149740000Y-143504374D02*
X150500000Y-143504374D01*
X150500000Y-91558900D02*
X151260000Y-91558900D01*
X151260000Y-130904374D02*
X150500000Y-130904374D01*
X149500000Y-90718900D02*
X149500000Y-90598900D01*
X150500000Y-121460415D02*
X149740000Y-121460415D01*
X120000000Y-92500000D02*
X124151470Y-92500000D01*
X151260000Y-100558900D02*
X150500000Y-100558900D01*
X150500000Y-109100415D02*
X150500000Y-108419675D01*
X149500000Y-130664374D02*
X149500000Y-130544374D01*
X149500000Y-101518900D02*
X149500000Y-101398900D01*
X149500000Y-94318900D02*
X149500000Y-94198900D01*
X109000000Y-92500000D02*
X120000000Y-92500000D01*
X108348530Y-167000000D02*
X108124265Y-167224265D01*
X150500000Y-98158900D02*
X149740000Y-98158900D01*
X150500000Y-105958900D02*
X151260000Y-105958900D01*
X151260000Y-89758900D02*
X150500000Y-89758900D01*
X149500000Y-122420415D02*
X149500000Y-122300415D01*
X150500000Y-108000000D02*
X150500000Y-107398900D01*
X151500000Y-147786279D02*
X151500000Y-147666279D01*
X149500000Y-115220415D02*
X149500000Y-115100415D01*
X149740000Y-129104374D02*
X150500000Y-129104374D01*
X150500000Y-110660415D02*
X149740000Y-110660415D01*
X150500000Y-113060415D02*
X149740000Y-113060415D01*
X151260000Y-129704374D02*
X150500000Y-129704374D01*
X150500000Y-144704374D02*
X151260000Y-144704374D01*
X151500000Y-126620415D02*
X151500000Y-126500415D01*
X150500000Y-88558900D02*
X149740000Y-88558900D01*
X150500000Y-120260415D02*
X149740000Y-120260415D01*
X151500000Y-156186279D02*
X151500000Y-156066279D01*
X151260000Y-165426279D02*
X150500000Y-165426279D01*
X150500000Y-118460415D02*
X151260000Y-118460415D01*
X150500000Y-96958900D02*
X149740000Y-96958900D01*
X150740000Y-126260415D02*
X150500000Y-126260415D01*
X68825735Y-90825735D02*
X70000000Y-92000000D01*
X150500000Y-136904374D02*
X149740000Y-136904374D01*
X151500000Y-125420415D02*
X151500000Y-125300415D01*
X99500000Y-110899000D02*
X104999000Y-110899000D01*
X149500000Y-153186279D02*
X149500000Y-153066279D01*
X150500000Y-94558900D02*
X149740000Y-94558900D01*
X150500000Y-141104374D02*
X151260000Y-141104374D01*
X150500000Y-148626279D02*
X149740000Y-148626279D01*
X151260000Y-92158900D02*
X150500000Y-92158900D01*
X151500000Y-164586279D02*
X151500000Y-164466279D01*
X150500000Y-150426279D02*
X151260000Y-150426279D01*
X149500000Y-112820415D02*
X149500000Y-112700415D01*
X107500000Y-148000000D02*
X107000000Y-147500000D01*
X151500000Y-94918900D02*
X151500000Y-94798900D01*
X108206000Y-109500000D02*
X109206000Y-110500000D01*
X150260000Y-166026279D02*
X150500000Y-166026279D01*
X151260000Y-117860415D02*
X150500000Y-117860415D01*
X149740000Y-91558900D02*
X150500000Y-91558900D01*
X151260000Y-93358900D02*
X150500000Y-93358900D01*
X150740000Y-110060415D02*
X151260000Y-110060415D01*
X87467100Y-169100000D02*
X86500000Y-169100000D01*
X150500000Y-114260415D02*
X149740000Y-114260415D01*
X151500000Y-120620415D02*
X151500000Y-120500415D01*
X151500000Y-119420415D02*
X151500000Y-119300415D01*
X151500000Y-158586279D02*
X151500000Y-158466279D01*
X115000000Y-128500000D02*
X114500000Y-128000000D01*
X150500000Y-127500000D02*
X150500000Y-127100415D01*
X150500000Y-142904374D02*
X149740000Y-142904374D01*
X149740000Y-131504374D02*
X150500000Y-131504374D01*
X149500000Y-151986279D02*
X149500000Y-151866279D01*
X149740000Y-104758900D02*
X150500000Y-104758900D01*
X151500000Y-128864374D02*
X151500000Y-128744374D01*
X150500000Y-158826279D02*
X151260000Y-158826279D01*
X149500000Y-142664374D02*
X149500000Y-142544374D01*
X149740000Y-118460415D02*
X150500000Y-118460415D01*
X150500000Y-167000000D02*
X150500000Y-166866279D01*
X150500000Y-108419675D02*
X150500000Y-108000000D01*
X151260000Y-106558900D02*
X150740000Y-106558900D01*
X149500000Y-106318900D02*
X149500000Y-106198900D01*
X151260000Y-119060415D02*
X150500000Y-119060415D01*
X151500000Y-151386279D02*
X151500000Y-151266279D01*
X149740000Y-122060415D02*
X150500000Y-122060415D01*
X149500000Y-160386279D02*
X149500000Y-160266279D01*
X151260000Y-151026279D02*
X150500000Y-151026279D01*
X147151473Y-87848527D02*
X150500000Y-84500000D01*
X150500000Y-130904374D02*
X149740000Y-130904374D01*
X150500000Y-149826279D02*
X149740000Y-149826279D01*
X126075735Y-90575735D02*
X127500000Y-92000000D01*
X149500000Y-114020415D02*
X149500000Y-113900415D01*
X84500000Y-64540000D02*
X82560000Y-62600000D01*
X149740000Y-163626279D02*
X150500000Y-163626279D01*
X150500000Y-116060415D02*
X151260000Y-116060415D01*
X149740000Y-97558900D02*
X150500000Y-97558900D01*
X149740000Y-93958900D02*
X150500000Y-93958900D01*
X149740000Y-112460415D02*
X150500000Y-112460415D01*
X150500000Y-101758900D02*
X149740000Y-101758900D01*
X151260000Y-138104374D02*
X150500000Y-138104374D01*
X150500000Y-100558900D02*
X149740000Y-100558900D01*
X149740000Y-95158900D02*
X150500000Y-95158900D01*
X149500000Y-124820415D02*
X149500000Y-124700415D01*
X150740000Y-145304374D02*
X150500000Y-145304374D01*
X150500000Y-163026279D02*
X149740000Y-163026279D01*
X149740000Y-120860415D02*
X150500000Y-120860415D01*
X151260000Y-164226279D02*
X150500000Y-164226279D01*
X151260000Y-98158900D02*
X150500000Y-98158900D01*
X150500000Y-147186279D02*
X150500000Y-147066279D01*
X151260000Y-88558900D02*
X150500000Y-88558900D01*
X150740000Y-145904374D02*
X151260000Y-145904374D01*
X150500000Y-119060415D02*
X149740000Y-119060415D01*
X149500000Y-135464374D02*
X149500000Y-135344374D01*
X88500000Y-129000000D02*
X88000000Y-128500000D01*
X123900000Y-111000000D02*
X124000000Y-110900000D01*
X149740000Y-113660415D02*
X150500000Y-113660415D01*
X149500000Y-91918900D02*
X149500000Y-91798900D01*
X151260000Y-123860415D02*
X150500000Y-123860415D01*
X150500000Y-166026279D02*
X151260000Y-166026279D01*
X149740000Y-102358900D02*
X150500000Y-102358900D01*
X149500000Y-162786279D02*
X149500000Y-162666279D01*
X151260000Y-122660415D02*
X150500000Y-122660415D01*
X150740000Y-86758900D02*
X151260000Y-86758900D01*
X150500000Y-129704374D02*
X149740000Y-129704374D01*
X120000000Y-111000000D02*
X120500000Y-111000000D01*
X151500000Y-133664374D02*
X151500000Y-133544374D01*
X150500000Y-85918900D02*
X150500000Y-85798900D01*
X133740000Y-129500000D02*
X132240000Y-128000000D01*
X150500000Y-122060415D02*
X151260000Y-122060415D01*
X151260000Y-149826279D02*
X150500000Y-149826279D01*
X150500000Y-128264374D02*
X150500000Y-128144374D01*
X150500000Y-103558900D02*
X151260000Y-103558900D01*
X149500000Y-111620415D02*
X149500000Y-111500415D01*
X151260000Y-109460415D02*
X150740000Y-109460415D01*
X150500000Y-102358900D02*
X151260000Y-102358900D01*
X149740000Y-90358900D02*
X150500000Y-90358900D01*
X150500000Y-149226279D02*
X151260000Y-149226279D01*
X151260000Y-136904374D02*
X150500000Y-136904374D01*
X149740000Y-155226279D02*
X150500000Y-155226279D01*
X151500000Y-142064374D02*
X151500000Y-141944374D01*
X150500000Y-123260415D02*
X151260000Y-123260415D01*
X150500000Y-144104374D02*
X149740000Y-144104374D01*
X107075735Y-90575735D02*
X109000000Y-92500000D01*
X95740000Y-147000000D02*
X88500000Y-147000000D01*
X150740000Y-129104374D02*
X151260000Y-129104374D01*
X149740000Y-119660415D02*
X150500000Y-119660415D01*
X149740000Y-89158900D02*
X150500000Y-89158900D01*
X150500000Y-157026279D02*
X149740000Y-157026279D01*
X149740000Y-150426279D02*
X150500000Y-150426279D01*
X151500000Y-87718900D02*
X151500000Y-87598900D01*
X151260000Y-115460415D02*
X150500000Y-115460415D01*
X151260000Y-157026279D02*
X150500000Y-157026279D01*
X150500000Y-101158900D02*
X151260000Y-101158900D01*
X149500000Y-93118900D02*
X149500000Y-92998900D01*
X149740000Y-138704374D02*
X150500000Y-138704374D01*
X149500000Y-166386279D02*
X149500000Y-166266279D01*
X76740000Y-128500000D02*
X69500000Y-128500000D01*
X150500000Y-141704374D02*
X149740000Y-141704374D01*
X151500000Y-117020415D02*
X151500000Y-116900415D01*
X70000000Y-92000000D02*
X85500000Y-92000000D01*
X149500000Y-110420415D02*
X149500000Y-110300415D01*
X69500000Y-165500000D02*
X68500000Y-166500000D01*
X143000000Y-168000000D02*
X128000000Y-168000000D01*
X150500000Y-152226279D02*
X149740000Y-152226279D01*
X149740000Y-125660415D02*
X150500000Y-125660415D01*
X151500000Y-162186279D02*
X151500000Y-162066279D01*
X151500000Y-86518900D02*
X151500000Y-86398900D01*
X150500000Y-147066279D02*
X150500000Y-146732229D01*
X150500000Y-157626279D02*
X151260000Y-157626279D01*
X76820862Y-167820862D02*
X74500000Y-165500000D01*
X151260000Y-142904374D02*
X150500000Y-142904374D01*
X146206000Y-146500000D02*
X150500000Y-146500000D01*
X149740000Y-124460415D02*
X150500000Y-124460415D01*
X151500000Y-102118900D02*
X151500000Y-101998900D01*
X149740000Y-99958900D02*
X150500000Y-99958900D01*
X142500000Y-92000000D02*
X143000000Y-91500000D01*
X149740000Y-103558900D02*
X150500000Y-103558900D01*
X150500000Y-161826279D02*
X149740000Y-161826279D01*
X151260000Y-120260415D02*
X150500000Y-120260415D01*
X150500000Y-130304374D02*
X151260000Y-130304374D01*
X151260000Y-110660415D02*
X150500000Y-110660415D01*
X150500000Y-123860415D02*
X149740000Y-123860415D01*
X134600000Y-109000000D02*
X136500000Y-110900000D01*
X151260000Y-133304374D02*
X150500000Y-133304374D01*
X119500000Y-110500000D02*
X120000000Y-111000000D01*
X146706000Y-108000000D02*
X150500000Y-108000000D01*
X150500000Y-120860415D02*
X151260000Y-120860415D01*
X150500000Y-161226279D02*
X151260000Y-161226279D01*
X149500000Y-97918900D02*
X149500000Y-97798900D01*
X149500000Y-133064374D02*
X149500000Y-132944374D01*
X150500000Y-89758900D02*
X149740000Y-89758900D01*
X150500000Y-96358900D02*
X151260000Y-96358900D01*
X149500000Y-121220415D02*
X149500000Y-121100415D01*
X91105000Y-110899000D02*
X99500000Y-110899000D01*
X149740000Y-92758900D02*
X150500000Y-92758900D01*
X151260000Y-139304374D02*
X150500000Y-139304374D01*
X149500000Y-149586279D02*
X149500000Y-149466279D01*
X149740000Y-135104374D02*
X150500000Y-135104374D01*
X151500000Y-138464374D02*
X151500000Y-138344374D01*
X150500000Y-153426279D02*
X149740000Y-153426279D01*
X151260000Y-153426279D02*
X150500000Y-153426279D01*
X150500000Y-104158900D02*
X149740000Y-104158900D01*
X150500000Y-142304374D02*
X151260000Y-142304374D01*
X109206000Y-110500000D02*
X116500000Y-110500000D01*
X151500000Y-136064374D02*
X151500000Y-135944374D01*
X151500000Y-139664374D02*
X151500000Y-139544374D01*
X149500000Y-95518900D02*
X149500000Y-95398900D01*
X150500000Y-135104374D02*
X151260000Y-135104374D01*
X151260000Y-125060415D02*
X150500000Y-125060415D01*
X150500000Y-135704374D02*
X149740000Y-135704374D01*
X104999000Y-110899000D02*
X105000000Y-110900000D01*
X151500000Y-163386279D02*
X151500000Y-163266279D01*
X146601000Y-50601000D02*
X62399000Y-50601000D01*
X100000000Y-91500000D02*
X100500000Y-92000000D01*
X151500000Y-131264374D02*
X151500000Y-131144374D01*
X149740000Y-114860415D02*
X150500000Y-114860415D01*
X150500000Y-164826279D02*
X151260000Y-164826279D01*
X151260000Y-105358900D02*
X150500000Y-105358900D01*
X74500000Y-165500000D02*
X69500000Y-165500000D01*
X150500000Y-132704374D02*
X151260000Y-132704374D01*
X149740000Y-151626279D02*
X150500000Y-151626279D01*
X151500000Y-130064374D02*
X151500000Y-129944374D01*
X150500000Y-92758900D02*
X151260000Y-92758900D01*
X150500000Y-138704374D02*
X151260000Y-138704374D01*
X151260000Y-134504374D02*
X150500000Y-134504374D01*
X150500000Y-156426279D02*
X151260000Y-156426279D01*
X150500000Y-110060415D02*
X150740000Y-110060415D01*
X151260000Y-121460415D02*
X150500000Y-121460415D01*
X151260000Y-116660415D02*
X150500000Y-116660415D01*
X149740000Y-139904374D02*
X150500000Y-139904374D01*
X150500000Y-87358900D02*
X149740000Y-87358900D01*
X150500000Y-85798900D02*
X150500000Y-85471892D01*
X151500000Y-91318900D02*
X151500000Y-91198900D01*
X149740000Y-158826279D02*
X150500000Y-158826279D01*
X150740000Y-107158900D02*
X151260000Y-107158900D01*
X150500000Y-117260415D02*
X151260000Y-117260415D01*
X150740000Y-106558900D02*
X150500000Y-106558900D01*
X151500000Y-98398900D02*
G75*
G03*
X151260000Y-98158900I-240000J0D01*
G01*
X151260000Y-137504374D02*
G75*
G03*
X151499974Y-137264374I0J239974D01*
G01*
X149500000Y-140144374D02*
G75*
G02*
X149740000Y-139904400I240000J-26D01*
G01*
X149740000Y-104158900D02*
G75*
G02*
X149500000Y-103918900I0J240000D01*
G01*
X149500000Y-96598900D02*
G75*
G02*
X149740000Y-96358900I240000J0D01*
G01*
X151500000Y-94798900D02*
G75*
G03*
X151260000Y-94558900I-240000J0D01*
G01*
X151260000Y-111260415D02*
G75*
G03*
X151500015Y-111020415I0J240015D01*
G01*
X151260000Y-90358900D02*
G75*
G03*
X151500000Y-90118900I0J240000D01*
G01*
X151260000Y-161226279D02*
G75*
G03*
X151499979Y-160986279I0J239979D01*
G01*
X151500000Y-140744374D02*
G75*
G03*
X151260000Y-140504400I-240000J-26D01*
G01*
X151500000Y-126500415D02*
G75*
G03*
X151260000Y-126260400I-240000J15D01*
G01*
X149740000Y-114260415D02*
G75*
G02*
X149499985Y-114020415I0J240015D01*
G01*
X149500000Y-100198900D02*
G75*
G02*
X149740000Y-99958900I240000J0D01*
G01*
X151500000Y-86398900D02*
G75*
G03*
X151260000Y-86158900I-240000J0D01*
G01*
X149500000Y-103798900D02*
G75*
G02*
X149740000Y-103558900I240000J0D01*
G01*
X149500000Y-112700415D02*
G75*
G02*
X149740000Y-112460400I240000J15D01*
G01*
X151500000Y-152466279D02*
G75*
G03*
X151260000Y-152226300I-240000J-21D01*
G01*
X149740000Y-164226279D02*
G75*
G02*
X149500021Y-163986279I0J239979D01*
G01*
X149740000Y-90958900D02*
G75*
G02*
X149500000Y-90718900I0J240000D01*
G01*
X149740000Y-159426279D02*
G75*
G02*
X149500021Y-159186279I0J239979D01*
G01*
X151500000Y-148866279D02*
G75*
G03*
X151260000Y-148626300I-240000J-21D01*
G01*
X151500000Y-160866279D02*
G75*
G03*
X151260000Y-160626300I-240000J-21D01*
G01*
X149500000Y-104998900D02*
G75*
G02*
X149740000Y-104758900I240000J0D01*
G01*
X149740000Y-93358900D02*
G75*
G02*
X149500000Y-93118900I0J240000D01*
G01*
X151260000Y-112460415D02*
G75*
G03*
X151500015Y-112220415I0J240015D01*
G01*
X151500000Y-124100415D02*
G75*
G03*
X151260000Y-123860400I-240000J15D01*
G01*
X149500000Y-151866279D02*
G75*
G02*
X149740000Y-151626300I240000J-21D01*
G01*
X151260000Y-104758900D02*
G75*
G03*
X151500000Y-104518900I0J240000D01*
G01*
X151260000Y-143504374D02*
G75*
G03*
X151499974Y-143264374I0J239974D01*
G01*
X151260000Y-158826279D02*
G75*
G03*
X151499979Y-158586279I0J239979D01*
G01*
X149740000Y-120260415D02*
G75*
G02*
X149499985Y-120020415I0J240015D01*
G01*
X150740000Y-86158900D02*
G75*
G02*
X150500000Y-85918900I0J240000D01*
G01*
X151260000Y-120860415D02*
G75*
G03*
X151500015Y-120620415I0J240015D01*
G01*
X149740000Y-145304374D02*
G75*
G02*
X149500026Y-145064374I0J239974D01*
G01*
X151500000Y-88798900D02*
G75*
G03*
X151260000Y-88558900I-240000J0D01*
G01*
X149740000Y-161826279D02*
G75*
G02*
X149500021Y-161586279I0J239979D01*
G01*
X151260000Y-151626279D02*
G75*
G03*
X151499979Y-151386279I0J239979D01*
G01*
X151260000Y-89158900D02*
G75*
G03*
X151500000Y-88918900I0J240000D01*
G01*
X151500000Y-137144374D02*
G75*
G03*
X151260000Y-136904400I-240000J-26D01*
G01*
X151500000Y-89998900D02*
G75*
G03*
X151260000Y-89758900I-240000J0D01*
G01*
X151260000Y-162426279D02*
G75*
G03*
X151499979Y-162186279I0J239979D01*
G01*
X149740000Y-115460415D02*
G75*
G02*
X149499985Y-115220415I0J240015D01*
G01*
X149740000Y-99358900D02*
G75*
G02*
X149500000Y-99118900I0J240000D01*
G01*
X149740000Y-166626279D02*
G75*
G02*
X149500021Y-166386279I0J239979D01*
G01*
X151500000Y-99598900D02*
G75*
G03*
X151260000Y-99358900I-240000J0D01*
G01*
X151260000Y-160026279D02*
G75*
G03*
X151499979Y-159786279I0J239979D01*
G01*
X151260000Y-131504374D02*
G75*
G03*
X151499974Y-131264374I0J239974D01*
G01*
X149500000Y-163866279D02*
G75*
G02*
X149740000Y-163626300I240000J-21D01*
G01*
X149740000Y-105358900D02*
G75*
G02*
X149500000Y-105118900I0J240000D01*
G01*
X151500000Y-113300415D02*
G75*
G03*
X151260000Y-113060400I-240000J15D01*
G01*
X151260000Y-139904374D02*
G75*
G03*
X151499974Y-139664374I0J239974D01*
G01*
X149740000Y-148626279D02*
G75*
G02*
X149500021Y-148386279I0J239979D01*
G01*
X151500000Y-129944374D02*
G75*
G03*
X151260000Y-129704400I-240000J-26D01*
G01*
X149740000Y-135704374D02*
G75*
G02*
X149500026Y-135464374I0J239974D01*
G01*
X149500000Y-161466279D02*
G75*
G02*
X149740000Y-161226300I240000J-21D01*
G01*
X149500000Y-132944374D02*
G75*
G02*
X149740000Y-132704400I240000J-26D01*
G01*
X151260000Y-124460415D02*
G75*
G03*
X151500015Y-124220415I0J240015D01*
G01*
X149500000Y-137744374D02*
G75*
G02*
X149740000Y-137504400I240000J-26D01*
G01*
X151260000Y-166026279D02*
G75*
G03*
X151499979Y-165786279I0J239979D01*
G01*
X150500000Y-107398900D02*
G75*
G02*
X150740000Y-107158900I240000J0D01*
G01*
X151500000Y-154866279D02*
G75*
G03*
X151260000Y-154626300I-240000J-21D01*
G01*
X151500000Y-141944374D02*
G75*
G03*
X151260000Y-141704400I-240000J-26D01*
G01*
X151500000Y-163266279D02*
G75*
G03*
X151260000Y-163026300I-240000J-21D01*
G01*
X151500000Y-105598900D02*
G75*
G03*
X151260000Y-105358900I-240000J0D01*
G01*
X151500000Y-116900415D02*
G75*
G03*
X151260000Y-116660400I-240000J15D01*
G01*
X149740000Y-122660415D02*
G75*
G02*
X149499985Y-122420415I0J240015D01*
G01*
X149500000Y-117500415D02*
G75*
G02*
X149740000Y-117260400I240000J15D01*
G01*
X151260000Y-86758900D02*
G75*
G03*
X151500000Y-86518900I0J240000D01*
G01*
X149500000Y-102598900D02*
G75*
G02*
X149740000Y-102358900I240000J0D01*
G01*
X151260000Y-155226279D02*
G75*
G03*
X151499979Y-154986279I0J239979D01*
G01*
X151500000Y-95998900D02*
G75*
G03*
X151260000Y-95758900I-240000J0D01*
G01*
X149740000Y-95758900D02*
G75*
G02*
X149500000Y-95518900I0J240000D01*
G01*
X151500000Y-147666279D02*
G75*
G03*
X151260000Y-147426300I-240000J-21D01*
G01*
X151500000Y-87598900D02*
G75*
G03*
X151260000Y-87358900I-240000J0D01*
G01*
X151260000Y-123260415D02*
G75*
G03*
X151500015Y-123020415I0J240015D01*
G01*
X151500000Y-153666279D02*
G75*
G03*
X151260000Y-153426300I-240000J-21D01*
G01*
X151500000Y-112100415D02*
G75*
G03*
X151260000Y-111860400I-240000J15D01*
G01*
X149500000Y-125900415D02*
G75*
G02*
X149740000Y-125660400I240000J15D01*
G01*
X151260000Y-122060415D02*
G75*
G03*
X151500015Y-121820415I0J240015D01*
G01*
X149500000Y-166266279D02*
G75*
G02*
X149740000Y-166026300I240000J-21D01*
G01*
X151260000Y-110060415D02*
G75*
G03*
X151500015Y-109820415I0J240015D01*
G01*
X149740000Y-110660415D02*
G75*
G02*
X149499985Y-110420415I0J240015D01*
G01*
X151260000Y-156426279D02*
G75*
G03*
X151499979Y-156186279I0J239979D01*
G01*
X151260000Y-102358900D02*
G75*
G03*
X151500000Y-102118900I0J240000D01*
G01*
X151500000Y-164466279D02*
G75*
G03*
X151260000Y-164226300I-240000J-21D01*
G01*
X151260000Y-141104374D02*
G75*
G03*
X151499974Y-140864374I0J239974D01*
G01*
X151500000Y-109700415D02*
G75*
G03*
X151260000Y-109460400I-240000J15D01*
G01*
X149500000Y-131744374D02*
G75*
G02*
X149740000Y-131504400I240000J-26D01*
G01*
X151500000Y-115700415D02*
G75*
G03*
X151260000Y-115460400I-240000J15D01*
G01*
X151260000Y-87958900D02*
G75*
G03*
X151500000Y-87718900I0J240000D01*
G01*
X149500000Y-153066279D02*
G75*
G02*
X149740000Y-152826300I240000J-21D01*
G01*
X149740000Y-132104374D02*
G75*
G02*
X149500026Y-131864374I0J239974D01*
G01*
X149500000Y-136544374D02*
G75*
G02*
X149740000Y-136304400I240000J-26D01*
G01*
X151500000Y-103198900D02*
G75*
G03*
X151260000Y-102958900I-240000J0D01*
G01*
X149500000Y-92998900D02*
G75*
G02*
X149740000Y-92758900I240000J0D01*
G01*
X151500000Y-150066279D02*
G75*
G03*
X151260000Y-149826300I-240000J-21D01*
G01*
X151500000Y-97198900D02*
G75*
G03*
X151260000Y-96958900I-240000J0D01*
G01*
X149500000Y-156666279D02*
G75*
G02*
X149740000Y-156426300I240000J-21D01*
G01*
X149740000Y-113060415D02*
G75*
G02*
X149499985Y-112820415I0J240015D01*
G01*
X151260000Y-95158900D02*
G75*
G03*
X151500000Y-94918900I0J240000D01*
G01*
X149740000Y-142904374D02*
G75*
G02*
X149500026Y-142664374I0J239974D01*
G01*
X151260000Y-133904374D02*
G75*
G03*
X151499974Y-133664374I0J239974D01*
G01*
X149500000Y-135344374D02*
G75*
G02*
X149740000Y-135104400I240000J-26D01*
G01*
X149740000Y-138104374D02*
G75*
G02*
X149500026Y-137864374I0J239974D01*
G01*
X151260000Y-97558900D02*
G75*
G03*
X151500000Y-97318900I0J240000D01*
G01*
X151260000Y-145904374D02*
G75*
G03*
X151499974Y-145664374I0J239974D01*
G01*
X151500000Y-135944374D02*
G75*
G03*
X151260000Y-135704400I-240000J-26D01*
G01*
X151500000Y-139544374D02*
G75*
G03*
X151260000Y-139304400I-240000J-26D01*
G01*
X149500000Y-101398900D02*
G75*
G02*
X149740000Y-101158900I240000J0D01*
G01*
X150740000Y-147426279D02*
G75*
G02*
X150500021Y-147186279I0J239979D01*
G01*
X151500000Y-162066279D02*
G75*
G03*
X151260000Y-161826300I-240000J-21D01*
G01*
X149500000Y-111500415D02*
G75*
G02*
X149740000Y-111260400I240000J15D01*
G01*
X151500000Y-104398900D02*
G75*
G03*
X151260000Y-104158900I-240000J0D01*
G01*
X151260000Y-130304374D02*
G75*
G03*
X151499974Y-130064374I0J239974D01*
G01*
X151500000Y-156066279D02*
G75*
G03*
X151260000Y-155826300I-240000J-21D01*
G01*
X149740000Y-101758900D02*
G75*
G02*
X149500000Y-101518900I0J240000D01*
G01*
X151260000Y-118460415D02*
G75*
G03*
X151500015Y-118220415I0J240015D01*
G01*
X149740000Y-140504374D02*
G75*
G02*
X149500026Y-140264374I0J239974D01*
G01*
X151260000Y-135104374D02*
G75*
G03*
X151499974Y-134864374I0J239974D01*
G01*
X151500000Y-133544374D02*
G75*
G03*
X151260000Y-133304400I-240000J-26D01*
G01*
X151500000Y-121700415D02*
G75*
G03*
X151260000Y-121460400I-240000J15D01*
G01*
X149500000Y-119900415D02*
G75*
G02*
X149740000Y-119660400I240000J15D01*
G01*
X149500000Y-86998900D02*
G75*
G02*
X149740000Y-86758900I240000J0D01*
G01*
X151500000Y-143144374D02*
G75*
G03*
X151260000Y-142904400I-240000J-26D01*
G01*
X151260000Y-107158900D02*
G75*
G03*
X151500000Y-106918900I0J240000D01*
G01*
X151260000Y-98758900D02*
G75*
G03*
X151500000Y-98518900I0J240000D01*
G01*
X151260000Y-149226279D02*
G75*
G03*
X151499979Y-148986279I0J239979D01*
G01*
X151500000Y-119300415D02*
G75*
G03*
X151260000Y-119060400I-240000J15D01*
G01*
X151500000Y-128744374D02*
G75*
G03*
X151260000Y-128504400I-240000J-26D01*
G01*
X151500000Y-144344374D02*
G75*
G03*
X151260000Y-144104400I-240000J-26D01*
G01*
X151260000Y-126860415D02*
G75*
G03*
X151500015Y-126620415I0J240015D01*
G01*
X151500000Y-145544374D02*
G75*
G03*
X151260000Y-145304400I-240000J-26D01*
G01*
X149500000Y-162666279D02*
G75*
G02*
X149740000Y-162426300I240000J-21D01*
G01*
X151500000Y-151266279D02*
G75*
G03*
X151260000Y-151026300I-240000J-21D01*
G01*
X149740000Y-157026279D02*
G75*
G02*
X149500021Y-156786279I0J239979D01*
G01*
X149500000Y-94198900D02*
G75*
G02*
X149740000Y-93958900I240000J0D01*
G01*
X149500000Y-118700415D02*
G75*
G02*
X149740000Y-118460400I240000J15D01*
G01*
X149740000Y-102958900D02*
G75*
G02*
X149500000Y-102718900I0J240000D01*
G01*
X151260000Y-136304374D02*
G75*
G03*
X151499974Y-136064374I0J239974D01*
G01*
X151500000Y-101998900D02*
G75*
G03*
X151260000Y-101758900I-240000J0D01*
G01*
X151260000Y-125660415D02*
G75*
G03*
X151500015Y-125420415I0J240015D01*
G01*
X151260000Y-114860415D02*
G75*
G03*
X151500015Y-114620415I0J240015D01*
G01*
X151500000Y-165666279D02*
G75*
G03*
X151260000Y-165426300I-240000J-21D01*
G01*
X149500000Y-124700415D02*
G75*
G02*
X149740000Y-124460400I240000J15D01*
G01*
X149500000Y-122300415D02*
G75*
G02*
X149740000Y-122060400I240000J15D01*
G01*
X151260000Y-103558900D02*
G75*
G03*
X151500000Y-103318900I0J240000D01*
G01*
X149500000Y-90598900D02*
G75*
G02*
X149740000Y-90358900I240000J0D01*
G01*
X151260000Y-138704374D02*
G75*
G03*
X151499974Y-138464374I0J239974D01*
G01*
X149500000Y-95398900D02*
G75*
G02*
X149740000Y-95158900I240000J0D01*
G01*
X151260000Y-132704374D02*
G75*
G03*
X151499974Y-132464374I0J239974D01*
G01*
X149500000Y-165066279D02*
G75*
G02*
X149740000Y-164826300I240000J-21D01*
G01*
X151260000Y-117260415D02*
G75*
G03*
X151500015Y-117020415I0J240015D01*
G01*
X149740000Y-133304374D02*
G75*
G02*
X149500026Y-133064374I0J239974D01*
G01*
X149740000Y-116660415D02*
G75*
G02*
X149499985Y-116420415I0J240015D01*
G01*
X149500000Y-141344374D02*
G75*
G02*
X149740000Y-141104400I240000J-26D01*
G01*
X149500000Y-155466279D02*
G75*
G02*
X149740000Y-155226300I240000J-21D01*
G01*
X149740000Y-130904374D02*
G75*
G02*
X149500026Y-130664374I0J239974D01*
G01*
X149740000Y-89758900D02*
G75*
G02*
X149500000Y-89518900I0J240000D01*
G01*
X149740000Y-117860415D02*
G75*
G02*
X149499985Y-117620415I0J240015D01*
G01*
X151500000Y-106798900D02*
G75*
G03*
X151260000Y-106558900I-240000J0D01*
G01*
X151500000Y-125300415D02*
G75*
G03*
X151260000Y-125060400I-240000J15D01*
G01*
X149740000Y-149826279D02*
G75*
G02*
X149500021Y-149586279I0J239979D01*
G01*
X149740000Y-158226279D02*
G75*
G02*
X149500021Y-157986279I0J239979D01*
G01*
X151260000Y-93958900D02*
G75*
G03*
X151500000Y-93718900I0J240000D01*
G01*
X149500000Y-121100415D02*
G75*
G02*
X149740000Y-120860400I240000J15D01*
G01*
X149500000Y-110300415D02*
G75*
G02*
X149740000Y-110060400I240000J15D01*
G01*
X149740000Y-155826279D02*
G75*
G02*
X149500021Y-155586279I0J239979D01*
G01*
X149500000Y-157866279D02*
G75*
G02*
X149740000Y-157626300I240000J-21D01*
G01*
X150500000Y-127100415D02*
G75*
G02*
X150740000Y-126860400I240000J15D01*
G01*
X149740000Y-98158900D02*
G75*
G02*
X149500000Y-97918900I0J240000D01*
G01*
X149740000Y-126260415D02*
G75*
G02*
X149499985Y-126020415I0J240015D01*
G01*
X149740000Y-160626279D02*
G75*
G02*
X149500021Y-160386279I0J239979D01*
G01*
X150740000Y-109460415D02*
G75*
G02*
X150499985Y-109220415I0J240015D01*
G01*
X151500000Y-92398900D02*
G75*
G03*
X151260000Y-92158900I-240000J0D01*
G01*
X150500000Y-146144374D02*
G75*
G02*
X150740000Y-145904400I240000J-26D01*
G01*
X149500000Y-129344374D02*
G75*
G02*
X149740000Y-129104400I240000J-26D01*
G01*
X149740000Y-163026279D02*
G75*
G02*
X149500021Y-162786279I0J239979D01*
G01*
X151260000Y-105958900D02*
G75*
G03*
X151500000Y-105718900I0J240000D01*
G01*
X151500000Y-91198900D02*
G75*
G03*
X151260000Y-90958900I-240000J0D01*
G01*
X151500000Y-120500415D02*
G75*
G03*
X151260000Y-120260400I-240000J15D01*
G01*
X151260000Y-150426279D02*
G75*
G03*
X151499979Y-150186279I0J239979D01*
G01*
X149740000Y-154626279D02*
G75*
G02*
X149500021Y-154386279I0J239979D01*
G01*
X151260000Y-96358900D02*
G75*
G03*
X151500000Y-96118900I0J240000D01*
G01*
X151500000Y-100798900D02*
G75*
G03*
X151260000Y-100558900I-240000J0D01*
G01*
X149500000Y-98998900D02*
G75*
G02*
X149740000Y-98758900I240000J0D01*
G01*
X151260000Y-99958900D02*
G75*
G03*
X151500000Y-99718900I0J240000D01*
G01*
X151260000Y-129104374D02*
G75*
G03*
X151499974Y-128864374I0J239974D01*
G01*
X151260000Y-163626279D02*
G75*
G03*
X151499979Y-163386279I0J239979D01*
G01*
X151500000Y-122900415D02*
G75*
G03*
X151260000Y-122660400I-240000J15D01*
G01*
X149500000Y-160266279D02*
G75*
G02*
X149740000Y-160026300I240000J-21D01*
G01*
X149500000Y-148266279D02*
G75*
G02*
X149740000Y-148026300I240000J-21D01*
G01*
X149740000Y-139304374D02*
G75*
G02*
X149500026Y-139064374I0J239974D01*
G01*
X149740000Y-106558900D02*
G75*
G02*
X149500000Y-106318900I0J240000D01*
G01*
X151260000Y-154026279D02*
G75*
G03*
X151499979Y-153786279I0J239979D01*
G01*
X149500000Y-116300415D02*
G75*
G02*
X149740000Y-116060400I240000J15D01*
G01*
X151500000Y-110900415D02*
G75*
G03*
X151260000Y-110660400I-240000J15D01*
G01*
X149740000Y-151026279D02*
G75*
G02*
X149500021Y-150786279I0J239979D01*
G01*
X151260000Y-144704374D02*
G75*
G03*
X151499974Y-144464374I0J239974D01*
G01*
X149740000Y-87358900D02*
G75*
G02*
X149500000Y-87118900I0J240000D01*
G01*
X151260000Y-152826279D02*
G75*
G03*
X151499979Y-152586279I0J239979D01*
G01*
X151500000Y-93598900D02*
G75*
G03*
X151260000Y-93358900I-240000J0D01*
G01*
X151500000Y-158466279D02*
G75*
G03*
X151260000Y-158226300I-240000J-21D01*
G01*
X149500000Y-142544374D02*
G75*
G02*
X149740000Y-142304400I240000J-26D01*
G01*
X151260000Y-148026279D02*
G75*
G03*
X151499979Y-147786279I0J239979D01*
G01*
X151260000Y-164826279D02*
G75*
G03*
X151499979Y-164586279I0J239979D01*
G01*
X151260000Y-142304374D02*
G75*
G03*
X151499974Y-142064374I0J239974D01*
G01*
X149740000Y-125060415D02*
G75*
G02*
X149499985Y-124820415I0J240015D01*
G01*
X149740000Y-144104374D02*
G75*
G02*
X149500026Y-143864374I0J239974D01*
G01*
X151260000Y-101158900D02*
G75*
G03*
X151500000Y-100918900I0J240000D01*
G01*
X149500000Y-149466279D02*
G75*
G02*
X149740000Y-149226300I240000J-21D01*
G01*
X151500000Y-134744374D02*
G75*
G03*
X151260000Y-134504400I-240000J-26D01*
G01*
X149740000Y-92158900D02*
G75*
G02*
X149500000Y-91918900I0J240000D01*
G01*
X149500000Y-150666279D02*
G75*
G02*
X149740000Y-150426300I240000J-21D01*
G01*
X149740000Y-129704374D02*
G75*
G02*
X149500026Y-129464374I0J239974D01*
G01*
X149740000Y-94558900D02*
G75*
G02*
X149500000Y-94318900I0J240000D01*
G01*
X149740000Y-119060415D02*
G75*
G02*
X149499985Y-118820415I0J240015D01*
G01*
X149740000Y-141704374D02*
G75*
G02*
X149500026Y-141464374I0J239974D01*
G01*
X151500000Y-114500415D02*
G75*
G03*
X151260000Y-114260400I-240000J15D01*
G01*
X151500000Y-131144374D02*
G75*
G03*
X151260000Y-130904400I-240000J-26D01*
G01*
X149500000Y-113900415D02*
G75*
G02*
X149740000Y-113660400I240000J15D01*
G01*
X149500000Y-97798900D02*
G75*
G02*
X149740000Y-97558900I240000J0D01*
G01*
X149740000Y-100558900D02*
G75*
G02*
X149500000Y-100318900I0J240000D01*
G01*
X151260000Y-157626279D02*
G75*
G03*
X151499979Y-157386279I0J239979D01*
G01*
X149740000Y-134504374D02*
G75*
G02*
X149500026Y-134264374I0J239974D01*
G01*
X149500000Y-159066279D02*
G75*
G02*
X149740000Y-158826300I240000J-21D01*
G01*
X151260000Y-116060415D02*
G75*
G03*
X151500015Y-115820415I0J240015D01*
G01*
X149500000Y-143744374D02*
G75*
G02*
X149740000Y-143504400I240000J-26D01*
G01*
X151500000Y-159666279D02*
G75*
G03*
X151260000Y-159426300I-240000J-21D01*
G01*
X149740000Y-96958900D02*
G75*
G02*
X149500000Y-96718900I0J240000D01*
G01*
X149500000Y-106198900D02*
G75*
G02*
X149740000Y-105958900I240000J0D01*
G01*
X150500000Y-166866279D02*
G75*
G03*
X150260000Y-166626300I-240000J-21D01*
G01*
X151500000Y-157266279D02*
G75*
G03*
X151260000Y-157026300I-240000J-21D01*
G01*
X151260000Y-92758900D02*
G75*
G03*
X151500000Y-92518900I0J240000D01*
G01*
X149500000Y-144944374D02*
G75*
G02*
X149740000Y-144704400I240000J-26D01*
G01*
X150740000Y-128504374D02*
G75*
G02*
X150500026Y-128264374I0J239974D01*
G01*
X149740000Y-165426279D02*
G75*
G02*
X149500021Y-165186279I0J239979D01*
G01*
X151260000Y-113660415D02*
G75*
G03*
X151500015Y-113420415I0J240015D01*
G01*
X151260000Y-119660415D02*
G75*
G03*
X151500015Y-119420415I0J240015D01*
G01*
X149500000Y-123500415D02*
G75*
G02*
X149740000Y-123260400I240000J15D01*
G01*
X149500000Y-134144374D02*
G75*
G02*
X149740000Y-133904400I240000J-26D01*
G01*
X149740000Y-88558900D02*
G75*
G02*
X149500000Y-88318900I0J240000D01*
G01*
X149740000Y-153426279D02*
G75*
G02*
X149500021Y-153186279I0J239979D01*
G01*
X149740000Y-136904374D02*
G75*
G02*
X149500026Y-136664374I0J239974D01*
G01*
X149740000Y-123860415D02*
G75*
G02*
X149499985Y-123620415I0J240015D01*
G01*
X151500000Y-138344374D02*
G75*
G03*
X151260000Y-138104400I-240000J-26D01*
G01*
X149500000Y-115100415D02*
G75*
G02*
X149740000Y-114860400I240000J15D01*
G01*
X149740000Y-111860415D02*
G75*
G02*
X149499985Y-111620415I0J240015D01*
G01*
X149500000Y-91798900D02*
G75*
G02*
X149740000Y-91558900I240000J0D01*
G01*
X149500000Y-130544374D02*
G75*
G02*
X149740000Y-130304400I240000J-26D01*
G01*
X149740000Y-152226279D02*
G75*
G02*
X149500021Y-151986279I0J239979D01*
G01*
X149500000Y-88198900D02*
G75*
G02*
X149740000Y-87958900I240000J0D01*
G01*
X151500000Y-132344374D02*
G75*
G03*
X151260000Y-132104400I-240000J-26D01*
G01*
X149500000Y-138944374D02*
G75*
G02*
X149740000Y-138704400I240000J-26D01*
G01*
X149740000Y-121460415D02*
G75*
G02*
X149499985Y-121220415I0J240015D01*
G01*
X151500000Y-118100415D02*
G75*
G03*
X151260000Y-117860400I-240000J15D01*
G01*
X151260000Y-91558900D02*
G75*
G03*
X151500000Y-91318900I0J240000D01*
G01*
X149500000Y-154266279D02*
G75*
G02*
X149740000Y-154026300I240000J-21D01*
G01*
X149500000Y-89398900D02*
G75*
G02*
X149740000Y-89158900I240000J0D01*
G01*
X66730000Y-63270000D02*
X70540000Y-59460000D01*
X70540000Y-59460000D02*
X84500000Y-59460000D01*
X66730000Y-72160000D02*
X66730000Y-63270000D01*
X79120000Y-69620000D02*
X78000000Y-68500000D01*
X84500000Y-69620000D02*
X79120000Y-69620000D01*
X78000000Y-68500000D02*
X77942700Y-68442700D01*
X59710000Y-69500000D02*
X56500000Y-69500000D01*
X77942700Y-68442700D02*
X67387300Y-68442700D01*
X67387300Y-68442700D02*
X67330000Y-68500000D01*
X64190000Y-65190000D02*
X64190000Y-72160000D01*
X84500000Y-67080000D02*
X80782700Y-63362700D01*
X64000000Y-65000000D02*
X64190000Y-65190000D01*
X68467300Y-63362700D02*
X67330000Y-64500000D01*
X80782700Y-63362700D02*
X68467300Y-63362700D01*
X54500000Y-74500000D02*
X68500000Y-74500000D01*
X94000000Y-53500000D02*
X94000000Y-71000000D01*
X113540000Y-94000000D02*
X114740000Y-94000000D01*
X75540000Y-94000000D02*
X76740000Y-94000000D01*
X68500000Y-74500000D02*
X69270000Y-73730000D01*
X57740000Y-94000000D02*
X54500000Y-94000000D01*
X132540000Y-94000000D02*
X133740000Y-94000000D01*
X94540000Y-94000000D02*
X95740000Y-94000000D01*
X69270000Y-73730000D02*
X69270000Y-72160000D01*
X71369000Y-74131000D02*
X71810000Y-73690000D01*
X53935313Y-75101000D02*
X70399000Y-75101000D01*
X113000000Y-53500000D02*
X113000000Y-71000000D01*
X53900000Y-75065687D02*
X53935313Y-75101000D01*
X76740000Y-113000000D02*
X75540000Y-113000000D01*
X95740000Y-113000000D02*
X94540000Y-113000000D01*
X57740000Y-113000000D02*
X54000000Y-113000000D01*
X71810000Y-73690000D02*
X71810000Y-72160000D01*
X133740000Y-113000000D02*
X132540000Y-113000000D01*
X70399000Y-75101000D02*
X71369000Y-74131000D01*
X114740000Y-113000000D02*
X113540000Y-113000000D01*
X133740000Y-132000000D02*
X132500000Y-132000000D01*
X57740000Y-132000000D02*
X53500000Y-132000000D01*
X74350000Y-73650000D02*
X74350000Y-72160000D01*
X55000000Y-75502000D02*
X72498000Y-75502000D01*
X53312545Y-75666687D02*
X54835313Y-75666687D01*
X73468000Y-74532000D02*
X74350000Y-73650000D01*
X76740000Y-132000000D02*
X75500000Y-132000000D01*
X132000000Y-53500000D02*
X132000000Y-70500000D01*
X53300000Y-75654142D02*
X53312545Y-75666687D01*
X54835313Y-75666687D02*
X55000000Y-75502000D01*
X114740000Y-132000000D02*
X113540000Y-132000000D01*
X95740000Y-132000000D02*
X94500000Y-132000000D01*
X72498000Y-75502000D02*
X73468000Y-74532000D01*
X52700000Y-76500000D02*
X55000000Y-76500000D01*
X76890000Y-74110000D02*
X76890000Y-72160000D01*
X55500000Y-76000000D02*
X75000000Y-76000000D01*
X76740000Y-151000000D02*
X75540000Y-151000000D01*
X133740000Y-151000000D02*
X132540000Y-151000000D01*
X55000000Y-76500000D02*
X55500000Y-76000000D01*
X57740000Y-151000000D02*
X52500000Y-151000000D01*
X75000000Y-76000000D02*
X76890000Y-74110000D01*
X95740000Y-151000000D02*
X94500000Y-151000000D01*
X114740000Y-151000000D02*
X113540000Y-151000000D01*
X76399000Y-77101000D02*
X79430000Y-74070000D01*
X57500000Y-170000000D02*
X52000000Y-170000000D01*
X52000000Y-77000000D02*
X52101000Y-77101000D01*
X79430000Y-74070000D02*
X79430000Y-72160000D01*
X52101000Y-77101000D02*
X76399000Y-77101000D01*
X94600000Y-65600000D02*
X94600000Y-65500000D01*
X93199997Y-53500000D02*
X77500000Y-53500000D01*
X76890000Y-54110000D02*
X76890000Y-56920000D01*
X100000000Y-71000000D02*
X94600000Y-65600000D01*
X77500000Y-53500000D02*
X76890000Y-54110000D01*
X93868100Y-72301000D02*
X87567100Y-66000000D01*
X105000000Y-71000000D02*
X103699000Y-72301000D01*
X103699000Y-72301000D02*
X93868100Y-72301000D01*
X87567100Y-66000000D02*
X86500000Y-66000000D01*
X76101000Y-52899000D02*
X74350000Y-54650000D01*
X139399000Y-52899000D02*
X120399000Y-52899000D01*
X74350000Y-54650000D02*
X74350000Y-56920000D01*
X105000000Y-56500000D02*
X101399000Y-52899000D01*
X143000000Y-56500000D02*
X139399000Y-52899000D01*
X120399000Y-52899000D02*
X101399000Y-52899000D01*
X124000000Y-56500000D02*
X120399000Y-52899000D01*
X101399000Y-52899000D02*
X76101000Y-52899000D01*
X79900000Y-54100000D02*
X79430000Y-54570000D01*
X124000000Y-71000000D02*
X121599000Y-73401000D01*
X89000000Y-54100000D02*
X79900000Y-54100000D01*
X93543700Y-73401000D02*
X89000000Y-68857300D01*
X121599000Y-73401000D02*
X93543700Y-73401000D01*
X79430000Y-54570000D02*
X79430000Y-56920000D01*
X119000000Y-71000000D02*
X117000000Y-73000000D01*
X81257300Y-68257300D02*
X79000000Y-66000000D01*
X89257300Y-68257300D02*
X81257300Y-68257300D01*
X94000000Y-73000000D02*
X89257300Y-68257300D01*
X117000000Y-73000000D02*
X94000000Y-73000000D01*
X78040000Y-64540000D02*
X76890000Y-64540000D01*
X79000000Y-66000000D02*
X79000000Y-65500000D01*
X79000000Y-65500000D02*
X78040000Y-64540000D01*
X93500000Y-74000000D02*
X90500000Y-71000000D01*
X77291000Y-70021000D02*
X76890000Y-69620000D01*
X82521000Y-70021000D02*
X77291000Y-70021000D01*
X138000000Y-71000000D02*
X135000000Y-74000000D01*
X90500000Y-71000000D02*
X83500000Y-71000000D01*
X135000000Y-74000000D02*
X93500000Y-74000000D01*
X83500000Y-71000000D02*
X82521000Y-70021000D01*
X81970000Y-55530000D02*
X81970000Y-56920000D01*
X143000000Y-71000000D02*
X139599000Y-74401000D01*
X139599000Y-74401000D02*
X93052470Y-74401000D01*
X82500000Y-55000000D02*
X81970000Y-55530000D01*
X93052470Y-74401000D02*
X90325735Y-71674265D01*
X89600000Y-55000000D02*
X82500000Y-55000000D01*
X64299265Y-61950735D02*
X64299265Y-62365836D01*
X64299265Y-62365836D02*
X63658287Y-63006814D01*
X133740000Y-88500000D02*
X132540000Y-88500000D01*
X129000000Y-88500000D02*
X127000000Y-88500000D01*
X145000000Y-110000000D02*
X145000000Y-108000000D01*
X143500000Y-111500000D02*
X145000000Y-110000000D01*
X139500000Y-132500000D02*
X145000000Y-127000000D01*
X145500000Y-87706000D02*
X146206000Y-87000000D01*
X145500000Y-90000000D02*
X145500000Y-87706000D01*
X140000000Y-151600000D02*
X140000000Y-151000000D01*
X139000000Y-113600000D02*
X141100000Y-111500000D01*
X146906000Y-87000000D02*
X147406000Y-86500000D01*
X139500000Y-94600000D02*
X140900000Y-94600000D01*
X139500000Y-132600000D02*
X139500000Y-132500000D01*
X140900000Y-94600000D02*
X145500000Y-90000000D01*
X146206000Y-87000000D02*
X146906000Y-87000000D01*
X141100000Y-111500000D02*
X143500000Y-111500000D01*
X140000000Y-151000000D02*
X145500000Y-145500000D01*
X133740000Y-107500000D02*
X127206000Y-107500000D01*
X127206000Y-126500000D02*
X136500000Y-126500000D01*
X127706000Y-145000000D02*
X127206000Y-145500000D01*
X133740000Y-145500000D02*
X133240000Y-145000000D01*
X133240000Y-145000000D02*
X127706000Y-145000000D01*
X127206000Y-164500000D02*
X135000000Y-164500000D01*
X108206000Y-88750001D02*
X114489999Y-88750001D01*
X114489999Y-88750001D02*
X114740000Y-88500000D01*
X114740000Y-107500000D02*
X108206000Y-107500000D01*
X108206000Y-126500000D02*
X117500000Y-126500000D01*
X108206000Y-145500000D02*
X114740000Y-145500000D01*
X108706000Y-164500000D02*
X116000000Y-164500000D01*
X108206000Y-165000000D02*
X108706000Y-164500000D01*
X89206000Y-88500000D02*
X95740000Y-88500000D01*
X95740000Y-107500000D02*
X89206000Y-107500000D01*
X89206000Y-126500000D02*
X98000000Y-126500000D01*
X89206000Y-145500000D02*
X95740000Y-145500000D01*
X89206000Y-164500000D02*
X97500000Y-164500000D01*
X71406000Y-89000000D02*
X70206000Y-89000000D01*
X76740000Y-89000000D02*
X75540000Y-89000000D01*
X76740000Y-107500000D02*
X70206000Y-107500000D01*
X70000000Y-126500000D02*
X79000000Y-126500000D01*
X70206000Y-145500000D02*
X76740000Y-145500000D01*
X70206000Y-164500000D02*
X78500000Y-164500000D01*
X129948528Y-73400000D02*
X122448527Y-73400000D01*
X93207815Y-71057758D02*
X93207815Y-70792185D01*
X54030000Y-70970000D02*
X54030000Y-72160000D01*
X93851057Y-71701000D02*
X93207815Y-71057758D01*
X94500000Y-71701000D02*
X93851057Y-71701000D01*
X54900000Y-70100000D02*
X54030000Y-70970000D01*
X112448528Y-72400000D02*
X110500000Y-72400000D01*
X61000000Y-70100000D02*
X54900000Y-70100000D01*
X131599000Y-75401000D02*
X143666100Y-75401000D01*
X71000000Y-52000000D02*
X69270000Y-53730000D01*
X128500000Y-76500000D02*
X130500000Y-76500000D01*
X143666100Y-75401000D02*
X148901000Y-70166100D01*
X148901000Y-70166100D02*
X148901000Y-54833900D01*
X146067100Y-52000000D02*
X71000000Y-52000000D01*
X130500000Y-76500000D02*
X131599000Y-75401000D01*
X148901000Y-54833900D02*
X146067100Y-52000000D01*
X69270000Y-53730000D02*
X69270000Y-56920000D01*
X149703000Y-54501700D02*
X146399300Y-51198000D01*
X127206000Y-82000000D02*
X127206000Y-81163100D01*
X65802000Y-51198000D02*
X64190000Y-52810000D01*
X149703000Y-70498300D02*
X149703000Y-54501700D01*
X132166100Y-76203000D02*
X143998300Y-76203000D01*
X64190000Y-52810000D02*
X64190000Y-56920000D01*
X146399300Y-51198000D02*
X65802000Y-51198000D01*
X127206000Y-81163100D02*
X132166100Y-76203000D01*
X143998300Y-76203000D02*
X149703000Y-70498300D01*
X73002000Y-52498000D02*
X71810000Y-53690000D01*
X148500000Y-70000000D02*
X148500000Y-55000000D01*
X143500000Y-75000000D02*
X148500000Y-70000000D01*
X148500000Y-55000000D02*
X145998000Y-52498000D01*
X127500000Y-75533000D02*
X128033000Y-75000000D01*
X128033000Y-75000000D02*
X143500000Y-75000000D01*
X71810000Y-53690000D02*
X71810000Y-56920000D01*
X145998000Y-52498000D02*
X73002000Y-52498000D01*
X57850000Y-60650000D02*
X59110000Y-59390000D01*
X59110000Y-59390000D02*
X59110000Y-56920000D01*
X57850000Y-62075000D02*
X57649000Y-62276000D01*
X57850000Y-62075000D02*
X57850000Y-60650000D01*
X57649000Y-62276000D02*
X57649000Y-67124000D01*
X57649000Y-67124000D02*
X57850000Y-67325000D01*
X143832200Y-75802000D02*
X149302000Y-70332200D01*
X149302000Y-54667800D02*
X146233200Y-51599000D01*
X68401000Y-51599000D02*
X66730000Y-53270000D01*
X146233200Y-51599000D02*
X68401000Y-51599000D01*
X149302000Y-70332200D02*
X149302000Y-54667800D01*
X129340396Y-77188925D02*
X130613075Y-77188925D01*
X132000000Y-75802000D02*
X143832200Y-75802000D01*
X66730000Y-53270000D02*
X66730000Y-56920000D01*
X130613075Y-77188925D02*
X132000000Y-75802000D01*
X89799494Y-72160000D02*
X81970000Y-72160000D01*
X92771494Y-75132000D02*
X89799494Y-72160000D01*
X54000000Y-56950000D02*
X54030000Y-56920000D01*
X54000000Y-58500000D02*
X54000000Y-56950000D01*
M02*
