G04 #@! TF.GenerationSoftware,KiCad,Pcbnew,9.0.7*
G04 #@! TF.CreationDate,2026-02-15T13:27:24+05:00*
G04 #@! TF.ProjectId,ModuPad_v2,4d6f6475-5061-4645-9f76-322e6b696361,rev?*
G04 #@! TF.SameCoordinates,Original*
G04 #@! TF.FileFunction,Soldermask,Top*
G04 #@! TF.FilePolarity,Negative*
%FSLAX46Y46*%
G04 Gerber Fmt 4.6, Leading zero omitted, Abs format (unit mm)*
G04 Created by KiCad (PCBNEW 9.0.7) date 2026-02-15 13:27:24*
%MOMM*%
%LPD*%
G01*
G04 APERTURE LIST*
%ADD10C,2.000000*%
%ADD11C,0.750000*%
%ADD12R,1.000000X1.550000*%
%ADD13R,2.000000X2.000000*%
%ADD14C,3.200000*%
%ADD15C,1.752600*%
%ADD16C,1.000000*%
%ADD17R,1.200000X1.700000*%
%ADD18O,1.200000X1.700000*%
%ADD19C,1.750000*%
%ADD20C,3.987800*%
%ADD21C,3.300000*%
G04 APERTURE END LIST*
D10*
X152500000Y-172500000D03*
D11*
X55625000Y-64700000D03*
X58375000Y-64700000D03*
D12*
X56150000Y-67325000D03*
X56150000Y-62075000D03*
X57850000Y-67325000D03*
X57850000Y-62075000D03*
D10*
X152500000Y-72500000D03*
D13*
X119000000Y-71000000D03*
D10*
X124000000Y-71000000D03*
X121500000Y-71000000D03*
D14*
X115900000Y-63500000D03*
X127100000Y-63500000D03*
D10*
X124000000Y-56500000D03*
X119000000Y-56500000D03*
D15*
X54030000Y-72160000D03*
X56570000Y-72160000D03*
X59110000Y-72160000D03*
X61650000Y-72160000D03*
X64190000Y-72160000D03*
X66730000Y-72160000D03*
X69270000Y-72160000D03*
X71810000Y-72160000D03*
X74350000Y-72160000D03*
X76890000Y-72160000D03*
X79430000Y-72160000D03*
X81970000Y-72160000D03*
X81970000Y-56920000D03*
X79430000Y-56920000D03*
X76890000Y-56920000D03*
X74350000Y-56920000D03*
X71810000Y-56920000D03*
X69270000Y-56920000D03*
X66730000Y-56920000D03*
X64190000Y-56920000D03*
X61650000Y-56920000D03*
X59110000Y-56920000D03*
X56570000Y-56920000D03*
X54030000Y-56920000D03*
X76890000Y-69620000D03*
X76890000Y-67080000D03*
X76890000Y-64540000D03*
X84500000Y-69620000D03*
X84500000Y-67080000D03*
X84500000Y-64540000D03*
X84500000Y-62000000D03*
X84500000Y-59460000D03*
D16*
X51800000Y-66200000D03*
X51800000Y-63200000D03*
D13*
X100000000Y-71000000D03*
D10*
X105000000Y-71000000D03*
X102500000Y-71000000D03*
D14*
X96900000Y-63500000D03*
X108100000Y-63500000D03*
D10*
X105000000Y-56500000D03*
X100000000Y-56500000D03*
D17*
X150750000Y-51500000D03*
D18*
X152750000Y-51500000D03*
D10*
X52500000Y-172500000D03*
D13*
X138000000Y-71000000D03*
D10*
X143000000Y-71000000D03*
X140500000Y-71000000D03*
D14*
X134900000Y-63500000D03*
X146100000Y-63500000D03*
D10*
X143000000Y-56500000D03*
X138000000Y-56500000D03*
X52500000Y-52500000D03*
D19*
X107580000Y-103500000D03*
D20*
X102500000Y-103500000D03*
D19*
X97420000Y-103500000D03*
D21*
X98690000Y-100960000D03*
X105040000Y-98420000D03*
D19*
X107580000Y-160500000D03*
D20*
X102500000Y-160500000D03*
D19*
X97420000Y-160500000D03*
D21*
X98690000Y-157960000D03*
X105040000Y-155420000D03*
D19*
X145580000Y-84500000D03*
D20*
X140500000Y-84500000D03*
D19*
X135420000Y-84500000D03*
D21*
X136690000Y-81960000D03*
X143040000Y-79420000D03*
D19*
X145580000Y-141500000D03*
D20*
X140500000Y-141500000D03*
D19*
X135420000Y-141500000D03*
D21*
X136690000Y-138960000D03*
X143040000Y-136420000D03*
D19*
X88580000Y-103500000D03*
D20*
X83500000Y-103500000D03*
D19*
X78420000Y-103500000D03*
D21*
X79690000Y-100960000D03*
X86040000Y-98420000D03*
D19*
X145580000Y-160500000D03*
D20*
X140500000Y-160500000D03*
D19*
X135420000Y-160500000D03*
D21*
X136690000Y-157960000D03*
X143040000Y-155420000D03*
D19*
X126580000Y-103500000D03*
D20*
X121500000Y-103500000D03*
D19*
X116420000Y-103500000D03*
D21*
X117690000Y-100960000D03*
X124040000Y-98420000D03*
D19*
X88580000Y-122500000D03*
D20*
X83500000Y-122500000D03*
D19*
X78420000Y-122500000D03*
D21*
X79690000Y-119960000D03*
X86040000Y-117420000D03*
D19*
X145580000Y-122500000D03*
D20*
X140500000Y-122500000D03*
D19*
X135420000Y-122500000D03*
D21*
X136690000Y-119960000D03*
X143040000Y-117420000D03*
D19*
X88580000Y-141500000D03*
D20*
X83500000Y-141500000D03*
D19*
X78420000Y-141500000D03*
D21*
X79690000Y-138960000D03*
X86040000Y-136420000D03*
D19*
X126580000Y-84500000D03*
D20*
X121500000Y-84500000D03*
D19*
X116420000Y-84500000D03*
D21*
X117690000Y-81960000D03*
X124040000Y-79420000D03*
D19*
X69580000Y-84500000D03*
D20*
X64500000Y-84500000D03*
D19*
X59420000Y-84500000D03*
D21*
X60690000Y-81960000D03*
X67040000Y-79420000D03*
D19*
X88580000Y-160500000D03*
D20*
X83500000Y-160500000D03*
D19*
X78420000Y-160500000D03*
D21*
X79690000Y-157960000D03*
X86040000Y-155420000D03*
D19*
X69580000Y-160500000D03*
D20*
X64500000Y-160500000D03*
D19*
X59420000Y-160500000D03*
D21*
X60690000Y-157960000D03*
X67040000Y-155420000D03*
D19*
X126580000Y-122500000D03*
D20*
X121500000Y-122500000D03*
D19*
X116420000Y-122500000D03*
D21*
X117690000Y-119960000D03*
X124040000Y-117420000D03*
D19*
X69580000Y-141500000D03*
D20*
X64500000Y-141500000D03*
D19*
X59420000Y-141500000D03*
D21*
X60690000Y-138960000D03*
X67040000Y-136420000D03*
D19*
X107580000Y-84500000D03*
D20*
X102500000Y-84500000D03*
D19*
X97420000Y-84500000D03*
D21*
X98690000Y-81960000D03*
X105040000Y-79420000D03*
D19*
X126580000Y-160500000D03*
D20*
X121500000Y-160500000D03*
D19*
X116420000Y-160500000D03*
D21*
X117690000Y-157960000D03*
X124040000Y-155420000D03*
D19*
X145580000Y-103500000D03*
D20*
X140500000Y-103500000D03*
D19*
X135420000Y-103500000D03*
D21*
X136690000Y-100960000D03*
X143040000Y-98420000D03*
D19*
X107580000Y-141500000D03*
D20*
X102500000Y-141500000D03*
D19*
X97420000Y-141500000D03*
D21*
X98690000Y-138960000D03*
X105040000Y-136420000D03*
D19*
X107580000Y-122500000D03*
D20*
X102500000Y-122500000D03*
D19*
X97420000Y-122500000D03*
D21*
X98690000Y-119960000D03*
X105040000Y-117420000D03*
D19*
X69580000Y-103500000D03*
D20*
X64500000Y-103500000D03*
D19*
X59420000Y-103500000D03*
D21*
X60690000Y-100960000D03*
X67040000Y-98420000D03*
D19*
X88580000Y-84500000D03*
D20*
X83500000Y-84500000D03*
D19*
X78420000Y-84500000D03*
D21*
X79690000Y-81960000D03*
X86040000Y-79420000D03*
D19*
X69580000Y-122500000D03*
D20*
X64500000Y-122500000D03*
D19*
X59420000Y-122500000D03*
D21*
X60690000Y-119960000D03*
X67040000Y-117420000D03*
D19*
X126580000Y-141500000D03*
D20*
X121500000Y-141500000D03*
D19*
X116420000Y-141500000D03*
D21*
X117690000Y-138960000D03*
X124040000Y-136420000D03*
M02*
