G04 #@! TF.GenerationSoftware,KiCad,Pcbnew,9.0.7*
G04 #@! TF.CreationDate,2026-02-15T13:27:24+05:00*
G04 #@! TF.ProjectId,ModuPad_v2,4d6f6475-5061-4645-9f76-322e6b696361,rev?*
G04 #@! TF.SameCoordinates,Original*
G04 #@! TF.FileFunction,Copper,L2,Bot*
G04 #@! TF.FilePolarity,Positive*
%FSLAX46Y46*%
G04 Gerber Fmt 4.6, Leading zero omitted, Abs format (unit mm)*
G04 Created by KiCad (PCBNEW 9.0.7) date 2026-02-15 13:27:24*
%MOMM*%
%LPD*%
G01*
G04 APERTURE LIST*
G04 Aperture macros list*
%AMRoundRect*
0 Rectangle with rounded corners*
0 $1 Rounding radius*
0 $2 $3 $4 $5 $6 $7 $8 $9 X,Y pos of 4 corners*
0 Add a 4 corners polygon primitive as box body*
4,1,4,$2,$3,$4,$5,$6,$7,$8,$9,$2,$3,0*
0 Add four circle primitives for the rounded corners*
1,1,$1+$1,$2,$3*
1,1,$1+$1,$4,$5*
1,1,$1+$1,$6,$7*
1,1,$1+$1,$8,$9*
0 Add four rect primitives between the rounded corners*
20,1,$1+$1,$2,$3,$4,$5,0*
20,1,$1+$1,$4,$5,$6,$7,0*
20,1,$1+$1,$6,$7,$8,$9,0*
20,1,$1+$1,$8,$9,$2,$3,0*%
%AMFreePoly0*
4,1,18,-0.410000,0.593000,-0.403758,0.624380,-0.385983,0.650983,-0.359380,0.668758,-0.328000,0.675000,0.328000,0.675000,0.359380,0.668758,0.385983,0.650983,0.403758,0.624380,0.410000,0.593000,0.410000,-0.593000,0.403758,-0.624380,0.385983,-0.650983,0.359380,-0.668758,0.328000,-0.675000,0.000000,-0.675000,-0.410000,-0.265000,-0.410000,0.593000,-0.410000,0.593000,$1*%
G04 Aperture macros list end*
G04 #@! TA.AperFunction,ComponentPad*
%ADD10R,2.000000X2.000000*%
G04 #@! TD*
G04 #@! TA.AperFunction,ComponentPad*
%ADD11C,2.000000*%
G04 #@! TD*
G04 #@! TA.AperFunction,ComponentPad*
%ADD12C,3.200000*%
G04 #@! TD*
G04 #@! TA.AperFunction,ComponentPad*
%ADD13C,1.752600*%
G04 #@! TD*
G04 #@! TA.AperFunction,SMDPad,CuDef*
%ADD14R,0.900000X0.900000*%
G04 #@! TD*
G04 #@! TA.AperFunction,WasherPad*
%ADD15C,1.000000*%
G04 #@! TD*
G04 #@! TA.AperFunction,SMDPad,CuDef*
%ADD16R,1.250000X0.900000*%
G04 #@! TD*
G04 #@! TA.AperFunction,ComponentPad*
%ADD17R,1.200000X1.700000*%
G04 #@! TD*
G04 #@! TA.AperFunction,ComponentPad*
%ADD18O,1.200000X1.700000*%
G04 #@! TD*
G04 #@! TA.AperFunction,SMDPad,CuDef*
%ADD19RoundRect,0.082000X0.593000X-0.328000X0.593000X0.328000X-0.593000X0.328000X-0.593000X-0.328000X0*%
G04 #@! TD*
G04 #@! TA.AperFunction,SMDPad,CuDef*
%ADD20FreePoly0,90.000000*%
G04 #@! TD*
G04 #@! TA.AperFunction,SMDPad,CuDef*
%ADD21RoundRect,0.225000X0.225000X0.375000X-0.225000X0.375000X-0.225000X-0.375000X0.225000X-0.375000X0*%
G04 #@! TD*
G04 #@! TA.AperFunction,ComponentPad*
%ADD22C,3.300000*%
G04 #@! TD*
G04 #@! TA.AperFunction,SMDPad,CuDef*
%ADD23R,1.650000X2.500000*%
G04 #@! TD*
G04 #@! TA.AperFunction,SMDPad,CuDef*
%ADD24RoundRect,0.250000X1.025000X1.000000X-1.025000X1.000000X-1.025000X-1.000000X1.025000X-1.000000X0*%
G04 #@! TD*
G04 #@! TA.AperFunction,SMDPad,CuDef*
%ADD25RoundRect,0.225000X-0.225000X-0.375000X0.225000X-0.375000X0.225000X0.375000X-0.225000X0.375000X0*%
G04 #@! TD*
G04 #@! TA.AperFunction,SMDPad,CuDef*
%ADD26RoundRect,0.237500X0.250000X0.237500X-0.250000X0.237500X-0.250000X-0.237500X0.250000X-0.237500X0*%
G04 #@! TD*
G04 #@! TA.AperFunction,SMDPad,CuDef*
%ADD27RoundRect,0.225000X0.225000X0.250000X-0.225000X0.250000X-0.225000X-0.250000X0.225000X-0.250000X0*%
G04 #@! TD*
G04 #@! TA.AperFunction,ViaPad*
%ADD28C,0.600000*%
G04 #@! TD*
G04 #@! TA.AperFunction,Conductor*
%ADD29C,0.200000*%
G04 #@! TD*
G04 APERTURE END LIST*
D10*
X119000000Y-71000000D03*
D11*
X124000000Y-71000000D03*
X121500000Y-71000000D03*
D12*
X115900000Y-63500000D03*
X127100000Y-63500000D03*
D11*
X124000000Y-56500000D03*
X119000000Y-56500000D03*
D13*
X54030000Y-72160000D03*
X56570000Y-72160000D03*
X59110000Y-72160000D03*
X61650000Y-72160000D03*
X64190000Y-72160000D03*
X66730000Y-72160000D03*
X69270000Y-72160000D03*
X71810000Y-72160000D03*
X74350000Y-72160000D03*
X76890000Y-72160000D03*
X79430000Y-72160000D03*
X81970000Y-72160000D03*
X81970000Y-56920000D03*
X79430000Y-56920000D03*
X76890000Y-56920000D03*
X74350000Y-56920000D03*
X71810000Y-56920000D03*
X69270000Y-56920000D03*
X66730000Y-56920000D03*
X64190000Y-56920000D03*
X61650000Y-56920000D03*
X59110000Y-56920000D03*
X56570000Y-56920000D03*
X54030000Y-56920000D03*
X76890000Y-69620000D03*
X76890000Y-67080000D03*
X76890000Y-64540000D03*
X84500000Y-69620000D03*
X84500000Y-67080000D03*
X84500000Y-64540000D03*
X84500000Y-62000000D03*
X84500000Y-59460000D03*
D14*
X50700000Y-68400000D03*
X52900000Y-68400000D03*
D15*
X51800000Y-66200000D03*
X51800000Y-63200000D03*
D14*
X50700000Y-61000000D03*
X52900000Y-61000000D03*
D16*
X53875000Y-66950000D03*
X53875000Y-63950000D03*
X53875000Y-62450000D03*
D10*
X100000000Y-71000000D03*
D11*
X105000000Y-71000000D03*
X102500000Y-71000000D03*
D12*
X96900000Y-63500000D03*
X108100000Y-63500000D03*
D11*
X105000000Y-56500000D03*
X100000000Y-56500000D03*
D17*
X150750000Y-51500000D03*
D18*
X152750000Y-51500000D03*
D10*
X138000000Y-71000000D03*
D11*
X143000000Y-71000000D03*
X140500000Y-71000000D03*
D12*
X134900000Y-63500000D03*
X146100000Y-63500000D03*
D11*
X143000000Y-56500000D03*
X138000000Y-56500000D03*
D19*
X118775000Y-126750001D03*
X118775000Y-128250001D03*
X124225000Y-126750001D03*
D20*
X124225000Y-128250001D03*
D21*
X73150000Y-149500000D03*
X69850000Y-149500000D03*
D22*
X98690000Y-100960000D03*
D23*
X96865000Y-100960000D03*
D24*
X95140000Y-100960000D03*
X108590000Y-98420000D03*
D23*
X106840000Y-98420000D03*
D22*
X105040000Y-98420000D03*
X98690000Y-157960000D03*
D23*
X96865000Y-157960000D03*
D24*
X95140000Y-157960000D03*
X108590000Y-155420000D03*
D23*
X106840000Y-155420000D03*
D22*
X105040000Y-155420000D03*
D19*
X80775000Y-126750001D03*
X80775000Y-128250001D03*
X86225000Y-126750001D03*
D20*
X86225000Y-128250001D03*
D21*
X149150000Y-149500000D03*
X145850000Y-149500000D03*
D25*
X96350000Y-53500000D03*
X99650000Y-53500000D03*
D19*
X61775000Y-126750001D03*
X61775000Y-128250001D03*
X67225000Y-126750001D03*
D20*
X67225000Y-128250001D03*
D22*
X136690000Y-81960000D03*
D23*
X134865000Y-81960000D03*
D24*
X133140000Y-81960000D03*
X146590000Y-79420000D03*
D23*
X144840000Y-79420000D03*
D22*
X143040000Y-79420000D03*
D21*
X91800000Y-149500000D03*
X88500000Y-149500000D03*
D22*
X136690000Y-138960000D03*
D23*
X134865000Y-138960000D03*
D24*
X133140000Y-138960000D03*
X146590000Y-136420000D03*
D23*
X144840000Y-136420000D03*
D22*
X143040000Y-136420000D03*
D19*
X99775000Y-145750001D03*
X99775000Y-147250001D03*
X105225000Y-145750001D03*
D20*
X105225000Y-147250001D03*
D22*
X79690000Y-100960000D03*
D23*
X77865000Y-100960000D03*
D24*
X76140000Y-100960000D03*
X89590000Y-98420000D03*
D23*
X87840000Y-98420000D03*
D22*
X86040000Y-98420000D03*
D21*
X111300000Y-149500000D03*
X108000000Y-149500000D03*
D22*
X136690000Y-157960000D03*
D23*
X134865000Y-157960000D03*
D24*
X133140000Y-157960000D03*
X146590000Y-155420000D03*
D23*
X144840000Y-155420000D03*
D22*
X143040000Y-155420000D03*
D21*
X130150000Y-92500000D03*
X126850000Y-92500000D03*
D22*
X117690000Y-100960000D03*
D23*
X115865000Y-100960000D03*
D24*
X114140000Y-100960000D03*
X127590000Y-98420000D03*
D23*
X125840000Y-98420000D03*
D22*
X124040000Y-98420000D03*
D19*
X99775000Y-107750001D03*
X99775000Y-109250001D03*
X105225000Y-107750001D03*
D20*
X105225000Y-109250001D03*
D19*
X61775000Y-164750001D03*
X61775000Y-166250001D03*
X67225000Y-164750001D03*
D20*
X67225000Y-166250001D03*
D22*
X79690000Y-119960000D03*
D23*
X77865000Y-119960000D03*
D24*
X76140000Y-119960000D03*
X89590000Y-117420000D03*
D23*
X87840000Y-117420000D03*
D22*
X86040000Y-117420000D03*
D19*
X118775000Y-107750001D03*
X118775000Y-109250001D03*
X124225000Y-107750001D03*
D20*
X124225000Y-109250001D03*
D26*
X149000000Y-76000000D03*
X147175000Y-76000000D03*
D19*
X137775000Y-107750001D03*
X137775000Y-109250001D03*
X143225000Y-107750001D03*
D20*
X143225000Y-109250001D03*
D21*
X73300000Y-168500000D03*
X70000000Y-168500000D03*
X130300000Y-168500000D03*
X127000000Y-168500000D03*
D19*
X61775000Y-88750001D03*
X61775000Y-90250001D03*
X67225000Y-88750001D03*
D20*
X67225000Y-90250001D03*
D21*
X92300000Y-168500000D03*
X89000000Y-168500000D03*
X111150000Y-92500000D03*
X107850000Y-92500000D03*
D19*
X61775000Y-107750001D03*
X61775000Y-109250001D03*
X67225000Y-107750001D03*
D20*
X67225000Y-109250001D03*
D21*
X130300000Y-149500000D03*
X127000000Y-149500000D03*
D19*
X80775000Y-145750001D03*
X80775000Y-147250001D03*
X86225000Y-145750001D03*
D20*
X86225000Y-147250001D03*
D21*
X149150000Y-130500000D03*
X145850000Y-130500000D03*
X149150000Y-111500000D03*
X145850000Y-111500000D03*
D22*
X136690000Y-119960000D03*
D23*
X134865000Y-119960000D03*
D24*
X133140000Y-119960000D03*
X146590000Y-117420000D03*
D23*
X144840000Y-117420000D03*
D22*
X143040000Y-117420000D03*
X79690000Y-138960000D03*
D23*
X77865000Y-138960000D03*
D24*
X76140000Y-138960000D03*
X89590000Y-136420000D03*
D23*
X87840000Y-136420000D03*
D22*
X86040000Y-136420000D03*
D19*
X80775000Y-88750001D03*
X80775000Y-90250001D03*
X86225000Y-88750001D03*
D20*
X86225000Y-90250001D03*
D19*
X99775000Y-164750001D03*
X99775000Y-166250001D03*
X105225000Y-164750001D03*
D20*
X105225000Y-166250001D03*
D22*
X117690000Y-81960000D03*
D23*
X115865000Y-81960000D03*
D24*
X114140000Y-81960000D03*
X127590000Y-79420000D03*
D23*
X125840000Y-79420000D03*
D22*
X124040000Y-79420000D03*
X60690000Y-81960000D03*
D23*
X58865000Y-81960000D03*
D24*
X57140000Y-81960000D03*
X70590000Y-79420000D03*
D23*
X68840000Y-79420000D03*
D22*
X67040000Y-79420000D03*
D19*
X118775000Y-88750001D03*
X118775000Y-90250001D03*
X124225000Y-88750001D03*
D20*
X124225000Y-90250001D03*
D21*
X92000000Y-130500000D03*
X88700000Y-130500000D03*
D22*
X79690000Y-157960000D03*
D23*
X77865000Y-157960000D03*
D24*
X76140000Y-157960000D03*
X89590000Y-155420000D03*
D23*
X87840000Y-155420000D03*
D22*
X86040000Y-155420000D03*
D25*
X115350000Y-53500000D03*
X118650000Y-53500000D03*
D22*
X60690000Y-157960000D03*
D23*
X58865000Y-157960000D03*
D24*
X57140000Y-157960000D03*
X70590000Y-155420000D03*
D23*
X68840000Y-155420000D03*
D22*
X67040000Y-155420000D03*
D21*
X149150000Y-92500000D03*
X145850000Y-92500000D03*
X111150000Y-111500000D03*
X107850000Y-111500000D03*
X149150000Y-168500000D03*
X145850000Y-168500000D03*
D19*
X99775000Y-126750001D03*
X99775000Y-128250001D03*
X105225000Y-126750001D03*
D20*
X105225000Y-128250001D03*
D19*
X61775000Y-145750001D03*
X61775000Y-147250001D03*
X67225000Y-145750001D03*
D20*
X67225000Y-147250001D03*
D22*
X117690000Y-119960000D03*
D23*
X115865000Y-119960000D03*
D24*
X114140000Y-119960000D03*
X127590000Y-117420000D03*
D23*
X125840000Y-117420000D03*
D22*
X124040000Y-117420000D03*
D19*
X118775000Y-164750001D03*
X118775000Y-166250001D03*
X124225000Y-164750001D03*
D20*
X124225000Y-166250001D03*
D22*
X60690000Y-138960000D03*
D23*
X58865000Y-138960000D03*
D24*
X57140000Y-138960000D03*
X70590000Y-136420000D03*
D23*
X68840000Y-136420000D03*
D22*
X67040000Y-136420000D03*
X98690000Y-81960000D03*
D23*
X96865000Y-81960000D03*
D24*
X95140000Y-81960000D03*
X108590000Y-79420000D03*
D23*
X106840000Y-79420000D03*
D22*
X105040000Y-79420000D03*
D21*
X92150000Y-92500000D03*
X88850000Y-92500000D03*
X92300000Y-111500000D03*
X89000000Y-111500000D03*
D22*
X117690000Y-157960000D03*
D23*
X115865000Y-157960000D03*
D24*
X114140000Y-157960000D03*
X127590000Y-155420000D03*
D23*
X125840000Y-155420000D03*
D22*
X124040000Y-155420000D03*
D19*
X80775000Y-107750001D03*
X80775000Y-109250001D03*
X86225000Y-107750001D03*
D20*
X86225000Y-109250001D03*
D21*
X130150000Y-111500000D03*
X126850000Y-111500000D03*
D22*
X136690000Y-100960000D03*
D23*
X134865000Y-100960000D03*
D24*
X133140000Y-100960000D03*
X146590000Y-98420000D03*
D23*
X144840000Y-98420000D03*
D22*
X143040000Y-98420000D03*
X98690000Y-138960000D03*
D23*
X96865000Y-138960000D03*
D24*
X95140000Y-138960000D03*
X108590000Y-136420000D03*
D23*
X106840000Y-136420000D03*
D22*
X105040000Y-136420000D03*
D19*
X80775000Y-164750001D03*
X80775000Y-166250001D03*
X86225000Y-164750001D03*
D20*
X86225000Y-166250001D03*
D19*
X137775000Y-88750001D03*
X137775000Y-90250001D03*
X143225000Y-88750001D03*
D20*
X143225000Y-90250001D03*
D19*
X99775000Y-88750001D03*
X99775000Y-90250001D03*
X105225000Y-88750001D03*
D20*
X105225000Y-90250001D03*
D21*
X111300000Y-130500000D03*
X108000000Y-130500000D03*
D22*
X98690000Y-119960000D03*
D23*
X96865000Y-119960000D03*
D24*
X95140000Y-119960000D03*
X108590000Y-117420000D03*
D23*
X106840000Y-117420000D03*
D22*
X105040000Y-117420000D03*
D19*
X137775000Y-145750001D03*
X137775000Y-147250001D03*
X143225000Y-145750001D03*
D20*
X143225000Y-147250001D03*
D25*
X134700000Y-53500000D03*
X138000000Y-53500000D03*
D22*
X60690000Y-100960000D03*
D23*
X58865000Y-100960000D03*
D24*
X57140000Y-100960000D03*
X70590000Y-98420000D03*
D23*
X68840000Y-98420000D03*
D22*
X67040000Y-98420000D03*
D27*
X61550000Y-53000000D03*
X60000000Y-53000000D03*
D19*
X137775000Y-126750001D03*
X137775000Y-128250001D03*
X143225000Y-126750001D03*
D20*
X143225000Y-128250001D03*
D19*
X137775000Y-164750001D03*
X137775000Y-166250001D03*
X143225000Y-164750001D03*
D20*
X143225000Y-166250001D03*
D22*
X79690000Y-81960000D03*
D23*
X77865000Y-81960000D03*
D24*
X76140000Y-81960000D03*
X89590000Y-79420000D03*
D23*
X87840000Y-79420000D03*
D22*
X86040000Y-79420000D03*
D21*
X130300000Y-130500000D03*
X127000000Y-130500000D03*
X73150000Y-130500000D03*
X69850000Y-130500000D03*
X73300000Y-111500000D03*
X70000000Y-111500000D03*
X111300000Y-168500000D03*
X108000000Y-168500000D03*
D22*
X60690000Y-119960000D03*
D23*
X58865000Y-119960000D03*
D24*
X57140000Y-119960000D03*
X70590000Y-117420000D03*
D23*
X68840000Y-117420000D03*
D22*
X67040000Y-117420000D03*
D19*
X118775000Y-145750001D03*
X118775000Y-147250001D03*
X124225000Y-145750001D03*
D20*
X124225000Y-147250001D03*
D21*
X73300000Y-92500000D03*
X70000000Y-92500000D03*
D22*
X117690000Y-138960000D03*
D23*
X115865000Y-138960000D03*
D24*
X114140000Y-138960000D03*
X127590000Y-136420000D03*
D23*
X125840000Y-136420000D03*
D22*
X124040000Y-136420000D03*
D28*
X81000000Y-149500000D03*
X67424265Y-63424265D03*
X54400000Y-61000000D03*
X95740000Y-90500000D03*
X128406000Y-166000000D03*
X76740000Y-90500000D03*
X149000000Y-51500000D03*
X112400000Y-68500000D03*
X58000000Y-166000000D03*
X50900000Y-110000000D03*
X71406000Y-90500000D03*
X90925735Y-62000000D03*
X57000000Y-68500000D03*
X108206000Y-90500000D03*
X50900000Y-128500000D03*
X113540000Y-90500000D03*
X95674265Y-65825735D03*
X57740000Y-147500000D03*
X81500000Y-168500000D03*
X61050000Y-59000000D03*
X50900000Y-147500000D03*
X113600000Y-68500000D03*
X137500000Y-111000000D03*
X61500000Y-149500000D03*
X119000000Y-149500000D03*
X80500000Y-111500000D03*
X57740000Y-128500000D03*
X119000000Y-168000000D03*
X94500000Y-90500000D03*
X99500000Y-111500000D03*
X90406000Y-90500000D03*
X137500000Y-149500000D03*
X132540000Y-90000000D03*
X59000000Y-73900000D03*
X99500000Y-130500000D03*
X67500000Y-168500000D03*
X118500000Y-111500000D03*
X133740000Y-90000000D03*
X127206000Y-90000000D03*
X71406000Y-166500000D03*
X109500000Y-90500000D03*
X100000000Y-149500000D03*
X62000000Y-130500000D03*
X50900000Y-90500000D03*
X62000000Y-111500000D03*
X57740000Y-109500000D03*
X62250000Y-59000000D03*
X70206000Y-90500000D03*
X132600000Y-68500000D03*
X131400000Y-68500000D03*
X116000000Y-166000000D03*
X128406000Y-90000000D03*
X119000000Y-130500000D03*
X114740000Y-90500000D03*
X50900000Y-166000000D03*
X75540000Y-90500000D03*
X80500000Y-130500000D03*
X137500000Y-130500000D03*
X100000000Y-168500000D03*
X58500000Y-59000000D03*
X89000000Y-90500000D03*
X57740000Y-90500000D03*
X97500000Y-166000000D03*
X69155345Y-62600000D03*
X127206000Y-109000000D03*
X68825735Y-90825735D03*
X105000000Y-92000000D03*
X127174265Y-167174265D03*
X107000000Y-147500000D03*
X76740000Y-147500000D03*
X146206000Y-108500000D03*
X114740000Y-148000000D03*
X133740000Y-129500000D03*
X70206000Y-109000000D03*
X146206000Y-87848527D03*
X143000000Y-168000000D03*
X133740000Y-148500000D03*
X86000000Y-110900000D03*
X143000000Y-91500000D03*
X61500000Y-51500000D03*
X146206000Y-146500000D03*
X69500000Y-147000000D03*
X136500000Y-110900000D03*
X86500000Y-169100000D03*
X126075735Y-90575735D03*
X95740000Y-129000000D03*
X85500000Y-92000000D03*
X82737246Y-167820862D03*
X108206000Y-109500000D03*
X88500000Y-147000000D03*
X76740000Y-128500000D03*
X95740000Y-147000000D03*
X87825735Y-90825735D03*
X149500000Y-167000000D03*
X126500000Y-147000000D03*
X124000000Y-110900000D03*
X150500000Y-167000000D03*
X88000000Y-128500000D03*
X146206000Y-127500000D03*
X68500000Y-166500000D03*
X124325735Y-92325735D03*
X107500000Y-128000000D03*
X107075735Y-90575735D03*
X126500000Y-128000000D03*
X108124265Y-167224265D03*
X109500000Y-167000000D03*
X69000000Y-128000000D03*
X89206000Y-109000000D03*
X105000000Y-110900000D03*
X115000000Y-128500000D03*
X105000000Y-168400000D03*
X59710000Y-69500000D03*
X67330000Y-68500000D03*
X56500000Y-69500000D03*
X64000000Y-65000000D03*
X67330000Y-64500000D03*
X57740000Y-94000000D03*
X94000000Y-53500000D03*
X114740000Y-94000000D03*
X132540000Y-94000000D03*
X113540000Y-94000000D03*
X94540000Y-94000000D03*
X94000000Y-71000000D03*
X69270000Y-73730000D03*
X75540000Y-94000000D03*
X54500000Y-94000000D03*
X76740000Y-94000000D03*
X133740000Y-94000000D03*
X95740000Y-94000000D03*
X54500000Y-74500000D03*
X113000000Y-71000000D03*
X133740000Y-113000000D03*
X114740000Y-113000000D03*
X113000000Y-53500000D03*
X95740000Y-113000000D03*
X94540000Y-113000000D03*
X57740000Y-113000000D03*
X53900000Y-75065687D03*
X132540000Y-113000000D03*
X76740000Y-113000000D03*
X75540000Y-113000000D03*
X71125000Y-74375000D03*
X54000000Y-113000000D03*
X113540000Y-113000000D03*
X132500000Y-132000000D03*
X94500000Y-132000000D03*
X76740000Y-132000000D03*
X73250000Y-74750000D03*
X57740000Y-132000000D03*
X133740000Y-132000000D03*
X132000000Y-70500000D03*
X132000000Y-53500000D03*
X114740000Y-132000000D03*
X95740000Y-132000000D03*
X113540000Y-132000000D03*
X75500000Y-132000000D03*
X53500000Y-132000000D03*
X53300000Y-75654142D03*
X52500000Y-151000000D03*
X113540000Y-151000000D03*
X75540000Y-151000000D03*
X132540000Y-151000000D03*
X57740000Y-151000000D03*
X52700000Y-76500000D03*
X76740000Y-151000000D03*
X94500000Y-151000000D03*
X133740000Y-151000000D03*
X114740000Y-151000000D03*
X95740000Y-151000000D03*
X52000000Y-77000000D03*
X52000000Y-170000000D03*
X57500000Y-170000000D03*
X94600000Y-65500000D03*
X93199997Y-53500000D03*
X86500000Y-66000000D03*
X89000000Y-68857300D03*
X89000000Y-54100000D03*
X90325735Y-71674265D03*
X89600000Y-55000000D03*
X63658287Y-63006814D03*
X64299265Y-61950735D03*
X127000000Y-88500000D03*
X129000000Y-88500000D03*
X132540000Y-88500000D03*
X133740000Y-88500000D03*
X139500000Y-94600000D03*
X145000000Y-127000000D03*
X147406000Y-86500000D03*
X140000000Y-151600000D03*
X145500000Y-145500000D03*
X146206000Y-87000000D03*
X145000000Y-108000000D03*
X139500000Y-132600000D03*
X139000000Y-113600000D03*
X133740000Y-107500000D03*
X127206000Y-107500000D03*
X127206000Y-126500000D03*
X136500000Y-126500000D03*
X133740000Y-145500000D03*
X127206000Y-145500000D03*
X127206000Y-164500000D03*
X135000000Y-164500000D03*
X108206000Y-88750001D03*
X114740000Y-88500000D03*
X108206000Y-107500000D03*
X114740000Y-107500000D03*
X117500000Y-126500000D03*
X108206000Y-126500000D03*
X114740000Y-145500000D03*
X108206000Y-145500000D03*
X108206000Y-165000000D03*
X116000000Y-164500000D03*
X89206000Y-88500000D03*
X95740000Y-88500000D03*
X95740000Y-107500000D03*
X89206000Y-107500000D03*
X98000000Y-126500000D03*
X89206000Y-126500000D03*
X95740000Y-145500000D03*
X89206000Y-145500000D03*
X89206000Y-164500000D03*
X97500000Y-164500000D03*
X75540000Y-89000000D03*
X70206000Y-89000000D03*
X76740000Y-89000000D03*
X71406000Y-89000000D03*
X70206000Y-107500000D03*
X76740000Y-107500000D03*
X70000000Y-126500000D03*
X79000000Y-126500000D03*
X76740000Y-145500000D03*
X70206000Y-145500000D03*
X70206000Y-164500000D03*
X78500000Y-164500000D03*
X93207815Y-70792185D03*
X94500000Y-71701000D03*
X112448528Y-72400000D03*
X110500000Y-72400000D03*
X122448527Y-73400000D03*
X61000000Y-70100000D03*
X129948528Y-73400000D03*
X128500000Y-76500000D03*
X127206000Y-82000000D03*
X127500000Y-75533000D03*
X129340396Y-77188925D03*
X92771494Y-75132000D03*
X54000000Y-58500000D03*
D29*
X75540000Y-90500000D02*
X71406000Y-90500000D01*
X50900000Y-166000000D02*
X50900000Y-147500000D01*
X116250001Y-166250001D02*
X116000000Y-166000000D01*
X66000000Y-51500000D02*
X63000000Y-54500000D01*
X149000000Y-51500000D02*
X111500000Y-51500000D01*
X137775000Y-128250001D02*
X137775000Y-130225000D01*
X67500000Y-168500000D02*
X63000000Y-168500000D01*
X99775000Y-168275000D02*
X99775000Y-166250001D01*
X80775000Y-167775000D02*
X80775000Y-166250001D01*
X80775000Y-109250001D02*
X80775000Y-111225000D01*
X80775000Y-147250001D02*
X80775000Y-149275000D01*
X137775000Y-90250001D02*
X133990001Y-90250001D01*
X133990001Y-90250001D02*
X133740000Y-90000000D01*
X80775000Y-90250001D02*
X80525001Y-90500000D01*
X55500000Y-53000000D02*
X52000000Y-56500000D01*
X61775000Y-130275000D02*
X61775000Y-128250001D01*
X80775000Y-111225000D02*
X80500000Y-111500000D01*
X127206000Y-90000000D02*
X127206000Y-90294000D01*
X119000000Y-129500000D02*
X118775000Y-129275000D01*
X95674265Y-65825735D02*
X95000000Y-66500000D01*
X118775000Y-166250001D02*
X116250001Y-166250001D01*
X105500000Y-93000000D02*
X101500000Y-93000000D01*
X80775000Y-149275000D02*
X81000000Y-149500000D01*
X59110000Y-69000000D02*
X59110000Y-72160000D01*
X61775000Y-149225000D02*
X61500000Y-149500000D01*
X113540000Y-90500000D02*
X109500000Y-90500000D01*
X81500000Y-168500000D02*
X80775000Y-167775000D01*
X64000000Y-63500000D02*
X59110000Y-68390000D01*
X50900000Y-128500000D02*
X50900000Y-110000000D01*
X54102000Y-73900000D02*
X59000000Y-73900000D01*
X99500000Y-130500000D02*
X99775000Y-130225000D01*
X111500000Y-51500000D02*
X66000000Y-51500000D01*
X101500000Y-93000000D02*
X99775000Y-91275000D01*
X118775000Y-90250001D02*
X114989999Y-90250001D01*
X132600000Y-68500000D02*
X131400000Y-68500000D01*
X61775000Y-128250001D02*
X57989999Y-128250001D01*
X127206000Y-90294000D02*
X124500000Y-93000000D01*
X52000000Y-58600000D02*
X54400000Y-61000000D01*
X94500000Y-90500000D02*
X90406000Y-90500000D01*
X132540000Y-90000000D02*
X128207000Y-90000000D01*
X100000000Y-168500000D02*
X99775000Y-168275000D01*
X120000000Y-93000000D02*
X118775000Y-91775000D01*
X63000000Y-93500000D02*
X61775000Y-92275000D01*
X57000000Y-68500000D02*
X58610000Y-68500000D01*
X57989999Y-109250001D02*
X57740000Y-109500000D01*
X118775000Y-149275000D02*
X118775000Y-147250001D01*
X61775000Y-92275000D02*
X61775000Y-90250001D01*
X61775000Y-111275000D02*
X62000000Y-111500000D01*
X99775000Y-149275000D02*
X99775000Y-147250001D01*
X61775000Y-109250001D02*
X61775000Y-111275000D01*
X82000000Y-93000000D02*
X80775000Y-91775000D01*
X124500000Y-93000000D02*
X120000000Y-93000000D01*
X113600000Y-68500000D02*
X112400000Y-68500000D01*
X63000000Y-54500000D02*
X63000000Y-58250000D01*
X97750001Y-166250001D02*
X97500000Y-166000000D01*
X118775000Y-109250001D02*
X118775000Y-111225000D01*
X99775000Y-130225000D02*
X99775000Y-128250001D01*
X99525001Y-90500000D02*
X95740000Y-90500000D01*
X108206000Y-90500000D02*
X108000000Y-90500000D01*
X59110000Y-68390000D02*
X59110000Y-69000000D01*
X80525001Y-90500000D02*
X76740000Y-90500000D01*
X118775000Y-91775000D02*
X118775000Y-90250001D01*
X99775000Y-90250001D02*
X99525001Y-90500000D01*
X95000000Y-66500000D02*
X93000000Y-66500000D01*
X67348530Y-63500000D02*
X64000000Y-63500000D01*
X137775000Y-149225000D02*
X137775000Y-147250001D01*
X61775000Y-90250001D02*
X57989999Y-90250001D01*
X63000000Y-168500000D02*
X61775000Y-167275000D01*
X137500000Y-149500000D02*
X137775000Y-149225000D01*
X80500000Y-130500000D02*
X80500000Y-129500000D01*
X61524999Y-166000000D02*
X58000000Y-166000000D01*
X61775000Y-167275000D02*
X61775000Y-166250001D01*
X50900000Y-90500000D02*
X50900000Y-77102000D01*
X61775000Y-109250001D02*
X57989999Y-109250001D01*
X86500000Y-93000000D02*
X82000000Y-93000000D01*
X61775000Y-147250001D02*
X61775000Y-149225000D01*
X99775000Y-91275000D02*
X99775000Y-90250001D01*
X57989999Y-128250001D02*
X57740000Y-128500000D01*
X137500000Y-111000000D02*
X137500000Y-109525001D01*
X90925735Y-64425735D02*
X90925735Y-62000000D01*
X61775000Y-166250001D02*
X61524999Y-166000000D01*
X137500000Y-109525001D02*
X137775000Y-109250001D01*
X80500000Y-129500000D02*
X80775000Y-129225000D01*
X128656001Y-166250001D02*
X128406000Y-166000000D01*
X70000000Y-90500000D02*
X67000000Y-93500000D01*
X114989999Y-90250001D02*
X114740000Y-90500000D01*
X50900000Y-110000000D02*
X50900000Y-90500000D01*
X119000000Y-149500000D02*
X118775000Y-149275000D01*
X70206000Y-90500000D02*
X70000000Y-90500000D01*
X80775000Y-166250001D02*
X71655999Y-166250001D01*
X57989999Y-90250001D02*
X57740000Y-90500000D01*
X58610000Y-68500000D02*
X59110000Y-69000000D01*
X118775000Y-111225000D02*
X118500000Y-111500000D01*
X63000000Y-58250000D02*
X62250000Y-59000000D01*
X118775000Y-129275000D02*
X118775000Y-128250001D01*
X67424265Y-63424265D02*
X67348530Y-63500000D01*
X57989999Y-147250001D02*
X57740000Y-147500000D01*
X60000000Y-53000000D02*
X55500000Y-53000000D01*
X50900000Y-77102000D02*
X54102000Y-73900000D01*
X128207000Y-90000000D02*
X128406000Y-90000000D01*
X99775000Y-109250001D02*
X99775000Y-111225000D01*
X50900000Y-147500000D02*
X50900000Y-128500000D01*
X89000000Y-90500000D02*
X86500000Y-93000000D01*
X71655999Y-166250001D02*
X71406000Y-166500000D01*
X99775000Y-166250001D02*
X97750001Y-166250001D01*
X52000000Y-56500000D02*
X52000000Y-58600000D01*
X108000000Y-90500000D02*
X105500000Y-93000000D01*
X119000000Y-166475001D02*
X118775000Y-166250001D01*
X119000000Y-168000000D02*
X119000000Y-166475001D01*
X99775000Y-111225000D02*
X99500000Y-111500000D01*
X100000000Y-149500000D02*
X99775000Y-149275000D01*
X80775000Y-91775000D02*
X80775000Y-90250001D01*
X61775000Y-147250001D02*
X57989999Y-147250001D01*
X137775000Y-166250001D02*
X128656001Y-166250001D01*
X93000000Y-66500000D02*
X90925735Y-64425735D01*
X58500000Y-59000000D02*
X61050000Y-59000000D01*
X67000000Y-93500000D02*
X63000000Y-93500000D01*
X119000000Y-130500000D02*
X119000000Y-129500000D01*
X137775000Y-130225000D02*
X137500000Y-130500000D01*
X62000000Y-130500000D02*
X61775000Y-130275000D01*
X80775000Y-129225000D02*
X80775000Y-128250001D01*
X136500000Y-110900000D02*
X137600000Y-112000000D01*
X61650000Y-60150000D02*
X61650000Y-56920000D01*
X135101000Y-131101000D02*
X134000000Y-130000000D01*
X143000000Y-149000000D02*
X141899000Y-150101000D01*
X78000000Y-150000000D02*
X76740000Y-148740000D01*
X107000000Y-147500000D02*
X105474999Y-147500000D01*
X79601000Y-131101000D02*
X79500000Y-131000000D01*
X68250001Y-90250001D02*
X68825735Y-90825735D01*
X141899000Y-131101000D02*
X135101000Y-131101000D01*
X117101000Y-168601000D02*
X117000000Y-168500000D01*
X87250001Y-90250001D02*
X87825735Y-90825735D01*
X106749999Y-128250001D02*
X105225000Y-128250001D01*
X105225000Y-129775000D02*
X105000000Y-130000000D01*
X145455999Y-147250001D02*
X146206000Y-146500000D01*
X96000000Y-150000000D02*
X95740000Y-149740000D01*
X126500000Y-147000000D02*
X126249999Y-147250001D01*
X86225000Y-166250001D02*
X86225000Y-167275000D01*
X134000000Y-130000000D02*
X133740000Y-129740000D01*
X69000000Y-128000000D02*
X67475001Y-128000000D01*
X107956001Y-109250001D02*
X108206000Y-109500000D01*
X105474999Y-147500000D02*
X105225000Y-147250001D01*
X67225000Y-90250001D02*
X68250001Y-90250001D01*
X126955999Y-109250001D02*
X127206000Y-109000000D01*
X86225000Y-129775000D02*
X86000000Y-130000000D01*
X143000000Y-147475001D02*
X143000000Y-149000000D01*
X106750001Y-90250001D02*
X107075735Y-90575735D01*
X114740000Y-149240000D02*
X114740000Y-148000000D01*
X143225000Y-129775000D02*
X143000000Y-130000000D01*
X87500000Y-147000000D02*
X87249999Y-147250001D01*
X125750001Y-90250001D02*
X126075735Y-90575735D01*
X85500000Y-92000000D02*
X86225000Y-91275000D01*
X105225000Y-168175000D02*
X105000000Y-168400000D01*
X124225000Y-92225000D02*
X124225000Y-90250001D01*
X143225000Y-147250001D02*
X143000000Y-147475001D01*
X117000000Y-168500000D02*
X115500000Y-167000000D01*
X95740000Y-149740000D02*
X95740000Y-147000000D01*
X115500000Y-167000000D02*
X109500000Y-167000000D01*
X107000000Y-128000000D02*
X106749999Y-128250001D01*
X145455999Y-109250001D02*
X146206000Y-108500000D01*
X143225000Y-167775000D02*
X143000000Y-168000000D01*
X105225000Y-109250001D02*
X107956001Y-109250001D01*
X149500000Y-167000000D02*
X150500000Y-167000000D01*
X125249999Y-128250001D02*
X124225000Y-128250001D01*
X67225000Y-109250001D02*
X69955999Y-109250001D01*
X120500000Y-150500000D02*
X116000000Y-150500000D01*
X124000000Y-110900000D02*
X124000000Y-109475001D01*
X105000000Y-92000000D02*
X105000000Y-90475001D01*
X145455999Y-128250001D02*
X146206000Y-127500000D01*
X116000000Y-150500000D02*
X114740000Y-149240000D01*
X88955999Y-109250001D02*
X89206000Y-109000000D01*
X105000000Y-130000000D02*
X103899000Y-131101000D01*
X79240000Y-131000000D02*
X76740000Y-128500000D01*
X61500000Y-51500000D02*
X61500000Y-52950000D01*
X124225000Y-128250001D02*
X124225000Y-129275000D01*
X86225000Y-147250001D02*
X86225000Y-147775000D01*
X144249999Y-90250001D02*
X146206000Y-88294000D01*
X107500000Y-128000000D02*
X107000000Y-128000000D01*
X143225000Y-128250001D02*
X145455999Y-128250001D01*
X86225000Y-168825000D02*
X86225000Y-166250001D01*
X124225000Y-109250001D02*
X126955999Y-109250001D01*
X133740000Y-129740000D02*
X133740000Y-129500000D01*
X123399000Y-168601000D02*
X117101000Y-168601000D01*
X124225000Y-147250001D02*
X124000000Y-147475001D01*
X105225000Y-147250001D02*
X105225000Y-147775000D01*
X83899000Y-150101000D02*
X78101000Y-150101000D01*
X86225000Y-91275000D02*
X86225000Y-90250001D01*
X120000000Y-131500000D02*
X118000000Y-131500000D01*
X61550000Y-53000000D02*
X61550000Y-56820000D01*
X86000000Y-130000000D02*
X84899000Y-131101000D01*
X135341000Y-150101000D02*
X133740000Y-148500000D01*
X98101000Y-131101000D02*
X98000000Y-131000000D01*
X86225000Y-147775000D02*
X85000000Y-149000000D01*
X61550000Y-56820000D02*
X61650000Y-56920000D01*
X143225000Y-128250001D02*
X143225000Y-129775000D01*
X84899000Y-131101000D02*
X79601000Y-131101000D01*
X67475001Y-128000000D02*
X67225000Y-128250001D01*
X64100000Y-62600000D02*
X61650000Y-60150000D01*
X69155345Y-62600000D02*
X64100000Y-62600000D01*
X82916384Y-168000000D02*
X82737246Y-167820862D01*
X124225000Y-129275000D02*
X123500000Y-130000000D01*
X143225000Y-147250001D02*
X145455999Y-147250001D01*
X124325735Y-92325735D02*
X124225000Y-92225000D01*
X79500000Y-131000000D02*
X79240000Y-131000000D01*
X105225000Y-166250001D02*
X105225000Y-168175000D01*
X86225000Y-167275000D02*
X85500000Y-168000000D01*
X118000000Y-131500000D02*
X115000000Y-128500000D01*
X124225000Y-166250001D02*
X124225000Y-167775000D01*
X102899000Y-150101000D02*
X96101000Y-150101000D01*
X143000000Y-90475001D02*
X143225000Y-90250001D01*
X69955999Y-109250001D02*
X70206000Y-109000000D01*
X88000000Y-128500000D02*
X86474999Y-128500000D01*
X143225000Y-109250001D02*
X145455999Y-109250001D01*
X103899000Y-131101000D02*
X98101000Y-131101000D01*
X108124265Y-167224265D02*
X107150001Y-166250001D01*
X85500000Y-168000000D02*
X82916384Y-168000000D01*
X78101000Y-150101000D02*
X78000000Y-150000000D01*
X86000000Y-109475001D02*
X86225000Y-109250001D01*
X98000000Y-131000000D02*
X96000000Y-129000000D01*
X107150001Y-166250001D02*
X105225000Y-166250001D01*
X123500000Y-130000000D02*
X122000000Y-131500000D01*
X86500000Y-169100000D02*
X86225000Y-168825000D01*
X103000000Y-150000000D02*
X102899000Y-150101000D01*
X61500000Y-52950000D02*
X61550000Y-53000000D01*
X69249999Y-147250001D02*
X67225000Y-147250001D01*
X105225000Y-147775000D02*
X103000000Y-150000000D01*
X125500000Y-128000000D02*
X125249999Y-128250001D01*
X105000000Y-110900000D02*
X105000000Y-109475001D01*
X105000000Y-90475001D02*
X105225000Y-90250001D01*
X96000000Y-129000000D02*
X95740000Y-129000000D01*
X141899000Y-150101000D02*
X135341000Y-150101000D01*
X124225000Y-167775000D02*
X124000000Y-168000000D01*
X68500000Y-166500000D02*
X67474999Y-166500000D01*
X143000000Y-130000000D02*
X141899000Y-131101000D01*
X124000000Y-147475001D02*
X124000000Y-149500000D01*
X86225000Y-109250001D02*
X88955999Y-109250001D01*
X85000000Y-149000000D02*
X83899000Y-150101000D01*
X126500000Y-128000000D02*
X125500000Y-128000000D01*
X86474999Y-128500000D02*
X86225000Y-128250001D01*
X123000000Y-150500000D02*
X120500000Y-150500000D01*
X86000000Y-110900000D02*
X86000000Y-109475001D01*
X105225000Y-90250001D02*
X106750001Y-90250001D01*
X141500000Y-112000000D02*
X143225000Y-110275000D01*
X69500000Y-147000000D02*
X69249999Y-147250001D01*
X143225000Y-166250001D02*
X143225000Y-167775000D01*
X87249999Y-147250001D02*
X86225000Y-147250001D01*
X96101000Y-150101000D02*
X96000000Y-150000000D01*
X88500000Y-147000000D02*
X87500000Y-147000000D01*
X105000000Y-109475001D02*
X105225000Y-109250001D01*
X143225000Y-90250001D02*
X144249999Y-90250001D01*
X126249999Y-147250001D02*
X124225000Y-147250001D01*
X137600000Y-112000000D02*
X141500000Y-112000000D01*
X86225000Y-90250001D02*
X87250001Y-90250001D01*
X76740000Y-148740000D02*
X76740000Y-147500000D01*
X127174265Y-167174265D02*
X126250001Y-166250001D01*
X124000000Y-168000000D02*
X123399000Y-168601000D01*
X105225000Y-128250001D02*
X105225000Y-129775000D01*
X126250001Y-166250001D02*
X124225000Y-166250001D01*
X124225000Y-90250001D02*
X125750001Y-90250001D01*
X146206000Y-88294000D02*
X146206000Y-87848527D01*
X143225000Y-110275000D02*
X143225000Y-109250001D01*
X124000000Y-109475001D02*
X124225000Y-109250001D01*
X124000000Y-149500000D02*
X123000000Y-150500000D01*
X143000000Y-91500000D02*
X143000000Y-90475001D01*
X86225000Y-128250001D02*
X86225000Y-129775000D01*
X122000000Y-131500000D02*
X120000000Y-131500000D01*
X67474999Y-166500000D02*
X67225000Y-166250001D01*
X56500000Y-69500000D02*
X56570000Y-69570000D01*
X67330000Y-68500000D02*
X66330000Y-69500000D01*
X56570000Y-69570000D02*
X56570000Y-72160000D01*
X66330000Y-69500000D02*
X59710000Y-69500000D01*
X67330000Y-64500000D02*
X64500000Y-64500000D01*
X64500000Y-64500000D02*
X64000000Y-65000000D01*
X130150000Y-92500000D02*
X130150000Y-93150000D01*
X73300000Y-92500000D02*
X73300000Y-93200000D01*
X149150000Y-93350000D02*
X149150000Y-92500000D01*
X148500000Y-94000000D02*
X149150000Y-93350000D01*
X76740000Y-94000000D02*
X91500000Y-94000000D01*
X130150000Y-93150000D02*
X131000000Y-94000000D01*
X92150000Y-92500000D02*
X92150000Y-93350000D01*
X91500000Y-94000000D02*
X94540000Y-94000000D01*
X74000000Y-94000000D02*
X75540000Y-94000000D01*
X72500000Y-94000000D02*
X57740000Y-94000000D01*
X73300000Y-93300000D02*
X74000000Y-94000000D01*
X95740000Y-94000000D02*
X110500000Y-94000000D01*
X133740000Y-94000000D02*
X148500000Y-94000000D01*
X96350000Y-53500000D02*
X94000000Y-53500000D01*
X54500000Y-94000000D02*
X54500000Y-74500000D01*
X111150000Y-92500000D02*
X111150000Y-93350000D01*
X92150000Y-93350000D02*
X91500000Y-94000000D01*
X110500000Y-94000000D02*
X113540000Y-94000000D01*
X91270000Y-73730000D02*
X69270000Y-73730000D01*
X131000000Y-94000000D02*
X132540000Y-94000000D01*
X114740000Y-94000000D02*
X131000000Y-94000000D01*
X111150000Y-93350000D02*
X110500000Y-94000000D01*
X94000000Y-71000000D02*
X91270000Y-73730000D01*
X73300000Y-92500000D02*
X73300000Y-93300000D01*
X73300000Y-93200000D02*
X72500000Y-94000000D01*
X146806000Y-79636000D02*
X146806000Y-91544000D01*
X146590000Y-79420000D02*
X146806000Y-79636000D01*
X146806000Y-91544000D02*
X145850000Y-92500000D01*
X146590000Y-98420000D02*
X146806000Y-98636000D01*
X146806000Y-110544000D02*
X145850000Y-111500000D01*
X146806000Y-98636000D02*
X146806000Y-110544000D01*
X109869000Y-74131000D02*
X71369000Y-74131000D01*
X92300000Y-112200000D02*
X91500000Y-113000000D01*
X130150000Y-112650000D02*
X130150000Y-111500000D01*
X92300000Y-112300000D02*
X92300000Y-111500000D01*
X113540000Y-113000000D02*
X111500000Y-113000000D01*
X91500000Y-113000000D02*
X76740000Y-113000000D01*
X111150000Y-112350000D02*
X110500000Y-113000000D01*
X132540000Y-113000000D02*
X130500000Y-113000000D01*
X54000000Y-113000000D02*
X53900000Y-112900000D01*
X111150000Y-112650000D02*
X111150000Y-111500000D01*
X130150000Y-112350000D02*
X129500000Y-113000000D01*
X74000000Y-113000000D02*
X73300000Y-112300000D01*
X92300000Y-111500000D02*
X92300000Y-112200000D01*
X73300000Y-112200000D02*
X72500000Y-113000000D01*
X113000000Y-71000000D02*
X109869000Y-74131000D01*
X115350000Y-53500000D02*
X113000000Y-53500000D01*
X75540000Y-113000000D02*
X74000000Y-113000000D01*
X53900000Y-112900000D02*
X53900000Y-75065687D01*
X149150000Y-111500000D02*
X149150000Y-112350000D01*
X111500000Y-113000000D02*
X111150000Y-112650000D01*
X93000000Y-113000000D02*
X92300000Y-112300000D01*
X94540000Y-113000000D02*
X93000000Y-113000000D01*
X111150000Y-111500000D02*
X111150000Y-112350000D01*
X149150000Y-112350000D02*
X148500000Y-113000000D01*
X129500000Y-113000000D02*
X114740000Y-113000000D01*
X130150000Y-111500000D02*
X130150000Y-112350000D01*
X73300000Y-112300000D02*
X73300000Y-111500000D01*
X110500000Y-113000000D02*
X95740000Y-113000000D01*
X73300000Y-111500000D02*
X73300000Y-112200000D01*
X148500000Y-113000000D02*
X133740000Y-113000000D01*
X130500000Y-113000000D02*
X130150000Y-112650000D01*
X72500000Y-113000000D02*
X57740000Y-113000000D01*
X146806000Y-117636000D02*
X146806000Y-129544000D01*
X146590000Y-117420000D02*
X146806000Y-117636000D01*
X146806000Y-129544000D02*
X145850000Y-130500000D01*
X74000000Y-132000000D02*
X73150000Y-131150000D01*
X112000000Y-132000000D02*
X111300000Y-131300000D01*
X149150000Y-130500000D02*
X149150000Y-131350000D01*
X130300000Y-130500000D02*
X130300000Y-131200000D01*
X94500000Y-132000000D02*
X92500000Y-132000000D01*
X91500000Y-132000000D02*
X76740000Y-132000000D01*
X132500000Y-132000000D02*
X131000000Y-132000000D01*
X73150000Y-131350000D02*
X72500000Y-132000000D01*
X111300000Y-131200000D02*
X110500000Y-132000000D01*
X134700000Y-53500000D02*
X132000000Y-53500000D01*
X149150000Y-131350000D02*
X148500000Y-132000000D01*
X53399000Y-113000000D02*
X53300000Y-112901000D01*
X92000000Y-131500000D02*
X92000000Y-130500000D01*
X131000000Y-132000000D02*
X130300000Y-131300000D01*
X73150000Y-130500000D02*
X73150000Y-131350000D01*
X113540000Y-132000000D02*
X112000000Y-132000000D01*
X92000000Y-131500000D02*
X91500000Y-132000000D01*
X72500000Y-132000000D02*
X57740000Y-132000000D01*
X130300000Y-131200000D02*
X129500000Y-132000000D01*
X110500000Y-132000000D02*
X95740000Y-132000000D01*
X92500000Y-132000000D02*
X92000000Y-131500000D01*
X111300000Y-131300000D02*
X111300000Y-130500000D01*
X73150000Y-131150000D02*
X73150000Y-130500000D01*
X53399000Y-131899000D02*
X53399000Y-113000000D01*
X111300000Y-130500000D02*
X111300000Y-131200000D01*
X129500000Y-132000000D02*
X114740000Y-132000000D01*
X127968000Y-74532000D02*
X73468000Y-74532000D01*
X132000000Y-70500000D02*
X127968000Y-74532000D01*
X53500000Y-132000000D02*
X53399000Y-131899000D01*
X130300000Y-131300000D02*
X130300000Y-130500000D01*
X75500000Y-132000000D02*
X74000000Y-132000000D01*
X53300000Y-112901000D02*
X53300000Y-75654142D01*
X148500000Y-132000000D02*
X133740000Y-132000000D01*
X146806000Y-148544000D02*
X145850000Y-149500000D01*
X146806000Y-136636000D02*
X146806000Y-148544000D01*
X146590000Y-136420000D02*
X146806000Y-136636000D01*
X75540000Y-151000000D02*
X73500000Y-151000000D01*
X73150000Y-149500000D02*
X73150000Y-150350000D01*
X132540000Y-151000000D02*
X131000000Y-151000000D01*
X91000000Y-151000000D02*
X76740000Y-151000000D01*
X92500000Y-151000000D02*
X91800000Y-150300000D01*
X110500000Y-151000000D02*
X95740000Y-151000000D01*
X113540000Y-151000000D02*
X112000000Y-151000000D01*
X148500000Y-151000000D02*
X133740000Y-151000000D01*
X73150000Y-150650000D02*
X73150000Y-149500000D01*
X130300000Y-149500000D02*
X130300000Y-150200000D01*
X130300000Y-150300000D02*
X130300000Y-149500000D01*
X129500000Y-151000000D02*
X114740000Y-151000000D01*
X52700000Y-150800000D02*
X52700000Y-76500000D01*
X111300000Y-150200000D02*
X110500000Y-151000000D01*
X112000000Y-151000000D02*
X111300000Y-150300000D01*
X94500000Y-151000000D02*
X92500000Y-151000000D01*
X91800000Y-150300000D02*
X91800000Y-149500000D01*
X73500000Y-151000000D02*
X73150000Y-150650000D01*
X131000000Y-151000000D02*
X130300000Y-150300000D01*
X72500000Y-151000000D02*
X57740000Y-151000000D01*
X149150000Y-149500000D02*
X149150000Y-150350000D01*
X73150000Y-150350000D02*
X72500000Y-151000000D01*
X91800000Y-149500000D02*
X91800000Y-150200000D01*
X130300000Y-150200000D02*
X129500000Y-151000000D01*
X52500000Y-151000000D02*
X52700000Y-150800000D01*
X91800000Y-150200000D02*
X91000000Y-151000000D01*
X149150000Y-150350000D02*
X148500000Y-151000000D01*
X111300000Y-150300000D02*
X111300000Y-149500000D01*
X111300000Y-149500000D02*
X111300000Y-150200000D01*
X146806000Y-167544000D02*
X145850000Y-168500000D01*
X146806000Y-155636000D02*
X146806000Y-167544000D01*
X146590000Y-155420000D02*
X146806000Y-155636000D01*
X52060000Y-105097209D02*
X51500000Y-105097209D01*
X52300000Y-101857209D02*
X52300000Y-101737209D01*
X51300000Y-136197209D02*
X51300000Y-135797209D01*
X51300000Y-79797209D02*
X51300000Y-79397209D01*
X51500000Y-153697209D02*
X52260000Y-153697209D01*
X51500000Y-145897209D02*
X51400000Y-145897209D01*
X52060000Y-142297209D02*
X51500000Y-142297209D01*
X51300000Y-134997209D02*
X51300000Y-134597209D01*
X51300000Y-152997209D02*
X51300000Y-152597209D01*
X51500000Y-133897209D02*
X51400000Y-133897209D01*
X52300000Y-112657209D02*
X52300000Y-112537209D01*
X51500000Y-102097209D02*
X52060000Y-102097209D01*
X52500000Y-158257209D02*
X52500000Y-158137209D01*
X51500000Y-89497209D02*
X51400000Y-89497209D01*
X51300000Y-103797209D02*
X51300000Y-103397209D01*
X52060000Y-117097209D02*
X51500000Y-117097209D01*
X52060000Y-112297209D02*
X51500000Y-112297209D01*
X51500000Y-96097209D02*
X52060000Y-96097209D01*
X51400000Y-136897209D02*
X51500000Y-136897209D01*
X51400000Y-108097209D02*
X51500000Y-108097209D01*
X51400000Y-114097209D02*
X51500000Y-114097209D01*
X51740000Y-89497209D02*
X51500000Y-89497209D01*
X51500000Y-78337209D02*
X51500000Y-77500000D01*
X52260000Y-155497209D02*
X51500000Y-155497209D01*
X51500000Y-85297209D02*
X52060000Y-85297209D01*
X51400000Y-93697209D02*
X51500000Y-93697209D01*
X51300000Y-124197209D02*
X51300000Y-123797209D01*
X51400000Y-129697209D02*
X51500000Y-129697209D01*
X51500000Y-148057209D02*
X51500000Y-147937209D01*
X51400000Y-111697209D02*
X51500000Y-111697209D01*
X51300000Y-100197209D02*
X51300000Y-99797209D01*
X51300000Y-137397209D02*
X51300000Y-136997209D01*
X51400000Y-141697209D02*
X51500000Y-141697209D01*
X52500000Y-164257209D02*
X52500000Y-164137209D01*
X51400000Y-162097209D02*
X51500000Y-162097209D01*
X51300000Y-121797209D02*
X51300000Y-121397209D01*
X52300000Y-124657209D02*
X52300000Y-124537209D01*
X52260000Y-157897209D02*
X51500000Y-157897209D01*
X51400000Y-80497209D02*
X51500000Y-80497209D01*
X52300000Y-128257209D02*
X52300000Y-128137209D01*
X51300000Y-155397209D02*
X51300000Y-154997209D01*
X52060000Y-108697209D02*
X51740000Y-108697209D01*
X51400000Y-130897209D02*
X51500000Y-130897209D01*
X51740000Y-110497209D02*
X52060000Y-110497209D01*
X52060000Y-82297209D02*
X51500000Y-82297209D01*
X51300000Y-150597209D02*
X51300000Y-150197209D01*
X51500000Y-142897209D02*
X52060000Y-142897209D01*
X51500000Y-114697209D02*
X51400000Y-114697209D01*
X51500000Y-121297209D02*
X52060000Y-121297209D01*
X52060000Y-100297209D02*
X51500000Y-100297209D01*
X51500000Y-152497209D02*
X52260000Y-152497209D01*
X91500000Y-170000000D02*
X74000000Y-170000000D01*
X51500000Y-108697209D02*
X51400000Y-108697209D01*
X51500000Y-95497209D02*
X51400000Y-95497209D01*
X51500000Y-92497209D02*
X52060000Y-92497209D01*
X52300000Y-136657209D02*
X52300000Y-136537209D01*
X51300000Y-143397209D02*
X51300000Y-142997209D01*
X51500000Y-135097209D02*
X51400000Y-135097209D01*
X51500000Y-154297209D02*
X51400000Y-154297209D01*
X52500000Y-152257209D02*
X52500000Y-152137209D01*
X51300000Y-154197209D02*
X51300000Y-153797209D01*
X52500000Y-155857209D02*
X52500000Y-155737209D01*
X51400000Y-148897209D02*
X51500000Y-148897209D01*
X51300000Y-127797209D02*
X51300000Y-127397209D01*
X51300000Y-125397209D02*
X51300000Y-124997209D01*
X92300000Y-169200000D02*
X91500000Y-170000000D01*
X52300000Y-146257209D02*
X52300000Y-146137209D01*
X52060000Y-83497209D02*
X51500000Y-83497209D01*
X51500000Y-139297209D02*
X52060000Y-139297209D01*
X51500000Y-118297209D02*
X51400000Y-118297209D01*
X51300000Y-131397209D02*
X51300000Y-130997209D01*
X51400000Y-96097209D02*
X51500000Y-96097209D01*
X51500000Y-146497209D02*
X52060000Y-146497209D01*
X51400000Y-122497209D02*
X51500000Y-122497209D01*
X52300000Y-109057209D02*
X52300000Y-108937209D01*
X51300000Y-149397209D02*
X51300000Y-148997209D01*
X51400000Y-116497209D02*
X51500000Y-116497209D01*
X51500000Y-130297209D02*
X51400000Y-130297209D01*
X52060000Y-106297209D02*
X51500000Y-106297209D01*
X51500000Y-107497209D02*
X51400000Y-107497209D01*
X51400000Y-117697209D02*
X51500000Y-117697209D01*
X51500000Y-138097209D02*
X52060000Y-138097209D01*
X51740000Y-108697209D02*
X51500000Y-108697209D01*
X52060000Y-119497209D02*
X51500000Y-119497209D01*
X51500000Y-102697209D02*
X51400000Y-102697209D01*
X51500000Y-117097209D02*
X51400000Y-117097209D01*
X52300000Y-142657209D02*
X52300000Y-142537209D01*
X51500000Y-101497209D02*
X51400000Y-101497209D01*
X52060000Y-144697209D02*
X51500000Y-144697209D01*
X51500000Y-80497209D02*
X52060000Y-80497209D01*
X51500000Y-106897209D02*
X52060000Y-106897209D01*
X52300000Y-93457209D02*
X52300000Y-93337209D01*
X52060000Y-121897209D02*
X51500000Y-121897209D01*
X51500000Y-167497209D02*
X50840000Y-167497209D01*
X51300000Y-118197209D02*
X51300000Y-117797209D01*
X51500000Y-100897209D02*
X52060000Y-100897209D01*
X51400000Y-104497209D02*
X51500000Y-104497209D01*
X51740000Y-79297209D02*
X52060000Y-79297209D01*
X51400000Y-156097209D02*
X51500000Y-156097209D01*
X51400000Y-85297209D02*
X51500000Y-85297209D01*
X51500000Y-84097209D02*
X52060000Y-84097209D01*
X51500000Y-139897209D02*
X51400000Y-139897209D01*
X51400000Y-126097209D02*
X51500000Y-126097209D01*
X51500000Y-98497209D02*
X52060000Y-98497209D01*
X52060000Y-99097209D02*
X51500000Y-99097209D01*
X51500000Y-169500000D02*
X51500000Y-168337209D01*
X52300000Y-103057209D02*
X52300000Y-102937209D01*
X51400000Y-134497209D02*
X51500000Y-134497209D01*
X52300000Y-100657209D02*
X52300000Y-100537209D01*
X51500000Y-144097209D02*
X52060000Y-144097209D01*
X51400000Y-81697209D02*
X51500000Y-81697209D01*
X51500000Y-128857209D02*
X51500000Y-128737209D01*
X52060000Y-87097209D02*
X51500000Y-87097209D01*
X51500000Y-163297209D02*
X52260000Y-163297209D01*
X52300000Y-111457209D02*
X52300000Y-111337209D01*
X51400000Y-115297209D02*
X51500000Y-115297209D01*
X52260000Y-167497209D02*
X51740000Y-167497209D01*
X52300000Y-115057209D02*
X52300000Y-114937209D01*
X51740000Y-168097209D02*
X52260000Y-168097209D01*
X51500000Y-118897209D02*
X52060000Y-118897209D01*
X51500000Y-127297209D02*
X52060000Y-127297209D01*
X52300000Y-81457209D02*
X52300000Y-81337209D01*
X51500000Y-105097209D02*
X51400000Y-105097209D01*
X51400000Y-157297209D02*
X51500000Y-157297209D01*
X51500000Y-156697209D02*
X51400000Y-156697209D01*
X51500000Y-126097209D02*
X52060000Y-126097209D01*
X52300000Y-122257209D02*
X52300000Y-122137209D01*
X51500000Y-150097209D02*
X52060000Y-150097209D01*
X130300000Y-168500000D02*
X130300000Y-169200000D01*
X51740000Y-147097209D02*
X51500000Y-147097209D01*
X52060000Y-85897209D02*
X51500000Y-85897209D01*
X51500000Y-123697209D02*
X52060000Y-123697209D01*
X52260000Y-156697209D02*
X51500000Y-156697209D01*
X51500000Y-82297209D02*
X51400000Y-82297209D01*
X51500000Y-145297209D02*
X52060000Y-145297209D01*
X51400000Y-139297209D02*
X51500000Y-139297209D01*
X52500000Y-159457209D02*
X52500000Y-159337209D01*
X52300000Y-131857209D02*
X52300000Y-131737209D01*
X52500000Y-153457209D02*
X52500000Y-153337209D01*
X52260000Y-153097209D02*
X51500000Y-153097209D01*
X51500000Y-79897209D02*
X51400000Y-79897209D01*
X52060000Y-135097209D02*
X51500000Y-135097209D01*
X51300000Y-102597209D02*
X51300000Y-102197209D01*
X51500000Y-133297209D02*
X52060000Y-133297209D01*
X51300000Y-80997209D02*
X51300000Y-80597209D01*
X52300000Y-107857209D02*
X52300000Y-107737209D01*
X148500000Y-170000000D02*
X149150000Y-169350000D01*
X51740000Y-148897209D02*
X52060000Y-148897209D01*
X52000000Y-170000000D02*
X51500000Y-169500000D01*
X52300000Y-133057209D02*
X52300000Y-132937209D01*
X51500000Y-108097209D02*
X52060000Y-108097209D01*
X52060000Y-113497209D02*
X51500000Y-113497209D01*
X52300000Y-83857209D02*
X52300000Y-83737209D01*
X51300000Y-110997209D02*
X51300000Y-110597209D01*
X51500000Y-162697209D02*
X51400000Y-162697209D01*
X52300000Y-88657209D02*
X52300000Y-88537209D01*
X52060000Y-130297209D02*
X51500000Y-130297209D01*
X51500000Y-99097209D02*
X51400000Y-99097209D01*
X51500000Y-91897209D02*
X51400000Y-91897209D01*
X52060000Y-124297209D02*
X51500000Y-124297209D01*
X51400000Y-87697209D02*
X51500000Y-87697209D01*
X71800000Y-170000000D02*
X57500000Y-170000000D01*
X51500000Y-135697209D02*
X52060000Y-135697209D01*
X51400000Y-120097209D02*
X51500000Y-120097209D01*
X51500000Y-120697209D02*
X51400000Y-120697209D01*
X51300000Y-112197209D02*
X51300000Y-111797209D01*
X51400000Y-92497209D02*
X51500000Y-92497209D01*
X51400000Y-164497209D02*
X51500000Y-164497209D01*
X51500000Y-84697209D02*
X51400000Y-84697209D01*
X52060000Y-129097209D02*
X51740000Y-129097209D01*
X51300000Y-83397209D02*
X51300000Y-82997209D01*
X51300000Y-158997209D02*
X51300000Y-158597209D01*
X51500000Y-109657209D02*
X51500000Y-109537209D01*
X52300000Y-127057209D02*
X52300000Y-126937209D01*
X52060000Y-94297209D02*
X51500000Y-94297209D01*
X52060000Y-109897209D02*
X51740000Y-109897209D01*
X51500000Y-124297209D02*
X51400000Y-124297209D01*
X52060000Y-127897209D02*
X51740000Y-127897209D01*
X51700000Y-150697209D02*
X51500000Y-150697209D01*
X52060000Y-123097209D02*
X51500000Y-123097209D01*
X52060000Y-88297209D02*
X51500000Y-88297209D01*
X51500000Y-149497209D02*
X51400000Y-149497209D01*
X51300000Y-89397209D02*
X51300000Y-88997209D01*
X51740000Y-90097209D02*
X52060000Y-90097209D01*
X52300000Y-98257209D02*
X52300000Y-98137209D01*
X51400000Y-144097209D02*
X51500000Y-144097209D01*
X52060000Y-118297209D02*
X51500000Y-118297209D01*
X51300000Y-120597209D02*
X51300000Y-120197209D01*
X51500000Y-132097209D02*
X52060000Y-132097209D01*
X52300000Y-148657209D02*
X52300000Y-148537209D01*
X52060000Y-90697209D02*
X51740000Y-90697209D01*
X51300000Y-82197209D02*
X51300000Y-81797209D01*
X51500000Y-151297209D02*
X51700000Y-151297209D01*
X51500000Y-79297209D02*
X51740000Y-79297209D01*
X52300000Y-129457209D02*
X52300000Y-129337209D01*
X51740000Y-129697209D02*
X52060000Y-129697209D01*
X51500000Y-157297209D02*
X52260000Y-157297209D01*
X51300000Y-91797209D02*
X51300000Y-91397209D01*
X51400000Y-132097209D02*
X51500000Y-132097209D01*
X52060000Y-107497209D02*
X51500000Y-107497209D01*
X51500000Y-143497209D02*
X51400000Y-143497209D01*
X52060000Y-84697209D02*
X51500000Y-84697209D01*
X51500000Y-131497209D02*
X51400000Y-131497209D01*
X111300000Y-168500000D02*
X111300000Y-169200000D01*
X51500000Y-111697209D02*
X52060000Y-111697209D01*
X51500000Y-96697209D02*
X51400000Y-96697209D01*
X51400000Y-140497209D02*
X51500000Y-140497209D01*
X51400000Y-97297209D02*
X51500000Y-97297209D01*
X51300000Y-156597209D02*
X51300000Y-156197209D01*
X52300000Y-135457209D02*
X52300000Y-135337209D01*
X52300000Y-86257209D02*
X52300000Y-86137209D01*
X51400000Y-88897209D02*
X51500000Y-88897209D01*
X51500000Y-140497209D02*
X52060000Y-140497209D01*
X51740000Y-127897209D02*
X51500000Y-127897209D01*
X51300000Y-146997209D02*
X51300000Y-146597209D01*
X51400000Y-160897209D02*
X51500000Y-160897209D01*
X51400000Y-84097209D02*
X51500000Y-84097209D01*
X51500000Y-141097209D02*
X51400000Y-141097209D01*
X51300000Y-115797209D02*
X51300000Y-115397209D01*
X51300000Y-96597209D02*
X51300000Y-96197209D01*
X51500000Y-110497209D02*
X51740000Y-110497209D01*
X51740000Y-147697209D02*
X52060000Y-147697209D01*
X51300000Y-92997209D02*
X51300000Y-92597209D01*
X51300000Y-122997209D02*
X51300000Y-122597209D01*
X52300000Y-91057209D02*
X52300000Y-90937209D01*
X51500000Y-144697209D02*
X51400000Y-144697209D01*
X51300000Y-162597209D02*
X51300000Y-162197209D01*
X51400000Y-153697209D02*
X51500000Y-153697209D01*
X51500000Y-121897209D02*
X51400000Y-121897209D01*
X52060000Y-145897209D02*
X51500000Y-145897209D01*
X51500000Y-134497209D02*
X52060000Y-134497209D01*
X51400000Y-103297209D02*
X51500000Y-103297209D01*
X51300000Y-138597209D02*
X51300000Y-138197209D01*
X52300000Y-118657209D02*
X52300000Y-118537209D01*
X51400000Y-102097209D02*
X51500000Y-102097209D01*
X51300000Y-163797209D02*
X51300000Y-163397209D01*
X51740000Y-91297209D02*
X52060000Y-91297209D01*
X51400000Y-159697209D02*
X51500000Y-159697209D01*
X50840000Y-166897209D02*
X51500000Y-166897209D01*
X51400000Y-142897209D02*
X51500000Y-142897209D01*
X51400000Y-82897209D02*
X51500000Y-82897209D01*
X51300000Y-98997209D02*
X51300000Y-98597209D01*
X51300000Y-161397209D02*
X51300000Y-160997209D01*
X51500000Y-116497209D02*
X52060000Y-116497209D01*
X52060000Y-111097209D02*
X51500000Y-111097209D01*
X52300000Y-104257209D02*
X52300000Y-104137209D01*
X51500000Y-83497209D02*
X51400000Y-83497209D01*
X52300000Y-99457209D02*
X52300000Y-99337209D01*
X51740000Y-166897209D02*
X52260000Y-166897209D01*
X51900000Y-151097209D02*
X51900000Y-150897209D01*
X51500000Y-97297209D02*
X52060000Y-97297209D01*
X51400000Y-118897209D02*
X51500000Y-118897209D01*
X51500000Y-127897209D02*
X51400000Y-127897209D01*
X52300000Y-125857209D02*
X52300000Y-125737209D01*
X52260000Y-160297209D02*
X51500000Y-160297209D01*
X52260000Y-163897209D02*
X51500000Y-163897209D01*
X51500000Y-123097209D02*
X51400000Y-123097209D01*
X51400000Y-105697209D02*
X51500000Y-105697209D01*
X52060000Y-103897209D02*
X51500000Y-103897209D01*
X74000000Y-170000000D02*
X73300000Y-169300000D01*
X52260000Y-166297209D02*
X51740000Y-166297209D01*
X51300000Y-151797209D02*
X51300000Y-151397209D01*
X52060000Y-93097209D02*
X51500000Y-93097209D01*
X51500000Y-81697209D02*
X52060000Y-81697209D01*
X51300000Y-94197209D02*
X51300000Y-93797209D01*
X51400000Y-106897209D02*
X51500000Y-106897209D01*
X52300000Y-79057209D02*
X52300000Y-78937209D01*
X51300000Y-145797209D02*
X51300000Y-145397209D01*
X92300000Y-168500000D02*
X92300000Y-169200000D01*
X51500000Y-114097209D02*
X52060000Y-114097209D01*
X52060000Y-141097209D02*
X51500000Y-141097209D01*
X51300000Y-106197209D02*
X51300000Y-105797209D01*
X51500000Y-142297209D02*
X51400000Y-142297209D01*
X51500000Y-103897209D02*
X51400000Y-103897209D01*
X51740000Y-128497209D02*
X52060000Y-128497209D01*
X51400000Y-154897209D02*
X51500000Y-154897209D01*
X51400000Y-133297209D02*
X51500000Y-133297209D01*
X52060000Y-79897209D02*
X51500000Y-79897209D01*
X51400000Y-151297209D02*
X51500000Y-151297209D01*
X51500000Y-94897209D02*
X52060000Y-94897209D01*
X51300000Y-88197209D02*
X51300000Y-87797209D01*
X51500000Y-163897209D02*
X51400000Y-163897209D01*
X51300000Y-108597209D02*
X51300000Y-108197209D01*
X51500000Y-125497209D02*
X51400000Y-125497209D01*
X73300000Y-169300000D02*
X73300000Y-168500000D01*
X52300000Y-80257209D02*
X52300000Y-80137209D01*
X51500000Y-100297209D02*
X51400000Y-100297209D01*
X51500000Y-136297209D02*
X51400000Y-136297209D01*
X51500000Y-85897209D02*
X51400000Y-85897209D01*
X51500000Y-115297209D02*
X52060000Y-115297209D01*
X52060000Y-78697209D02*
X51740000Y-78697209D01*
X149150000Y-169350000D02*
X149150000Y-168500000D01*
X112000000Y-170000000D02*
X111300000Y-169300000D01*
X51500000Y-103297209D02*
X52060000Y-103297209D01*
X51300000Y-130197209D02*
X51300000Y-129797209D01*
X51400000Y-86497209D02*
X51500000Y-86497209D01*
X51500000Y-137497209D02*
X51400000Y-137497209D01*
X51500000Y-88897209D02*
X52060000Y-88897209D01*
X52300000Y-143857209D02*
X52300000Y-143737209D01*
X51500000Y-159697209D02*
X52260000Y-159697209D01*
X52300000Y-137857209D02*
X52300000Y-137737209D01*
X52060000Y-97897209D02*
X51500000Y-97897209D01*
X51500000Y-97897209D02*
X51400000Y-97897209D01*
X51300000Y-144597209D02*
X51300000Y-144197209D01*
X51500000Y-87697209D02*
X52060000Y-87697209D01*
X52300000Y-147457209D02*
X52300000Y-147337209D01*
X51500000Y-126697209D02*
X51400000Y-126697209D01*
X51500000Y-161497209D02*
X51400000Y-161497209D01*
X52300000Y-92257209D02*
X52300000Y-92137209D01*
X52260000Y-151897209D02*
X51500000Y-151897209D01*
X52500000Y-160657209D02*
X52500000Y-160537209D01*
X52060000Y-139897209D02*
X51500000Y-139897209D01*
X51400000Y-100897209D02*
X51500000Y-100897209D01*
X51400000Y-163297209D02*
X51500000Y-163297209D01*
X51740000Y-165097209D02*
X51500000Y-165097209D01*
X129500000Y-170000000D02*
X112000000Y-170000000D01*
X51500000Y-148897209D02*
X51740000Y-148897209D01*
X51300000Y-116997209D02*
X51300000Y-116597209D01*
X52500000Y-167857209D02*
X52500000Y-167737209D01*
X52060000Y-136297209D02*
X51500000Y-136297209D01*
X52060000Y-131497209D02*
X51500000Y-131497209D01*
X52300000Y-116257209D02*
X52300000Y-116137209D01*
X52300000Y-117457209D02*
X52300000Y-117337209D01*
X52260000Y-162697209D02*
X51500000Y-162697209D01*
X51500000Y-112297209D02*
X51400000Y-112297209D01*
X130300000Y-169200000D02*
X129500000Y-170000000D01*
X52300000Y-139057209D02*
X52300000Y-138937209D01*
X52260000Y-165097209D02*
X51740000Y-165097209D01*
X51400000Y-124897209D02*
X51500000Y-124897209D01*
X51300000Y-157797209D02*
X51300000Y-157397209D01*
X52300000Y-95857209D02*
X52300000Y-95737209D01*
X51500000Y-136897209D02*
X52060000Y-136897209D01*
X51300000Y-160197209D02*
X51300000Y-159797209D01*
X52060000Y-95497209D02*
X51500000Y-95497209D01*
X51500000Y-88297209D02*
X51400000Y-88297209D01*
X51500000Y-147097209D02*
X51400000Y-147097209D01*
X73300000Y-168500000D02*
X71800000Y-170000000D01*
X92300000Y-169300000D02*
X92300000Y-168500000D01*
X52300000Y-110257209D02*
X52300000Y-110137209D01*
X51500000Y-138697209D02*
X51400000Y-138697209D01*
X51500000Y-112897209D02*
X52060000Y-112897209D01*
X51500000Y-99697209D02*
X52060000Y-99697209D01*
X52060000Y-96697209D02*
X51500000Y-96697209D01*
X51500000Y-87097209D02*
X51400000Y-87097209D01*
X52060000Y-115897209D02*
X51500000Y-115897209D01*
X52300000Y-149857209D02*
X52300000Y-149737209D01*
X51740000Y-109297209D02*
X52060000Y-109297209D01*
X93000000Y-170000000D02*
X92300000Y-169300000D01*
X52500000Y-161857209D02*
X52500000Y-161737209D01*
X51400000Y-98497209D02*
X51500000Y-98497209D01*
X51500000Y-122497209D02*
X52060000Y-122497209D01*
X52060000Y-147097209D02*
X51740000Y-147097209D01*
X51300000Y-113397209D02*
X51300000Y-112997209D01*
X51300000Y-114597209D02*
X51300000Y-114197209D01*
X51400000Y-138097209D02*
X51500000Y-138097209D01*
X51300000Y-132597209D02*
X51300000Y-132197209D01*
X51400000Y-121297209D02*
X51500000Y-121297209D01*
X51500000Y-160897209D02*
X52260000Y-160897209D01*
X51500000Y-115897209D02*
X51400000Y-115897209D01*
X52300000Y-113857209D02*
X52300000Y-113737209D01*
X51740000Y-167497209D02*
X51500000Y-167497209D01*
X50600000Y-167257209D02*
X50600000Y-167137209D01*
X51500000Y-119497209D02*
X51400000Y-119497209D01*
X51500000Y-164497209D02*
X52260000Y-164497209D01*
X51500000Y-94297209D02*
X51400000Y-94297209D01*
X52060000Y-126697209D02*
X51500000Y-126697209D01*
X51400000Y-94897209D02*
X51500000Y-94897209D01*
X51300000Y-107397209D02*
X51300000Y-106997209D01*
X51300000Y-164997209D02*
X51300000Y-164597209D01*
X51500000Y-106297209D02*
X51400000Y-106297209D01*
X51300000Y-95397209D02*
X51300000Y-94997209D01*
X51500000Y-165097209D02*
X51400000Y-165097209D01*
X52500000Y-163057209D02*
X52500000Y-162937209D01*
X111300000Y-169200000D02*
X110500000Y-170000000D01*
X51500000Y-81097209D02*
X51400000Y-81097209D01*
X51300000Y-126597209D02*
X51300000Y-126197209D01*
X51300000Y-97797209D02*
X51300000Y-97397209D01*
X51740000Y-165697209D02*
X52260000Y-165697209D01*
X51500000Y-153097209D02*
X51400000Y-153097209D01*
X52300000Y-89857209D02*
X52300000Y-89737209D01*
X51300000Y-139797209D02*
X51300000Y-139397209D01*
X52060000Y-138697209D02*
X51500000Y-138697209D01*
X51400000Y-79297209D02*
X51500000Y-79297209D01*
X52060000Y-81097209D02*
X51500000Y-81097209D01*
X52060000Y-137497209D02*
X51500000Y-137497209D01*
X52260000Y-154297209D02*
X51500000Y-154297209D01*
X52300000Y-105457209D02*
X52300000Y-105337209D01*
X51500000Y-155497209D02*
X51400000Y-155497209D01*
X51300000Y-119397209D02*
X51300000Y-118997209D01*
X52060000Y-101497209D02*
X51500000Y-101497209D01*
X51500000Y-154897209D02*
X52260000Y-154897209D01*
X52300000Y-106657209D02*
X52300000Y-106537209D01*
X51500000Y-151897209D02*
X51400000Y-151897209D01*
X51400000Y-123697209D02*
X51500000Y-123697209D01*
X52060000Y-143497209D02*
X51500000Y-143497209D01*
X51400000Y-158497209D02*
X51500000Y-158497209D01*
X52300000Y-85057209D02*
X52300000Y-84937209D01*
X52500000Y-166657209D02*
X52500000Y-166537209D01*
X52300000Y-119857209D02*
X52300000Y-119737209D01*
X52260000Y-161497209D02*
X51500000Y-161497209D01*
X51300000Y-133797209D02*
X51300000Y-133397209D01*
X51300000Y-142197209D02*
X51300000Y-141797209D01*
X51400000Y-146497209D02*
X51500000Y-146497209D01*
X51500000Y-120097209D02*
X52060000Y-120097209D01*
X51400000Y-112897209D02*
X51500000Y-112897209D01*
X51500000Y-104497209D02*
X52060000Y-104497209D01*
X51500000Y-117697209D02*
X52060000Y-117697209D01*
X51400000Y-99697209D02*
X51500000Y-99697209D01*
X51500000Y-166897209D02*
X51740000Y-166897209D01*
X51500000Y-78457209D02*
X51500000Y-78337209D01*
X51500000Y-166057209D02*
X51500000Y-165937209D01*
X52300000Y-134257209D02*
X52300000Y-134137209D01*
X131000000Y-170000000D02*
X148500000Y-170000000D01*
X51500000Y-113497209D02*
X51400000Y-113497209D01*
X52500000Y-165457209D02*
X52500000Y-165337209D01*
X52060000Y-148297209D02*
X51740000Y-148297209D01*
X51500000Y-82897209D02*
X52060000Y-82897209D01*
X52060000Y-102697209D02*
X51500000Y-102697209D01*
X51500000Y-111097209D02*
X51400000Y-111097209D01*
X51400000Y-91297209D02*
X51500000Y-91297209D01*
X51500000Y-162097209D02*
X52260000Y-162097209D01*
X51500000Y-90457209D02*
X51500000Y-90337209D01*
X52300000Y-123457209D02*
X52300000Y-123337209D01*
X52300000Y-130657209D02*
X52300000Y-130537209D01*
X51500000Y-159097209D02*
X51400000Y-159097209D01*
X51300000Y-104997209D02*
X51300000Y-104597209D01*
X51500000Y-91297209D02*
X51740000Y-91297209D01*
X51300000Y-101397209D02*
X51300000Y-100997209D01*
X52300000Y-97057209D02*
X52300000Y-96937209D01*
X52300000Y-82657209D02*
X52300000Y-82537209D01*
X111300000Y-169300000D02*
X111300000Y-168500000D01*
X52060000Y-133897209D02*
X51500000Y-133897209D01*
X52300000Y-94657209D02*
X52300000Y-94537209D01*
X52060000Y-89497209D02*
X51740000Y-89497209D01*
X52300000Y-145057209D02*
X52300000Y-144937209D01*
X51500000Y-160297209D02*
X51400000Y-160297209D01*
X52060000Y-91897209D02*
X51500000Y-91897209D01*
X51300000Y-85797209D02*
X51300000Y-85397209D01*
X51500000Y-130897209D02*
X52060000Y-130897209D01*
X52500000Y-154657209D02*
X52500000Y-154537209D01*
X110500000Y-170000000D02*
X93000000Y-170000000D01*
X51500000Y-158497209D02*
X52260000Y-158497209D01*
X51400000Y-127297209D02*
X51500000Y-127297209D01*
X51400000Y-135697209D02*
X51500000Y-135697209D01*
X51500000Y-157897209D02*
X51400000Y-157897209D01*
X52300000Y-87457209D02*
X52300000Y-87337209D01*
X51300000Y-86997209D02*
X51300000Y-86597209D01*
X52060000Y-149497209D02*
X51500000Y-149497209D01*
X130300000Y-169300000D02*
X131000000Y-170000000D01*
X51500000Y-124897209D02*
X52060000Y-124897209D01*
X51500000Y-150697209D02*
X51400000Y-150697209D01*
X51300000Y-84597209D02*
X51300000Y-84197209D01*
X51400000Y-110497209D02*
X51500000Y-110497209D01*
X52500000Y-157057209D02*
X52500000Y-156937209D01*
X130300000Y-168500000D02*
X130300000Y-169300000D01*
X51500000Y-93697209D02*
X52060000Y-93697209D01*
X52060000Y-132697209D02*
X51500000Y-132697209D01*
X52060000Y-120697209D02*
X51500000Y-120697209D01*
X51400000Y-150097209D02*
X51500000Y-150097209D01*
X51500000Y-93097209D02*
X51400000Y-93097209D01*
X51500000Y-141697209D02*
X52060000Y-141697209D01*
X51500000Y-156097209D02*
X52260000Y-156097209D01*
X51837604Y-77162396D02*
X52000000Y-77000000D01*
X51400000Y-145297209D02*
X51500000Y-145297209D01*
X51300000Y-140997209D02*
X51300000Y-140597209D01*
X51500000Y-132697209D02*
X51400000Y-132697209D01*
X52060000Y-125497209D02*
X51500000Y-125497209D01*
X52300000Y-141457209D02*
X52300000Y-141337209D01*
X52260000Y-159097209D02*
X51500000Y-159097209D01*
X51400000Y-152497209D02*
X51500000Y-152497209D01*
X51500000Y-86497209D02*
X52060000Y-86497209D01*
X51500000Y-77500000D02*
X51837604Y-77162396D01*
X51500000Y-105697209D02*
X52060000Y-105697209D01*
X52060000Y-114697209D02*
X51500000Y-114697209D01*
X52300000Y-140257209D02*
X52300000Y-140137209D01*
X52300000Y-121057209D02*
X52300000Y-120937209D01*
X51500000Y-129697209D02*
X51740000Y-129697209D01*
X52260000Y-158497209D02*
G75*
G03*
X52500009Y-158257209I0J240009D01*
G01*
X52060000Y-138097209D02*
G75*
G03*
X52300009Y-137857209I0J240009D01*
G01*
X52300000Y-137737209D02*
G75*
G03*
X52060000Y-137497200I-240000J9D01*
G01*
X52060000Y-105697209D02*
G75*
G03*
X52300009Y-105457209I0J240009D01*
G01*
X52060000Y-92497209D02*
G75*
G03*
X52300009Y-92257209I0J240009D01*
G01*
X52300000Y-114937209D02*
G75*
G03*
X52060000Y-114697200I-240000J9D01*
G01*
X51400000Y-150697209D02*
G75*
G02*
X51299991Y-150597209I0J100009D01*
G01*
X51400000Y-103897209D02*
G75*
G02*
X51299991Y-103797209I0J100009D01*
G01*
X51740000Y-78697209D02*
G75*
G02*
X51499991Y-78457209I0J240009D01*
G01*
X51400000Y-121897209D02*
G75*
G02*
X51299991Y-121797209I0J100009D01*
G01*
X51400000Y-143497209D02*
G75*
G02*
X51299991Y-143397209I0J100009D01*
G01*
X52300000Y-132937209D02*
G75*
G03*
X52060000Y-132697200I-240000J9D01*
G01*
X52300000Y-144937209D02*
G75*
G03*
X52060000Y-144697200I-240000J9D01*
G01*
X51400000Y-151897209D02*
G75*
G02*
X51299991Y-151797209I0J100009D01*
G01*
X52060000Y-85297209D02*
G75*
G03*
X52300009Y-85057209I0J240009D01*
G01*
X51400000Y-102697209D02*
G75*
G02*
X51299991Y-102597209I0J100009D01*
G01*
X51400000Y-91897209D02*
G75*
G02*
X51299991Y-91797209I0J100009D01*
G01*
X51300000Y-116597209D02*
G75*
G02*
X51400000Y-116497200I100000J9D01*
G01*
X50600000Y-167137209D02*
G75*
G02*
X50840000Y-166897200I240000J9D01*
G01*
X51300000Y-124997209D02*
G75*
G02*
X51400000Y-124897200I100000J9D01*
G01*
X51300000Y-115397209D02*
G75*
G02*
X51400000Y-115297200I100000J9D01*
G01*
X51300000Y-110597209D02*
G75*
G02*
X51400000Y-110497200I100000J9D01*
G01*
X51740000Y-109897209D02*
G75*
G02*
X51499991Y-109657209I0J240009D01*
G01*
X51400000Y-139897209D02*
G75*
G02*
X51299991Y-139797209I0J100009D01*
G01*
X51400000Y-138697209D02*
G75*
G02*
X51299991Y-138597209I0J100009D01*
G01*
X52060000Y-144097209D02*
G75*
G03*
X52300009Y-143857209I0J240009D01*
G01*
X51300000Y-127397209D02*
G75*
G02*
X51400000Y-127297200I100000J9D01*
G01*
X51400000Y-123097209D02*
G75*
G02*
X51299991Y-122997209I0J100009D01*
G01*
X51300000Y-140597209D02*
G75*
G02*
X51400000Y-140497200I100000J9D01*
G01*
X51300000Y-97397209D02*
G75*
G02*
X51400000Y-97297200I100000J9D01*
G01*
X51400000Y-136297209D02*
G75*
G02*
X51299991Y-136197209I0J100009D01*
G01*
X51300000Y-157397209D02*
G75*
G02*
X51400000Y-157297200I100000J9D01*
G01*
X51300000Y-134597209D02*
G75*
G02*
X51400000Y-134497200I100000J9D01*
G01*
X52300000Y-141337209D02*
G75*
G03*
X52060000Y-141097200I-240000J9D01*
G01*
X52300000Y-83737209D02*
G75*
G03*
X52060000Y-83497200I-240000J9D01*
G01*
X52060000Y-129697209D02*
G75*
G03*
X52300009Y-129457209I0J240009D01*
G01*
X51300000Y-117797209D02*
G75*
G02*
X51400000Y-117697200I100000J9D01*
G01*
X51500000Y-128737209D02*
G75*
G02*
X51740000Y-128497200I240000J9D01*
G01*
X51400000Y-132697209D02*
G75*
G02*
X51299991Y-132597209I0J100009D01*
G01*
X52260000Y-157297209D02*
G75*
G03*
X52500009Y-157057209I0J240009D01*
G01*
X51400000Y-154297209D02*
G75*
G02*
X51299991Y-154197209I0J100009D01*
G01*
X52300000Y-119737209D02*
G75*
G03*
X52060000Y-119497200I-240000J9D01*
G01*
X51300000Y-112997209D02*
G75*
G02*
X51400000Y-112897200I100000J9D01*
G01*
X52500000Y-156937209D02*
G75*
G03*
X52260000Y-156697200I-240000J9D01*
G01*
X51300000Y-99797209D02*
G75*
G02*
X51400000Y-99697200I100000J9D01*
G01*
X52060000Y-79297209D02*
G75*
G03*
X52300009Y-79057209I0J240009D01*
G01*
X52060000Y-148897209D02*
G75*
G03*
X52300009Y-148657209I0J240009D01*
G01*
X52300000Y-82537209D02*
G75*
G03*
X52060000Y-82297200I-240000J9D01*
G01*
X52300000Y-87337209D02*
G75*
G03*
X52060000Y-87097200I-240000J9D01*
G01*
X51300000Y-139397209D02*
G75*
G02*
X51400000Y-139297200I100000J9D01*
G01*
X52060000Y-110497209D02*
G75*
G03*
X52300009Y-110257209I0J240009D01*
G01*
X51500000Y-165937209D02*
G75*
G02*
X51740000Y-165697200I240000J9D01*
G01*
X51300000Y-105797209D02*
G75*
G02*
X51400000Y-105697200I100000J9D01*
G01*
X51300000Y-94997209D02*
G75*
G02*
X51400000Y-94897200I100000J9D01*
G01*
X52060000Y-145297209D02*
G75*
G03*
X52300009Y-145057209I0J240009D01*
G01*
X51300000Y-144197209D02*
G75*
G02*
X51400000Y-144097200I100000J9D01*
G01*
X52300000Y-104137209D02*
G75*
G03*
X52060000Y-103897200I-240000J9D01*
G01*
X51400000Y-113497209D02*
G75*
G02*
X51299991Y-113397209I0J100009D01*
G01*
X52300000Y-110137209D02*
G75*
G03*
X52060000Y-109897200I-240000J9D01*
G01*
X52300000Y-92137209D02*
G75*
G03*
X52060000Y-91897200I-240000J9D01*
G01*
X52060000Y-121297209D02*
G75*
G03*
X52300009Y-121057209I0J240009D01*
G01*
X52300000Y-128137209D02*
G75*
G03*
X52060000Y-127897200I-240000J9D01*
G01*
X51300000Y-150197209D02*
G75*
G02*
X51400000Y-150097200I100000J9D01*
G01*
X51400000Y-111097209D02*
G75*
G02*
X51299991Y-110997209I0J100009D01*
G01*
X51500000Y-168337209D02*
G75*
G02*
X51740000Y-168097200I240000J9D01*
G01*
X51300000Y-142997209D02*
G75*
G02*
X51400000Y-142897200I100000J9D01*
G01*
X51400000Y-124297209D02*
G75*
G02*
X51299991Y-124197209I0J100009D01*
G01*
X51400000Y-96697209D02*
G75*
G02*
X51299991Y-96597209I0J100009D01*
G01*
X52300000Y-123337209D02*
G75*
G03*
X52060000Y-123097200I-240000J9D01*
G01*
X51400000Y-144697209D02*
G75*
G02*
X51299991Y-144597209I0J100009D01*
G01*
X52300000Y-111337209D02*
G75*
G03*
X52060000Y-111097200I-240000J9D01*
G01*
X52260000Y-168097209D02*
G75*
G03*
X52500009Y-167857209I0J240009D01*
G01*
X52060000Y-118897209D02*
G75*
G03*
X52300009Y-118657209I0J240009D01*
G01*
X52060000Y-133297209D02*
G75*
G03*
X52300009Y-133057209I0J240009D01*
G01*
X51740000Y-166297209D02*
G75*
G02*
X51499991Y-166057209I0J240009D01*
G01*
X51400000Y-81097209D02*
G75*
G02*
X51299991Y-80997209I0J100009D01*
G01*
X51400000Y-83497209D02*
G75*
G02*
X51299991Y-83397209I0J100009D01*
G01*
X51400000Y-108697209D02*
G75*
G02*
X51299991Y-108597209I0J100009D01*
G01*
X52060000Y-80497209D02*
G75*
G03*
X52300009Y-80257209I0J240009D01*
G01*
X51300000Y-108197209D02*
G75*
G02*
X51400000Y-108097200I100000J9D01*
G01*
X52060000Y-111697209D02*
G75*
G03*
X52300009Y-111457209I0J240009D01*
G01*
X52260000Y-163297209D02*
G75*
G03*
X52500009Y-163057209I0J240009D01*
G01*
X52060000Y-150097209D02*
G75*
G03*
X52300009Y-149857209I0J240009D01*
G01*
X51400000Y-99097209D02*
G75*
G02*
X51299991Y-98997209I0J100009D01*
G01*
X51400000Y-142297209D02*
G75*
G02*
X51299991Y-142197209I0J100009D01*
G01*
X52300000Y-120937209D02*
G75*
G03*
X52060000Y-120697200I-240000J9D01*
G01*
X52060000Y-127297209D02*
G75*
G03*
X52300009Y-127057209I0J240009D01*
G01*
X52060000Y-116497209D02*
G75*
G03*
X52300009Y-116257209I0J240009D01*
G01*
X51300000Y-133397209D02*
G75*
G02*
X51400000Y-133297200I100000J9D01*
G01*
X51300000Y-132197209D02*
G75*
G02*
X51400000Y-132097200I100000J9D01*
G01*
X51400000Y-161497209D02*
G75*
G02*
X51299991Y-161397209I0J100009D01*
G01*
X52060000Y-108097209D02*
G75*
G03*
X52300009Y-107857209I0J240009D01*
G01*
X51400000Y-133897209D02*
G75*
G02*
X51299991Y-133797209I0J100009D01*
G01*
X51300000Y-92597209D02*
G75*
G02*
X51400000Y-92497200I100000J9D01*
G01*
X51300000Y-118997209D02*
G75*
G02*
X51400000Y-118897200I100000J9D01*
G01*
X51300000Y-85397209D02*
G75*
G02*
X51400000Y-85297200I100000J9D01*
G01*
X52060000Y-104497209D02*
G75*
G03*
X52300009Y-104257209I0J240009D01*
G01*
X51300000Y-156197209D02*
G75*
G02*
X51400000Y-156097200I100000J9D01*
G01*
X52500000Y-159337209D02*
G75*
G03*
X52260000Y-159097200I-240000J9D01*
G01*
X52300000Y-96937209D02*
G75*
G03*
X52060000Y-96697200I-240000J9D01*
G01*
X51300000Y-103397209D02*
G75*
G02*
X51400000Y-103297200I100000J9D01*
G01*
X51300000Y-104597209D02*
G75*
G02*
X51400000Y-104497200I100000J9D01*
G01*
X52300000Y-100537209D02*
G75*
G03*
X52060000Y-100297200I-240000J9D01*
G01*
X51400000Y-100297209D02*
G75*
G02*
X51299991Y-100197209I0J100009D01*
G01*
X52300000Y-124537209D02*
G75*
G03*
X52060000Y-124297200I-240000J9D01*
G01*
X52300000Y-94537209D02*
G75*
G03*
X52060000Y-94297200I-240000J9D01*
G01*
X51500000Y-147937209D02*
G75*
G02*
X51740000Y-147697200I240000J9D01*
G01*
X51300000Y-91397209D02*
G75*
G02*
X51400000Y-91297200I100000J9D01*
G01*
X52300000Y-107737209D02*
G75*
G03*
X52060000Y-107497200I-240000J9D01*
G01*
X52060000Y-87697209D02*
G75*
G03*
X52300009Y-87457209I0J240009D01*
G01*
X52060000Y-114097209D02*
G75*
G03*
X52300009Y-113857209I0J240009D01*
G01*
X51400000Y-157897209D02*
G75*
G02*
X51299991Y-157797209I0J100009D01*
G01*
X51300000Y-102197209D02*
G75*
G02*
X51400000Y-102097200I100000J9D01*
G01*
X52300000Y-146137209D02*
G75*
G03*
X52060000Y-145897200I-240000J9D01*
G01*
X52500000Y-155737209D02*
G75*
G03*
X52260000Y-155497200I-240000J9D01*
G01*
X51400000Y-107497209D02*
G75*
G02*
X51299991Y-107397209I0J100009D01*
G01*
X52060000Y-135697209D02*
G75*
G03*
X52300009Y-135457209I0J240009D01*
G01*
X52060000Y-140497209D02*
G75*
G03*
X52300009Y-140257209I0J240009D01*
G01*
X52060000Y-84097209D02*
G75*
G03*
X52300009Y-83857209I0J240009D01*
G01*
X51300000Y-159797209D02*
G75*
G02*
X51400000Y-159697200I100000J9D01*
G01*
X51300000Y-141797209D02*
G75*
G02*
X51400000Y-141697200I100000J9D01*
G01*
X51400000Y-126697209D02*
G75*
G02*
X51299991Y-126597209I0J100009D01*
G01*
X51400000Y-125497209D02*
G75*
G02*
X51299991Y-125397209I0J100009D01*
G01*
X51740000Y-148297209D02*
G75*
G02*
X51499991Y-148057209I0J240009D01*
G01*
X52300000Y-130537209D02*
G75*
G03*
X52060000Y-130297200I-240000J9D01*
G01*
X51400000Y-135097209D02*
G75*
G02*
X51299991Y-134997209I0J100009D01*
G01*
X52300000Y-136537209D02*
G75*
G03*
X52060000Y-136297200I-240000J9D01*
G01*
X51400000Y-105097209D02*
G75*
G02*
X51299991Y-104997209I0J100009D01*
G01*
X52300000Y-131737209D02*
G75*
G03*
X52060000Y-131497200I-240000J9D01*
G01*
X52500000Y-160537209D02*
G75*
G03*
X52260000Y-160297200I-240000J9D01*
G01*
X52060000Y-91297209D02*
G75*
G03*
X52300009Y-91057209I0J240009D01*
G01*
X52060000Y-146497209D02*
G75*
G03*
X52300009Y-146257209I0J240009D01*
G01*
X51400000Y-131497209D02*
G75*
G02*
X51299991Y-131397209I0J100009D01*
G01*
X52500000Y-166537209D02*
G75*
G03*
X52260000Y-166297200I-240000J9D01*
G01*
X52300000Y-98137209D02*
G75*
G03*
X52060000Y-97897200I-240000J9D01*
G01*
X51400000Y-159097209D02*
G75*
G02*
X51299991Y-158997209I0J100009D01*
G01*
X52500000Y-162937209D02*
G75*
G03*
X52260000Y-162697200I-240000J9D01*
G01*
X52060000Y-132097209D02*
G75*
G03*
X52300009Y-131857209I0J240009D01*
G01*
X51300000Y-98597209D02*
G75*
G02*
X51400000Y-98497200I100000J9D01*
G01*
X52300000Y-112537209D02*
G75*
G03*
X52060000Y-112297200I-240000J9D01*
G01*
X52300000Y-140137209D02*
G75*
G03*
X52060000Y-139897200I-240000J9D01*
G01*
X52060000Y-93697209D02*
G75*
G03*
X52300009Y-93457209I0J240009D01*
G01*
X52300000Y-89737209D02*
G75*
G03*
X52060000Y-89497200I-240000J9D01*
G01*
X51300000Y-114197209D02*
G75*
G02*
X51400000Y-114097200I100000J9D01*
G01*
X51300000Y-126197209D02*
G75*
G02*
X51400000Y-126097200I100000J9D01*
G01*
X51300000Y-164597209D02*
G75*
G02*
X51400000Y-164497200I100000J9D01*
G01*
X52060000Y-136897209D02*
G75*
G03*
X52300009Y-136657209I0J240009D01*
G01*
X52060000Y-134497209D02*
G75*
G03*
X52300009Y-134257209I0J240009D01*
G01*
X51400000Y-117097209D02*
G75*
G02*
X51299991Y-116997209I0J100009D01*
G01*
X51400000Y-114697209D02*
G75*
G02*
X51299991Y-114597209I0J100009D01*
G01*
X51300000Y-160997209D02*
G75*
G02*
X51400000Y-160897200I100000J9D01*
G01*
X51300000Y-86597209D02*
G75*
G02*
X51400000Y-86497200I100000J9D01*
G01*
X51300000Y-121397209D02*
G75*
G02*
X51400000Y-121297200I100000J9D01*
G01*
X51400000Y-95497209D02*
G75*
G02*
X51299991Y-95397209I0J100009D01*
G01*
X51700000Y-151297209D02*
G75*
G03*
X51900009Y-151097209I0J200009D01*
G01*
X51400000Y-93097209D02*
G75*
G02*
X51299991Y-92997209I0J100009D01*
G01*
X52300000Y-118537209D02*
G75*
G03*
X52060000Y-118297200I-240000J9D01*
G01*
X51400000Y-79897209D02*
G75*
G02*
X51299991Y-79797209I0J100009D01*
G01*
X52260000Y-153697209D02*
G75*
G03*
X52500009Y-153457209I0J240009D01*
G01*
X51400000Y-88297209D02*
G75*
G02*
X51299991Y-88197209I0J100009D01*
G01*
X51900000Y-150897209D02*
G75*
G03*
X51700000Y-150697200I-200000J9D01*
G01*
X52060000Y-103297209D02*
G75*
G03*
X52300009Y-103057209I0J240009D01*
G01*
X52500000Y-152137209D02*
G75*
G03*
X52260000Y-151897200I-240000J9D01*
G01*
X52300000Y-143737209D02*
G75*
G03*
X52060000Y-143497200I-240000J9D01*
G01*
X52060000Y-97297209D02*
G75*
G03*
X52300009Y-97057209I0J240009D01*
G01*
X52300000Y-125737209D02*
G75*
G03*
X52060000Y-125497200I-240000J9D01*
G01*
X52300000Y-122137209D02*
G75*
G03*
X52060000Y-121897200I-240000J9D01*
G01*
X52060000Y-141697209D02*
G75*
G03*
X52300009Y-141457209I0J240009D01*
G01*
X51400000Y-156697209D02*
G75*
G02*
X51299991Y-156597209I0J100009D01*
G01*
X51400000Y-145897209D02*
G75*
G02*
X51299991Y-145797209I0J100009D01*
G01*
X51300000Y-123797209D02*
G75*
G02*
X51400000Y-123697200I100000J9D01*
G01*
X51300000Y-151397209D02*
G75*
G02*
X51400000Y-151297200I100000J9D01*
G01*
X52300000Y-101737209D02*
G75*
G03*
X52060000Y-101497200I-240000J9D01*
G01*
X51400000Y-165097209D02*
G75*
G02*
X51299991Y-164997209I0J100009D01*
G01*
X52300000Y-99337209D02*
G75*
G03*
X52060000Y-99097200I-240000J9D01*
G01*
X52060000Y-106897209D02*
G75*
G03*
X52300009Y-106657209I0J240009D01*
G01*
X51300000Y-80597209D02*
G75*
G02*
X51400000Y-80497200I100000J9D01*
G01*
X52060000Y-115297209D02*
G75*
G03*
X52300009Y-115057209I0J240009D01*
G01*
X52060000Y-130897209D02*
G75*
G03*
X52300009Y-130657209I0J240009D01*
G01*
X51300000Y-146597209D02*
G75*
G02*
X51400000Y-146497200I100000J9D01*
G01*
X51300000Y-84197209D02*
G75*
G02*
X51400000Y-84097200I100000J9D01*
G01*
X52500000Y-164137209D02*
G75*
G03*
X52260000Y-163897200I-240000J9D01*
G01*
X51400000Y-141097209D02*
G75*
G02*
X51299991Y-140997209I0J100009D01*
G01*
X51400000Y-101497209D02*
G75*
G02*
X51299991Y-101397209I0J100009D01*
G01*
X52300000Y-81337209D02*
G75*
G03*
X52060000Y-81097200I-240000J9D01*
G01*
X52300000Y-105337209D02*
G75*
G03*
X52060000Y-105097200I-240000J9D01*
G01*
X52060000Y-99697209D02*
G75*
G03*
X52300009Y-99457209I0J240009D01*
G01*
X51400000Y-160297209D02*
G75*
G02*
X51299991Y-160197209I0J100009D01*
G01*
X52260000Y-154897209D02*
G75*
G03*
X52500009Y-154657209I0J240009D01*
G01*
X51400000Y-82297209D02*
G75*
G02*
X51299991Y-82197209I0J100009D01*
G01*
X51300000Y-163397209D02*
G75*
G02*
X51400000Y-163297200I100000J9D01*
G01*
X52500000Y-153337209D02*
G75*
G03*
X52260000Y-153097200I-240000J9D01*
G01*
X52300000Y-108937209D02*
G75*
G03*
X52060000Y-108697200I-240000J9D01*
G01*
X51300000Y-88997209D02*
G75*
G02*
X51400000Y-88897200I100000J9D01*
G01*
X52300000Y-95737209D02*
G75*
G03*
X52060000Y-95497200I-240000J9D01*
G01*
X51400000Y-127897209D02*
G75*
G02*
X51299991Y-127797209I0J100009D01*
G01*
X52060000Y-139297209D02*
G75*
G03*
X52300009Y-139057209I0J240009D01*
G01*
X52300000Y-113737209D02*
G75*
G03*
X52060000Y-113497200I-240000J9D01*
G01*
X52060000Y-88897209D02*
G75*
G03*
X52300009Y-88657209I0J240009D01*
G01*
X52260000Y-160897209D02*
G75*
G03*
X52500009Y-160657209I0J240009D01*
G01*
X52300000Y-126937209D02*
G75*
G03*
X52060000Y-126697200I-240000J9D01*
G01*
X51400000Y-94297209D02*
G75*
G02*
X51299991Y-94197209I0J100009D01*
G01*
X52300000Y-142537209D02*
G75*
G03*
X52060000Y-142297200I-240000J9D01*
G01*
X52060000Y-142897209D02*
G75*
G03*
X52300009Y-142657209I0J240009D01*
G01*
X51400000Y-147097209D02*
G75*
G02*
X51299991Y-146997209I0J100009D01*
G01*
X52060000Y-94897209D02*
G75*
G03*
X52300009Y-94657209I0J240009D01*
G01*
X52060000Y-128497209D02*
G75*
G03*
X52300009Y-128257209I0J240009D01*
G01*
X51400000Y-89497209D02*
G75*
G02*
X51299991Y-89397209I0J100009D01*
G01*
X52060000Y-98497209D02*
G75*
G03*
X52300009Y-98257209I0J240009D01*
G01*
X52060000Y-120097209D02*
G75*
G03*
X52300009Y-119857209I0J240009D01*
G01*
X52260000Y-156097209D02*
G75*
G03*
X52500009Y-155857209I0J240009D01*
G01*
X51300000Y-152597209D02*
G75*
G02*
X51400000Y-152497200I100000J9D01*
G01*
X52060000Y-109297209D02*
G75*
G03*
X52300009Y-109057209I0J240009D01*
G01*
X52300000Y-134137209D02*
G75*
G03*
X52060000Y-133897200I-240000J9D01*
G01*
X52060000Y-124897209D02*
G75*
G03*
X52300009Y-124657209I0J240009D01*
G01*
X51300000Y-81797209D02*
G75*
G02*
X51400000Y-81697200I100000J9D01*
G01*
X51300000Y-130997209D02*
G75*
G02*
X51400000Y-130897200I100000J9D01*
G01*
X51300000Y-148997209D02*
G75*
G02*
X51400000Y-148897200I100000J9D01*
G01*
X51740000Y-129097209D02*
G75*
G02*
X51499991Y-128857209I0J240009D01*
G01*
X51400000Y-119497209D02*
G75*
G02*
X51299991Y-119397209I0J100009D01*
G01*
X51300000Y-106997209D02*
G75*
G02*
X51400000Y-106897200I100000J9D01*
G01*
X52300000Y-106537209D02*
G75*
G03*
X52060000Y-106297200I-240000J9D01*
G01*
X52060000Y-86497209D02*
G75*
G03*
X52300009Y-86257209I0J240009D01*
G01*
X52500000Y-158137209D02*
G75*
G03*
X52260000Y-157897200I-240000J9D01*
G01*
X51300000Y-145397209D02*
G75*
G02*
X51400000Y-145297200I100000J9D01*
G01*
X51300000Y-135797209D02*
G75*
G02*
X51400000Y-135697200I100000J9D01*
G01*
X52300000Y-80137209D02*
G75*
G03*
X52060000Y-79897200I-240000J9D01*
G01*
X52060000Y-126097209D02*
G75*
G03*
X52300009Y-125857209I0J240009D01*
G01*
X50840000Y-167497209D02*
G75*
G02*
X50599991Y-167257209I0J240009D01*
G01*
X51300000Y-96197209D02*
G75*
G02*
X51400000Y-96097200I100000J9D01*
G01*
X52300000Y-78937209D02*
G75*
G03*
X52060000Y-78697200I-240000J9D01*
G01*
X51300000Y-79397209D02*
G75*
G02*
X51400000Y-79297200I100000J9D01*
G01*
X52300000Y-129337209D02*
G75*
G03*
X52060000Y-129097200I-240000J9D01*
G01*
X52060000Y-112897209D02*
G75*
G03*
X52300009Y-112657209I0J240009D01*
G01*
X51400000Y-115897209D02*
G75*
G02*
X51299991Y-115797209I0J100009D01*
G01*
X52300000Y-84937209D02*
G75*
G03*
X52060000Y-84697200I-240000J9D01*
G01*
X52300000Y-138937209D02*
G75*
G03*
X52060000Y-138697200I-240000J9D01*
G01*
X52300000Y-90937209D02*
G75*
G03*
X52060000Y-90697200I-240000J9D01*
G01*
X52300000Y-86137209D02*
G75*
G03*
X52060000Y-85897200I-240000J9D01*
G01*
X52300000Y-148537209D02*
G75*
G03*
X52060000Y-148297200I-240000J9D01*
G01*
X52300000Y-88537209D02*
G75*
G03*
X52060000Y-88297200I-240000J9D01*
G01*
X52260000Y-166897209D02*
G75*
G03*
X52500009Y-166657209I0J240009D01*
G01*
X52260000Y-164497209D02*
G75*
G03*
X52500009Y-164257209I0J240009D01*
G01*
X51400000Y-163897209D02*
G75*
G02*
X51299991Y-163797209I0J100009D01*
G01*
X51300000Y-87797209D02*
G75*
G02*
X51400000Y-87697200I100000J9D01*
G01*
X52300000Y-102937209D02*
G75*
G03*
X52060000Y-102697200I-240000J9D01*
G01*
X52500000Y-165337209D02*
G75*
G03*
X52260000Y-165097200I-240000J9D01*
G01*
X52060000Y-102097209D02*
G75*
G03*
X52300009Y-101857209I0J240009D01*
G01*
X51500000Y-109537209D02*
G75*
G02*
X51740000Y-109297200I240000J9D01*
G01*
X51300000Y-111797209D02*
G75*
G02*
X51400000Y-111697200I100000J9D01*
G01*
X51300000Y-158597209D02*
G75*
G02*
X51400000Y-158497200I100000J9D01*
G01*
X51300000Y-82997209D02*
G75*
G02*
X51400000Y-82897200I100000J9D01*
G01*
X51300000Y-162197209D02*
G75*
G02*
X51400000Y-162097200I100000J9D01*
G01*
X52300000Y-135337209D02*
G75*
G03*
X52060000Y-135097200I-240000J9D01*
G01*
X52060000Y-82897209D02*
G75*
G03*
X52300009Y-82657209I0J240009D01*
G01*
X52300000Y-93337209D02*
G75*
G03*
X52060000Y-93097200I-240000J9D01*
G01*
X51400000Y-130297209D02*
G75*
G02*
X51299991Y-130197209I0J100009D01*
G01*
X52060000Y-122497209D02*
G75*
G03*
X52300009Y-122257209I0J240009D01*
G01*
X51400000Y-106297209D02*
G75*
G02*
X51299991Y-106197209I0J100009D01*
G01*
X52300000Y-149737209D02*
G75*
G03*
X52060000Y-149497200I-240000J9D01*
G01*
X51400000Y-85897209D02*
G75*
G02*
X51299991Y-85797209I0J100009D01*
G01*
X52260000Y-162097209D02*
G75*
G03*
X52500009Y-161857209I0J240009D01*
G01*
X52300000Y-147337209D02*
G75*
G03*
X52060000Y-147097200I-240000J9D01*
G01*
X51300000Y-138197209D02*
G75*
G02*
X51400000Y-138097200I100000J9D01*
G01*
X51400000Y-97897209D02*
G75*
G02*
X51299991Y-97797209I0J100009D01*
G01*
X51400000Y-84697209D02*
G75*
G02*
X51299991Y-84597209I0J100009D01*
G01*
X51300000Y-100997209D02*
G75*
G02*
X51400000Y-100897200I100000J9D01*
G01*
X52060000Y-96097209D02*
G75*
G03*
X52300009Y-95857209I0J240009D01*
G01*
X52300000Y-117337209D02*
G75*
G03*
X52060000Y-117097200I-240000J9D01*
G01*
X52260000Y-152497209D02*
G75*
G03*
X52500009Y-152257209I0J240009D01*
G01*
X52060000Y-81697209D02*
G75*
G03*
X52300009Y-81457209I0J240009D01*
G01*
X52260000Y-165697209D02*
G75*
G03*
X52500009Y-165457209I0J240009D01*
G01*
X51300000Y-153797209D02*
G75*
G02*
X51400000Y-153697200I100000J9D01*
G01*
X52260000Y-159697209D02*
G75*
G03*
X52500009Y-159457209I0J240009D01*
G01*
X51500000Y-90337209D02*
G75*
G02*
X51740000Y-90097200I240000J9D01*
G01*
X52500000Y-154537209D02*
G75*
G03*
X52260000Y-154297200I-240000J9D01*
G01*
X51740000Y-90697209D02*
G75*
G02*
X51499991Y-90457209I0J240009D01*
G01*
X51300000Y-136997209D02*
G75*
G02*
X51400000Y-136897200I100000J9D01*
G01*
X51300000Y-93797209D02*
G75*
G02*
X51400000Y-93697200I100000J9D01*
G01*
X52060000Y-100897209D02*
G75*
G03*
X52300009Y-100657209I0J240009D01*
G01*
X52060000Y-117697209D02*
G75*
G03*
X52300009Y-117457209I0J240009D01*
G01*
X51400000Y-120697209D02*
G75*
G02*
X51299991Y-120597209I0J100009D01*
G01*
X51400000Y-162697209D02*
G75*
G02*
X51299991Y-162597209I0J100009D01*
G01*
X51300000Y-154997209D02*
G75*
G02*
X51400000Y-154897200I100000J9D01*
G01*
X52300000Y-116137209D02*
G75*
G03*
X52060000Y-115897200I-240000J9D01*
G01*
X52060000Y-90097209D02*
G75*
G03*
X52300009Y-89857209I0J240009D01*
G01*
X51400000Y-149497209D02*
G75*
G02*
X51299991Y-149397209I0J100009D01*
G01*
X51300000Y-129797209D02*
G75*
G02*
X51400000Y-129697200I100000J9D01*
G01*
X51400000Y-137497209D02*
G75*
G02*
X51299991Y-137397209I0J100009D01*
G01*
X51400000Y-112297209D02*
G75*
G02*
X51299991Y-112197209I0J100009D01*
G01*
X51300000Y-120197209D02*
G75*
G02*
X51400000Y-120097200I100000J9D01*
G01*
X52500000Y-167737209D02*
G75*
G03*
X52260000Y-167497200I-240000J9D01*
G01*
X51400000Y-87097209D02*
G75*
G02*
X51299991Y-86997209I0J100009D01*
G01*
X52060000Y-147697209D02*
G75*
G03*
X52300009Y-147457209I0J240009D01*
G01*
X51300000Y-122597209D02*
G75*
G02*
X51400000Y-122497200I100000J9D01*
G01*
X52060000Y-123697209D02*
G75*
G03*
X52300009Y-123457209I0J240009D01*
G01*
X52500000Y-161737209D02*
G75*
G03*
X52260000Y-161497200I-240000J9D01*
G01*
X51400000Y-153097209D02*
G75*
G02*
X51299991Y-152997209I0J100009D01*
G01*
X51400000Y-155497209D02*
G75*
G02*
X51299991Y-155397209I0J100009D01*
G01*
X51400000Y-118297209D02*
G75*
G02*
X51299991Y-118197209I0J100009D01*
G01*
X126850000Y-92500000D02*
X127806000Y-91544000D01*
X127806000Y-91544000D02*
X127806000Y-79636000D01*
X127806000Y-79636000D02*
X127590000Y-79420000D01*
X126850000Y-111500000D02*
X127806000Y-110544000D01*
X127806000Y-110544000D02*
X127806000Y-98636000D01*
X127806000Y-98636000D02*
X127590000Y-98420000D01*
X127806000Y-117636000D02*
X127590000Y-117420000D01*
X127806000Y-129694000D02*
X127806000Y-117636000D01*
X127000000Y-130500000D02*
X127806000Y-129694000D01*
X127806000Y-148694000D02*
X127806000Y-136636000D01*
X127000000Y-149500000D02*
X127806000Y-148694000D01*
X127806000Y-136636000D02*
X127590000Y-136420000D01*
X127806000Y-155636000D02*
X127590000Y-155420000D01*
X127000000Y-168500000D02*
X127806000Y-167694000D01*
X127806000Y-167694000D02*
X127806000Y-155636000D01*
X108590000Y-79420000D02*
X108806000Y-79636000D01*
X108806000Y-91544000D02*
X107850000Y-92500000D01*
X108806000Y-79636000D02*
X108806000Y-91544000D01*
X108806000Y-110544000D02*
X107850000Y-111500000D01*
X108806000Y-98636000D02*
X108806000Y-110544000D01*
X108590000Y-98420000D02*
X108806000Y-98636000D01*
X108806000Y-117636000D02*
X108806000Y-129694000D01*
X108590000Y-117420000D02*
X108806000Y-117636000D01*
X108806000Y-129694000D02*
X108000000Y-130500000D01*
X108806000Y-148694000D02*
X108000000Y-149500000D01*
X108590000Y-136420000D02*
X108806000Y-136636000D01*
X108806000Y-136636000D02*
X108806000Y-148694000D01*
X108590000Y-155420000D02*
X108806000Y-155636000D01*
X108806000Y-167694000D02*
X108000000Y-168500000D01*
X108806000Y-155636000D02*
X108806000Y-167694000D01*
X89806000Y-91544000D02*
X89806000Y-79636000D01*
X89806000Y-79636000D02*
X89590000Y-79420000D01*
X88850000Y-92500000D02*
X89806000Y-91544000D01*
X89000000Y-111500000D02*
X89806000Y-110694000D01*
X89806000Y-110694000D02*
X89806000Y-98636000D01*
X89806000Y-98636000D02*
X89590000Y-98420000D01*
X89806000Y-129394000D02*
X89806000Y-117636000D01*
X88700000Y-130500000D02*
X89806000Y-129394000D01*
X89806000Y-117636000D02*
X89590000Y-117420000D01*
X88500000Y-149500000D02*
X89806000Y-148194000D01*
X89806000Y-136636000D02*
X89590000Y-136420000D01*
X89806000Y-148194000D02*
X89806000Y-136636000D01*
X89806000Y-167694000D02*
X89806000Y-155636000D01*
X89806000Y-155636000D02*
X89590000Y-155420000D01*
X89000000Y-168500000D02*
X89806000Y-167694000D01*
X70806000Y-79636000D02*
X70806000Y-91694000D01*
X70806000Y-91694000D02*
X70000000Y-92500000D01*
X70590000Y-79420000D02*
X70806000Y-79636000D01*
X70806000Y-98636000D02*
X70806000Y-110694000D01*
X70806000Y-110694000D02*
X70000000Y-111500000D01*
X70590000Y-98420000D02*
X70806000Y-98636000D01*
X70806000Y-117636000D02*
X70806000Y-129544000D01*
X70590000Y-117420000D02*
X70806000Y-117636000D01*
X70806000Y-129544000D02*
X69850000Y-130500000D01*
X70590000Y-136420000D02*
X70806000Y-136636000D01*
X70806000Y-136636000D02*
X70806000Y-148544000D01*
X70806000Y-148544000D02*
X69850000Y-149500000D01*
X70806000Y-155636000D02*
X70806000Y-167694000D01*
X70806000Y-167694000D02*
X70000000Y-168500000D01*
X70590000Y-155420000D02*
X70806000Y-155636000D01*
X99650000Y-56150000D02*
X100000000Y-56500000D01*
X99650000Y-53500000D02*
X99650000Y-56150000D01*
X118650000Y-56150000D02*
X119000000Y-56500000D01*
X118650000Y-53500000D02*
X118650000Y-56150000D01*
X138000000Y-53500000D02*
X138000000Y-56500000D01*
X93199997Y-64099997D02*
X93199997Y-53500000D01*
X94600000Y-65500000D02*
X93199997Y-64099997D01*
X86500000Y-66000000D02*
X86402700Y-65902700D01*
X78067300Y-65902700D02*
X76890000Y-67080000D01*
X86402700Y-65902700D02*
X78067300Y-65902700D01*
X89000000Y-68857300D02*
X89000000Y-54100000D01*
X90325735Y-71674265D02*
X90325735Y-55725735D01*
X90325735Y-55725735D02*
X89600000Y-55000000D01*
X65500000Y-54401000D02*
X68000000Y-51901000D01*
X148500000Y-51901000D02*
X148849000Y-52250000D01*
X149349943Y-52000000D02*
X150250000Y-52000000D01*
X59715101Y-66950000D02*
X63658287Y-63006814D01*
X64299265Y-60950735D02*
X65500000Y-59750000D01*
X65500000Y-59750000D02*
X65500000Y-54401000D01*
X148850000Y-52250000D02*
X148999000Y-52101000D01*
X148999000Y-52101000D02*
X149248943Y-52101000D01*
X53875000Y-66950000D02*
X59715101Y-66950000D01*
X149248943Y-52101000D02*
X149349943Y-52000000D01*
X148849000Y-52250000D02*
X148850000Y-52250000D01*
X64299265Y-61950735D02*
X64299265Y-60950735D01*
X150250000Y-52000000D02*
X150750000Y-51500000D01*
X68000000Y-51901000D02*
X148500000Y-51901000D01*
X126749999Y-88750001D02*
X124225000Y-88750001D01*
X137775000Y-88750001D02*
X133990001Y-88750001D01*
X127000000Y-88500000D02*
X126749999Y-88750001D01*
X133990001Y-88750001D02*
X133740000Y-88500000D01*
X132540000Y-88500000D02*
X129000000Y-88500000D01*
X139500000Y-98500000D02*
X139500000Y-94600000D01*
X145000000Y-127000000D02*
X143474999Y-127000000D01*
X139000000Y-117000000D02*
X139000000Y-113600000D01*
X143225000Y-126750001D02*
X143225000Y-121225000D01*
X143225000Y-102225000D02*
X139500000Y-98500000D01*
X145500000Y-145500000D02*
X145249999Y-145750001D01*
X145249999Y-145750001D02*
X143225000Y-145750001D01*
X143225000Y-88750001D02*
X144455999Y-88750001D01*
X143474999Y-108000000D02*
X143225000Y-107750001D01*
X143225000Y-121225000D02*
X139000000Y-117000000D01*
X144455999Y-88750001D02*
X146206000Y-87000000D01*
X143474999Y-127000000D02*
X143225000Y-126750001D01*
X147406000Y-86500000D02*
X149000000Y-84906000D01*
X144000000Y-160500000D02*
X144000000Y-160000000D01*
X144000000Y-160000000D02*
X141000000Y-157000000D01*
X143225000Y-164750001D02*
X144000000Y-163975001D01*
X145000000Y-108000000D02*
X143474999Y-108000000D01*
X149000000Y-84906000D02*
X149000000Y-77825000D01*
X139500000Y-136500000D02*
X139500000Y-132500000D01*
X141000000Y-157000000D02*
X140000000Y-156000000D01*
X149000000Y-77825000D02*
X147175000Y-76000000D01*
X139500000Y-132500000D02*
X139500000Y-132600000D01*
X140000000Y-156000000D02*
X140000000Y-151600000D01*
X143225000Y-140225000D02*
X139500000Y-136500000D01*
X143225000Y-107750001D02*
X143225000Y-102225000D01*
X144000000Y-163975001D02*
X144000000Y-160500000D01*
X143225000Y-145750001D02*
X143225000Y-140225000D01*
X125749999Y-107750001D02*
X124225000Y-107750001D01*
X133990001Y-107750001D02*
X133740000Y-107500000D01*
X137775000Y-107750001D02*
X133990001Y-107750001D01*
X127206000Y-107500000D02*
X126000000Y-107500000D01*
X126000000Y-107500000D02*
X125749999Y-107750001D01*
X124225000Y-126750001D02*
X124475001Y-126500000D01*
X137524999Y-126500000D02*
X137775000Y-126750001D01*
X124475001Y-126500000D02*
X127206000Y-126500000D01*
X136500000Y-126500000D02*
X137524999Y-126500000D01*
X133990001Y-145750001D02*
X133740000Y-145500000D01*
X127206000Y-145500000D02*
X126955999Y-145750001D01*
X126955999Y-145750001D02*
X124225000Y-145750001D01*
X137775000Y-145750001D02*
X133990001Y-145750001D01*
X135000000Y-164500000D02*
X136500000Y-164500000D01*
X124475001Y-164500000D02*
X127206000Y-164500000D01*
X136500000Y-164500000D02*
X136750001Y-164750001D01*
X124225000Y-164750001D02*
X124475001Y-164500000D01*
X136750001Y-164750001D02*
X137775000Y-164750001D01*
X114990001Y-88750001D02*
X118775000Y-88750001D01*
X105225000Y-88750001D02*
X108206000Y-88750001D01*
X114740000Y-88500000D02*
X114990001Y-88750001D01*
X118775000Y-107750001D02*
X114990001Y-107750001D01*
X114990001Y-107750001D02*
X114740000Y-107500000D01*
X107500000Y-107500000D02*
X107249999Y-107750001D01*
X107249999Y-107750001D02*
X105225000Y-107750001D01*
X108206000Y-107500000D02*
X107500000Y-107500000D01*
X105225000Y-126750001D02*
X105475001Y-126500000D01*
X118524999Y-126500000D02*
X118775000Y-126750001D01*
X105475001Y-126500000D02*
X108206000Y-126500000D01*
X117500000Y-126500000D02*
X118524999Y-126500000D01*
X114990001Y-145750001D02*
X118775000Y-145750001D01*
X114740000Y-145500000D02*
X114990001Y-145750001D01*
X107955999Y-145750001D02*
X108206000Y-145500000D01*
X105225000Y-145750001D02*
X107955999Y-145750001D01*
X105225000Y-164750001D02*
X107956001Y-164750001D01*
X116000000Y-164500000D02*
X118524999Y-164500000D01*
X107956001Y-164750001D02*
X108206000Y-165000000D01*
X118524999Y-164500000D02*
X118775000Y-164750001D01*
X86225000Y-88750001D02*
X88955999Y-88750001D01*
X88955999Y-88750001D02*
X89206000Y-88500000D01*
X95740000Y-88500000D02*
X95990001Y-88750001D01*
X95990001Y-88750001D02*
X99775000Y-88750001D01*
X99775000Y-107750001D02*
X95990001Y-107750001D01*
X88000000Y-107500000D02*
X87749999Y-107750001D01*
X95990001Y-107750001D02*
X95740000Y-107500000D01*
X89206000Y-107500000D02*
X88000000Y-107500000D01*
X87749999Y-107750001D02*
X86225000Y-107750001D01*
X86225000Y-126750001D02*
X88955999Y-126750001D01*
X98000000Y-126500000D02*
X99524999Y-126500000D01*
X99524999Y-126500000D02*
X99775000Y-126750001D01*
X88955999Y-126750001D02*
X89206000Y-126500000D01*
X95740000Y-145500000D02*
X99524999Y-145500000D01*
X88955999Y-145750001D02*
X89206000Y-145500000D01*
X86225000Y-145750001D02*
X88955999Y-145750001D01*
X99524999Y-145500000D02*
X99775000Y-145750001D01*
X97500000Y-164500000D02*
X98000000Y-164500000D01*
X86225000Y-164750001D02*
X88955999Y-164750001D01*
X98000000Y-164500000D02*
X98250001Y-164750001D01*
X98250001Y-164750001D02*
X99775000Y-164750001D01*
X88955999Y-164750001D02*
X89206000Y-164500000D01*
X70206000Y-89000000D02*
X69956001Y-88750001D01*
X75540000Y-89000000D02*
X71406000Y-89000000D01*
X76989999Y-88750001D02*
X76740000Y-89000000D01*
X80775000Y-88750001D02*
X76989999Y-88750001D01*
X69956001Y-88750001D02*
X67225000Y-88750001D01*
X80775000Y-107750001D02*
X76990001Y-107750001D01*
X76990001Y-107750001D02*
X76740000Y-107500000D01*
X69955999Y-107750001D02*
X67225000Y-107750001D01*
X70206000Y-107500000D02*
X69955999Y-107750001D01*
X80524999Y-126500000D02*
X80775000Y-126750001D01*
X79000000Y-126500000D02*
X80524999Y-126500000D01*
X69749999Y-126750001D02*
X70000000Y-126500000D01*
X67225000Y-126750001D02*
X69749999Y-126750001D01*
X67475001Y-145500000D02*
X70206000Y-145500000D01*
X76740000Y-145500000D02*
X79000000Y-145500000D01*
X79000000Y-145500000D02*
X79250001Y-145750001D01*
X67225000Y-145750001D02*
X67475001Y-145500000D01*
X79250001Y-145750001D02*
X80775000Y-145750001D01*
X67225000Y-164750001D02*
X69955999Y-164750001D01*
X69955999Y-164750001D02*
X70206000Y-164500000D01*
X78750001Y-164750001D02*
X80775000Y-164750001D01*
X78500000Y-164500000D02*
X78750001Y-164750001D01*
X61100000Y-70000000D02*
X61000000Y-70100000D01*
X85829000Y-73329000D02*
X84000000Y-71500000D01*
X113448528Y-73400000D02*
X112448528Y-72400000D01*
X90671000Y-73329000D02*
X90500000Y-73329000D01*
X146400000Y-73400000D02*
X129948528Y-73400000D01*
X149000000Y-76000000D02*
X146400000Y-73400000D01*
X84000000Y-71500000D02*
X83482700Y-70982700D01*
X75482700Y-70982700D02*
X74500000Y-70000000D01*
X83482700Y-70982700D02*
X75482700Y-70982700D01*
X110500000Y-72400000D02*
X95199000Y-72400000D01*
X74500000Y-70000000D02*
X61100000Y-70000000D01*
X90500000Y-73329000D02*
X85829000Y-73329000D01*
X95199000Y-72400000D02*
X94500000Y-71701000D01*
X122448527Y-73400000D02*
X113448528Y-73400000D01*
X93207815Y-70792185D02*
X90671000Y-73329000D01*
X93235000Y-76500000D02*
X94000000Y-75735000D01*
X76140000Y-119960000D02*
X76140000Y-138960000D01*
X76140000Y-100960000D02*
X76140000Y-119960000D01*
X76140000Y-81960000D02*
X76140000Y-100960000D01*
X94000000Y-75735000D02*
X126000000Y-75735000D01*
X126765000Y-76500000D02*
X128500000Y-76500000D01*
X76140000Y-81960000D02*
X81600000Y-76500000D01*
X126000000Y-75735000D02*
X126765000Y-76500000D01*
X76140000Y-138960000D02*
X76140000Y-157960000D01*
X81600000Y-76500000D02*
X82500000Y-76500000D01*
X82500000Y-76500000D02*
X93235000Y-76500000D01*
X114140000Y-119960000D02*
X114140000Y-138960000D01*
X127166000Y-81960000D02*
X127206000Y-82000000D01*
X114140000Y-100960000D02*
X114140000Y-119960000D01*
X115865000Y-81960000D02*
X127166000Y-81960000D01*
X114140000Y-81960000D02*
X114140000Y-100960000D01*
X114140000Y-138960000D02*
X114140000Y-157960000D01*
X101000000Y-75334000D02*
X127301000Y-75334000D01*
X57140000Y-138960000D02*
X57140000Y-119960000D01*
X63100000Y-76000000D02*
X93000000Y-76000000D01*
X57140000Y-119960000D02*
X57140000Y-100960000D01*
X97500000Y-75334000D02*
X101000000Y-75334000D01*
X57140000Y-157960000D02*
X57140000Y-138960000D01*
X57140000Y-81960000D02*
X63100000Y-76000000D01*
X127301000Y-75334000D02*
X127500000Y-75533000D01*
X93666000Y-75334000D02*
X97500000Y-75334000D01*
X57140000Y-100960000D02*
X57140000Y-81960000D01*
X93000000Y-76000000D02*
X93666000Y-75334000D01*
X99864000Y-76136000D02*
X100000000Y-76136000D01*
X95140000Y-157960000D02*
X95140000Y-138960000D01*
X95140000Y-100960000D02*
X95140000Y-81960000D01*
X100000000Y-76136000D02*
X125833900Y-76136000D01*
X95140000Y-138960000D02*
X95140000Y-119960000D01*
X95140000Y-100960000D02*
X95140000Y-119960000D01*
X95140000Y-81960000D02*
X95140000Y-80860000D01*
X125833900Y-76136000D02*
X126886825Y-77188925D01*
X95140000Y-80860000D02*
X99864000Y-76136000D01*
X126886825Y-77188925D02*
X129340396Y-77188925D01*
X130000000Y-77000000D02*
X127933000Y-74933000D01*
X127500000Y-74933000D02*
X92970494Y-74933000D01*
X133140000Y-119960000D02*
X133140000Y-100960000D01*
X133140000Y-100960000D02*
X133140000Y-81960000D01*
X133140000Y-80140000D02*
X130000000Y-77000000D01*
X127933000Y-74933000D02*
X127500000Y-74933000D01*
X133140000Y-81960000D02*
X133140000Y-80140000D01*
X133140000Y-138960000D02*
X133140000Y-119960000D01*
X92970494Y-74933000D02*
X92771494Y-75132000D01*
X133140000Y-157960000D02*
X133140000Y-138960000D01*
X54050000Y-63950000D02*
X55000000Y-63000000D01*
X55000000Y-63000000D02*
X55000000Y-60500000D01*
X53875000Y-63950000D02*
X54050000Y-63950000D01*
X54000000Y-59500000D02*
X54000000Y-58500000D01*
X55000000Y-60500000D02*
X54000000Y-59500000D01*
M02*
