M48
; DRILL file {KiCad 9.0.7} date 2026-02-15T13:29:55+0500
; FORMAT={-:-/ absolute / metric / decimal}
; #@! TF.CreationDate,2026-02-15T13:29:55+05:00
; #@! TF.GenerationSoftware,Kicad,Pcbnew,9.0.7
; #@! TF.FileFunction,Plated,1,2,PTH
FMAT,2
METRIC
; #@! TA.AperFunction,Plated,PTH,ViaDrill
T1C0.300
; #@! TA.AperFunction,Plated,PTH,ComponentDrill
T2C0.750
; #@! TA.AperFunction,Plated,PTH,ComponentDrill
T3C1.000
; #@! TA.AperFunction,Plated,PTH,ComponentDrill
T4C1.092
; #@! TA.AperFunction,Plated,PTH,ComponentDrill
T5C2.600
; #@! TA.AperFunction,Plated,PTH,ComponentDrill
T6C3.000
%
G90
G05
T1
X50.9Y-90.5
X50.9Y-110.0
X50.9Y-128.5
X50.9Y-147.5
X50.9Y-166.0
X52.0Y-77.0
X52.0Y-170.0
X52.5Y-151.0
X52.7Y-76.5
X53.3Y-75.654
X53.5Y-132.0
X53.9Y-75.066
X54.0Y-58.5
X54.0Y-113.0
X54.4Y-61.0
X54.5Y-74.5
X54.5Y-94.0
X56.5Y-69.5
X57.0Y-68.5
X57.5Y-170.0
X57.74Y-90.5
X57.74Y-94.0
X57.74Y-109.5
X57.74Y-113.0
X57.74Y-128.5
X57.74Y-132.0
X57.74Y-147.5
X57.74Y-151.0
X58.0Y-166.0
X58.5Y-59.0
X59.0Y-73.9
X59.71Y-69.5
X61.0Y-70.1
X61.05Y-59.0
X61.5Y-51.5
X61.5Y-149.5
X62.0Y-111.5
X62.0Y-130.5
X62.25Y-59.0
X63.658Y-63.007
X64.0Y-65.0
X64.299Y-61.951
X67.33Y-64.5
X67.33Y-68.5
X67.424Y-63.424
X67.5Y-168.5
X68.5Y-166.5
X68.826Y-90.826
X69.0Y-128.0
X69.155Y-62.6
X69.27Y-73.73
X69.5Y-147.0
X70.0Y-126.5
X70.206Y-89.0
X70.206Y-90.5
X70.206Y-107.5
X70.206Y-109.0
X70.206Y-145.5
X70.206Y-164.5
X71.125Y-74.375
X71.406Y-89.0
X71.406Y-90.5
X71.406Y-166.5
X73.25Y-74.75
X75.5Y-132.0
X75.54Y-89.0
X75.54Y-90.5
X75.54Y-94.0
X75.54Y-113.0
X75.54Y-151.0
X76.74Y-89.0
X76.74Y-90.5
X76.74Y-94.0
X76.74Y-107.5
X76.74Y-113.0
X76.74Y-128.5
X76.74Y-132.0
X76.74Y-145.5
X76.74Y-147.5
X76.74Y-151.0
X78.5Y-164.5
X79.0Y-126.5
X80.5Y-111.5
X80.5Y-130.5
X81.0Y-149.5
X81.5Y-168.5
X82.737Y-167.821
X85.5Y-92.0
X86.0Y-110.9
X86.5Y-66.0
X86.5Y-169.1
X87.826Y-90.826
X88.0Y-128.5
X88.5Y-147.0
X89.0Y-54.1
X89.0Y-68.857
X89.0Y-90.5
X89.206Y-88.5
X89.206Y-107.5
X89.206Y-109.0
X89.206Y-126.5
X89.206Y-145.5
X89.206Y-164.5
X89.6Y-55.0
X90.326Y-71.674
X90.406Y-90.5
X90.926Y-62.0
X92.771Y-75.132
X93.2Y-53.5
X93.208Y-70.792
X94.0Y-53.5
X94.0Y-71.0
X94.5Y-71.701
X94.5Y-90.5
X94.5Y-132.0
X94.5Y-151.0
X94.54Y-94.0
X94.54Y-113.0
X94.6Y-65.5
X95.674Y-65.826
X95.74Y-88.5
X95.74Y-90.5
X95.74Y-94.0
X95.74Y-107.5
X95.74Y-113.0
X95.74Y-129.0
X95.74Y-132.0
X95.74Y-145.5
X95.74Y-147.0
X95.74Y-151.0
X97.5Y-164.5
X97.5Y-166.0
X98.0Y-126.5
X99.5Y-111.5
X99.5Y-130.5
X100.0Y-149.5
X100.0Y-168.5
X105.0Y-92.0
X105.0Y-110.9
X105.0Y-168.4
X107.0Y-147.5
X107.076Y-90.576
X107.5Y-128.0
X108.124Y-167.224
X108.206Y-88.75
X108.206Y-90.5
X108.206Y-107.5
X108.206Y-109.5
X108.206Y-126.5
X108.206Y-145.5
X108.206Y-165.0
X109.5Y-90.5
X109.5Y-167.0
X110.5Y-72.4
X112.4Y-68.5
X112.449Y-72.4
X113.0Y-53.5
X113.0Y-71.0
X113.54Y-90.5
X113.54Y-94.0
X113.54Y-113.0
X113.54Y-132.0
X113.54Y-151.0
X113.6Y-68.5
X114.74Y-88.5
X114.74Y-90.5
X114.74Y-94.0
X114.74Y-107.5
X114.74Y-113.0
X114.74Y-132.0
X114.74Y-145.5
X114.74Y-148.0
X114.74Y-151.0
X115.0Y-128.5
X116.0Y-164.5
X116.0Y-166.0
X117.5Y-126.5
X118.5Y-111.5
X119.0Y-130.5
X119.0Y-149.5
X119.0Y-168.0
X122.449Y-73.4
X124.0Y-110.9
X124.326Y-92.326
X126.076Y-90.576
X126.5Y-128.0
X126.5Y-147.0
X127.0Y-88.5
X127.174Y-167.174
X127.206Y-82.0
X127.206Y-90.0
X127.206Y-107.5
X127.206Y-109.0
X127.206Y-126.5
X127.206Y-145.5
X127.206Y-164.5
X127.5Y-75.533
X128.406Y-90.0
X128.406Y-166.0
X128.5Y-76.5
X129.0Y-88.5
X129.34Y-77.189
X129.949Y-73.4
X131.4Y-68.5
X132.0Y-53.5
X132.0Y-70.5
X132.5Y-132.0
X132.54Y-88.5
X132.54Y-90.0
X132.54Y-94.0
X132.54Y-113.0
X132.54Y-151.0
X132.6Y-68.5
X133.74Y-88.5
X133.74Y-90.0
X133.74Y-94.0
X133.74Y-107.5
X133.74Y-113.0
X133.74Y-129.5
X133.74Y-132.0
X133.74Y-145.5
X133.74Y-148.5
X133.74Y-151.0
X135.0Y-164.5
X136.5Y-110.9
X136.5Y-126.5
X137.5Y-111.0
X137.5Y-130.5
X137.5Y-149.5
X139.0Y-113.6
X139.5Y-94.6
X139.5Y-132.6
X140.0Y-151.6
X143.0Y-91.5
X143.0Y-168.0
X145.0Y-108.0
X145.0Y-127.0
X145.5Y-145.5
X146.206Y-87.0
X146.206Y-87.849
X146.206Y-108.5
X146.206Y-127.5
X146.206Y-146.5
X147.406Y-86.5
X149.0Y-51.5
X149.5Y-167.0
X150.5Y-167.0
T2
X150.75Y-51.5
X152.75Y-51.5
T3
X100.0Y-56.5
X100.0Y-71.0
X102.5Y-71.0
X105.0Y-56.5
X105.0Y-71.0
X119.0Y-56.5
X119.0Y-71.0
X121.5Y-71.0
X124.0Y-56.5
X124.0Y-71.0
X138.0Y-56.5
X138.0Y-71.0
X140.5Y-71.0
X143.0Y-56.5
X143.0Y-71.0
T4
X54.03Y-56.92
X54.03Y-72.16
X56.57Y-56.92
X56.57Y-72.16
X59.11Y-56.92
X59.11Y-72.16
X61.65Y-56.92
X61.65Y-72.16
X64.19Y-56.92
X64.19Y-72.16
X66.73Y-56.92
X66.73Y-72.16
X69.27Y-56.92
X69.27Y-72.16
X71.81Y-56.92
X71.81Y-72.16
X74.35Y-56.92
X74.35Y-72.16
X76.89Y-56.92
X76.89Y-64.54
X76.89Y-67.08
X76.89Y-69.62
X76.89Y-72.16
X79.43Y-56.92
X79.43Y-72.16
X81.97Y-56.92
X81.97Y-72.16
X84.5Y-59.46
X84.5Y-62.0
X84.5Y-64.54
X84.5Y-67.08
X84.5Y-69.62
T5
X96.9Y-63.5
X108.1Y-63.5
X115.9Y-63.5
X127.1Y-63.5
X134.9Y-63.5
X146.1Y-63.5
T6
X60.69Y-81.96
X60.69Y-100.96
X60.69Y-119.96
X60.69Y-138.96
X60.69Y-157.96
X67.04Y-79.42
X67.04Y-98.42
X67.04Y-117.42
X67.04Y-136.42
X67.04Y-155.42
X79.69Y-81.96
X79.69Y-100.96
X79.69Y-119.96
X79.69Y-138.96
X79.69Y-157.96
X86.04Y-79.42
X86.04Y-98.42
X86.04Y-117.42
X86.04Y-136.42
X86.04Y-155.42
X98.69Y-81.96
X98.69Y-100.96
X98.69Y-119.96
X98.69Y-138.96
X98.69Y-157.96
X105.04Y-79.42
X105.04Y-98.42
X105.04Y-117.42
X105.04Y-136.42
X105.04Y-155.42
X117.69Y-81.96
X117.69Y-100.96
X117.69Y-119.96
X117.69Y-138.96
X117.69Y-157.96
X124.04Y-79.42
X124.04Y-98.42
X124.04Y-117.42
X124.04Y-136.42
X124.04Y-155.42
X136.69Y-81.96
X136.69Y-100.96
X136.69Y-119.96
X136.69Y-138.96
X136.69Y-157.96
X143.04Y-79.42
X143.04Y-98.42
X143.04Y-117.42
X143.04Y-136.42
X143.04Y-155.42
M30
